<svg width="60" height="65" viewBox="0 0 60 65" fill="none" xmlns="http://www.w3.org/2000/svg">
<g clip-path="url(#clip0_2921_23038)">
<path d="M30.0319 64.0246C28.754 64.0246 27.5399 63.7052 26.3898 63.1301L4.02556 50.8617C1.53355 49.456 0 46.8362 0 44.0885V20.063C0 17.3154 1.53355 14.6956 3.96166 13.3537L26.3259 1.08535C28.6262 -0.12871 31.3738 -0.12871 33.6741 1.08535L56.0383 13.3537C58.5304 14.7595 60 17.3154 60 20.1269V44.1524C60 46.9 58.4665 49.5199 56.0383 50.8617L33.6741 63.1301C32.5879 63.7052 31.3099 64.0246 30.0319 64.0246ZM30.0319 2.68279C29.2013 2.68279 28.3067 2.87449 27.5399 3.32177L5.17572 15.5901C3.51438 16.4847 2.49201 18.2099 2.49201 20.063V44.0885C2.49201 45.9416 3.51438 47.6668 5.17572 48.6253L27.5399 60.8937C29.0735 61.7243 30.9265 61.7243 32.4601 60.8937L54.8243 48.6253C56.4856 47.7307 57.508 46.0055 57.508 44.1524V20.063C57.508 18.2099 56.4856 16.4847 54.8243 15.5262L32.4601 3.32177C31.6933 2.87449 30.8626 2.68279 30.0319 2.68279Z" fill="black"/>
<path d="M49.2006 27.8588C45.4306 27.8588 43.5776 25.8141 41.8524 24.0249C40.3188 22.4275 39.0409 21.0217 36.421 21.0217C33.8012 21.0217 32.4594 22.4275 30.9897 24.0249C29.3284 25.8141 27.4115 27.8588 23.6415 27.8588C19.8715 27.8588 18.0185 25.8141 16.2932 24.0249C14.7597 22.4275 13.4817 21.0217 10.8619 21.0217C10.1591 21.0217 9.58398 20.4467 9.58398 19.7438C9.58398 19.0409 10.1591 18.4658 10.8619 18.4658C14.6319 18.4658 16.4849 20.5105 18.2102 22.2997C19.7437 23.8971 21.0217 25.3029 23.6415 25.3029C26.2613 25.3029 27.6032 23.8971 29.0728 22.2997C30.7341 20.5105 32.6511 18.4658 36.421 18.4658C40.191 18.4658 42.044 20.5105 43.7693 22.2997C45.3028 23.8971 46.5808 25.3029 49.2006 25.3029C49.9035 25.3029 50.4786 25.878 50.4786 26.5808C50.4786 27.2837 49.9035 27.8588 49.2006 27.8588Z" fill="black"/>
<path d="M31.5651 54.8249C30.8622 54.8249 30.2871 54.2498 30.2871 53.5469V50.6715C30.2871 49.9686 30.8622 49.3936 31.5651 49.3936C32.2679 49.3936 32.843 49.9686 32.843 50.6715V53.5469C32.843 54.2498 32.2679 54.8249 31.5651 54.8249Z" fill="black"/>
<path d="M31.5651 45.6228C30.8622 45.6228 30.2871 45.0478 30.2871 44.3449V42.0446C30.2871 41.3417 30.8622 40.7666 31.5651 40.7666C32.2679 40.7666 32.843 41.3417 32.843 42.0446V44.3449C32.843 45.0478 32.2679 45.6228 31.5651 45.6228Z" fill="black"/>
<path d="M28.4337 48.7542H26.1334C25.4305 48.7542 24.8555 48.1791 24.8555 47.4762C24.8555 46.7733 25.4305 46.1982 26.1334 46.1982H28.4337C29.1366 46.1982 29.7117 46.7733 29.7117 47.4762C29.7117 48.1791 29.1366 48.7542 28.4337 48.7542Z" fill="black"/>
<path d="M39.9358 48.7542H35.8463C35.1434 48.7542 34.5684 48.1791 34.5684 47.4762C34.5684 46.7733 35.1434 46.1982 35.8463 46.1982H39.9358C40.6386 46.1982 41.2137 46.7733 41.2137 47.4762C41.2137 48.1791 40.6386 48.7542 39.9358 48.7542Z" fill="black"/>
<path d="M25.3668 54.9518C25.0473 54.9518 24.7278 54.824 24.4723 54.5684C23.9611 54.0573 23.9611 53.2905 24.4723 52.7793L27.7949 49.4566C28.3061 48.9454 29.0729 48.9454 29.5841 49.4566C30.0953 49.9678 30.0953 50.7346 29.5841 51.2458L26.2614 54.5684C26.0058 54.824 25.6863 54.9518 25.3668 54.9518Z" fill="black"/>
<path d="M34.5045 47.0288C34.185 47.0288 33.8655 46.901 33.6099 46.6454C33.0988 46.1342 33.0988 45.3674 33.6099 44.8563L35.2713 43.1949C35.7825 42.6837 36.5492 42.6837 37.0604 43.1949C37.5716 43.7061 37.5716 44.4729 37.0604 44.984L35.3991 46.6454C35.1435 46.901 34.824 47.0288 34.5045 47.0288Z" fill="black"/>
<path d="M29.3926 46.5173C29.137 46.5173 28.8175 46.4535 28.6258 46.2618L25.8143 44.0253C25.2392 43.5781 25.1753 42.8113 25.6226 42.2362C26.0699 41.6611 26.8367 41.5972 27.4118 42.0445L30.2233 44.2809C30.7984 44.7282 30.8622 45.495 30.415 46.0701C30.1594 46.3257 29.776 46.5173 29.3926 46.5173Z" fill="black"/>
<path d="M36.0379 53.226C35.7184 53.226 35.399 53.0982 35.1434 52.8427L33.482 51.1813C32.9708 50.6701 32.9708 49.9034 33.482 49.3922C33.9932 48.881 34.76 48.881 35.2712 49.3922L36.9325 51.0535C37.4437 51.5647 37.4437 52.3315 36.9325 52.8427C36.6769 53.0982 36.3574 53.226 36.0379 53.226Z" fill="black"/>
<path d="M31.9486 51.8852C29.3288 51.8852 27.1562 50.0961 27.1562 47.9236C27.1562 45.7511 29.3288 43.9619 31.9486 43.9619C34.5684 43.9619 36.7409 45.7511 36.7409 47.9236C36.7409 50.0961 34.5684 51.8852 31.9486 51.8852ZM31.9486 46.5178C30.6067 46.5178 29.7122 47.2846 29.7122 47.9236C29.7122 48.5626 30.6067 49.3293 31.9486 49.3293C33.2904 49.3293 34.185 48.5626 34.185 47.9236C34.185 47.2846 33.2904 46.5178 31.9486 46.5178Z" fill="black"/>
<path d="M16.0387 43.5143C15.3358 43.5143 14.7607 42.9392 14.7607 42.2364V39.361C14.7607 38.6581 15.3358 38.083 16.0387 38.083C16.7416 38.083 17.3167 38.6581 17.3167 39.361V42.2364C17.3167 42.9392 16.7416 43.5143 16.0387 43.5143Z" fill="black"/>
<path d="M16.0387 34.3762C15.3358 34.3762 14.7607 33.8011 14.7607 33.0982V30.734C14.7607 30.0311 15.3358 29.4561 16.0387 29.4561C16.7416 29.4561 17.3167 30.0311 17.3167 30.734V33.0982C17.3167 33.8011 16.7416 34.3762 16.0387 34.3762Z" fill="black"/>
<path d="M12.9074 37.5061H10.6071C9.90418 37.5061 9.3291 36.931 9.3291 36.2282C9.3291 35.5253 9.90418 34.9502 10.6071 34.9502H12.9074C13.6103 34.9502 14.1853 35.5253 14.1853 36.2282C14.1853 36.931 13.6103 37.5061 12.9074 37.5061Z" fill="black"/>
<path d="M24.4094 37.5061H20.3199C19.6171 37.5061 19.042 36.931 19.042 36.2282C19.042 35.5253 19.6171 34.9502 20.3199 34.9502H24.4094C25.1123 34.9502 25.6874 35.5253 25.6874 36.2282C25.6874 36.931 25.1123 37.5061 24.4094 37.5061Z" fill="black"/>
<path d="M9.84045 43.7057C9.52097 43.7057 9.20148 43.5779 8.94589 43.3224C8.4347 42.8112 8.4347 42.0444 8.94589 41.5332L12.2686 38.2105C12.7798 37.6994 13.5465 37.6994 14.0577 38.2105C14.5689 38.7217 14.5689 39.4885 14.0577 39.9997L10.735 43.3224C10.4794 43.5779 10.1599 43.7057 9.84045 43.7057Z" fill="black"/>
<path d="M18.9137 35.7827C18.5942 35.7827 18.2747 35.6549 18.0191 35.3993C17.5079 34.8881 17.5079 34.1213 18.0191 33.6102L19.6805 31.9488C20.1917 31.4376 20.9584 31.4376 21.4696 31.9488C21.9808 32.46 21.9808 33.2268 21.4696 33.738L19.8083 35.3993C19.5527 35.6549 19.2332 35.7827 18.9137 35.7827Z" fill="black"/>
<path d="M13.8018 35.2713C13.5462 35.2713 13.2267 35.2074 13.035 35.0157L10.2235 32.7792C9.64843 32.332 9.58453 31.5652 10.0318 30.9901C10.4791 30.415 11.2459 30.3511 11.8209 30.7984L14.6325 33.0348C15.2075 33.4821 15.2714 34.2489 14.8241 34.824C14.5686 35.0796 14.1852 35.2713 13.8018 35.2713Z" fill="black"/>
<path d="M20.5112 41.9166C20.1917 41.9166 19.8722 41.7888 19.6166 41.5332L17.9553 39.9358C17.4441 39.4246 17.4441 38.6578 17.8914 38.1467C18.4025 37.6355 19.1693 37.6355 19.6805 38.0828L21.3418 39.6802C21.853 40.1914 21.853 40.9582 21.4057 41.4693C21.1501 41.7888 20.8306 41.9166 20.5112 41.9166Z" fill="black"/>
<path d="M16.4222 40.6372C13.8024 40.6372 11.6299 38.8481 11.6299 36.6755C11.6299 34.503 13.8024 32.7139 16.4222 32.7139C19.042 32.7139 21.2145 34.503 21.2145 36.6755C21.2145 38.8481 19.042 40.6372 16.4222 40.6372ZM16.4222 35.2698C15.0804 35.2698 14.1858 36.0366 14.1858 36.6755C14.1858 37.3145 15.0804 38.0813 16.4222 38.0813C17.7641 38.0813 18.6586 37.3145 18.6586 36.6755C18.6586 36.0366 17.7641 35.2698 16.4222 35.2698Z" fill="black"/>
<path d="M44.5367 43.1296C43.8339 43.1296 43.2588 42.5545 43.2588 41.8516V38.9762C43.2588 38.2733 43.8339 37.6982 44.5367 37.6982C45.2396 37.6982 45.8147 38.2733 45.8147 38.9762V41.8516C45.8147 42.5545 45.2396 43.1296 44.5367 43.1296Z" fill="black"/>
<path d="M44.5367 33.9914C43.8339 33.9914 43.2588 33.4163 43.2588 32.7135V30.3492C43.2588 29.6464 43.8339 29.0713 44.5367 29.0713C45.2396 29.0713 45.8147 29.6464 45.8147 30.3492V32.7135C45.8147 33.4163 45.2396 33.9914 44.5367 33.9914Z" fill="black"/>
<path d="M49.9689 37.1213H47.6686C46.9657 37.1213 46.3906 36.5463 46.3906 35.8434C46.3906 35.1405 46.9657 34.5654 47.6686 34.5654H49.9689C50.6718 34.5654 51.2469 35.1405 51.2469 35.8434C51.2469 36.5463 50.6718 37.1213 49.9689 37.1213Z" fill="black"/>
<path d="M40.1922 37.1213H36.1666C35.4638 37.1213 34.8887 36.5463 34.8887 35.8434C34.8887 35.1405 35.4638 34.5654 36.1666 34.5654H40.1922C40.8951 34.5654 41.4701 35.1405 41.4701 35.8434C41.4701 36.5463 40.8951 37.1213 40.1922 37.1213Z" fill="black"/>
<path d="M50.7354 43.321C50.4159 43.321 50.0964 43.1932 49.8408 42.9376L46.5182 39.6149C46.007 39.1037 46.007 38.337 46.5182 37.8258C47.0293 37.3146 47.7961 37.3146 48.3073 37.8258L51.63 41.1485C52.1412 41.6596 52.1412 42.4264 51.63 42.9376C51.3744 43.1932 51.0549 43.321 50.7354 43.321Z" fill="black"/>
<path d="M41.5985 35.3979C41.279 35.3979 40.9595 35.2701 40.7039 35.0145L39.0426 33.3532C38.5314 32.842 38.5314 32.0752 39.0426 31.5641C39.5537 31.0529 40.3205 31.0529 40.8317 31.5641L42.493 33.2254C43.0042 33.7366 43.0042 34.5033 42.493 35.0145C42.2375 35.2701 41.918 35.3979 41.5985 35.3979Z" fill="black"/>
<path d="M46.7099 34.8854C46.3265 34.8854 45.9431 34.6937 45.6875 34.3742C45.2402 33.7991 45.368 33.0324 45.8792 32.5851L48.6907 30.3486C49.2658 29.9014 50.0326 30.0292 50.4798 30.5403C50.9271 31.1154 50.7993 31.8822 50.2882 32.3295L47.4767 34.6298C47.285 34.8215 46.9655 34.8854 46.7099 34.8854Z" fill="black"/>
<path d="M40.0639 41.5301C39.7444 41.5301 39.4249 41.4023 39.1693 41.1467C38.6582 40.6356 38.7221 39.8049 39.2332 39.3576L40.8946 37.7602C41.4058 37.249 42.2364 37.3129 42.6837 37.8241C43.131 38.3352 43.131 39.1659 42.6198 39.6132L40.9585 41.2106C40.7029 41.4023 40.3834 41.5301 40.0639 41.5301Z" fill="black"/>
<path d="M44.1537 40.2524C41.5338 40.2524 39.3613 38.4633 39.3613 36.2908C39.3613 34.1182 41.5338 32.3291 44.1537 32.3291C46.7735 32.3291 48.946 34.1182 48.946 36.2908C48.946 38.4633 46.7735 40.2524 44.1537 40.2524ZM44.1537 34.885C42.8118 34.885 41.9172 35.6518 41.9172 36.2908C41.9172 36.9297 42.8118 37.6965 44.1537 37.6965C45.4955 37.6965 46.3901 36.9297 46.3901 36.2908C46.3901 35.6518 45.4955 34.885 44.1537 34.885Z" fill="black"/>
</g>
<defs>
<clipPath id="clip0_2921_23038">
<rect width="60" height="65" fill="white"/>
</clipPath>
</defs>
</svg>
