<svg width="60" height="65" viewBox="0 0 60 65" fill="none" xmlns="http://www.w3.org/2000/svg">
<g clip-path="url(#clip0_2921_22837)">
<path d="M29.9681 64.7949C28.6901 64.7949 27.476 64.4754 26.3259 63.9003L3.96166 51.632C1.46965 50.2262 0 47.6703 0 44.8588V20.8332C0 18.0217 1.46965 15.4658 3.96166 14.124L26.3259 1.85561C28.6262 0.641554 31.3738 0.641554 33.6741 1.85561L56.0383 14.124C58.5304 15.5297 60 18.0217 60 20.8971V44.9227C60 47.7342 58.5304 50.2901 56.0383 51.632L33.6741 63.9003C32.4601 64.4754 31.1821 64.7949 29.9681 64.7949ZM29.9681 3.45306C29.1374 3.45306 28.2428 3.64475 27.476 4.09203L5.11182 16.2965C3.45048 17.255 2.42812 18.9163 2.42812 20.7693V44.7949C2.42812 46.6479 3.45048 48.3732 5.11182 49.3316L27.476 61.6C29.0096 62.4307 30.8626 62.4307 32.3962 61.6L54.7604 49.3316C56.4217 48.3732 57.4441 46.7118 57.4441 44.8588V20.8332C57.4441 18.9802 56.4217 17.255 54.7604 16.2965L32.3962 4.02814C31.6294 3.64475 30.7987 3.45306 29.9681 3.45306Z" fill="black"/>
<path d="M36.8697 50.0329H21.4064C19.17 50.0329 17.3809 48.2438 17.3809 46.0074V23.2598C17.3809 20.0649 20.0007 17.4451 23.1956 17.4451H34.5694C37.7642 17.4451 40.5118 19.9371 40.8313 23.132C40.8952 23.8348 40.3841 24.4738 39.6812 24.5377C38.9783 24.6016 38.3393 24.0904 38.2754 23.3876C38.0837 21.4706 36.4863 20.001 34.5694 20.001H23.1956C21.4064 20.001 19.9368 21.4706 19.9368 23.2598V46.0074C19.9368 46.838 20.5757 47.477 21.4064 47.477H36.8697C37.7003 47.477 38.3393 46.838 38.3393 46.0074V26.7741C38.3393 26.0713 38.9144 25.4962 39.6173 25.4962C40.3202 25.4962 40.8952 26.0713 40.8952 26.7741V46.0074C40.8952 48.2438 39.1061 50.0329 36.8697 50.0329Z" fill="black"/>
<path d="M45.2403 24.5381H18.6588C17.9559 24.5381 17.3809 23.963 17.3809 23.2601C17.3809 22.5573 17.9559 21.9822 18.6588 21.9822H45.2403C45.9432 21.9822 46.5182 22.5573 46.5182 23.2601C46.5182 23.963 45.9432 24.5381 45.2403 24.5381Z" fill="black"/>
<path d="M27.6684 28.0518H19.5533C18.8505 28.0518 18.2754 27.4767 18.2754 26.7738C18.2754 26.0709 18.8505 25.4958 19.5533 25.4958H27.6684C28.3712 25.4958 28.9463 26.0709 28.9463 26.7738C28.9463 27.4767 28.3712 28.0518 27.6684 28.0518Z" fill="black"/>
<path d="M45.2403 28.0518H31.2467C30.5438 28.0518 29.9688 27.4767 29.9688 26.7738C29.9688 26.0709 30.5438 25.4958 31.2467 25.4958H45.2403C45.9432 25.4958 46.5183 26.0709 46.5183 26.7738C46.5183 27.4767 45.9432 28.0518 45.2403 28.0518Z" fill="black"/>
<path d="M27.6686 45.56C26.9657 45.56 26.3906 44.9849 26.3906 44.2821V27.0297C26.3906 26.3268 26.9657 25.7517 27.6686 25.7517C28.3715 25.7517 28.9465 26.3268 28.9465 27.0297V44.2821C28.9465 44.9849 28.3715 45.56 27.6686 45.56Z" fill="black"/>
<path d="M31.2467 33.4831C30.5438 33.4831 29.9688 32.908 29.9688 32.2051V26.7738C29.9688 26.0709 30.5438 25.4958 31.2467 25.4958C31.9496 25.4958 32.5247 26.0709 32.5247 26.7738V32.2051C32.5247 32.908 31.9496 33.4831 31.2467 33.4831Z" fill="black"/>
<path d="M27.7322 40.5116C27.9239 41.2784 27.2849 41.9174 26.5181 41.7257C25.8792 41.534 25.1763 41.2145 24.6012 40.7033C23.3232 39.4253 23.3232 37.3806 23.3232 37.3806C23.3232 37.3806 25.4319 37.3806 26.6459 38.6586C27.221 39.1059 27.5405 39.8726 27.7322 40.5116Z" fill="black"/>
<path d="M27.7322 32.8436C27.9239 33.6104 27.2849 34.2494 26.5181 34.0577C25.8792 33.866 25.1763 33.5465 24.6012 33.0353C23.3232 31.7574 23.3232 29.7126 23.3232 29.7126C23.3232 29.7126 25.4319 29.7126 26.6459 30.9906C27.221 31.4379 27.5405 32.2047 27.7322 32.8436Z" fill="black"/>
<path d="M27.7319 38.2757C26.9652 38.3396 26.454 37.5728 26.7735 36.8699C27.0291 36.2949 27.4764 35.592 28.1792 35.1447C29.6489 34.1223 31.6936 34.5057 31.6936 34.5057C31.6936 34.5057 31.3102 36.5504 29.8406 37.5728C29.1377 38.0201 28.3709 38.2118 27.7319 38.2757Z" fill="black"/>
<path d="M45.3043 32.3963C44.6014 32.3963 44.0264 31.8212 44.0264 31.1183V18.85C44.0264 18.1471 44.6014 17.572 45.3043 17.572C46.0072 17.572 46.5823 18.1471 46.5823 18.85V31.1183C46.5823 31.8212 46.0072 32.3963 45.3043 32.3963Z" fill="black"/>
<path d="M35.7835 31.8227C36.3835 31.8227 36.8698 31.3363 36.8698 30.7364C36.8698 30.1365 36.3835 29.6501 35.7835 29.6501C35.1836 29.6501 34.6973 30.1365 34.6973 30.7364C34.6973 31.3363 35.1836 31.8227 35.7835 31.8227Z" fill="black"/>
<path d="M34.1224 36.9965C34.7223 36.9965 35.2087 36.5102 35.2087 35.9102C35.2087 35.3103 34.7223 34.824 34.1224 34.824C33.5225 34.824 33.0361 35.3103 33.0361 35.9102C33.0361 36.5102 33.5225 36.9965 34.1224 36.9965Z" fill="black"/>
<path d="M21.7259 36.0395C22.3258 36.0395 22.8122 35.5531 22.8122 34.9532C22.8122 34.3533 22.3258 33.8669 21.7259 33.8669C21.126 33.8669 20.6396 34.3533 20.6396 34.9532C20.6396 35.5531 21.126 36.0395 21.7259 36.0395Z" fill="black"/>
<path d="M24.4089 46.1351C21.5974 46.1351 19.1693 44.8572 17.9552 43.7709C17.444 43.3236 17.3801 42.4929 17.8274 41.9818C18.2747 41.4706 19.1054 41.4067 19.6166 41.854C19.8083 42.0457 24.5367 46.0073 29.8402 41.3428C34.3131 37.3811 38.4025 36.806 39.6805 37.1255C40.3833 37.3172 40.7667 38.0201 40.6389 38.6591C40.4472 39.362 39.7444 39.7453 39.1054 39.6175C38.5303 39.5536 35.3993 39.8731 31.5655 43.3236C29.0734 45.4322 26.5814 46.1351 24.4089 46.1351Z" fill="black"/>
</g>
<defs>
<clipPath id="clip0_2921_22837">
<rect width="60" height="65" fill="white"/>
</clipPath>
</defs>
</svg>
