<svg width="60" height="65" viewBox="0 0 60 65" fill="none" xmlns="http://www.w3.org/2000/svg">
<path d="M30.0319 64.0726C28.754 64.0726 27.476 63.7531 26.3259 63.1141L3.96166 50.8457C1.53355 49.5039 0 46.948 0 44.1365V20.1109C0 17.2994 1.53355 14.7435 3.96166 13.4016L26.3259 1.13327C28.6262 -0.144684 31.3738 -0.144684 33.6741 1.13327L56.0383 13.4016C58.4665 14.7435 60 17.2994 60 20.1109V44.1365C60 46.948 58.4665 49.5039 56.0383 50.8457L33.6741 63.1141C32.5879 63.7531 31.3099 64.0726 30.0319 64.0726ZM30.0319 2.73072C29.2013 2.73072 28.3706 2.92241 27.5399 3.36969L5.17572 15.6381C3.51438 16.5326 2.55591 18.2579 2.55591 20.1109V44.1365C2.55591 45.9895 3.57827 47.7147 5.17572 48.6093L27.5399 60.8777C29.0735 61.7084 30.9265 61.7084 32.4601 60.8777L54.8243 48.6093C56.4856 47.7147 57.4441 45.9895 57.4441 44.1365V20.1109C57.4441 18.2579 56.4217 16.5326 54.7604 15.6381L32.4601 3.36969C31.6933 2.92241 30.8626 2.73072 30.0319 2.73072Z" fill="black"/>
<path d="M43.3863 42.9221C42.6195 42.8582 42.1083 42.2831 42.1083 41.5802C42.1722 40.2384 40.3831 38.5132 39.2968 38.2576C37.5077 37.8742 36.6131 36.5962 36.3575 35.8295C36.1658 35.1905 36.4853 34.4237 37.1882 34.232C37.8272 34.0403 38.53 34.3598 38.7856 34.9988C38.8495 35.0627 39.0412 35.5739 39.808 35.7656C41.9166 36.2128 44.8559 38.8965 44.6003 41.7719C44.6003 42.347 44.0892 42.9221 43.3863 42.9221Z" fill="black"/>
<path d="M37.5084 43.8159C36.8055 43.8159 36.2305 43.2409 36.2305 42.538V33.0172C36.2305 32.3143 36.8055 31.7393 37.5084 31.7393C38.2113 31.7393 38.7864 32.3143 38.7864 33.0172V42.538C38.7864 43.2409 38.2113 43.8159 37.5084 43.8159Z" fill="black"/>
<path d="M32.8439 39.9182C32.7161 39.9182 32.5244 39.9182 32.3966 39.8543C31.7576 39.5987 31.4381 38.8319 31.6937 38.1929C32.5883 35.8926 35.9749 33.3367 37.125 32.8255C37.764 32.5699 38.5308 32.8894 38.7864 33.5284C39.0419 34.1674 38.7225 34.9342 38.0835 35.1898C37.3806 35.5092 34.633 37.6179 34.0579 39.1514C33.8023 39.5987 33.355 39.9182 32.8439 39.9182Z" fill="black"/>
<path d="M37.444 34.231C36.7411 34.231 36.166 33.656 36.166 32.9531V25.3492C36.166 24.6464 36.7411 24.0713 37.444 24.0713C38.1468 24.0713 38.7219 24.6464 38.7219 25.3492V32.9531C38.7219 33.656 38.1468 34.231 37.444 34.231Z" fill="black"/>
<path d="M35.7828 26.5639C35.5272 26.5639 35.2716 26.5 34.9521 26.4361C33.3547 25.9888 32.0128 25.286 30.9905 24.2636C28.4346 21.7077 28.4346 17.6821 28.4346 17.5543C28.4346 16.8514 29.0097 16.2764 29.7125 16.2764C29.9042 16.2764 33.8659 16.2764 36.4218 18.8323C37.4442 19.8546 38.147 21.1326 38.5943 22.7939C38.8499 23.8163 38.5943 24.9026 37.8275 25.6693C37.3164 26.2444 36.5496 26.5639 35.7828 26.5639ZM31.1822 18.9601C31.3739 20.0463 31.8212 21.4521 32.8435 22.4745C33.5464 23.1773 34.441 23.6885 35.655 23.9441C35.8467 24.008 36.0384 23.8802 36.1023 23.8163C36.1662 23.7524 36.294 23.6246 36.2301 23.369C35.9106 22.2189 35.3994 21.2604 34.7604 20.5575C33.6742 19.5991 32.2684 19.1518 31.1822 18.9601Z" fill="black"/>
<path d="M38.6577 28.8004C38.0826 28.8004 37.5075 28.5449 37.0603 28.1615C36.3574 27.5225 36.0379 26.5001 36.2935 25.5417C36.613 24.1998 37.1242 23.1135 37.827 22.2829C39.744 20.1104 42.7472 20.1104 42.8749 20.1104C43.5778 20.1104 44.1529 20.6854 44.1529 21.3883C44.1529 21.5161 44.1529 24.7749 42.2999 26.8835C41.5331 27.7142 40.5746 28.3532 39.3606 28.7365C39.105 28.8004 38.9133 28.8004 38.6577 28.8004ZM38.7216 26.1167C38.7216 26.1806 38.7216 26.1806 38.7216 26.2445C39.4245 25.9889 39.9357 25.6695 40.319 25.2222C40.8941 24.5832 41.2136 23.6886 41.3414 22.9219C40.7663 23.1135 40.1912 23.433 39.6801 23.9442C39.2967 24.4554 38.9772 25.2222 38.7216 26.1167Z" fill="black"/>
<path d="M58.5306 33.2734H1.53381C0.830939 33.2734 0.255859 32.6984 0.255859 31.9955C0.255859 31.2926 0.830939 30.7175 1.53381 30.7175H58.5306C59.2335 30.7175 59.8086 31.2926 59.8086 31.9955C59.8086 32.6984 59.2335 33.2734 58.5306 33.2734Z" fill="black"/>
<path d="M48.1795 54.3602C47.9878 54.3602 47.7961 54.2963 47.6683 54.2324C47.221 54.0407 46.7737 53.7851 46.3265 53.5934C45.6236 53.2739 44.9207 52.9544 44.2178 52.6349C43.5789 52.3155 43.2594 51.6126 43.5789 50.9736C43.8984 50.3346 44.6012 50.0151 45.2402 50.3346C45.9431 50.6541 46.646 50.9736 47.3488 51.2931C47.7961 51.4848 48.2434 51.7404 48.6907 51.9321C49.3297 52.2516 49.5853 52.9544 49.3297 53.6573C49.138 54.1046 48.6907 54.3602 48.1795 54.3602ZM19.0421 51.9321C18.467 51.9321 17.9559 51.5487 17.8281 50.9097C17.7003 50.2068 18.0837 49.5679 18.7865 49.3762C19.8728 49.1206 20.9591 48.865 22.0453 48.6733C22.7482 48.5455 23.3872 48.9928 23.515 49.6956C23.6428 50.3985 23.1955 51.0375 22.4926 51.1653C21.4702 51.357 20.384 51.6126 19.2977 51.8682C19.2338 51.9321 19.106 51.9321 19.0421 51.9321ZM39.9367 50.9097C39.8089 50.9097 39.6811 50.9097 39.5533 50.8458C38.3392 50.4624 37.1891 50.2068 36.0389 50.079C35.336 50.0151 34.8249 49.3762 34.9527 48.6733C35.0166 47.9704 35.7194 47.4592 36.3584 47.587C37.6364 47.7787 38.9782 48.0343 40.3201 48.4177C41.023 48.6094 41.4063 49.3123 41.1507 50.0151C41.023 50.5902 40.5118 50.9097 39.9367 50.9097ZM27.2849 50.4624C26.646 50.4624 26.1348 50.0151 26.007 49.3762C25.9431 48.6733 26.3904 48.0343 27.0932 47.9704C28.4351 47.7787 29.713 47.6509 30.991 47.587C31.6939 47.5231 32.3329 48.0343 32.3329 48.7372C32.3968 49.4401 31.8856 50.079 31.1827 50.079C30.0325 50.1429 28.7546 50.2707 27.4766 50.3985C27.4127 50.3985 27.3488 50.4624 27.2849 50.4624Z" fill="black"/>
<path d="M50.5432 49.5686C49.4569 49.5686 48.3068 49.4408 47.0927 49.2491C46.4537 49.1213 46.0065 48.6101 46.0065 47.9712C46.0065 47.9073 46.0065 47.8434 46.0065 47.7795C46.1342 47.0766 46.7732 46.6293 47.4761 46.7571C48.5624 46.9488 49.5847 47.0127 50.4793 47.0127C50.671 47.0127 50.7988 47.0127 50.9905 47.0127C51.6934 47.0127 52.2684 47.5239 52.3323 48.2268C52.3323 48.5463 52.2045 48.8657 52.0128 49.1213C51.7572 49.3769 51.4378 49.5047 51.1183 49.5047C50.9905 49.5686 50.7349 49.5686 50.5432 49.5686ZM56.0384 48.3546C55.5272 48.3546 55.0799 48.0351 54.8882 47.5878C54.8243 47.3961 54.7604 47.2044 54.7604 47.0127C54.7604 46.5015 55.0799 46.0542 55.4633 45.8625C56.1662 45.5431 56.8691 45.1597 57.508 44.7124L57.6358 44.6485C58.2109 44.2651 59.0416 44.5207 59.3611 45.0958C59.7445 45.7347 59.5528 46.5015 58.9138 46.821L58.786 47.0127C58.147 47.3961 57.4441 47.8434 56.6135 48.2268C56.4218 48.2907 56.2301 48.3546 56.0384 48.3546ZM15.2077 48.1629C14.0576 48.1629 12.9713 48.099 11.885 48.0351C11.1822 47.9712 10.671 47.3322 10.7349 46.6293C10.7988 45.9264 11.4378 45.4153 12.1406 45.4792C13.2908 45.607 14.5688 45.6069 15.8467 45.6069C16.5496 45.6069 17.1247 46.182 17.1247 46.8849C17.1247 47.5878 16.5496 48.1629 15.8467 48.1629C15.655 48.1629 15.4633 48.1629 15.2077 48.1629ZM42.3004 48.099C42.1726 48.099 42.1087 48.099 41.9809 48.0351L41.4058 47.9073C40.3196 47.5878 39.2333 47.3322 38.2748 47.0766C37.6997 46.9488 37.3164 46.4376 37.3164 45.8625C37.3164 45.7347 37.3164 45.6708 37.3803 45.5431C37.5719 44.8402 38.2748 44.4568 38.9138 44.5846C39.8723 44.8402 40.9585 45.0958 42.0448 45.4153L42.6199 45.5431C42.9394 45.607 43.195 45.8625 43.3866 46.1181C43.5783 46.4376 43.5783 46.7571 43.5144 47.0766C43.3866 47.7156 42.8755 48.099 42.3004 48.099ZM20.9585 47.7795C20.3196 47.7795 19.8084 47.3322 19.6806 46.6932C19.6806 46.6293 19.6806 46.5654 19.6806 46.5015C19.6806 45.8625 20.1279 45.3514 20.7668 45.2236C21.917 45.0319 23.1311 44.8402 24.2812 44.5846C24.3451 44.5846 24.3451 44.5846 24.409 44.5846C25.1119 44.4568 25.7509 44.8402 25.9426 45.5431C26.0065 45.8625 25.9426 46.2459 25.8148 46.5015C25.6231 46.821 25.3675 47.0127 25.048 47.0766H24.9841H24.9202C23.6422 47.3961 22.4282 47.5878 21.2141 47.7795C21.0863 47.7795 21.0224 47.7795 20.9585 47.7795ZM33.6103 46.182C33.5464 46.182 33.5464 46.182 33.4825 46.182C32.2684 46.0542 31.1183 46.0542 29.9042 46.182C29.2013 46.2459 28.5624 45.7347 28.4985 45.0319C28.4985 44.968 28.4985 44.968 28.4985 44.9041C28.4985 44.2651 29.0096 43.69 29.6486 43.6261C31.0544 43.4983 32.3323 43.4983 33.6742 43.6261C33.9937 43.6261 34.3132 43.8178 34.5688 44.0734C34.8243 44.329 34.8882 44.6485 34.8882 45.0319C34.8243 45.6709 34.2493 46.182 33.6103 46.182Z" fill="black"/>
<path d="M38.9145 55.446C38.7228 55.446 38.5311 55.3821 38.4033 55.3182C37.1892 54.807 36.0391 54.3597 35.0167 54.0403C34.3138 53.8486 33.9304 53.1457 34.1221 52.4428C34.3138 51.7399 35.0167 51.3566 35.7196 51.5482C36.9336 51.8677 38.1477 52.3789 39.4896 52.954C40.1285 53.2735 40.448 53.9764 40.1285 54.6153C39.8729 55.1904 39.4257 55.446 38.9145 55.446ZM26.5822 54.4236C26.071 54.4236 25.5598 54.1042 25.3681 53.593C25.1126 52.954 25.4959 52.1872 26.1349 51.9316C27.2212 51.5482 28.4991 51.101 30.2244 50.9732C30.9273 50.9093 31.5662 51.4205 31.5662 52.1233C31.6301 52.8262 31.1189 53.4652 30.4161 53.4652C29.0742 53.593 27.9241 53.9125 27.0295 54.232C26.8378 54.4236 26.71 54.4236 26.5822 54.4236Z" fill="black"/>
</svg>
