<svg width="60" height="65" viewBox="0 0 60 65" fill="none" xmlns="http://www.w3.org/2000/svg">
<path d="M30.0325 52.652C32.4323 52.652 34.3776 50.7067 34.3776 48.307C34.3776 45.9073 32.4323 43.9619 30.0325 43.9619C27.6328 43.9619 25.6875 45.9073 25.6875 48.307C25.6875 50.7067 27.6328 52.652 30.0325 52.652Z" fill="black"/>
<path d="M30.0323 53.8019C27.0291 53.8019 24.5371 51.3099 24.5371 48.3067C24.5371 45.3035 27.0291 42.8115 30.0323 42.8115C33.0355 42.8115 35.5275 45.3035 35.5275 48.3067C35.5275 51.3099 33.0994 53.8019 30.0323 53.8019ZM30.0323 45.1118C28.2432 45.1118 26.8374 46.5176 26.8374 48.3067C26.8374 50.0959 28.2432 51.5016 30.0323 51.5016C31.8215 51.5016 33.2272 50.0959 33.2272 48.3067C33.2272 46.5176 31.8215 45.1118 30.0323 45.1118Z" fill="black"/>
<path d="M30.0323 21.0851C27.0291 21.0851 24.5371 18.5931 24.5371 15.5899C24.5371 12.5867 27.0291 10.0947 30.0323 10.0947C33.0355 10.0947 35.5275 12.5867 35.5275 15.5899C35.5275 18.5931 33.0994 21.0851 30.0323 21.0851ZM30.0323 12.395C28.2432 12.395 26.8374 13.8008 26.8374 15.5899C26.8374 17.3791 28.2432 18.7848 30.0323 18.7848C31.8215 18.7848 33.2272 17.3791 33.2272 15.5899C33.2272 13.8008 31.8215 12.395 30.0323 12.395Z" fill="black"/>
<path d="M13.6739 37.4445C10.6707 37.4445 8.17871 34.9525 8.17871 31.9493C8.17871 28.9461 10.6707 26.4541 13.6739 26.4541C16.6771 26.4541 19.1691 28.9461 19.1691 31.9493C19.1691 34.9525 16.741 37.4445 13.6739 37.4445ZM13.6739 28.7544C11.8848 28.7544 10.479 30.1602 10.479 31.9493C10.479 33.7384 11.8848 35.1442 13.6739 35.1442C15.4631 35.1442 16.8688 33.7384 16.8688 31.9493C16.8688 30.1602 15.4631 28.7544 13.6739 28.7544Z" fill="black"/>
<path d="M13.6741 36.2965C11.3099 36.2965 9.3291 34.3796 9.3291 31.9515C9.3291 29.5234 11.246 27.6064 13.6741 27.6064" fill="black"/>
<path d="M13.6743 36.5519C11.1184 36.5519 9.00977 34.4432 9.00977 31.9512C9.00977 29.3314 11.0545 27.3506 13.6743 27.3506V27.9257C11.374 27.9257 9.58485 29.7148 9.58485 31.9512C9.58485 34.1876 11.374 35.9768 13.6743 35.9768V36.5519Z" fill="black"/>
<path d="M46.3897 37.4445C43.3865 37.4445 40.8945 34.9525 40.8945 31.9493C40.8945 28.9461 43.3865 26.4541 46.3897 26.4541C49.3929 26.4541 51.8849 28.9461 51.8849 31.9493C51.8849 34.9525 49.4568 37.4445 46.3897 37.4445ZM46.3897 28.7544C44.6006 28.7544 43.1948 30.1602 43.1948 31.9493C43.1948 33.7384 44.6006 35.1442 46.3897 35.1442C48.1789 35.1442 49.5846 33.7384 49.5846 31.9493C49.5846 30.1602 48.1789 28.7544 46.3897 28.7544Z" fill="black"/>
<path d="M46.3896 27.6064C48.7539 27.6064 50.7347 29.5234 50.7347 31.9515C50.7347 34.3796 48.8178 36.2965 46.3896 36.2965" fill="black"/>
<path d="M46.3896 36.5519V35.9768C48.69 35.9768 50.4791 34.1876 50.4791 31.9512C50.4791 29.7148 48.69 27.9257 46.3896 27.9257V27.3506C48.9456 27.3506 51.0542 29.4592 51.0542 31.9512C51.0542 34.5071 49.0095 36.5519 46.3896 36.5519Z" fill="black"/>
<path d="M30.0319 64.0249C28.754 64.0249 27.5399 63.7054 26.3898 63.1303L4.40895 50.9897C1.72524 49.5201 0 46.6447 0 43.5776V20.5744C0 17.5073 1.66134 14.6319 4.34505 13.1622L16.6773 6.38907C17.3163 6.06959 18.0831 6.26128 18.4026 6.90026C18.722 7.53923 18.5303 8.30601 17.8914 8.6255L5.623 15.3348C3.76997 16.421 2.55591 18.4019 2.55591 20.5744V43.5776C2.55591 45.7501 3.70607 47.7309 5.623 48.8172L27.6038 60.83C29.1374 61.6606 30.9904 61.6606 32.524 60.83L36.4217 58.7213C37.0607 58.4019 37.8275 58.5935 38.147 59.2325C38.4664 59.8715 38.2748 60.6383 37.6358 60.9578L33.738 63.0664C32.5879 63.7054 31.3099 64.0249 30.0319 64.0249Z" fill="black"/>
<path d="M15.5267 15.9746C15.3989 15.9746 15.2711 15.9746 15.1433 15.9107C14.4405 15.719 14.121 14.9523 14.3127 14.3133L16.2935 7.98742L10.0954 6.00659C9.39254 5.81489 9.07305 5.04812 9.26475 4.40914C9.52034 3.70627 10.2232 3.32288 10.8622 3.57847L18.2743 5.94269C18.9133 6.13438 19.2967 6.90115 19.105 7.54013L16.7408 15.0801C16.613 15.5913 16.1018 15.9746 15.5267 15.9746Z" fill="black"/>
<path d="M42.7481 57.9544C42.3008 57.9544 41.8535 57.6988 41.5979 57.3154C41.2784 56.6764 41.4701 55.9096 42.1091 55.5901L54.3775 48.817C56.2305 47.7946 57.4445 45.7499 57.4445 43.6413V20.5742C57.4445 18.4016 56.2944 16.4208 54.3775 15.3345L32.4605 3.32177C30.927 2.4911 29.0739 2.4911 27.5404 3.32177L23.6426 5.4304C23.0037 5.74988 22.2369 5.55819 21.9174 4.91921C21.5979 4.28024 21.7896 3.51346 22.4286 3.19397L26.3263 1.08535C28.6267 -0.12871 31.3743 -0.12871 33.6746 1.08535L55.6554 13.0981C58.3391 14.6317 60.0005 17.4432 60.0005 20.5742V43.5774C60.0005 46.7084 58.3391 49.5837 55.6554 51.0534L43.387 57.7627C43.1953 57.8905 43.0037 57.9544 42.7481 57.9544Z" fill="black"/>
<path d="M49.5214 60.7014C49.3936 60.7014 49.2658 60.7014 49.138 60.6375L41.7259 58.2094C41.0869 58.0177 40.7035 57.2509 40.8952 56.6119L43.2594 49.072C43.4511 48.3691 44.2179 48.0496 44.8569 48.2413C45.5598 48.433 45.8792 49.1998 45.6876 49.8388L43.7067 56.1646L49.9048 58.2094C50.5438 58.4011 50.9272 59.1678 50.7355 59.8068C50.6077 60.318 50.0965 60.7014 49.5214 60.7014Z" fill="black"/>
<path d="M29.3932 40.2566C28.6903 40.2566 28.1152 39.6816 28.1152 38.9787V32.9723C28.1152 32.2694 28.6903 31.6943 29.3932 31.6943C30.0961 31.6943 30.6711 32.2694 30.6711 32.9723V38.9787C30.6711 39.6816 30.0961 40.2566 29.3932 40.2566Z" fill="black"/>
<path d="M31.1819 34.1226C30.4151 34.1226 29.6483 33.8032 29.0733 33.292C28.2426 32.5252 27.9231 31.375 28.1787 30.2249C28.626 28.4996 29.3927 27.1578 30.4151 26.0715C33.1627 23.3239 37.3161 23.3878 37.5078 23.3878C38.2106 23.3878 38.7857 23.9629 38.7857 24.6658C38.7857 24.8575 38.7857 29.0747 36.102 31.6945C35.1435 32.7169 33.8017 33.5476 32.0764 33.9948C31.757 34.0587 31.5014 34.1226 31.1819 34.1226ZM36.102 26.0715C34.9518 26.2632 33.4183 26.7105 32.332 27.8607C31.4375 28.8191 30.9902 30.0332 30.7346 30.8639C30.6707 31.1194 30.8624 31.375 30.9263 31.4389C30.9902 31.5028 31.1819 31.6306 31.3736 31.5667C32.6515 31.2472 33.61 30.6722 34.3129 29.9693C35.3991 28.8191 35.9103 27.2217 36.102 26.0715Z" fill="black"/>
<path d="M28.1149 36.4866C27.9232 36.4866 27.6676 36.4866 27.4759 36.4227C26.1979 36.0393 25.1756 35.4003 24.3449 34.5057C22.3641 32.2693 22.428 28.8188 22.428 28.691C22.428 27.9882 23.003 27.4131 23.7059 27.4131C23.8337 27.4131 27.0286 27.4131 28.9455 29.7134C29.7123 30.5441 30.2874 31.6942 30.543 33.1C30.7986 34.0585 30.4791 35.0808 29.7762 35.7837C29.3928 36.2949 28.7538 36.4866 28.1149 36.4866ZM25.1756 30.2885C25.3034 31.1192 25.6229 32.0776 26.3257 32.8444C26.773 33.3556 27.412 33.739 28.1149 33.9946C28.1149 33.9307 28.1788 33.8668 28.1149 33.739C27.9871 33.1 27.6676 32.2054 27.0925 31.5025C26.5174 30.7997 25.8145 30.4802 25.1756 30.2885Z" fill="black"/>
<path d="M44.5365 25.5596C44.0892 25.5596 43.6419 25.304 43.3863 24.8567C41.9167 22.1091 39.7442 19.9366 37.0605 18.5308C36.4215 18.2113 36.1659 17.4446 36.5493 16.8056C36.8688 16.1666 37.6355 15.911 38.2745 16.2944C41.4055 17.8918 43.9614 20.4477 45.6228 23.6426C45.9422 24.2816 45.7505 25.0484 45.1116 25.3679C44.9838 25.4957 44.7921 25.5596 44.5365 25.5596Z" fill="black"/>
<path d="M15.5271 25.5597C15.3354 25.5597 15.1437 25.4958 14.952 25.4319C14.313 25.1124 14.1213 24.3456 14.4408 23.7066C16.1022 20.5756 18.5942 18.0197 21.6613 16.4223C22.3003 16.1028 23.067 16.2945 23.3865 16.9335C23.706 17.5724 23.5143 18.3392 22.8753 18.6587C20.2555 20.0645 18.1469 22.237 16.6773 24.9207C16.4217 25.3041 16.0383 25.5597 15.5271 25.5597Z" fill="black"/>
<path d="M22.3637 47.7321C22.172 47.7321 21.9803 47.6682 21.7887 47.6043C18.6577 45.943 16.1018 43.4509 14.5043 40.3838C14.1848 39.7449 14.3765 38.9781 15.0155 38.6586C15.6545 38.3391 16.4212 38.5308 16.7407 39.1698C18.1465 41.7896 20.319 43.8982 23.0027 45.3679C23.6417 45.6874 23.8334 46.4541 23.5139 47.0931C23.2583 47.4765 22.8749 47.7321 22.3637 47.7321Z" fill="black"/>
<path d="M37.8273 47.6685C37.38 47.6685 36.9328 47.4129 36.6772 46.9656C36.3577 46.3266 36.5494 45.5599 37.1883 45.2404C39.8082 43.8346 41.9168 41.6621 43.3864 38.9784C43.7059 38.3394 44.4727 38.1477 45.1117 38.4672C45.7506 38.7867 45.9423 39.5535 45.6228 40.1924C43.9615 43.3234 41.4695 45.8793 38.4024 47.4768C38.2746 47.6046 38.0829 47.6685 37.8273 47.6685Z" fill="black"/>
</svg>
