<svg width="60" height="65" viewBox="0 0 60 65" fill="none" xmlns="http://www.w3.org/2000/svg">
<path d="M29.9681 64.0246C28.6901 64.0246 27.476 63.7051 26.3259 63.1301L3.96166 50.8617C1.46965 49.4559 0 46.9 0 44.0885V20.063C0 17.3154 1.53355 14.6956 3.96166 13.3537L26.3259 1.08535C28.6262 -0.12871 31.3738 -0.12871 33.6741 1.08535L56.0383 13.3537C58.5304 14.7595 60 17.3154 60 20.1269V44.1524C60 46.9 58.4665 49.5198 56.0383 50.8617L33.6741 63.1301C32.524 63.7051 31.246 64.0246 29.9681 64.0246ZM29.9681 2.68279C29.1374 2.68279 28.2428 2.87448 27.476 3.32177L5.11182 15.5901C3.45048 16.4847 2.42812 18.2099 2.42812 20.063V44.0885C2.42812 45.9416 3.45048 47.6668 5.11182 48.6253L27.476 60.8936C29.0096 61.7243 30.8626 61.7243 32.3962 60.8936L54.8243 48.6253C56.4856 47.7307 57.508 46.0055 57.508 44.1524V20.063C57.508 18.2099 56.4856 16.4847 54.8243 15.5262L32.4601 3.32177C31.6933 2.87448 30.8626 2.68279 29.9681 2.68279Z" fill="black"/>
<path d="M43.5779 49.2659H16.7408C16.038 49.2659 15.4629 48.6908 15.4629 47.9879C15.4629 47.285 16.038 46.71 16.7408 46.71H43.5779C44.2808 46.71 44.8559 47.285 44.8559 47.9879C44.8559 48.6908 44.2808 49.2659 43.5779 49.2659Z" fill="black"/>
<path d="M21.2145 47.5389C20.5116 47.5389 19.9365 46.9638 19.9365 46.2609V23.066C19.9365 22.3632 20.5116 21.7881 21.2145 21.7881C21.9174 21.7881 22.4924 22.3632 22.4924 23.066V46.2609C22.4924 46.9638 21.9174 47.5389 21.2145 47.5389Z" fill="black"/>
<path d="M28.5627 41.1492C28.3071 41.1492 28.1154 41.0853 27.8598 40.9575L20.8311 36.4847C20.256 36.1013 20.0643 35.3345 20.4477 34.6956C20.8311 34.1205 21.5978 33.9288 22.2368 34.3122L27.2847 37.5071V35.2706C27.2208 35.2706 27.1569 35.2067 27.093 35.1428L20.7672 30.6061C20.1921 30.2227 20.0643 29.392 20.4477 28.817C20.8311 28.2419 21.6617 28.1141 22.2368 28.4975L28.4988 32.9703C29.3295 33.4176 29.8406 34.2483 29.8406 35.2067V39.7435C29.8406 40.1908 29.585 40.638 29.2017 40.8936C29.01 41.0853 28.8183 41.1492 28.5627 41.1492Z" fill="black"/>
<path d="M28.5627 36.6761C27.8598 36.6761 27.2847 36.101 27.2847 35.3981V28.9445C27.2208 28.9445 27.1569 28.8806 27.093 28.8167L20.7672 24.2799C20.1921 23.8965 20.0643 23.0659 20.4477 22.4908C20.8311 21.9157 21.6617 21.7879 22.2368 22.1713L28.4988 26.6441C29.3295 27.0914 29.8406 27.9221 29.8406 28.8806V35.3342C29.8406 36.101 29.2656 36.6761 28.5627 36.6761Z" fill="black"/>
<path d="M13.8658 41.1484C13.6742 41.1484 13.4186 41.0845 13.2269 41.0206C12.8435 40.8289 12.5879 40.3816 12.5879 39.8704V35.3337C12.5879 34.3752 13.0991 33.4807 13.9297 33.0973L20.1917 28.6244C20.7668 28.241 21.5336 28.3688 21.9809 28.9439C22.3642 29.519 22.2365 30.2858 21.6614 30.733L15.3355 35.2059C15.2716 35.2698 15.2077 35.2698 15.1438 35.3337V37.5701L20.1917 34.3752C20.7668 33.9918 21.5975 34.1835 21.9809 34.7586C22.3642 35.3337 22.1726 36.1644 21.5975 36.5477L14.5687 41.0206C14.377 41.0845 14.1214 41.1484 13.8658 41.1484Z" fill="black"/>
<path d="M13.8658 36.6764C13.163 36.6764 12.5879 36.1013 12.5879 35.3984V28.9448C12.5879 27.9863 13.0991 27.0917 13.9297 26.7083L20.1917 22.2355C20.7668 21.8521 21.5336 21.9799 21.9809 22.555C22.3642 23.1301 22.2365 23.8968 21.6614 24.3441L15.3355 28.817C15.2716 28.8809 15.2077 28.8809 15.1438 28.9448V35.3984C15.1438 36.1013 14.5687 36.6764 13.8658 36.6764Z" fill="black"/>
<path d="M41.6841 28.9802C41.3646 28.9802 41.0449 28.8524 40.7893 28.5968C40.2781 28.0856 40.2781 27.3189 40.7893 26.8078L43.9842 23.6129C44.4954 23.1017 45.2627 23.1017 45.7738 23.6129C46.285 24.1241 46.285 24.8907 45.7738 25.4019L42.579 28.5968C42.3873 28.8524 42.0036 28.9802 41.6841 28.9802Z" fill="black"/>
<path d="M38.297 28.9802C37.9775 28.9802 37.6578 28.8524 37.4022 28.5968L34.2073 25.4019C33.6961 24.8907 33.6961 24.1241 34.2073 23.6129C34.7185 23.1017 35.4857 23.1017 35.9969 23.6129L39.1918 26.8078C39.703 27.3189 39.703 28.0856 39.1918 28.5968C39.0001 28.8524 38.6165 28.9802 38.297 28.9802Z" fill="black"/>
<path d="M41.7474 41.6956H38.0409C37.338 41.6956 36.7629 41.1205 36.7629 40.4176C36.7629 39.7147 37.338 39.1396 38.0409 39.1396H41.7474C42.4503 39.1396 43.0254 39.7147 43.0254 40.4176C43.0254 41.1205 42.4503 41.6956 41.7474 41.6956Z" fill="black"/>
<path d="M35.3575 39.5227C33.8878 39.5227 32.4821 38.8836 31.5236 37.7335C30.7568 36.8389 30.4371 35.6249 30.6288 34.4108C30.8205 33.1329 31.588 31.9828 32.6743 31.2799C34.6551 29.9381 39.128 30.577 40.0225 30.7687C40.7254 30.8965 41.1724 31.5355 41.0446 32.2384C40.9168 33.069 40.1501 37.3502 38.1692 38.6281C37.4025 39.2671 36.3799 39.5227 35.3575 39.5227ZM36.5081 33.0689C35.4858 33.0689 34.5902 33.1968 34.2068 33.4524C34.2068 33.4524 34.2071 33.4524 34.1432 33.5163C33.632 33.8358 33.2486 34.347 33.1847 34.922C33.1208 35.3693 33.2486 35.8804 33.5042 36.2638C34.2071 37.2223 35.7404 37.3501 36.7627 36.6473C37.2739 36.2639 37.9134 34.7943 38.2329 33.1968C37.7217 33.069 37.0832 33.0689 36.5081 33.0689Z" fill="black"/>
<path d="M42.1941 32.686H37.3381C36.5713 32.686 35.9329 32.047 35.9329 31.2803V29.8106C35.9329 27.6381 37.402 26.1045 39.5745 26.1045H39.9577C42.1302 26.1045 43.6006 27.5742 43.6006 29.8106V31.2803C43.6006 32.047 42.9609 32.686 42.1941 32.686ZM38.4888 30.1301H41.0447V29.8106C41.0447 28.9799 40.7244 28.6604 39.9577 28.6604H39.5745C38.8078 28.6604 38.4888 29.0438 38.4888 29.8106V30.1301Z" fill="black"/>
<path d="M39.9577 44.5715C39.8938 44.5715 39.8306 44.5715 39.7667 44.5715C39.7028 44.5715 39.6384 44.5715 39.5745 44.5715C37.402 44.5715 35.9329 42.8464 35.9329 40.2266V38.3735C35.9329 37.6067 36.5713 36.9678 37.3381 36.9678H42.1941C42.9609 36.9678 43.6006 37.6067 43.6006 38.3735V40.2266C43.6006 42.8464 42.1941 44.5715 39.9577 44.5715ZM38.4888 39.5237V40.2266C38.4888 40.7378 38.6161 42.0156 39.5745 42.0156C39.6384 42.0156 39.7028 42.0156 39.7667 42.0156C39.8306 42.0156 39.8938 42.0156 39.9577 42.0156C40.2772 42.0156 41.0447 42.0158 41.0447 40.2266V39.5237H38.4888Z" fill="black"/>
<path d="M44.3041 39.5229C43.2817 39.5229 42.2594 39.2674 41.4287 38.6284C39.384 37.2866 38.6811 33.0053 38.5533 32.1747C38.4255 31.4718 38.9364 30.8328 39.5754 30.705C40.47 30.5772 44.9428 29.8744 46.9236 31.2162C48.0099 31.983 48.7774 33.1331 48.9691 34.4111C49.1608 35.6252 48.8411 36.7754 48.0743 37.6699C47.2436 38.9479 45.7737 39.5229 44.3041 39.5229ZM41.365 33.1331C41.7484 34.6667 42.3228 36.2003 42.8339 36.5198C43.9202 37.2226 45.3908 37.0948 46.0937 36.1363C46.4771 35.689 46.4769 35.1778 46.4769 34.8584C46.413 34.2833 46.0296 33.7721 45.5184 33.3887C44.9433 33.0053 43.1542 32.9414 41.365 33.1331Z" fill="black"/>
<path d="M11.0543 47.9866C10.607 47.9866 10.2236 47.7949 9.96801 47.4115C9.58463 46.8365 9.26514 46.2614 8.94565 45.6863C8.62616 45.0473 8.88175 44.2805 9.45683 43.9611C10.0958 43.6416 10.8626 43.8972 11.1821 44.4722C11.4377 44.9834 11.7571 45.4946 12.0766 46.0058C12.46 46.5809 12.2683 47.4115 11.6933 47.7949C11.5655 47.9227 11.3099 47.9866 11.0543 47.9866ZM49.6485 46.517C49.4568 46.517 49.2651 46.4531 49.0734 46.3892C48.4345 46.0697 48.2428 45.3029 48.5623 44.6639C48.8179 44.1528 49.1373 43.5777 49.329 43.0665C49.5846 42.4275 50.3514 42.108 50.9904 42.4275C51.6294 42.6831 51.9488 43.4499 51.6294 44.0889C51.3738 44.7278 51.0543 45.3029 50.7348 45.9419C50.5431 46.2614 50.0958 46.517 49.6485 46.517ZM8.11498 40.9579C7.5399 40.9579 7.02871 40.5745 6.90092 39.9355C6.77312 39.2965 6.64533 38.5936 6.51753 37.9547C6.38974 37.2518 6.90092 36.6128 7.60379 36.485C8.30667 36.3572 8.94565 36.8684 9.07344 37.5713C9.13734 38.1464 9.26514 38.7853 9.39293 39.3604C9.52073 40.0633 9.13734 40.7023 8.43446 40.894C8.30667 40.9579 8.24277 40.9579 8.11498 40.9579ZM52.0766 39.2965C52.0127 39.2965 51.9488 39.2965 51.8849 39.2965C51.1821 39.1687 50.7348 38.5297 50.7987 37.8269C50.8626 37.2518 50.9265 36.6128 50.9904 36.0377C51.0543 35.3349 51.6294 34.7598 52.3322 34.8237C53.0351 34.8876 53.5463 35.4627 53.5463 36.1655C53.4824 36.8684 53.4185 37.5074 53.3546 38.2103C53.2268 38.7853 52.6517 39.2965 52.0766 39.2965ZM7.73159 33.354C7.66769 33.354 7.60379 33.354 7.60379 33.354C6.90092 33.2901 6.38974 32.6512 6.45363 31.9483C6.51753 31.3093 6.64533 30.6064 6.77312 29.9674C6.90092 29.2646 7.60379 28.8173 8.30667 28.9451C9.00954 29.0729 9.45683 29.7758 9.32903 30.4786C9.20124 31.0537 9.13734 31.6927 9.00955 32.2678C8.88175 32.8428 8.37057 33.354 7.73159 33.354ZM51.8849 31.6288C51.3099 31.6288 50.7348 31.1815 50.607 30.6064C50.4792 30.0313 50.3514 29.4563 50.1597 28.8812C49.968 28.1783 50.3514 27.4754 51.0543 27.2837C51.7572 27.092 52.46 27.4754 52.6517 28.1783C52.8434 28.8173 52.9712 29.4563 53.099 30.1591C53.2268 30.862 52.7795 31.501 52.0766 31.6288C52.0127 31.6288 51.9488 31.6288 51.8849 31.6288ZM9.90411 26.0058C9.71242 26.0058 9.52073 25.9419 9.32903 25.878C8.69006 25.5585 8.43446 24.7917 8.75395 24.1528C9.07344 23.5777 9.39293 22.9387 9.71242 22.3636C10.0958 21.7885 10.8626 21.5968 11.5016 21.9163C12.0766 22.2997 12.2683 23.0665 11.9488 23.7055C11.6294 24.2167 11.3099 24.7278 11.0543 25.3029C10.7987 25.7502 10.3514 26.0058 9.90411 26.0058ZM49.1373 24.5361C48.6901 24.5361 48.3067 24.3444 48.0511 23.8972C47.7316 23.386 47.4121 22.8748 47.0287 22.3636C46.6453 21.7885 46.7731 21.0218 47.3482 20.5745C47.9233 20.1911 48.6901 20.3189 49.1373 20.894C49.5207 21.469 49.9041 21.9802 50.2236 22.5553C50.607 23.1304 50.4153 23.9611 49.7763 24.2805C49.5846 24.4722 49.329 24.5361 49.1373 24.5361ZM14.4409 19.8716C14.1214 19.8716 13.8019 19.7438 13.5463 19.4882C13.0351 18.977 13.099 18.1464 13.6102 17.6991C14.1214 17.2518 14.6325 16.8045 15.1437 16.3572C15.7188 15.9099 16.4856 15.9738 16.9329 16.5489C17.3802 17.124 17.3163 17.8908 16.7412 18.3381C16.2939 18.7214 15.8466 19.1048 15.3993 19.5521C15.0798 19.7438 14.7603 19.8716 14.4409 19.8716ZM44.1533 18.7214C43.8977 18.7214 43.5782 18.6575 43.3226 18.402C42.8754 18.0186 42.3642 17.6352 41.853 17.3157C41.2779 16.9323 41.1501 16.1016 41.5335 15.5266C41.9169 14.9515 42.7476 14.8237 43.3226 15.2071C43.8977 15.5905 44.4089 15.9738 44.9201 16.4211C45.4952 16.8684 45.5591 17.6991 45.1118 18.2103C44.9201 18.5936 44.5367 18.7214 44.1533 18.7214ZM20.7028 15.5905C20.1917 15.5905 19.7444 15.3349 19.5527 14.8237C19.2332 14.1847 19.5527 13.4179 20.1917 13.1623C20.8306 12.9067 21.4696 12.6512 22.0447 12.3956C22.6837 12.14 23.4504 12.5234 23.706 13.1623C23.9616 13.8013 23.5782 14.5681 22.9393 14.8237C22.3642 15.0154 21.7891 15.271 21.2779 15.5266C21.0862 15.5905 20.8945 15.5905 20.7028 15.5905ZM37.5079 14.9515C37.3802 14.9515 37.1885 14.9515 37.0607 14.8876C36.4856 14.6959 35.9105 14.5042 35.3354 14.3764C34.6325 14.1847 34.2492 13.4818 34.4409 12.8428C34.6325 12.14 35.3354 11.7566 35.9744 11.9483C36.6134 12.14 37.2524 12.3317 37.8913 12.5873C38.5303 12.8428 38.9137 13.5457 38.6581 14.2486C38.5303 14.632 38.083 14.9515 37.5079 14.9515ZM28.115 13.6735C27.476 13.6735 26.9009 13.1623 26.837 12.5234C26.7731 11.8205 27.2843 11.1815 27.9872 11.1176C28.6262 11.0537 29.2651 11.0537 29.9041 11.0537H30.0319C30.7348 11.0537 31.3099 11.6288 31.3099 12.3317C31.3099 13.0345 30.7348 13.6096 30.0319 13.6096H29.9041C29.329 13.6096 28.754 13.6096 28.1789 13.6735H28.115Z" fill="black"/>
</svg>
