<svg width="60" height="65" viewBox="0 0 60 65" fill="none" xmlns="http://www.w3.org/2000/svg">
<g clip-path="url(#clip0_2921_23186)">
<path d="M30.0319 64.0726C28.754 64.0726 27.476 63.7531 26.3259 63.1141L3.96166 50.8457C1.53355 49.5039 0 46.948 0 44.1365V20.1109C0 17.2994 1.53355 14.7435 3.96166 13.4016L26.3259 1.13327C28.6262 -0.144684 31.3738 -0.144684 33.6741 1.13327L56.0383 13.4016C58.4665 14.7435 60 17.2994 60 20.1109V44.1365C60 46.948 58.4665 49.5039 56.0383 50.8457L33.6741 63.1141C32.5879 63.7531 31.3099 64.0726 30.0319 64.0726ZM30.0319 2.73072C29.2013 2.73072 28.3706 2.92241 27.5399 3.36969L5.17572 15.6381C3.51438 16.5326 2.55591 18.2579 2.55591 20.1109V44.1365C2.55591 45.9895 3.57827 47.7147 5.17572 48.6093L27.5399 60.8777C29.0735 61.7084 30.9265 61.7084 32.4601 60.8777L54.8243 48.6093C56.4856 47.7147 57.508 45.9895 57.508 44.1365V20.1109C57.508 18.2579 56.4856 16.5326 54.8243 15.6381L32.524 3.36969C31.7572 2.92241 30.9265 2.73072 30.0319 2.73072Z" fill="black"/>
<path d="M21.5345 54.3608C19.937 54.3608 18.2757 53.7857 17.2533 53.3384C15.4642 52.5717 13.2917 51.1659 12.3971 49.5685C12.1415 49.1212 12.2054 48.5461 12.461 48.1627C12.7166 47.7793 13.2917 47.5876 13.8028 47.7154C17.0616 48.4822 21.6623 46.0541 23.7709 44.0094C24.2821 43.4982 25.1127 43.4982 25.56 44.0094C26.0073 44.5205 26.0712 45.3512 25.56 45.7985C23.707 47.5876 20.3204 49.6324 16.9338 50.2074C18.8508 51.2937 21.3428 52.1244 22.6846 51.5493C23.7709 51.0381 24.8571 50.5269 26.0073 50.0158C29.9051 48.2266 33.9306 46.3097 37.5089 45.4151C38.2118 45.2234 38.9147 45.6707 39.0424 46.3097C39.2341 47.0126 38.7869 47.7154 38.1479 47.8432C34.8252 48.6739 30.9274 50.5269 27.0936 52.3161C25.9434 52.8273 24.7933 53.4023 23.707 53.8496C23.0041 54.233 22.2373 54.3608 21.5345 54.3608Z" fill="black"/>
<path d="M34.1859 48.2271C30.8632 48.2271 27.5405 47.652 25.4319 46.8213C23.2594 45.9267 20.0006 42.3485 19.4255 39.6009L19.1699 38.259L20.5118 38.0673C21.8536 37.8756 23.3233 38.0034 24.9207 38.1312C28.0517 38.3229 31.3105 38.5785 33.3552 36.5338C36.4862 33.4028 39.745 31.8692 43.8984 31.422H44.0262C44.4734 31.422 44.9207 31.3581 45.368 31.422C45.4958 31.422 45.6236 31.422 45.7514 31.422C45.9431 31.422 46.1348 31.422 46.3265 31.4859C46.5821 31.4859 46.7738 31.5497 47.0293 31.6136C47.1571 31.6136 47.3488 31.6775 47.4766 31.6775C47.7961 31.7414 48.0517 31.8053 48.3712 31.8692C48.499 31.8692 48.5629 31.9331 48.6907 31.9331C49.0741 32.0609 49.3936 32.1887 49.6492 32.2526C49.7131 32.2526 49.7131 32.2526 49.777 32.3165C49.9686 32.3804 50.1603 32.5082 50.352 32.5721C50.4159 32.5721 50.4798 32.636 50.5437 32.636C50.6076 32.636 50.6715 32.6999 50.7354 32.7638C53.6108 34.489 54.8888 38.1312 53.6108 41.3261L53.0996 42.668L51.8217 41.9651C51.6939 41.9012 51.5022 41.8373 51.3744 41.7734C48.6907 40.6871 46.5182 42.9875 45.4319 44.4571C43.3872 47.2047 38.7226 48.2271 34.1859 48.2271ZM22.5565 40.4954C23.515 42.1568 25.3041 43.9459 26.3904 44.3932C30.8632 46.2462 40.8952 46.1823 43.3233 42.8597C45.6236 39.6648 48.6268 38.3229 51.5022 39.0897C51.63 37.3644 50.7354 35.6392 49.2019 34.8085C49.0741 34.7446 48.9463 34.6807 48.8185 34.6168C48.5629 34.489 48.3073 34.4251 47.9878 34.2974C47.9239 34.2974 47.7961 34.2335 47.7322 34.2335C47.4766 34.1696 47.2849 34.1057 47.0293 34.0418C46.9016 34.0418 46.7738 33.9779 46.646 33.9779C46.4543 33.9779 46.2626 33.914 46.0709 33.914C45.9431 33.914 45.7514 33.914 45.6236 33.8501C45.5597 33.8501 45.4319 33.8501 45.368 33.8501C44.9846 33.8501 44.6651 33.8501 44.2817 33.8501H44.2178C40.6396 34.2335 37.9559 35.5753 35.2083 38.259C32.3329 41.1344 28.3073 40.8149 24.7929 40.5593C23.9623 40.5593 23.2594 40.5593 22.5565 40.4954Z" fill="black"/>
<path d="M46.966 37.3649C47.6365 37.3649 48.1801 36.8213 48.1801 36.1508C48.1801 35.4803 47.6365 34.9368 46.966 34.9368C46.2955 34.9368 45.752 35.4803 45.752 36.1508C45.752 36.8213 46.2955 37.3649 46.966 37.3649Z" fill="black"/>
<path d="M25.1125 28.6733C24.9847 28.6733 24.793 28.6733 24.6652 28.6094L12.1412 23.8809C11.6939 23.6892 11.3744 23.2419 11.3105 22.7947C11.3105 22.2835 11.5661 21.8362 12.0134 21.5806L16.8697 19.0247C17.1252 18.8969 17.3808 18.833 17.7003 18.8969L37.1891 22.1557C37.892 22.2835 38.3393 22.9225 38.2115 23.6253C38.0837 24.3282 37.4447 24.7755 36.7419 24.6477L17.6364 21.4528L15.7195 22.4752L25.5597 26.1812C26.1987 26.4368 26.5821 27.1397 26.3265 27.8426C26.1348 28.3538 25.6236 28.6733 25.1125 28.6733Z" fill="black"/>
<path d="M15.5914 35.255C15.4636 35.255 15.2719 35.255 15.1442 35.1911L1.66173 30.3349C1.15054 30.1432 0.831055 29.6959 0.831055 29.1847C0.831055 28.6736 1.15054 28.1624 1.59783 27.9707L6.64575 25.926C6.83744 25.8621 7.02914 25.7982 7.15693 25.8621L13.1633 26.1177L17.4445 24.4563C18.0835 24.2007 18.8502 24.5202 19.1058 25.1592C19.3614 25.7982 19.0419 26.5649 18.4029 26.8205L13.9301 28.6097C13.7384 28.6736 13.6106 28.6736 13.4189 28.6736L7.41252 28.418L5.68728 29.1208L15.6553 32.6991C18.7224 31.7407 37.8918 25.5426 41.6617 23.6895C45.1761 22.0282 48.4349 20.1113 48.371 17.8109C48.371 17.6831 48.3071 17.5554 48.1793 17.3637C47.4125 16.7247 44.8566 16.1496 40.0004 16.5969C37.8279 16.7886 31.2464 20.0474 27.3486 22.2199C26.7097 22.5394 25.9429 22.3477 25.6234 21.7087C25.3039 21.0697 25.4956 20.303 26.1346 19.9835C27.1569 19.4084 36.4221 14.4244 39.8087 14.1049C44.9205 13.5937 48.371 14.1049 49.9045 15.5106C50.6074 16.0857 50.9269 16.9164 50.9908 17.8109C51.0547 21.7726 46.8374 24.1368 42.8119 26.0538C38.5946 28.0985 16.9333 34.9994 16.0387 35.3189C15.847 35.255 15.7192 35.255 15.5914 35.255Z" fill="black"/>
<path d="M41.7897 18.8332C41.3424 18.8332 40.8951 18.5776 40.6395 18.1303C40.32 17.4913 40.5756 16.7246 41.2146 16.4051L44.4734 14.7437C45.1123 14.4243 45.8791 14.6798 46.1986 15.3188C46.5181 15.9578 46.2625 16.7246 45.6235 17.0441L42.3647 18.7054C42.173 18.7693 41.9813 18.8332 41.7897 18.8332Z" fill="black"/>
<path d="M38.4673 20.3667C37.9561 20.3667 37.5089 20.0472 37.2533 19.5999C36.9977 18.9609 37.3172 18.1941 37.9561 17.9386L38.5951 17.683C39.2341 17.4274 40.0009 17.7469 40.2565 18.3858C40.5121 19.0248 40.1926 19.7916 39.5536 20.0472L38.9146 20.3028C38.7868 20.3667 38.5951 20.3667 38.4673 20.3667Z" fill="black"/>
<path d="M17.8921 30.0151C17.381 30.0151 16.9337 29.6956 16.6781 29.2483C16.4225 28.6094 16.742 27.8426 17.381 27.587L18.0199 27.3314C18.6589 27.0758 19.4257 27.3953 19.6813 28.0343C19.9369 28.6733 19.6174 29.44 18.9784 29.6956L18.3394 29.9512C18.2116 29.9512 18.0838 30.0151 17.8921 30.0151Z" fill="black"/>
<path d="M35.0162 22.0913C34.505 22.0913 34.0577 21.7718 33.8021 21.3245C33.5465 20.6855 33.866 19.9188 34.505 19.6632L35.144 19.4076C35.7829 19.152 36.5497 19.4715 36.8053 20.1104C37.0609 20.7494 36.7414 21.5162 36.1024 21.7718L35.4634 22.0274C35.3356 22.0913 35.144 22.0913 35.0162 22.0913Z" fill="black"/>
</g>
<defs>
<clipPath id="clip0_2921_23186">
<rect width="60" height="65" fill="white"/>
</clipPath>
</defs>
</svg>
