<svg width="60" height="65" viewBox="0 0 60 65" fill="none" xmlns="http://www.w3.org/2000/svg">
<g clip-path="url(#clip0_2921_23422)">
<path d="M29.9681 64.0726C28.6901 64.0726 27.4121 63.7531 26.262 63.1141L11.5016 54.9991C10.8626 54.6796 10.6709 53.9128 10.9904 53.2738C11.3099 52.6349 12.0767 52.4432 12.7157 52.7627L27.5399 60.8777C29.0735 61.7084 30.9265 61.7084 32.4601 60.8777L54.8243 48.6093C56.4856 47.7147 57.508 45.9895 57.508 44.1365V20.1109C57.508 18.2579 56.4856 16.5326 54.8243 15.6381L32.4601 3.36969C30.9265 2.53902 29.0735 2.53902 27.5399 3.36969L5.17572 15.6381C3.51438 16.5326 2.55591 18.2579 2.55591 20.1109V43.5614C2.55591 44.2643 1.98083 44.8393 1.27796 44.8393C0.57508 44.8393 0 44.2643 0 43.5614V20.1109C0 17.2994 1.53355 14.7435 3.96166 13.4016L26.3259 1.13327C28.6262 -0.144684 31.3738 -0.144684 33.6741 1.13327L56.0383 13.4016C58.4665 14.7435 60 17.2994 60 20.1109V44.1365C60 46.948 58.4665 49.5039 56.0383 50.8457L33.6741 63.1141C32.524 63.7531 31.246 64.0726 29.9681 64.0726Z" fill="black"/>
<path d="M26.1334 55.0627H12.2037C11.5009 55.0627 10.9258 54.4876 10.9258 53.7847C10.9258 53.0818 11.5009 52.5068 12.2037 52.5068H26.1973C27.4753 52.5068 28.6894 52.1234 29.7117 51.4205L47.028 39.855C47.7309 39.2799 48.1143 38.3854 47.9226 37.4269C47.7948 36.4045 46.9002 35.51 45.8779 35.3183C45.3028 35.1905 44.7916 35.3183 44.2804 35.51L32.651 42.7943C31.8203 43.3055 30.8619 43.5611 29.9673 43.5611H20.9577C20.2549 43.5611 19.6798 42.986 19.6798 42.2831C19.6798 41.5802 20.2549 41.0052 20.9577 41.0052H29.9034C30.3507 41.0052 30.8619 40.8774 31.2453 40.6218L42.7469 33.4652C42.8108 33.4013 42.8747 33.4013 42.9386 33.3374C43.9609 32.7624 45.1111 32.6346 46.2612 32.8263C48.3699 33.2096 50.0312 34.9349 50.3507 37.0435C50.6063 38.8965 49.9034 40.7496 48.4338 41.8358L48.3699 41.8997L31.1175 53.593C29.6478 54.5515 27.9226 55.0627 26.1334 55.0627Z" fill="black"/>
<path d="M1.27765 44.7752C0.894259 44.7752 0.510873 44.5835 0.255282 44.264C-0.128105 43.6889 -0.000309315 42.9221 0.574771 42.4748L11.8847 34.2959C13.4182 33.2736 15.1435 32.6985 16.9965 32.6985H28.3703C29.8399 32.6985 31.1818 33.2736 32.2042 34.2959C33.2265 35.3183 33.8016 36.6601 33.7377 38.1298V38.2576C33.7377 41.1969 31.3096 43.625 28.3703 43.625C27.6674 43.625 27.0923 43.0499 27.0923 42.347C27.0923 41.6442 27.6674 41.0691 28.3703 41.0691C29.9038 41.0691 31.1818 39.7911 31.1818 38.2576V38.1298C31.1818 37.363 30.8623 36.6601 30.3511 36.149C29.8399 35.6378 29.1371 35.3183 28.3703 35.3183H16.9965C15.7185 35.3183 14.4406 35.7017 13.3543 36.4685L2.04442 44.5835C1.85273 44.7113 1.53324 44.7752 1.27765 44.7752Z" fill="black"/>
<path d="M38.0822 33.2098C30.0311 33.2098 24.2803 27.6507 24.2164 22.6666C24.1525 19.6634 21.7883 17.2992 18.849 17.2992C18.6573 17.2992 18.4656 17.2992 18.2739 17.3631L16.8682 17.5548V16.0852C16.9321 12.1874 19.8075 8.92861 23.5774 8.35353C23.6413 8.35353 23.7052 8.35353 23.7691 8.28963C23.833 8.28963 23.9608 8.28963 24.0247 8.28963C24.2803 8.28963 24.5998 8.22573 24.8554 8.28963C25.2388 8.28963 25.6222 8.28963 26.0694 8.35353C26.1972 8.35353 26.325 8.35353 26.4528 8.41742C26.7723 8.48132 27.1557 8.48132 27.4752 8.54522C27.6669 8.60912 27.7947 8.60912 27.9864 8.67302C28.242 8.73691 28.4976 8.80081 28.7531 8.86471C28.9448 8.92861 29.2004 8.9925 29.3921 9.0564C29.5199 9.1203 29.6477 9.1203 29.7116 9.1842C30.2228 9.37589 30.6701 9.56758 31.1174 9.82318C31.1813 9.82318 31.1813 9.88707 31.2452 9.88707C33.865 11.2928 38.4656 14.7433 39.1685 21.5804C39.6797 25.8615 41.341 27.0117 45.1749 29.2481L47.0918 30.3344L45.1749 31.4206C43.0662 32.5708 40.6381 33.2098 38.0822 33.2098ZM19.5519 14.7433C23.5774 15.1267 26.7084 18.4494 26.7723 22.6027C26.8362 27.1395 32.9065 30.6538 38.0822 30.6538C39.3602 30.6538 40.702 30.4622 41.9161 30.0149C39.0407 28.1618 37.2516 26.181 36.7404 21.7082C36.1014 16.0852 32.3314 13.2098 30.095 11.9957H30.0311C29.6477 11.804 29.2643 11.6762 28.8809 11.4845C28.7531 11.4206 28.6254 11.4206 28.5615 11.3567C28.3698 11.2928 28.242 11.2289 28.0503 11.165C27.8586 11.1011 27.603 11.0372 27.4113 10.9733C27.2835 10.9733 27.1557 10.9094 26.964 10.9094C26.7084 10.8455 26.3889 10.7816 26.1333 10.7816C26.0055 10.7816 25.9416 10.7816 25.8138 10.7816C25.1749 10.7177 24.7276 10.7177 24.2164 10.7177C21.98 10.9733 20.1269 12.5708 19.5519 14.7433Z" fill="black"/>
<path d="M38.0829 27.5227C33.7378 27.5227 27.3481 25.4141 24.6643 22.2831C24.2171 21.772 24.281 20.9413 24.7921 20.494C25.3033 20.0467 26.134 20.1106 26.5813 20.6218C28.6899 23.1138 34.3768 24.9668 38.0829 24.9668C39.3608 24.9668 40.7027 24.7751 41.9167 24.3279C39.1691 22.4748 36.9966 20.4301 35.3992 17.1074C35.0797 16.4684 35.3353 15.7017 35.9743 15.3822C36.6132 15.0627 37.38 15.3183 37.6995 15.9573C39.233 19.0243 41.2778 21.0052 45.3033 23.3055L47.2203 24.3918L45.3033 25.478C43.0669 26.8838 40.6388 27.5227 38.0829 27.5227Z" fill="black"/>
<path d="M24.664 15.0628C25.4756 15.0628 26.1336 14.4048 26.1336 13.5932C26.1336 12.7815 25.4756 12.1235 24.664 12.1235C23.8523 12.1235 23.1943 12.7815 23.1943 13.5932C23.1943 14.4048 23.8523 15.0628 24.664 15.0628Z" fill="black"/>
<path d="M26.0699 34.5516C25.9421 34.5516 25.8143 34.5516 25.7504 34.4877C25.0475 34.2961 24.6641 33.5932 24.8558 32.8903L26.3894 27.3312C26.5811 26.6283 27.2839 26.2449 27.9868 26.4366C28.6897 26.6283 29.0731 27.3312 28.8814 28.0341L27.3478 33.5932C27.1561 34.1683 26.645 34.5516 26.0699 34.5516Z" fill="black"/>
<path d="M29.7119 34.5515C29.5841 34.5515 29.4563 34.5515 29.3285 34.4876C28.6256 34.2959 28.2423 33.5931 28.4339 32.8902L29.2646 30.0148C29.4563 29.3119 30.1592 28.9285 30.8621 29.1202C31.5649 29.3119 31.9483 30.0148 31.7566 30.7177L30.926 33.5931C30.7982 34.1681 30.287 34.5515 29.7119 34.5515Z" fill="black"/>
</g>
<defs>
<clipPath id="clip0_2921_23422">
<rect width="60" height="65" fill="white"/>
</clipPath>
</defs>
</svg>
