<svg width="60" height="65" viewBox="0 0 60 65" fill="none" xmlns="http://www.w3.org/2000/svg">
<path d="M30.0319 64.8428C28.754 64.8428 27.476 64.5233 26.3259 63.8844L3.96166 51.616C1.53355 50.2741 0 47.7182 0 44.9067V20.8812C0 18.0697 1.53355 15.5138 3.96166 14.1719L26.3259 1.90353C28.6262 0.62558 31.3738 0.62558 33.6741 1.90353L56.0383 14.1719C58.4665 15.5138 60 18.0697 60 20.8812V44.9067C60 47.7182 58.4665 50.2741 56.0383 51.616L33.6741 63.8844C32.5879 64.5233 31.3099 64.8428 30.0319 64.8428ZM30.0319 3.50098C29.2013 3.50098 28.3706 3.69267 27.5399 4.13996L5.17572 16.4083C3.51438 17.3029 2.55591 19.0281 2.55591 20.8812V44.9067C2.55591 46.7598 3.57827 48.485 5.17572 49.3796L27.5399 61.6479C29.0735 62.4786 30.9265 62.4786 32.4601 61.6479L54.8243 49.3796C56.4856 48.485 57.4441 46.7598 57.4441 44.9067V20.8812C57.4441 19.0281 56.4217 17.3029 54.7604 16.4083L32.4601 4.13996C31.6933 3.69267 30.8626 3.50098 30.0319 3.50098Z" fill="black"/>
<path d="M29.968 50.0822C22.1085 50.0822 15.7188 43.2452 15.7188 34.8107C15.7188 26.6317 28.5622 13.7883 29.0734 13.2132C29.5846 12.702 30.3513 12.702 30.8625 13.2132C31.4376 13.7883 44.2172 26.6317 44.2172 34.8107C44.2172 43.2452 37.8274 50.0822 29.968 50.0822ZM29.968 16.0247C26.0063 20.1781 18.2747 29.4433 18.2747 34.8746C18.2747 41.9033 23.5143 47.5902 29.968 47.5902C36.4216 47.5902 41.6612 41.8394 41.6612 34.8746C41.6612 29.4433 33.9296 20.1781 29.968 16.0247Z" fill="black"/>
<path d="M27.221 44.3948C26.5181 44.3948 25.943 43.8198 25.943 43.1169C25.943 40.8166 24.09 38.9635 21.7897 38.9635C21.0868 38.9635 20.5117 38.3885 20.5117 37.6856C20.5117 36.9827 21.0868 36.4076 21.7897 36.4076C24.09 36.4076 25.943 34.5546 25.943 32.2543C25.943 31.5514 26.5181 30.9763 27.221 30.9763C27.9239 30.9763 28.4989 31.5514 28.4989 32.2543C28.4989 34.5546 30.352 36.4076 32.6523 36.4076C33.3552 36.4076 33.9302 36.9827 33.9302 37.6856C33.9302 38.3885 33.3552 38.9635 32.6523 38.9635C30.352 38.9635 28.4989 40.8166 28.4989 43.1169C28.4989 43.8198 27.9239 44.3948 27.221 44.3948ZM25.7513 37.6856C26.3264 38.1329 26.8376 38.5802 27.221 39.1552C27.6683 38.5802 28.1156 38.069 28.6906 37.6856C28.1156 37.2383 27.6044 36.791 27.221 36.2159C26.7737 36.791 26.3264 37.3022 25.7513 37.6856Z" fill="black"/>
</svg>
