<svg width="64" height="70" viewBox="0 0 64 70" fill="none" xmlns="http://www.w3.org/2000/svg">
<path fill-rule="evenodd" clip-rule="evenodd" d="M62.5 46.9164V22.9164C62.5 20.1653 60.9745 17.5611 58.5298 16.1888C58.5234 16.1824 58.5234 16.1824 58.517 16.1824L36.1779 3.92706C36.1734 3.92068 36.169 3.92074 36.1645 3.91436C33.8743 2.69521 31.1257 2.69521 28.8355 3.91436C28.831 3.92074 28.8266 3.92068 28.8221 3.92706L6.48169 16.1824C6.47786 16.1824 6.47404 16.1824 6.46957 16.1888C4.02361 17.5611 2.5 20.0887 2.5 22.9164V46.9164C2.5 49.6675 4.02361 52.2718 6.46957 53.6441C6.47404 53.6505 6.47786 53.6505 6.48169 53.6505L28.8221 65.9058C28.8266 65.9122 28.831 65.9122 28.8355 65.9185C31.1257 67.1377 33.8743 67.1377 36.1645 65.9185C36.169 65.9122 36.1734 65.9122 36.1779 65.9058L58.517 53.6505C58.5234 53.6505 58.5234 53.6505 58.5298 53.6441C60.9745 52.2718 62.5 49.6675 62.5 46.9164ZM59.9468 46.9164C59.9468 48.7611 58.9192 50.4973 57.2851 51.4165L34.9581 63.6653C33.4211 64.4824 31.5789 64.4824 30.0419 63.6653L7.71745 51.4165C6.08086 50.4973 5.05319 48.7611 5.05319 46.9164V22.9164C5.05319 21.0207 6.08086 19.3356 7.71745 18.4165L30.0419 6.16749C31.5789 5.35047 33.4211 5.35047 34.9581 6.16749L57.2851 18.4165C58.9192 19.3356 59.9468 21.0717 59.9468 22.9164V46.9164ZM28.9268 50.0504C28.5917 50.2802 28.277 50.5355 27.9866 50.8291C26.7898 52.0227 26.117 53.6504 26.117 55.3419C26.117 57.0526 26.117 58.5334 26.117 58.5334C26.117 59.2419 26.6883 59.81 27.3936 59.81H37.6064C38.3117 59.81 38.883 59.2419 38.883 58.5334V55.3419C38.883 53.6504 38.2102 52.0227 37.0134 50.8291C36.723 50.5355 36.4083 50.2802 36.0732 50.0504C37.0192 49.1249 37.6064 47.8355 37.6064 46.4058C37.6064 43.5909 35.3181 41.2994 32.5 41.2994C29.6819 41.2994 27.3936 43.5909 27.3936 46.4058C27.3936 47.8355 27.9808 49.1249 28.9268 50.0504ZM36.3298 55.3419V57.2568H28.6702V55.3419C28.6702 54.327 29.0736 53.3504 29.7917 52.6356C30.5104 51.9143 31.4845 51.5121 32.5 51.5121C33.5155 51.5121 34.4896 51.9143 35.2083 52.6356C35.9264 53.3504 36.3298 54.327 36.3298 55.3419ZM32.5 43.8526C33.9094 43.8526 35.0532 44.9951 35.0532 46.4058C35.0532 47.8164 33.9094 48.959 32.5 48.959C31.0906 48.959 29.9468 47.8164 29.9468 46.4058C29.9468 44.9951 31.0906 43.8526 32.5 43.8526ZM9.77786 38.5611C9.44275 38.7909 9.1281 39.0462 8.83767 39.3398C7.64086 40.5334 6.96808 42.1611 6.96808 43.8526C6.96808 45.5632 6.96808 47.0441 6.96808 47.0441C6.96808 47.7526 7.53936 48.3207 8.24468 48.3207H18.4574C19.1628 48.3207 19.734 47.7526 19.734 47.0441V43.8526C19.734 42.1611 19.0613 40.5334 17.8645 39.3398C17.574 39.0462 17.2594 38.7909 16.9243 38.5611C17.8702 37.6355 18.4574 36.3462 18.4574 34.9164C18.4574 32.1015 16.1691 29.81 13.3511 29.81C10.533 29.81 8.24468 32.1015 8.24468 34.9164C8.24468 36.3462 8.8319 37.6355 9.77786 38.5611ZM48.0745 38.5611C47.7426 38.7909 47.4234 39.0462 47.1362 39.3398C45.9362 40.5334 45.266 42.1611 45.266 43.8526C45.266 45.5632 45.266 47.0441 45.266 47.0441C45.266 47.7526 45.834 48.3207 46.5426 48.3207H56.7553C57.4638 48.3207 58.0319 47.7526 58.0319 47.0441V43.8526C58.0319 42.1611 57.3617 40.5334 56.1617 39.3398C55.8745 39.0462 55.5553 38.7909 55.2234 38.5611C56.1681 37.6355 56.7553 36.3462 56.7553 34.9164C56.7553 32.1015 54.4702 29.81 51.6489 29.81C48.834 29.81 46.5426 32.1015 46.5426 34.9164C46.5426 36.3462 47.1298 37.6355 48.0745 38.5611ZM17.1809 43.8526V45.7675H9.52128V43.8526C9.52128 42.8377 9.92469 41.8611 10.6428 41.1462C11.3615 40.4249 12.3355 40.0228 13.3511 40.0228C14.3666 40.0228 15.3406 40.4249 16.0593 41.1462C16.7774 41.8611 17.1809 42.8377 17.1809 43.8526ZM55.4787 43.8526V45.7675H47.8191V43.8526C47.8191 42.8377 48.2213 41.8611 48.9426 41.1462C49.6575 40.4249 50.634 40.0228 51.6489 40.0228C52.6638 40.0228 53.6404 40.4249 54.3553 41.1462C55.0766 41.8611 55.4787 42.8377 55.4787 43.8526ZM44.6277 15.7675C44.6277 14.7526 44.2242 13.776 43.5062 13.0611C42.7874 12.3399 41.8134 11.9377 40.7979 11.9377C36.6215 11.9377 28.3785 11.9377 24.2021 11.9377C23.1866 11.9377 22.2126 12.3399 21.4938 13.0611C20.7758 13.776 20.3723 14.7526 20.3723 15.7675V25.4505L18.1932 27.6334C17.6947 28.1313 17.6947 28.9356 18.1932 29.4335L20.3723 31.6164V33.0015C20.3723 35.1143 22.0868 36.8313 24.2021 36.8313H29.4183L31.5974 39.0078C32.096 39.5121 32.904 39.5121 33.4026 39.0078L35.5817 36.8313H40.7979C42.9132 36.8313 44.6277 35.1143 44.6277 33.0015V31.6164L46.8042 29.4335C47.3085 28.9356 47.3085 28.1313 46.8042 27.6334L44.6277 25.4505V15.7675ZM13.3511 32.3632C14.7604 32.3632 15.9043 33.5058 15.9043 34.9164C15.9043 36.3271 14.7604 37.4696 13.3511 37.4696C11.9417 37.4696 10.7979 36.3271 10.7979 34.9164C10.7979 33.5058 11.9417 32.3632 13.3511 32.3632ZM51.6489 32.3632C53.0596 32.3632 54.2021 33.5058 54.2021 34.9164C54.2021 36.3271 53.0596 37.4696 51.6489 37.4696C50.2383 37.4696 49.0957 36.3271 49.0957 34.9164C49.0957 33.5058 50.2383 32.3632 51.6489 32.3632ZM42.0745 15.7675V25.9803C42.0745 26.3186 42.2091 26.6441 42.4485 26.8803L44.0991 28.5334L42.4485 30.1866C42.2091 30.4228 42.0745 30.7483 42.0745 31.0866V33.0015C42.0745 33.71 41.5032 34.2781 40.7979 34.2781H35.0532C34.7149 34.2781 34.39 34.4121 34.1506 34.6547L32.5 36.3015L30.8494 34.6547C30.61 34.4121 30.2851 34.2781 29.9468 34.2781C29.9468 34.2781 26.6404 34.2781 24.2021 34.2781C23.4968 34.2781 22.9255 33.71 22.9255 33.0015V31.0866C22.9255 30.7483 22.7909 30.4228 22.5515 30.1866L20.9009 28.5334L22.5515 26.8803C22.7909 26.6441 22.9255 26.3186 22.9255 25.9803C22.9255 25.9803 22.9255 19.4952 22.9255 15.7675C22.9255 15.4292 23.0602 15.1037 23.2996 14.8675C23.5389 14.6249 23.8638 14.4909 24.2021 14.4909H40.7979C41.1362 14.4909 41.4611 14.6249 41.7004 14.8675C41.9398 15.1037 42.0745 15.4292 42.0745 15.7675ZM29.2568 29.0186L29.2721 29.8164C29.3053 31.5845 30.7492 33.0015 32.5179 33.0015H32.5192C34.2636 33.0015 35.6966 31.6228 35.763 29.8802L35.7975 28.9866C38.0123 27.8058 39.5213 25.476 39.5213 22.7888C39.5213 18.9143 36.3751 15.7675 32.5 15.7675C28.6249 15.7675 25.4787 18.9143 25.4787 22.7888C25.4787 25.4952 27.0119 27.8441 29.2568 29.0186ZM31.794 28.1569C31.7838 27.6335 31.4519 27.1675 30.9585 26.9823C29.2511 26.3568 28.0319 24.7164 28.0319 22.7888C28.0319 20.3249 30.0343 18.3207 32.5 18.3207C34.9657 18.3207 36.9681 20.3249 36.9681 22.7888C36.9681 24.6909 35.7745 26.3186 34.0951 26.9633C33.6183 27.1484 33.296 27.5951 33.2762 28.1058L33.2117 29.7845C33.1977 30.1547 32.8919 30.4483 32.5192 30.4483H32.5179C32.14 30.4483 31.8317 30.1484 31.8247 29.7654L31.794 28.1569ZM31.2279 23.9632C31.2247 23.9951 31.2234 25.342 31.2234 25.342C31.2234 26.0441 31.7953 26.6186 32.5 26.6186C33.2047 26.6186 33.7766 26.0441 33.7766 25.342C33.7766 25.342 33.7753 23.9951 33.7721 23.9632L35.3174 22.4122C35.816 21.9143 35.816 21.11 35.3174 20.6122C34.8196 20.1143 34.0102 20.1143 33.5123 20.6122L32.5 21.6207L31.4877 20.6122C30.9898 20.1143 30.1804 20.1143 29.6826 20.6122C29.184 21.11 29.184 21.9143 29.6826 22.4122L31.2279 23.9632ZM17.1809 22.7888H13.3511C12.6464 22.7888 12.0745 23.3632 12.0745 24.0654C12.0745 24.7675 12.6464 25.342 13.3511 25.342H17.1809C17.8855 25.342 18.4574 24.7675 18.4574 24.0654C18.4574 23.3632 17.8855 22.7888 17.1809 22.7888ZM47.8191 25.342H51.6489C52.3511 25.342 52.9255 24.7675 52.9255 24.0654C52.9255 23.3632 52.3511 22.7888 51.6489 22.7888H47.8191C47.117 22.7888 46.5426 23.3632 46.5426 24.0654C46.5426 24.7675 47.117 25.342 47.8191 25.342ZM48.5276 20.6569L50.4425 19.3803C51.0298 18.9909 51.1893 18.1994 50.7936 17.6122C50.4042 17.025 49.6128 16.8654 49.0255 17.2611L47.1106 18.5377C46.5234 18.9271 46.3638 19.7186 46.7596 20.3058C47.149 20.893 47.9404 21.0526 48.5276 20.6569ZM17.8887 18.5377L15.9738 17.2611C15.3879 16.8654 14.5945 17.025 14.2038 17.6122C13.8132 18.1994 13.9715 18.9909 14.5581 19.3803L16.473 20.6569C17.0589 21.0526 17.8523 20.893 18.243 20.3058C18.6336 19.7186 18.4753 18.9271 17.8887 18.5377Z" fill="black"/>
</svg>
