<svg width="60" height="63" viewBox="0 0 60 63" fill="none" xmlns="http://www.w3.org/2000/svg">
<g clip-path="url(#clip0_2921_23423)">
<path d="M30.4908 58.666C29.321 58.666 28.1512 58.3735 27.0984 57.7886L6.62645 46.5583C4.40379 45.33 3 42.9903 3 40.4167V18.424C3 15.8504 4.40379 13.5108 6.62645 12.2825L27.0984 1.05217C29.204 -0.117651 31.7192 -0.117651 33.8248 1.05217L54.2968 12.2825C56.5194 13.5108 57.9232 15.8504 57.9232 18.424V40.4167C57.9232 42.9903 56.5194 45.33 54.2968 46.5583L33.8248 57.7886C32.8305 58.3735 31.6607 58.666 30.4908 58.666ZM30.4908 2.51445C29.7305 2.51445 28.9701 2.68992 28.2097 3.09936L7.73778 14.3297C6.21701 15.1485 5.33965 16.7278 5.33965 18.424V40.4167C5.33965 42.113 6.2755 43.6922 7.73778 44.5111L28.2097 55.7414C29.6135 56.5018 31.3097 56.5018 32.7135 55.7414L53.1854 44.5111C54.7062 43.6922 55.642 42.113 55.642 40.4167V18.424C55.642 16.7278 54.7062 15.1485 53.1854 14.3297L32.7135 3.09936C32.0116 2.68992 31.2512 2.51445 30.4908 2.51445Z" fill="black"/>
<path d="M30.4911 36.0298C30.0232 36.0298 29.5553 35.7958 29.3213 35.4448C27.6836 33.2807 24.876 29.3618 24.876 27.0806C24.876 23.9806 27.3911 21.4655 30.4911 21.4655C33.5912 21.4655 36.1063 23.9806 36.1063 27.0806C36.1063 29.3618 33.3572 33.2807 31.661 35.4448C31.544 35.5618 31.427 35.7373 31.2515 35.7958C31.076 35.9128 30.7836 36.0298 30.4911 36.0298ZM30.4911 23.8051C28.6779 23.8051 27.2156 25.2674 27.2156 27.0806C27.2156 28.075 28.5024 30.4146 30.4911 33.1637C32.4798 30.4731 33.7666 28.075 33.7666 27.0806C33.7666 25.2674 32.3044 23.8051 30.4911 23.8051Z" fill="black"/>
<path d="M30.4917 28.2503C29.7313 28.2503 29.0879 27.6069 29.0879 26.8465C29.0879 26.0862 29.6728 25.4427 30.4917 25.4427C30.4917 25.4427 30.4917 25.4427 30.5502 25.4427C31.3106 25.4427 31.954 26.0862 31.954 26.8465C31.8955 27.6069 31.2521 28.2503 30.4917 28.2503Z" fill="black"/>
<path d="M11.8265 30.2127C10.8327 30.2461 9.79759 29.1552 8.43509 27.8481C7.96142 27.3787 7.51702 26.9599 7.18174 26.6131C6.90496 26.3677 6.62817 26.1222 6.38063 25.9274C5.47038 25.1697 4.77842 24.5561 4.23059 23.7242C3.91672 23.2976 3.49947 22.4579 3.19917 21.8208C2.92813 21.2343 3.20069 20.5366 3.78714 20.2656C4.37359 19.9945 5.07129 20.2671 5.34234 20.8535C5.67971 21.6719 6.02282 22.1492 6.08132 22.2505C6.11056 22.3011 6.13981 22.3518 6.13981 22.3518C6.54141 22.9304 7.09497 23.4213 7.89608 24.1069C8.14362 24.3017 8.42038 24.5472 8.72641 24.8432C9.14159 25.2114 9.61528 25.6809 10.0889 26.1503C10.5626 26.6198 11.2039 27.2626 11.699 27.6522C11.7924 27.4632 11.806 27.2527 11.689 27.0501C11.6598 26.9995 11.6013 26.8981 11.5214 26.8767C11.4123 26.8047 10.4649 25.8657 9.31287 24.5722C9.00685 24.2761 8.92485 23.7831 9.08255 23.3544C9.57707 21.9883 8.7775 20.0185 8.44796 19.3307C8.17691 18.7442 8.36959 18.0251 8.95604 17.7541C9.54249 17.483 10.2616 17.6757 10.5326 18.2622C10.7081 18.5661 11.9599 21.0853 11.4989 23.4452C12.3956 24.4134 13.146 25.1283 13.146 25.1283C13.3935 25.3231 13.5398 25.5764 13.7152 25.8803C14.4835 27.3279 13.9911 29.1656 12.5435 29.9338C12.3194 30.1307 12.0876 30.197 11.8265 30.2127Z" fill="black"/>
<path d="M21.9702 20.6417C21.5785 20.6652 21.179 20.5581 20.8009 20.3712C20.721 20.3498 19.9649 19.9759 19.8557 19.9038L16.2189 17.816C15.6225 17.485 15.4742 16.7601 15.7839 16.2437C16.0935 15.7272 16.8398 15.4989 17.3563 15.8086L20.9931 17.8964C21.073 17.9178 21.6694 18.2488 21.7493 18.2702C21.9091 18.3131 22.0396 18.3052 22.1409 18.2467C22.1916 18.2175 22.3435 18.1297 22.437 17.9407C22.5519 17.6718 22.4563 17.3893 22.1874 17.2744L14.3174 12.7678C13.0661 12.0043 12.5867 11.8759 12.3763 11.8623C11.7527 11.9521 11.1485 11.4905 11.1093 10.8377C11.0195 10.2142 11.4811 9.60997 12.1339 9.57079C13.1491 9.45745 14.3925 10.0903 15.5054 10.7311L15.6145 10.8031L23.3461 15.187C24.6481 15.9212 25.2136 17.4858 24.5886 18.8598C24.2653 19.5867 23.6946 20.1189 22.9776 20.3978C22.623 20.6025 22.3112 20.6474 21.9702 20.6417Z" fill="black"/>
<path d="M22.5913 24.8758C22.0691 24.9072 21.5605 24.728 21.1239 24.4398L14.6436 20.8194C14.0472 20.4883 13.8989 19.7635 14.2085 19.247C14.5396 18.6506 15.2644 18.5023 15.7809 18.8119L22.2398 22.5123C22.538 22.6778 22.8498 22.6329 22.9939 22.4146C23.1381 22.1963 23.1224 21.9352 22.8748 21.7404C22.7657 21.6683 22.5766 21.5749 22.3876 21.4814C22.1985 21.3879 22.0894 21.3158 22.0894 21.3158L18.5618 19.3001C17.9654 18.9691 17.817 18.2442 18.1267 17.7277C18.4578 17.1314 19.1826 16.983 19.6991 17.2927L23.4451 19.4525C24.0414 19.7836 24.0921 19.7544 24.1506 19.8557C25.4389 20.8004 25.7299 22.591 24.8358 23.8501C24.3236 24.4836 23.4546 24.8502 22.5913 24.8758Z" fill="black"/>
<path d="M18.6766 30.378C18.1544 30.4094 17.6458 30.2303 17.2092 29.942L11.3388 26.4422C10.7931 26.0819 10.5941 25.3863 10.9544 24.8406C11.3147 24.2948 12.0103 24.0959 12.556 24.4562L18.4264 27.956C18.6447 28.1001 19.0071 28.0259 19.1513 27.8077C19.2233 27.6985 19.2662 27.5387 19.2077 27.4374C19.1784 27.3867 19.1413 27.2055 19.0029 27.0828L14.7191 24.6932C14.1227 24.3621 13.9744 23.6373 14.284 23.1208C14.6151 22.5244 15.34 22.3761 15.8564 22.6858L20.0896 25.1046C20.1988 25.1767 20.2787 25.1981 20.3079 25.2487C20.9121 25.7103 21.343 26.3396 21.4407 27.0937C21.5383 27.8478 21.3749 28.6176 20.9133 29.2218C20.4088 29.9858 19.5691 30.4031 18.6766 30.378Z" fill="black"/>
<path d="M22.2088 28.5412C21.6865 28.5726 21.1779 28.3935 20.7413 28.1052L12.9805 23.6707C12.3841 23.3396 12.2358 22.6148 12.5454 22.0983C12.8765 21.5019 13.6013 21.3536 14.1178 21.6633L21.8787 26.0978C22.1769 26.2633 22.4594 26.1678 22.6328 26.0001C22.7769 25.7818 22.732 25.4701 22.5137 25.3259L18.9568 23.2596C18.3604 22.9285 18.2121 22.2037 18.5217 21.6872C18.8528 21.0908 19.5776 20.9425 20.0941 21.2521L23.6218 23.2678C23.7017 23.2892 23.8108 23.3613 23.8401 23.412C25.1284 24.3566 25.4193 26.1473 24.5253 27.4064C23.9916 28.1198 23.1012 28.5663 22.2088 28.5412Z" fill="black"/>
<path d="M51.0493 19.1846C50.6283 19.1574 47.8418 19.0102 46.0427 17.4149C44.7235 17.7037 43.7961 17.969 43.7454 17.9983C43.4629 18.0938 43.1511 18.1387 42.8101 18.133C41.1557 18.0751 39.8439 16.7387 39.8726 15.0337C39.8955 13.6696 41.5186 13.2053 43.8158 12.622C44.4608 12.4522 45.055 12.3117 45.4895 12.1284C45.8227 12.0036 46.1559 11.8788 46.489 11.754C47.5899 11.321 48.4374 11.0343 49.4819 10.9716C49.9242 10.9189 50.8167 10.9439 51.7384 11.0196C52.399 11.111 52.8513 11.6604 52.7599 12.321C52.6685 12.9816 52.1191 13.4338 51.4585 13.3424C50.5368 13.2667 49.9347 13.2767 49.8041 13.2845C49.7535 13.3138 49.6736 13.2924 49.6736 13.2924C48.9702 13.3608 48.2746 13.5598 47.2751 13.9342C46.9419 14.0591 46.6087 14.1839 46.2755 14.3087C45.7611 14.4706 45.0655 14.6696 44.4206 14.8393C43.7757 15.009 42.8989 15.2451 42.3631 15.4869C42.4508 15.6389 42.6691 15.783 42.8796 15.7966C42.9595 15.818 43.0101 15.7887 43.1114 15.7302C43.2127 15.6718 44.5026 15.3323 46.1841 14.9693C46.5972 14.8659 47.026 15.0236 47.332 15.3197C48.2365 16.4184 50.3782 16.7354 51.1401 16.7683C51.7714 16.809 52.2744 17.3291 52.2629 18.0111C52.2008 18.7224 51.702 19.1454 51.0493 19.1846Z" fill="black"/>
<path d="M45.7753 32.1584C44.8828 32.1333 44.0467 31.7381 43.4775 30.9861C43.0466 30.3568 42.8691 29.5813 42.9818 28.8408C43.0946 28.1003 43.527 27.4454 44.127 26.9639C44.1777 26.9346 44.9083 26.4453 45.0096 26.3868L48.6061 24.3104C49.1633 23.9887 49.8824 24.1814 50.2041 24.7386C50.5258 25.2958 50.3331 26.0149 49.7759 26.3366L46.1794 28.413C46.1288 28.4423 45.5501 28.8439 45.4995 28.8731C45.3475 28.9608 45.3047 29.1206 45.2833 29.2005C45.2619 29.2804 45.2697 29.411 45.3575 29.563C45.5251 29.7363 45.8447 29.822 46.098 29.6757L53.9202 25.092C55.1866 24.3609 55.5333 24.0256 55.656 23.8872C55.9072 23.2694 56.5736 23.0198 57.1914 23.271C57.8092 23.5221 58.0588 24.1885 57.8076 24.8063C57.3909 25.7223 56.2551 26.4456 55.09 27.1182L54.9887 27.1767L47.3184 31.6727C46.7905 32.045 46.2761 32.2069 45.7753 32.1584Z" fill="black"/>
<path d="M41.7776 30.6163C40.7039 30.6284 39.6709 30.009 39.1873 28.9375C38.5789 27.5327 39.1669 25.9775 40.4332 25.2464L46.8372 21.4815C47.3944 21.1598 48.1135 21.3525 48.4352 21.9097C48.7569 22.4669 48.5642 23.186 48.007 23.5077L41.603 27.2725C41.3498 27.4188 41.2135 27.7676 41.3305 27.9702C41.4182 28.1222 41.5274 28.1943 41.6073 28.2157C41.6872 28.2371 41.7963 28.3092 41.9483 28.2214C42.0496 28.1629 42.2522 28.0459 42.4042 27.9582C42.5561 27.8705 42.7081 27.7827 42.7081 27.7827L46.2539 25.7355C46.8111 25.4138 47.5302 25.6065 47.8519 26.1637C48.1736 26.7209 47.981 27.44 47.4238 27.7617L43.6753 29.9259C43.1473 30.2983 43.0967 30.3275 42.9661 30.3354C42.5316 30.5187 42.1692 30.5928 41.7776 30.6163Z" fill="black"/>
<path d="M38.9212 24.4984C37.8475 24.5105 36.8145 23.8911 36.3309 22.8196C35.7225 21.4148 36.3105 19.8596 37.5768 19.1284L43.5327 15.7574C44.0899 15.4357 44.809 15.6284 45.1307 16.1856C45.4524 16.7428 45.2597 17.4619 44.7025 17.7836L38.7467 21.1546C38.4934 21.3009 38.4077 21.6205 38.4741 21.8523C38.5911 22.0549 38.8893 22.2205 39.1425 22.0743L43.3683 19.567C43.9255 19.2453 44.6446 19.438 44.9663 19.9952C45.288 20.5524 45.0953 21.2715 44.5381 21.5932L40.363 24.0712C40.2617 24.1297 40.211 24.159 40.1097 24.2174C39.7259 24.3715 39.3128 24.4749 38.9212 24.4984Z" fill="black"/>
<path d="M38.7645 28.4388C38.4235 28.433 38.0533 28.3767 37.7843 28.2618C37.0866 27.9892 36.5038 27.4477 36.1743 26.7599C35.5659 25.3552 36.1538 23.7999 37.4202 23.0688L45.1412 18.5436C45.6984 18.2219 46.4175 18.4146 46.7392 18.9718C47.0609 19.529 46.8682 20.2481 46.311 20.5698L38.59 25.095C38.3368 25.2412 38.2005 25.5901 38.3175 25.7927C38.4052 25.9447 38.5144 26.0167 38.5943 26.0381C38.6742 26.0596 38.834 26.1024 38.9859 26.0146L42.5824 23.9382C43.1396 23.6165 43.8587 23.8092 44.1804 24.3664C44.5021 24.9236 44.3094 25.6427 43.7522 25.9644L40.2064 28.0116C40.1051 28.0701 40.0544 28.0993 39.9531 28.1578C39.5479 28.3918 39.1855 28.4659 38.7645 28.4388Z" fill="black"/>
<path d="M36.7399 55.8137C36.5295 55.8001 36.3697 55.7572 36.2099 55.7144C35.6427 55.434 35.3638 54.717 35.6949 54.1206C35.9967 53.4736 36.1388 52.7837 36.3372 51.7236C36.4228 51.404 36.4792 51.0337 36.5356 50.6635C36.6348 50.1334 36.8275 49.4143 36.9988 48.7751C37.1701 48.1359 37.4056 47.257 37.4755 46.6763C37.4755 46.6763 37.4249 46.7056 37.3956 46.6549C37.2144 46.692 37.0917 46.8304 36.969 46.9688C36.9476 47.0487 36.8969 47.0779 36.8755 47.1578C36.8541 47.2377 36.4901 48.596 36.0113 50.2233C35.9042 50.6228 35.5575 50.9581 35.1152 51.0108C33.7162 51.2782 32.3234 52.9603 31.9417 53.586C31.5814 54.1317 30.8565 54.28 30.3108 53.9197C29.7651 53.5594 29.6167 52.8346 29.9771 52.2888C30.1426 51.9906 31.7066 49.6693 34.0174 48.8755C34.4399 47.6185 34.6675 46.609 34.6675 46.609C34.7025 46.3187 34.868 46.0205 35.0336 45.7223C35.4367 45.0167 36.1166 44.5566 36.8921 44.3791C37.6676 44.2015 38.488 44.3357 39.1936 44.7388C40.3649 45.4809 39.9368 47.0789 39.3665 49.3667C39.1953 50.0059 39.0454 50.5653 38.9462 51.0953C38.8898 51.4656 38.8334 51.8358 38.7478 52.1554C38.5572 53.3461 38.4016 54.2464 37.9342 55.1916C37.5661 55.6068 37.1608 55.8408 36.7399 55.8137Z" fill="black"/>
<path d="M22.4656 55.0719C22.1246 55.0661 21.7758 54.9298 21.5204 54.6045C20.8927 53.7512 20.9391 52.7788 20.9214 52.0462C20.9135 51.9156 20.9057 51.7851 20.9271 51.7052L20.8658 42.8253C20.8302 41.3599 21.9347 40.1144 23.4429 39.9191C24.2262 39.8721 24.9453 40.0648 25.5496 40.5264C26.1538 40.988 26.4833 41.6758 26.581 42.4299C26.6102 42.4805 26.6358 43.3437 26.6437 43.4743L26.6333 47.6677C26.6219 48.3498 26.1017 48.8527 25.4704 48.812C24.839 48.7712 24.2854 48.2804 24.3262 47.649L24.3365 43.4555C24.3579 43.3756 24.3187 42.7229 24.2602 42.6216C24.2232 42.4403 24.1647 42.339 24.0848 42.3176C24.0555 42.267 23.8665 42.1735 23.6853 42.2106C23.4241 42.2262 23.2294 42.4738 23.1944 42.7641L23.2557 51.644C23.2635 51.7746 23.2207 51.9344 23.2578 52.1156C23.2813 52.5072 23.2327 53.008 23.3497 53.2106C23.7221 53.7386 23.66 54.4499 23.132 54.8222C22.9586 54.9899 22.6761 55.0854 22.4656 55.0719Z" fill="black"/>
<path d="M28.8719 48.7386C28.2192 48.7778 27.687 48.207 27.7277 47.5757L27.6727 40.1105C27.6784 39.7695 27.4815 39.5455 27.1912 39.5105C27.0314 39.4677 26.9087 39.6061 26.858 39.6353C26.8074 39.6646 26.7353 39.7737 26.6925 39.9335C26.7003 40.0641 26.6867 40.2745 26.7238 40.4557C26.7609 40.6369 26.7181 40.7967 26.7181 40.7967L26.6999 44.8596C26.6884 45.5416 26.1683 46.0445 25.5369 46.0038C24.9056 45.9631 24.352 45.4722 24.3927 44.8409L24.3953 40.5169C24.3561 39.8641 24.3775 39.7842 24.3989 39.7043C24.4824 38.9131 24.8349 38.2369 25.4349 37.7553C26.0349 37.2738 26.7812 37.0456 27.4925 37.1077C29.0241 37.3041 30.0963 38.5762 30.0519 40.0201L30.0777 47.4346C30.0448 48.1965 29.5247 48.6995 28.8719 48.7386Z" fill="black"/>
<path d="M35.4738 48.7093C34.7918 48.6978 34.2888 48.1777 34.3003 47.4957L34.4151 40.6755C34.45 40.3851 34.2239 40.1104 33.9336 40.0755C33.7738 40.0326 33.651 40.171 33.6004 40.2003C33.5497 40.2295 33.427 40.3679 33.4134 40.5784L33.4715 45.4752C33.5107 46.128 32.9399 46.6601 32.3378 46.6701C31.7357 46.68 31.1529 46.1385 31.1936 45.5072L31.1648 40.6609C31.1569 40.5304 31.1783 40.4505 31.1997 40.3706C31.3668 38.7882 32.7402 37.6576 34.3226 37.8247C35.8542 38.021 36.9264 39.2931 36.882 40.737L36.7673 47.5573C36.6253 48.2471 36.1052 48.75 35.4738 48.7093Z" fill="black"/>
<path d="M32.2531 48.7454C31.6004 48.7846 31.0682 48.2138 31.1089 47.5824L31.069 38.6227C31.0748 38.2816 30.8779 38.0576 30.5875 38.0226C30.4277 37.9798 30.305 38.1182 30.2543 38.1475C30.2037 38.1767 30.081 38.3151 30.0674 38.5255L30.0785 42.6391C30.067 43.3211 29.5469 43.824 28.9155 43.7833C28.2841 43.7426 27.7306 43.2517 27.7713 42.6204L27.7895 38.5575C27.8109 38.4776 27.803 38.347 27.8245 38.2671C27.9372 37.5266 28.2605 36.7997 28.8605 36.3182C29.4605 35.8367 30.2068 35.6084 30.918 35.6705C32.4497 35.8669 33.5219 37.139 33.4775 38.5829L33.5174 47.5427C33.426 48.2033 32.9059 48.7062 32.2531 48.7454Z" fill="black"/>
</g>
<defs>
<clipPath id="clip0_2921_23423">
<rect width="60.0009" height="62.2688" fill="white"/>
</clipPath>
</defs>
</svg>
