<svg width="64" height="71" viewBox="0 0 64 71" fill="none" xmlns="http://www.w3.org/2000/svg">
<path d="M32.0319 66.9073C30.754 66.9073 29.476 66.5878 28.3259 65.9488L5.96166 53.6805C3.53355 52.3386 2 49.7827 2 46.9712V22.9456C2 20.1341 3.53355 17.5782 5.96166 16.2364L28.3259 3.96799C30.6262 2.69003 33.3738 2.69003 35.6741 3.96799L58.0383 16.2364C60.4665 17.5782 62 20.1341 62 22.9456V46.9712C62 49.7827 60.4665 52.3386 58.0383 53.6805L35.6741 65.9488C34.5879 66.5878 33.3099 66.9073 32.0319 66.9073ZM32.0319 5.56543C31.2013 5.56543 30.3706 5.75713 29.5399 6.20441L7.17572 18.4728C5.51438 19.3673 4.55591 21.0926 4.55591 22.9456V46.9712C4.55591 48.8242 5.57827 50.5495 7.17572 51.444L29.5399 63.7124C31.0735 64.5431 32.9265 64.5431 34.4601 63.7124L56.8243 51.444C58.4856 50.5495 59.508 48.8242 59.508 46.9712V22.9456C59.508 21.0926 58.4856 19.3673 56.8243 18.4728L34.524 6.20441C33.7572 5.75713 32.9265 5.56543 32.0319 5.56543Z" fill="black"/>
<path d="M55.0349 47.2285H45.7697V41.5416H43.2138V40.2636C43.2138 39.0496 43.5972 36.8131 44.2362 35.024C44.8113 33.4904 46.3448 32.4042 48.07 32.4042H49.2841C50.5621 32.4042 51.84 32.4042 52.8624 32.4042C54.3959 32.4042 55.7378 33.2988 56.3129 34.6406C57.0796 36.3658 57.5269 38.8579 57.5269 40.1997V41.4777H54.971L55.0349 47.2285ZM48.3256 44.6726H52.479V38.9857H54.971C54.8432 37.9633 54.5237 36.6853 54.1403 35.7269C53.9486 35.2796 53.5014 35.024 53.0541 35.024C51.9678 35.024 50.7537 35.024 49.4119 35.024H48.1978C47.5589 35.024 46.9838 35.4074 46.7921 35.9825C46.4726 36.877 46.1531 38.0272 46.0253 39.0496H48.4534L48.3256 44.6726Z" fill="black"/>
<path d="M50.4343 33.9377C47.9422 33.9377 45.8975 31.893 45.8975 29.401C45.8975 26.909 47.9422 24.8643 50.4343 24.8643C52.9263 24.8643 54.971 26.909 54.971 29.401C54.971 31.893 52.9263 33.9377 50.4343 33.9377ZM50.4343 27.3563C49.348 27.3563 48.4534 28.2508 48.4534 29.3371C48.4534 30.4234 49.348 31.3179 50.4343 31.3179C51.5205 31.3179 52.4151 30.4234 52.4151 29.3371C52.4151 28.2508 51.5205 27.3563 50.4343 27.3563Z" fill="black"/>
<path d="M52.0323 51.6367H11.9684C11.2656 51.6367 10.6905 51.0616 10.6905 50.3587C10.6905 49.6558 11.2656 49.0808 11.9684 49.0808H52.0962C52.7991 49.0808 53.3742 49.6558 53.3742 50.3587C53.3742 51.0616 52.7352 51.6367 52.0323 51.6367Z" fill="black"/>
<path d="M55.0355 24.4801C54.8438 24.4801 54.5882 24.4162 54.3965 24.2884L31.4572 11.5089C30.8183 11.1894 30.6266 10.3587 30.9461 9.78364C31.2656 9.14467 32.0962 8.95297 32.6713 9.27246L55.6106 22.052C56.2496 22.3715 56.4413 23.2022 56.1218 23.7773C55.9301 24.2245 55.4828 24.4801 55.0355 24.4801Z" fill="black"/>
<path d="M9.09303 24.4801C8.64574 24.4801 8.19846 24.2245 8.00676 23.8412C7.68727 23.2022 7.87897 22.4354 8.51795 22.1159L31.4572 9.33636C32.0962 9.01687 32.863 9.20856 33.1825 9.84754C33.502 10.4865 33.3103 11.2533 32.6713 11.5728L9.732 24.3523C9.47641 24.4162 9.28472 24.4801 9.09303 24.4801Z" fill="black"/>
<path d="M37.5275 46.461H26.601C24.748 46.461 23.2144 44.9274 23.2144 43.0744V32.1479C23.2144 30.6143 23.5978 29.0808 24.2368 27.675L24.8119 26.5249C24.9397 26.2693 25.0036 26.0137 25.0036 25.7581V20.838C25.0036 20.1351 25.5786 19.56 26.2815 19.56H37.847C38.5499 19.56 39.125 20.1351 39.125 20.838V25.7581C39.125 26.0137 39.1889 26.2693 39.3167 26.5249L39.8918 27.675C40.5946 29.0808 40.9141 30.6143 40.9141 32.1479V43.0744C40.9141 44.9274 39.3806 46.461 37.5275 46.461ZM27.5595 22.1159V25.7581C27.5595 26.3971 27.4317 27.036 27.1122 27.6111L26.5371 28.7613C26.0259 29.7836 25.7703 30.9338 25.7703 32.1479V43.0744C25.7703 43.5217 26.1537 43.905 26.601 43.905H37.5275C37.9748 43.905 38.3582 43.5217 38.3582 43.0744V32.1479C38.3582 30.9977 38.1026 29.8475 37.5914 28.7613L37.0164 27.6111C36.7608 27.036 36.5691 26.3971 36.5691 25.7581V22.1159H27.5595Z" fill="black"/>
<path d="M37.847 25.7581H26.2815C25.5786 25.7581 25.0036 25.183 25.0036 24.4801C25.0036 23.7773 25.5786 23.2022 26.2815 23.2022H37.847C38.5499 23.2022 39.125 23.7773 39.125 24.4801C39.125 25.183 38.5499 25.7581 37.847 25.7581Z" fill="black"/>
<path d="M18.2943 47.2277H9.02913V41.5408H6.47322V40.2629C6.47322 39.0488 6.8566 36.8124 7.49558 35.0233C8.07066 33.4897 9.60421 32.4035 11.3294 32.4035H12.5435C13.8215 32.4035 15.0994 32.4035 16.1218 32.4035C17.6553 32.4035 18.9972 33.298 19.5723 34.6399C20.339 36.3651 20.7863 38.8571 20.7863 40.199V41.4769H18.2304C18.2943 41.5408 18.2943 47.2277 18.2943 47.2277ZM11.585 44.6718H15.7384V38.9849H18.1665C18.0387 37.9626 17.7192 36.6846 17.2719 35.7261C17.0802 35.2789 16.6969 35.0233 16.1218 35.0233C15.0355 35.0233 13.8215 35.0233 12.4796 35.0233H11.2655C10.6266 35.0233 10.0515 35.4066 9.8598 35.9817C9.54031 36.8763 9.22082 38.0265 9.09303 39.0488H11.5211L11.585 44.6718Z" fill="black"/>
<path d="M13.6298 33.937C11.1378 33.937 9.09303 31.8923 9.09303 29.4003C9.09303 26.9082 11.1378 24.8635 13.6298 24.8635C16.1218 24.8635 18.1665 26.9082 18.1665 29.4003C18.1665 31.8923 16.1857 33.937 13.6298 33.937ZM13.6298 27.3555C12.5435 27.3555 11.6489 28.2501 11.6489 29.3364C11.6489 30.4226 12.5435 31.3172 13.6298 31.3172C14.716 31.3172 15.6106 30.4226 15.6106 29.3364C15.6106 28.2501 14.7799 27.3555 13.6298 27.3555Z" fill="black"/>
<path d="M29.4125 41.3491C29.093 41.3491 28.8374 41.2852 28.5818 41.0935C28.1985 40.838 28.0068 40.4546 28.0068 40.0073C28.0068 39.3044 28.454 37.5153 29.8598 37.5153C30.8822 37.5153 31.7128 38.3459 31.7128 39.3683C31.7128 40.5824 30.1154 41.3491 29.4125 41.3491Z" fill="black"/>
<path d="M35.0994 43.5856C34.6521 43.5856 34.2048 43.3939 33.9493 42.9466C33.6937 42.4993 33.3103 41.5408 33.4381 40.838C33.502 40.3907 33.7576 40.0712 34.0771 39.8156C34.5243 39.56 34.9716 39.4322 35.4828 39.56C35.994 39.6878 36.3774 39.9434 36.6969 40.3268C37.0164 40.838 37.0163 41.5408 36.633 42.3076C36.2496 43.0744 35.7384 43.4578 35.1633 43.5217C35.1633 43.5856 35.0994 43.5856 35.0994 43.5856Z" fill="black"/>
<path d="M29.732 34.4482C29.5403 34.4482 29.3486 34.3843 29.2208 34.3204C28.7735 34.1287 27.9429 33.4897 27.6234 32.7868C27.4317 32.4035 27.4317 31.9562 27.6234 31.5728C28.0068 30.6143 29.093 30.167 30.0515 30.5504C31.2017 30.9977 31.2656 32.8507 31.01 33.4897C30.8822 33.7453 30.6905 34.0009 30.4349 34.1926C30.2432 34.3843 29.9876 34.4482 29.732 34.4482Z" fill="black"/>
<path d="M38.3582 37.8987C38.1665 37.8987 37.9748 37.8348 37.847 37.7709C37.4636 37.6431 37.0802 37.3236 36.8247 37.068C35.9301 36.2373 36.0579 35.4705 36.2496 35.0872C36.4413 34.6399 36.8247 34.2565 37.2719 34.0648C37.7192 33.8731 38.2304 33.8731 38.6777 34.0648C39.8279 34.5121 39.8918 36.3651 39.6362 37.0041C39.5084 37.2597 39.3167 37.5153 39.0611 37.707C38.8055 37.8348 38.6138 37.8987 38.3582 37.8987Z" fill="black"/>
<path d="M33.7576 31.8923C33.4381 31.8923 33.0547 31.8284 32.7991 31.6367C32.224 31.3172 31.9684 30.6782 31.9684 29.7836C31.9684 28.953 32.2879 28.314 32.7991 28.0584C33.2464 27.8028 33.7576 27.8667 34.141 28.1223C34.716 28.5057 36.0579 29.8475 35.2911 31.0616C34.9716 31.5728 34.3965 31.8923 33.7576 31.8923Z" fill="black"/>
</svg>
