<svg width="64" height="70" viewBox="0 0 64 70" fill="none" xmlns="http://www.w3.org/2000/svg">
<path d="M30.9342 34.6947C32.5956 31.7554 29.7841 30.6691 29.7841 30.6691C29.7841 30.6691 27.4199 33.1611 32.8512 35.5892C32.1483 35.3336 29.7841 34.3113 28.6978 36.4838" fill="black"/>
<path d="M28.6979 37.8265C28.5062 37.8265 28.3145 37.7626 28.1228 37.6987C27.4838 37.3792 27.2282 36.6124 27.5477 35.9735C27.8033 35.4623 28.2506 34.8233 28.8896 34.4399C28.4423 33.8648 28.1228 33.2897 28.0589 32.7147C27.7394 31.1811 28.634 30.0949 28.8257 29.9032C29.209 29.5198 29.7202 29.392 30.2314 29.5837C30.4231 29.6476 31.9566 30.2865 32.5317 31.884C32.7234 32.3952 32.8512 33.1619 32.5956 34.1204C32.8512 34.2482 33.1068 34.376 33.4263 34.5038C34.0653 34.8233 34.3209 35.5262 34.0653 36.1651C33.8097 36.8041 33.0429 37.1236 32.4039 36.868C30.5509 36.1651 30.1675 36.6124 29.9119 37.1875C29.6563 37.5709 29.209 37.8265 28.6979 37.8265Z" fill="black"/>
<path d="M38.7298 44.3437C38.2186 44.3437 37.7075 44.0242 37.5158 43.5131C37.388 43.1297 37.1324 42.7463 36.8129 42.3629L36.6851 42.2351C35.2154 40.0626 33.0429 39.9987 32.0206 40.5738C31.6372 40.7654 31.1899 40.8293 30.8065 40.6377C30.4231 40.446 30.1675 40.1265 30.1036 39.6792C29.9758 39.1041 29.9758 38.529 30.1036 38.0178C30.3592 36.9316 30.9982 35.9731 32.0206 35.2702C32.0206 33.9923 32.4039 32.906 33.1707 32.1393C33.618 31.692 34.1292 31.3725 34.7682 31.1169C35.2154 30.9891 35.6627 31.053 36.0461 31.3725C36.4295 31.692 36.5573 32.1393 36.4934 32.5865V32.6504C36.3656 33.545 36.8768 34.6952 38.2825 35.3341C40.1995 36.2287 41.1579 36.1009 41.7969 35.9731C42.1803 35.8453 42.5637 35.9731 42.8832 36.1648C43.2027 36.4204 43.3944 36.7399 43.3944 37.1872C43.3944 37.4428 43.3944 37.6984 43.3305 37.89C43.2027 38.8485 42.4998 40.0626 41.6052 40.7654C41.6052 42.0434 40.9023 43.4492 39.4966 44.0881C39.3049 44.152 39.1771 44.2159 38.9854 44.2798C39.0493 44.3437 38.8576 44.3437 38.7298 44.3437ZM33.3624 37.6984C35.2793 37.6984 37.388 38.6568 38.8576 40.7654L38.9215 40.8932C38.9854 40.9571 39.0493 41.0849 39.1132 41.1488C39.1771 40.8932 39.1771 40.5738 39.1771 40.446C39.0493 40.1265 39.1132 39.7431 39.3049 39.4236C39.4966 39.1041 39.8161 38.9124 40.1356 38.8485C40.1995 38.8485 40.2634 38.7207 40.3912 38.6568C39.4327 38.529 38.4742 38.2734 37.3241 37.6984C36.1739 37.1872 35.2793 36.3565 34.7043 35.4619C34.7682 36.2287 34.3209 36.9955 33.6819 37.3789C33.5541 37.4428 33.3624 37.5706 33.2346 37.7623C33.2985 37.6984 33.3624 37.6984 33.3624 37.6984Z" fill="black"/>
<path d="M12.1198 35.7931C11.0341 35.8296 9.90341 34.6379 8.41496 33.21C7.89751 32.6971 7.41199 32.2396 7.04573 31.8608C6.74336 31.5926 6.44099 31.3245 6.17057 31.1117C5.17618 30.284 4.42028 29.6137 3.82181 28.7049C3.47893 28.2388 3.02309 27.3214 2.69504 26.6255C2.39894 25.9848 2.69671 25.2226 3.33737 24.9265C3.97802 24.6304 4.74022 24.9282 5.03632 25.5689C5.40488 26.4628 5.77971 26.9842 5.84361 27.0949C5.87555 27.1503 5.90749 27.2056 5.90749 27.2056C6.34621 27.8377 6.95096 28.3739 7.82612 29.123C8.09653 29.3358 8.3989 29.6039 8.73322 29.9273C9.18677 30.3295 9.70421 30.8424 10.2217 31.3552C10.7391 31.8681 11.4397 32.5704 11.9805 32.9959C12.0827 32.7894 12.0975 32.5595 11.9697 32.3382C11.9377 32.2828 11.8738 32.1722 11.7866 32.1488C11.6673 32.0701 10.6324 31.0443 9.37385 29.6312C9.03954 29.3078 8.94996 28.7692 9.12224 28.3008C9.66246 26.8084 8.78899 24.6565 8.42899 23.9052C8.13289 23.2645 8.3434 22.479 8.98406 22.1829C9.62471 21.8868 10.4103 22.0973 10.7064 22.7379C10.8981 23.07 12.2656 25.822 11.7619 28.4001C12.7415 29.4577 13.5613 30.2387 13.5613 30.2387C13.8317 30.4515 13.9915 30.7282 14.1832 31.0602C15.0224 32.6416 14.4845 34.6492 12.9031 35.4884C12.603 35.7354 12.405 35.7759 12.1198 35.7931Z" fill="black"/>
<path d="M23.2 25.3382C22.7722 25.3638 22.3357 25.2469 21.9227 25.0427C21.8354 25.0193 21.0093 24.6109 20.8901 24.5321L16.9171 22.2514C16.2656 21.8897 16.1036 21.0979 16.4419 20.5336C16.7801 19.9694 17.5954 19.7201 18.1596 20.0584L22.1326 22.3391C22.2199 22.3625 22.8714 22.7242 22.9587 22.7476C23.1332 22.7944 23.2759 22.7858 23.3865 22.7219C23.4419 22.6899 23.6079 22.5941 23.71 22.3876C23.8355 22.0938 23.7311 21.7851 23.4373 21.6596L14.8398 16.7365C13.4729 15.9025 12.9492 15.7621 12.7193 15.7473C12.0381 15.8454 11.378 15.3411 11.3352 14.628C11.2371 13.9468 11.7414 13.2868 12.4545 13.244C13.5635 13.1201 14.9219 13.8116 16.1376 14.5115L16.2569 14.5902L24.7031 19.3793C26.1254 20.1814 26.7433 21.8906 26.0604 23.3916C25.7073 24.1857 25.0838 24.7671 24.3005 25.0717C23.9131 25.2954 23.5726 25.3444 23.2 25.3382Z" fill="black"/>
<path d="M23.8232 29.9957C23.2527 30.0299 22.6971 29.8343 22.2201 29.5194L15.1961 25.5323C14.5446 25.1707 14.3826 24.3788 14.7209 23.8146C15.0825 23.1631 15.8744 23.001 16.4386 23.3393L23.4946 27.3817C23.8203 27.5625 24.1609 27.5135 24.3183 27.275C24.4758 27.0365 24.4587 26.7513 24.1882 26.5385C24.069 26.4598 23.8625 26.3577 23.656 26.2555C23.4494 26.1534 23.3302 26.0747 23.3302 26.0747L19.4445 23.8173C18.793 23.4557 18.631 22.6638 18.9693 22.0996C19.331 21.4481 20.1228 21.286 20.687 21.6243L24.7792 23.9838C25.4307 24.3455 25.4861 24.3135 25.55 24.4242C26.9574 25.4562 27.2752 27.4124 26.2986 28.7879C25.7709 29.5353 24.8216 29.9358 23.8232 29.9957Z" fill="black"/>
<path d="M19.602 35.9742C19.0315 36.0085 18.4758 35.8128 17.9989 35.4979L11.5859 31.6746C10.9897 31.281 10.7723 30.5211 11.166 29.9249C11.5596 29.3287 12.3195 29.1114 12.9157 29.505L19.3287 33.3283C19.5671 33.4857 19.963 33.4047 20.1205 33.1662C20.1992 33.047 20.246 32.8724 20.1821 32.7617C20.1502 32.7064 20.1096 32.5084 19.9585 32.3744L15.2787 29.7639C14.6272 29.4023 14.4651 28.6104 14.8034 28.0462C15.1651 27.3947 15.9569 27.2326 16.5211 27.5709L21.1456 30.2133C21.2648 30.2921 21.3521 30.3155 21.3841 30.3708C22.0442 30.8751 22.5148 31.5625 22.6215 32.3863C22.7282 33.2101 22.5497 34.051 22.0454 34.7111C21.4943 35.5457 20.577 36.0016 19.602 35.9742Z" fill="black"/>
<path d="M23.4606 33.9682C22.8901 34.0025 22.3345 33.8068 21.8575 33.4919L13.3793 28.6475C12.7278 28.2858 12.5658 27.4939 12.9041 26.9297C13.2657 26.2782 14.0576 26.1162 14.6218 26.4545L23.1 31.2989C23.4258 31.4797 23.7344 31.3753 23.9238 31.1922C24.0812 30.9537 24.0322 30.6131 23.7937 30.4557L19.908 28.1983C19.2565 27.8367 19.0945 27.0448 19.4328 26.4806C19.7944 25.8291 20.5863 25.6671 21.1505 26.0053L25.0043 28.2074C25.0915 28.2307 25.2108 28.3095 25.2427 28.3648C26.6501 29.3968 26.9679 31.353 25.9913 32.7285C25.3529 33.5397 24.4356 33.9956 23.4606 33.9682Z" fill="black"/>
<path d="M54.9695 23.7468C54.5097 23.7172 51.4655 23.5564 49.5001 21.8136C48.0591 22.1291 47.0459 22.4189 46.9906 22.4508C46.6819 22.5553 46.3413 22.6043 45.9688 22.5981C44.1615 22.5348 42.7284 21.0749 42.7597 19.2122C42.7848 17.7221 44.5579 17.2149 47.0675 16.5776C47.772 16.3922 48.4212 16.2387 48.8959 16.0385C49.2598 15.9021 49.6238 15.7658 49.9878 15.6294C51.1904 15.1565 52.1163 14.8432 53.2572 14.7747C53.7405 14.7171 54.7154 14.7444 55.7224 14.8271C56.444 14.927 56.9381 15.5271 56.8383 16.2488C56.7384 16.9705 56.1383 17.4645 55.4166 17.3647C54.4097 17.282 53.7519 17.2929 53.6093 17.3014C53.554 17.3334 53.4667 17.31 53.4667 17.31C52.6982 17.3848 51.9383 17.6021 50.8464 18.0112C50.4825 18.1475 50.1185 18.2839 49.7545 18.4203C49.1926 18.5971 48.4327 18.8145 47.7281 18.9999C47.0236 19.1854 46.0657 19.4433 45.4804 19.7074C45.5763 19.8734 45.8147 20.0308 46.0446 20.0457C46.1319 20.0691 46.1873 20.0371 46.2979 19.9732C46.4086 19.9093 47.8177 19.5385 49.6547 19.1419C50.106 19.029 50.5743 19.2013 50.9086 19.5247C51.8968 20.725 54.2364 21.0712 55.0687 21.1072C55.7584 21.1516 56.3078 21.7198 56.2953 22.4649C56.2274 23.2419 55.6592 23.7913 54.9695 23.7468Z" fill="black"/>
<path d="M49.207 37.9176C48.232 37.8903 47.3186 37.4584 46.6968 36.6369C46.2261 35.9495 46.0321 35.1023 46.1553 34.2934C46.2785 33.4844 46.7509 32.769 47.4064 32.243C47.4617 32.211 48.2598 31.6764 48.3705 31.6125L52.2994 29.3442C52.9081 28.9927 53.6937 29.2032 54.0451 29.8119C54.3966 30.4206 54.1861 31.2062 53.5774 31.5577L49.6484 33.826C49.5931 33.858 48.961 34.2967 48.9057 34.3287C48.7397 34.4245 48.6929 34.5991 48.6695 34.6864C48.6461 34.7737 48.6546 34.9163 48.7505 35.0823C48.9336 35.2717 49.2828 35.3652 49.5595 35.2055L58.1048 30.1981C59.4882 29.3994 59.867 29.0331 60.0011 28.8819C60.2754 28.207 61.0034 27.9343 61.6783 28.2087C62.3532 28.4831 62.6259 29.211 62.3515 29.8859C61.8963 30.8866 60.6555 31.6767 59.3827 32.4116L59.272 32.4755L50.8927 37.387C50.316 37.7938 49.7541 37.9707 49.207 37.9176Z" fill="black"/>
<path d="M44.8397 36.2352C43.6668 36.2483 42.5383 35.5717 42.01 34.4011C41.3454 32.8665 41.9877 31.1676 43.3712 30.3688L50.367 26.256C50.9757 25.9045 51.7613 26.115 52.1127 26.7237C52.4642 27.3324 52.2537 28.118 51.645 28.4695L44.6491 32.5823C44.3724 32.7421 44.2235 33.1232 44.3513 33.3445C44.4472 33.5105 44.5664 33.5892 44.6537 33.6126C44.741 33.636 44.8602 33.7148 45.0262 33.6189C45.1369 33.555 45.3583 33.4272 45.5243 33.3314C45.6903 33.2355 45.8563 33.1397 45.8563 33.1397L49.7299 30.9032C50.3386 30.5518 51.1242 30.7623 51.4756 31.371C51.8271 31.9797 51.6166 32.7653 51.0079 33.1167L46.9129 35.4809C46.3362 35.8877 46.2808 35.9197 46.1382 35.9282C45.6635 36.1285 45.2123 36.2414 44.8397 36.2352Z" fill="black"/>
<path d="M41.7193 29.5506C40.5464 29.5637 39.4179 28.8872 38.8896 27.7165C38.225 26.1819 38.8673 24.483 40.2508 23.6843L46.7571 20.0016C47.3658 19.6501 48.1514 19.8606 48.5029 20.4693C48.8543 21.078 48.6438 21.8636 48.0351 22.215L41.5287 25.8977C41.252 26.0575 41.1585 26.4066 41.2309 26.6599C41.3587 26.8813 41.6845 27.0621 41.9612 26.9024L46.5775 24.1633C47.1862 23.8119 47.9718 24.0224 48.3232 24.6311C48.6747 25.2398 48.4642 26.0254 47.8555 26.3768L43.2945 29.0839C43.1838 29.1478 43.1285 29.1798 43.0178 29.2436C42.5431 29.4439 42.1472 29.5249 41.7193 29.5506Z" fill="black"/>
<path d="M41.4928 33.8872C41.1202 33.8809 40.7158 33.8193 40.422 33.6938C39.6598 33.396 39.0231 32.8044 38.6631 32.0531C37.9984 30.5185 38.6408 28.8196 40.0242 28.0208L48.4588 23.0773C49.0675 22.7259 49.8531 22.9364 50.2045 23.5451C50.556 24.1538 50.3455 24.9394 49.7368 25.2908L41.3022 30.2343C41.0255 30.3941 40.8766 30.7752 41.0044 30.9965C41.1002 31.1625 41.2194 31.2412 41.3067 31.2646C41.394 31.288 41.5686 31.3348 41.7346 31.2389L45.6635 28.9706C46.2722 28.6191 47.0578 28.8296 47.4092 29.4383C47.7607 30.047 47.5502 30.8326 46.9415 31.184L43.0679 33.4205C42.9572 33.4844 42.9019 33.5163 42.7912 33.5802C42.4038 33.8039 41.9526 33.9168 41.4928 33.8872Z" fill="black"/>
<path d="M39.3322 63.7594C39.1023 63.7445 38.9277 63.6978 38.7531 63.651C38.1336 63.3447 37.8289 62.5614 38.1906 61.9099C38.5203 61.203 38.6755 60.4494 38.8922 59.2913C38.9858 58.9421 39.0474 58.5377 39.109 58.1332C39.2174 57.5541 39.4279 56.7685 39.615 56.0702C39.8021 55.372 40.0594 54.4118 40.1358 53.7774C40.1358 53.7774 40.0804 53.8094 40.0485 53.754C39.8505 53.7946 39.7165 53.9458 39.5824 54.0969C39.559 54.1842 39.5037 54.2162 39.4803 54.3034C39.4569 54.3907 39.0593 55.8746 38.5362 57.6523C38.4193 58.0887 38.0405 58.455 37.5572 58.5126C36.0289 58.8047 34.5075 60.6423 34.0904 61.3258C33.6968 61.922 32.905 62.084 32.3088 61.6904C31.7126 61.2967 31.5506 60.5049 31.9442 59.9087C32.125 59.5829 33.8336 57.0471 36.358 56.1799C36.8195 54.8067 37.0682 53.7039 37.0682 53.7039C37.1065 53.3867 37.2873 53.061 37.4681 52.7352C37.9085 51.9645 38.6513 51.4618 39.4985 51.2678C40.3457 51.0739 41.2419 51.2205 42.0126 51.6609C43.2923 52.4715 42.8245 54.2172 42.2016 56.7166C42.0145 57.4149 41.8508 58.0259 41.7424 58.6049C41.6808 59.0094 41.6192 59.4139 41.5256 59.763C41.3174 61.0637 41.1475 62.0473 40.6369 63.0799C40.2347 63.5334 39.792 63.789 39.3322 63.7594Z" fill="black"/>
<path d="M23.6842 62.9802C23.3117 62.9739 22.9306 62.825 22.6516 62.4696C21.9658 61.5374 22.0166 60.4752 21.9972 59.6748C21.9886 59.5322 21.98 59.3895 22.0034 59.3022L21.9365 49.6016C21.8976 48.0008 23.1042 46.6401 24.7518 46.4267C25.6075 46.3754 26.3931 46.5858 27.0531 47.0901C27.7132 47.5944 28.0732 48.3458 28.1799 49.1696C28.2119 49.2249 28.2399 50.1679 28.2484 50.3106L28.2371 54.8916C28.2246 55.6367 27.6564 56.1861 26.9666 56.1416C26.2769 56.0971 25.6722 55.5609 25.7167 54.8711L25.728 50.2901C25.7514 50.2028 25.7085 49.4897 25.6446 49.379C25.6041 49.181 25.5402 49.0704 25.453 49.047C25.421 48.9916 25.2145 48.8895 25.0165 48.93C24.7313 48.9472 24.5185 49.2176 24.4803 49.5348L24.5472 59.2354C24.5558 59.378 24.509 59.5526 24.5495 59.7506C24.5752 60.1785 24.5222 60.7256 24.65 60.9469C25.0568 61.5237 24.9889 62.3007 24.4121 62.7075C24.2227 62.8906 23.9694 62.9631 23.6842 62.9802Z" fill="black"/>
<path d="M30.738 56.031C30.0249 56.0738 29.4436 55.4503 29.4881 54.7606L29.428 46.6053C29.4342 46.2328 29.2192 45.9881 28.902 45.9499C28.7274 45.9031 28.5933 46.0543 28.538 46.0862C28.4827 46.1182 28.4039 46.2374 28.3572 46.412C28.3657 46.5546 28.3509 46.7845 28.3914 46.9825C28.4319 47.1804 28.3851 47.355 28.3851 47.355L28.3653 51.7934C28.3527 52.5385 27.7845 53.0879 27.0948 53.0434C26.4051 52.999 25.8003 52.4627 25.8448 51.773L25.8476 47.0493C25.8048 46.3362 25.8282 46.2489 25.8516 46.1616C25.9428 45.2973 26.3279 44.5585 26.9834 44.0325C27.6388 43.5065 28.4541 43.2572 29.2311 43.325C30.9043 43.5395 32.0756 44.9292 32.0271 46.5066L32.0553 54.6065C32.0194 55.4388 31.3958 56.0201 30.738 56.031Z" fill="black"/>
<path d="M37.8946 56.0307C37.1495 56.0182 36.6002 55.45 36.6127 54.7049L36.738 47.2543C36.7762 46.9371 36.5292 46.637 36.212 46.5988C36.0374 46.552 35.9034 46.7032 35.848 46.7352C35.7927 46.7671 35.6587 46.9183 35.6438 47.1482L35.7073 52.4977C35.7501 53.2108 35.1265 53.7922 34.4687 53.803C33.811 53.8139 33.1743 53.2223 33.2188 52.5326L33.1873 47.2384C33.1787 47.0958 33.2021 47.0085 33.2255 46.9212C33.408 45.1926 34.9084 43.9574 36.637 44.14C38.3102 44.3544 39.4815 45.7441 39.433 47.3215L39.3077 54.7722C39.2079 55.4938 38.6397 56.0433 37.8946 56.0307Z" fill="black"/>
<path d="M34.4317 56.0377C33.7186 56.0805 33.1373 55.457 33.1818 54.7673L33.1382 44.9793C33.1444 44.6068 32.9294 44.3621 32.6122 44.3239C32.4376 44.2771 32.3035 44.4282 32.2482 44.4602C32.1929 44.4921 32.0588 44.6433 32.044 44.8733L32.0561 49.367C32.0435 50.1121 31.4753 50.6615 30.7856 50.617C30.0959 50.5725 29.4911 50.0363 29.5356 49.3465L29.5555 44.9081C29.5789 44.8208 29.5703 44.6782 29.5937 44.5909C29.7169 43.782 30.07 42.9878 30.7255 42.4618C31.381 41.9358 32.1962 41.6865 32.9732 41.7544C34.6465 41.9688 35.8178 43.3585 35.7693 44.9359L35.8129 54.7239C35.6577 55.4775 35.0895 56.0269 34.4317 56.0377Z" fill="black"/>
<path d="M17.8368 48.6245C17.3256 48.6245 16.8783 48.3689 16.6866 47.8578C16.3671 47.2188 16.6866 46.452 17.3256 46.1325L20.7761 44.5351C21.415 44.2156 22.1818 44.5351 22.5013 45.174C22.8208 45.813 22.5013 46.5798 21.8623 46.8993L18.4119 48.4967C18.1563 48.5606 17.9646 48.6245 17.8368 48.6245Z" fill="black"/>
<path d="M34.6409 29.5829C34.3214 29.5829 33.938 29.519 33.6185 29.3912C32.4684 28.88 31.446 28.1771 30.6154 27.2825C28.5706 25.0461 28.0594 21.9151 28.0594 21.7873C27.9955 21.404 28.1233 20.9567 28.4428 20.7011C28.7623 20.3816 29.1457 20.2538 29.5291 20.3177C29.6569 20.3177 32.4684 20.8289 34.577 23.0653C35.3438 23.9599 36.0467 25.0461 36.4939 26.3241C36.8773 27.3464 36.6856 28.3688 36.0467 29.0078C35.6633 29.3912 35.1521 29.5829 34.6409 29.5829ZM31.3821 23.7043C31.6377 24.3432 32.0211 24.9822 32.5323 25.4934C32.9157 25.8768 33.363 26.2602 33.8741 26.5797C33.5547 25.8768 33.1713 25.2378 32.724 24.7905C32.2767 24.3432 31.8294 23.9599 31.3821 23.7043Z" fill="black"/>
<path d="M24.929 44.4712C24.8012 44.4712 24.6095 44.4712 24.4817 44.4073C24.3539 44.3434 21.7341 43.321 21.0951 40.829C20.8395 39.8705 20.9034 38.7843 21.2229 37.6341C21.4785 36.7395 22.1814 36.0367 23.0759 35.7811C23.8427 35.5255 24.6734 35.6533 25.2484 36.1644C26.143 36.8673 26.7181 37.7619 26.9737 38.7204C27.6127 41.0846 26.2069 43.5766 26.0152 43.8322C25.7596 44.2795 25.3123 44.4712 24.929 44.4712ZM23.651 38.337C23.4593 39.0398 23.3954 39.6788 23.5232 40.19C23.651 40.7012 23.9705 41.0846 24.3539 41.4041C24.5456 40.7651 24.6734 40.0622 24.5456 39.4232C24.4178 39.0398 24.1622 38.6565 23.7788 38.2731C23.651 38.2731 23.651 38.2731 23.651 38.337Z" fill="black"/>
<path d="M30.2961 18.7846C30.0405 18.7846 29.8488 18.7207 29.6571 18.5929L27.229 17.1232C26.6539 16.7399 26.4622 15.9731 26.7817 15.3341C27.1651 14.759 27.9319 14.5673 28.5708 14.8868L30.999 16.3565C31.574 16.7399 31.7657 17.5066 31.4462 18.1456C31.1268 18.5929 30.6795 18.7846 30.2961 18.7846Z" fill="black"/>
<path d="M50.1683 48.241C50.0405 48.241 49.9127 48.241 49.721 48.1771L46.6539 47.0908C46.015 46.8353 45.6316 46.1324 45.8872 45.4934C46.1428 44.8544 46.8456 44.471 47.4846 44.7266L50.5517 45.8129C51.1907 46.0685 51.5741 46.7714 51.3185 47.4103C51.1907 47.9215 50.6795 48.241 50.1683 48.241Z" fill="black"/>
<path d="M16.175 46.0035C15.4721 46.0035 14.897 45.4284 14.897 44.7256V42.3613C14.897 41.6585 15.4721 41.0834 16.175 41.0834C16.8779 41.0834 17.4529 41.6585 17.4529 42.3613V44.7256C17.4529 45.4284 16.8779 46.0035 16.175 46.0035Z" fill="black"/>
<path d="M34.0026 20.1254C33.6831 20.1254 33.3637 19.9976 33.1081 19.742C32.5969 19.2308 32.5969 18.464 33.1081 17.9528L35.025 16.0359C35.5362 15.5247 36.303 15.5247 36.8141 16.0359C37.3253 16.5471 37.3253 17.3139 36.8141 17.825L34.8972 19.742C34.6416 19.9976 34.3221 20.1254 34.0026 20.1254Z" fill="black"/>
<path d="M48.954 43.5773C48.379 43.5773 47.8678 43.1939 47.74 42.5549C47.6122 41.8521 47.9956 41.2131 48.6985 41.0214L51.3183 40.4463C52.0211 40.3185 52.6601 40.7019 52.8518 41.4048C52.9796 42.1076 52.5962 42.7466 51.8933 42.9383L49.2735 43.5134C49.1457 43.5773 49.0179 43.5773 48.954 43.5773Z" fill="black"/>
<path d="M44.0982 49.455C43.8426 49.455 43.587 49.3911 43.3315 49.1994L40.7116 47.2824C40.1366 46.8352 40.0088 46.0684 40.4561 45.4933C40.9033 44.9182 41.6701 44.7904 42.2452 45.2377L44.865 47.1546C45.4401 47.6019 45.5679 48.3687 45.1206 48.9438C44.865 49.2633 44.4816 49.455 44.0982 49.455Z" fill="black"/>
<path d="M37.8997 24.5345C37.1969 24.5345 36.6218 23.9594 36.6218 23.2565V20.7006C36.6218 19.9977 37.1969 19.4227 37.8997 19.4227C38.6026 19.4227 39.1777 19.9977 39.1777 20.7006V23.2565C39.1777 23.9594 38.6026 24.5345 37.8997 24.5345Z" fill="black"/>
<path d="M44.865 44.3432C44.1621 44.3432 43.587 43.7681 43.587 43.0653V40.5093C43.587 39.8065 44.1621 39.2314 44.865 39.2314C45.5679 39.2314 46.143 39.8065 46.143 40.5093V43.0653C46.143 43.832 45.5679 44.3432 44.865 44.3432Z" fill="black"/>
<path d="M18.4114 40.7005C18.2836 40.7005 18.1558 40.7005 18.028 40.6366L15.4082 39.8699C14.7053 39.6782 14.3219 38.9753 14.5775 38.2724C14.8331 37.5696 15.4721 37.1862 16.1749 37.4418L18.7947 38.2085C19.4976 38.4002 19.881 39.1031 19.6254 39.806C19.4337 40.3172 18.9225 40.7005 18.4114 40.7005Z" fill="black"/>
<path d="M32.5319 66.8978C31.254 66.8978 29.976 66.5783 28.8259 65.9393L6.46166 53.6709C4.03355 52.3291 2.5 49.7732 2.5 46.9617V22.9361C2.5 20.1246 4.03355 17.5687 6.46166 16.2268L28.8259 3.95847C31.1262 2.68051 33.8738 2.68051 36.1741 3.95847L58.5383 16.2268C60.9665 17.5687 62.5 20.1246 62.5 22.9361V46.9617C62.5 49.7732 60.9665 52.3291 58.5383 53.6709L36.1741 65.9393C35.0879 66.5783 33.8099 66.8978 32.5319 66.8978ZM32.5319 5.55591C31.7013 5.55591 30.8706 5.7476 30.0399 6.19489L7.67572 18.4633C6.01438 19.3578 5.05591 21.0831 5.05591 22.9361V46.9617C5.05591 48.8147 6.07827 50.5399 7.67572 51.4345L30.0399 63.7029C31.5735 64.5335 33.4265 64.5335 34.9601 63.7029L57.3243 51.4345C58.9856 50.5399 60.008 48.8147 60.008 46.9617V22.9361C60.008 21.0831 58.9856 19.3578 57.3243 18.4633L34.9601 6.19489C34.2572 5.7476 33.3626 5.55591 32.5319 5.55591Z" fill="black"/>
</svg>
