<svg width="60" height="66" viewBox="0 0 60 66" fill="none" xmlns="http://www.w3.org/2000/svg">
<g clip-path="url(#clip0_2921_23424)">
<path d="M30.0319 65.1119C28.754 65.1119 27.476 64.7924 26.3259 64.1534L3.96166 51.885C1.53355 50.5432 0 47.9873 0 45.1758V21.1502C0 18.3387 1.53355 15.7828 3.96166 14.4409L26.3259 2.17258C28.6262 0.894623 31.3738 0.894623 33.6741 2.17258L56.0383 14.4409C58.4665 15.7828 60 18.3387 60 21.1502V45.1758C60 47.9873 58.4665 50.5432 56.0383 51.885L33.6741 64.1534C32.5879 64.7924 31.3099 65.1119 30.0319 65.1119ZM30.0319 3.77002C29.2013 3.77002 28.3706 3.96172 27.5399 4.409L5.17572 16.6774C3.51438 17.5719 2.55591 19.2972 2.55591 21.1502V45.1758C2.55591 47.0288 3.57827 48.7541 5.17572 49.6486L27.5399 61.917C29.0735 62.7477 30.9265 62.7477 32.4601 61.917L54.8243 49.6486C56.4856 48.7541 57.4441 47.0288 57.4441 45.1758V21.1502C57.4441 19.2972 56.4217 17.5719 54.7604 16.6774L32.4601 4.409C31.6933 3.96172 30.8626 3.77002 30.0319 3.77002Z" fill="black"/>
<path d="M31.3107 49.7762H26.1989C25.496 49.7762 24.9209 49.2012 24.9209 48.4983C24.9209 47.7954 25.496 47.2203 26.1989 47.2203H31.3107C32.0135 47.2203 32.5886 47.7954 32.5886 48.4983C32.5886 49.2012 32.0135 49.7762 31.3107 49.7762Z" fill="black"/>
<path d="M16.6144 49.7762H11.5026C10.7997 49.7762 10.2246 49.2012 10.2246 48.4983C10.2246 47.7954 10.7997 47.2203 11.5026 47.2203H16.6144C17.3173 47.2203 17.8923 47.7954 17.8923 48.4983C17.8923 49.2012 17.3173 49.7762 16.6144 49.7762Z" fill="black"/>
<path d="M45.3683 49.7762H40.2565C39.5536 49.7762 38.9785 49.2012 38.9785 48.4983C38.9785 47.7954 39.5536 47.2203 40.2565 47.2203H45.3683C46.0712 47.2203 46.6462 47.7954 46.6462 48.4983C46.6462 49.2012 46.0712 49.7762 45.3683 49.7762Z" fill="black"/>
<path d="M38.9789 56.166H33.2282C32.5253 56.166 31.9502 55.5909 31.9502 54.8881C31.9502 54.1852 32.5253 53.6101 33.2282 53.6101H38.9789C39.6818 53.6101 40.2569 54.1852 40.2569 54.8881C40.2569 55.5909 39.6818 56.166 38.9789 56.166Z" fill="black"/>
<path d="M26.1997 56.166H20.4489C19.746 56.166 19.1709 55.5909 19.1709 54.8881C19.1709 54.1852 19.746 53.6101 20.4489 53.6101H26.1997C26.9025 53.6101 27.4776 54.1852 27.4776 54.8881C27.4776 55.5909 26.9025 56.166 26.1997 56.166Z" fill="black"/>
<path d="M53.6756 44.0255H6.39124C5.68836 44.0255 5.11328 43.4504 5.11328 42.7476C5.11328 42.0447 5.68836 41.4696 6.39124 41.4696H53.6756C54.3785 41.4696 54.9535 42.0447 54.9535 42.7476C54.9535 43.4504 54.3785 44.0255 53.6756 44.0255Z" fill="black"/>
<path d="M23.579 32.3321C22.94 32.3321 22.365 32.0766 21.9177 31.6932C21.2148 30.9903 20.8953 29.9679 21.1509 28.9456C21.4704 27.5398 22.0455 26.3897 22.8122 25.559C24.7931 23.2587 27.988 23.2587 28.1158 23.2587C28.8186 23.2587 29.3937 23.8337 29.3937 24.5366C29.3937 24.6644 29.3937 28.1149 27.4768 30.2874C26.71 31.182 25.6876 31.821 24.4097 32.2044C24.0902 32.2683 23.8346 32.3321 23.579 32.3321ZM23.579 29.5206C23.579 29.6484 23.579 29.7123 23.579 29.7762C24.3458 29.5206 24.9848 29.1373 25.4321 28.6261C26.071 27.9232 26.3905 26.9008 26.5822 26.0702C25.9432 26.2619 25.2404 26.5814 24.6653 27.2203C24.218 27.7315 23.8346 28.5622 23.579 29.5206Z" fill="black"/>
<path d="M18.2125 27.2204C18.0208 27.2204 17.893 27.2204 17.7013 27.1565C16.7429 26.9648 15.9122 26.198 15.5927 25.2395C15.1454 23.8977 15.0176 22.6197 15.2093 21.4696C15.7205 18.4664 18.4042 16.805 18.532 16.7411C19.1071 16.3578 19.9377 16.5495 20.2572 17.1884C20.3211 17.3162 22.1103 20.2555 21.5991 23.1309C21.4074 24.2811 20.8323 25.3673 20.0016 26.3897C19.5544 26.9009 18.9154 27.2204 18.2125 27.2204ZM18.0208 24.4089C18.0847 24.5367 18.1486 24.6006 18.1486 24.6006C18.6598 23.9616 18.9793 23.3226 19.1071 22.6836C19.2988 21.7252 19.0432 20.7028 18.7237 19.936C18.2764 20.4472 17.8291 21.0862 17.7013 21.9169C17.6374 22.6197 17.7013 23.5143 18.0208 24.4089Z" fill="black"/>
<path d="M18.7872 36.8051C15.8479 36.8051 13.292 34.5687 13.1642 34.5048C12.653 34.0575 12.5891 33.2268 13.0364 32.7156C13.1003 32.5879 15.2089 30.2236 18.2121 30.2236C19.3623 30.2236 20.5764 30.5431 21.8543 31.1821C22.7489 31.6933 23.3879 32.5879 23.3879 33.5463C23.4518 34.4409 23.0045 35.2716 22.2377 35.7188C21.2153 36.4217 20.0013 36.8051 18.7872 36.8051ZM16.1674 33.4185C16.8703 33.8658 17.8926 34.2492 18.8511 34.2492C19.554 34.2492 20.193 34.0575 20.8958 33.6102C20.8958 33.5463 20.8319 33.4824 20.7041 33.4185C19.8096 32.9712 18.9789 32.7156 18.276 32.7156C17.4454 32.7156 16.6786 33.0351 16.1674 33.4185Z" fill="black"/>
<path d="M10.7999 28.5622C7.86062 28.5622 5.3047 26.3258 5.17691 26.2619C4.66573 25.8146 4.60183 24.9839 5.04911 24.4727C5.11301 24.3449 7.22164 21.9807 10.2248 21.9807C11.375 21.9807 12.589 22.3002 13.867 22.9392C14.7616 23.4504 15.4006 24.3449 15.4006 25.3034C15.4644 26.198 15.0172 27.0286 14.2504 27.4759C13.1641 28.1788 12.014 28.5622 10.7999 28.5622ZM8.11621 25.1756C8.81908 25.6229 9.84145 26.0063 10.7999 26.0063C11.5028 26.0063 12.1418 25.8146 12.8446 25.3673C12.8446 25.3034 12.7807 25.2395 12.6529 25.1756C11.7584 24.7283 10.9277 24.4727 10.2248 24.4727C9.45806 24.5366 8.69129 24.8561 8.11621 25.1756Z" fill="black"/>
<path d="M26.2632 43.4505C25.5604 43.4505 24.9853 42.8754 24.9853 42.1726C24.9853 35.2077 19.7457 28.1151 12.2696 24.9841C11.6306 24.7285 11.3112 23.9617 11.5667 23.3227C11.8223 22.6837 12.5891 22.3643 13.2281 22.6198C21.6626 26.1342 27.5412 34.1214 27.5412 42.1726C27.5412 42.8754 26.9661 43.4505 26.2632 43.4505Z" fill="black"/>
<path d="M36.6781 32.3321C36.4225 32.3321 36.2308 32.2683 35.9752 32.2044C34.6973 31.821 33.6749 31.182 32.9081 30.2874C30.9912 28.051 30.9912 24.6644 30.9912 24.5366C30.9912 23.8337 31.5663 23.2587 32.2692 23.2587C32.397 23.2587 35.528 23.2587 37.5727 25.559C38.3395 26.4536 38.9145 27.6037 39.234 28.9456C39.4896 29.9679 39.1701 30.9903 38.4672 31.6932C37.8922 32.0766 37.3171 32.3321 36.6781 32.3321ZM33.6749 26.0702C33.8666 26.9008 34.1861 27.9232 34.8251 28.6261C35.2724 29.1373 35.9113 29.5206 36.6781 29.7762C36.6781 29.7123 36.742 29.6484 36.6781 29.5206C36.4225 28.5622 36.103 27.7954 35.5919 27.2203C35.0807 26.5814 34.3139 26.2619 33.6749 26.0702Z" fill="black"/>
<path d="M42.1092 27.2203C41.4063 27.2203 40.7673 26.9647 40.32 26.3896C39.4255 25.4312 38.9143 24.281 38.7226 23.1308C38.2114 20.2554 40.0005 17.3161 40.0644 17.1884C40.4478 16.6133 41.2146 16.4216 41.7897 16.7411C41.9175 16.805 44.6012 18.4663 45.1124 21.4695C45.3041 22.6197 45.1763 23.8976 44.729 25.2395C44.4095 26.1979 43.5788 26.9647 42.6204 27.1564C42.4287 27.1564 42.237 27.2203 42.1092 27.2203ZM41.5341 19.936C41.2146 20.7027 41.0229 21.7251 41.1507 22.6836C41.2785 23.3225 41.598 24.0254 42.1092 24.6005C42.1731 24.6005 42.237 24.5366 42.237 24.4088C42.5565 23.4503 42.6204 22.6197 42.4926 21.9168C42.4287 21.0861 41.9814 20.4471 41.5341 19.936Z" fill="black"/>
<path d="M41.4702 36.805C40.2561 36.805 39.106 36.4216 37.9558 35.7187C37.1891 35.2714 36.8057 34.4408 36.8057 33.5462C36.8696 32.5238 37.4446 31.6293 38.3392 31.182C39.6172 30.543 40.8312 30.2235 41.9814 30.2235C45.0485 30.2235 47.0932 32.5877 47.1571 32.7155C47.6044 33.2267 47.5405 34.0574 47.0293 34.5047C46.9654 34.5686 44.4095 36.805 41.4702 36.805ZM39.4255 33.6101C40.1283 33.9935 40.8312 34.2491 41.4702 34.2491C42.4287 34.2491 43.3871 33.8657 44.1539 33.4184C43.5788 33.035 42.876 32.7794 42.0453 32.7155C41.3424 32.7155 40.5117 32.9711 39.6172 33.4184C39.4894 33.4823 39.4255 33.5462 39.4255 33.6101Z" fill="black"/>
<path d="M49.522 28.5622C49.4581 28.5622 49.4581 28.5622 49.522 28.5622C48.3079 28.5622 47.1577 28.1788 46.0076 27.4759C45.2408 27.0286 44.8574 26.198 44.8574 25.3034C44.9213 24.281 45.4964 23.3865 46.391 22.9392C47.6689 22.3002 48.883 21.9807 50.0331 21.9807C53.1002 21.9807 55.145 24.3449 55.2089 24.4727C55.6561 24.9839 55.5922 25.8146 55.0811 26.2619C55.0172 26.3258 52.3974 28.5622 49.522 28.5622ZM47.4133 25.3673C48.1162 25.7507 48.8191 26.0063 49.4581 26.0063C50.4165 26.0063 51.375 25.6229 52.1418 25.1756C51.5667 24.7922 50.8638 24.5366 50.0331 24.4727C49.3303 24.4727 48.4996 24.7283 47.605 25.1756C47.4772 25.2395 47.4133 25.3034 47.4133 25.3673Z" fill="black"/>
<path d="M34.0582 43.4503C33.3554 43.4503 32.7803 42.8752 32.7803 42.1723C32.7803 34.1851 38.6589 26.134 47.0934 22.6196C47.7324 22.364 48.4991 22.6835 48.7547 23.3225C49.0103 23.9615 48.6908 24.7282 48.0518 24.9838C40.5758 28.1148 35.3362 35.2075 35.3362 42.1723C35.3362 42.8752 34.7611 43.4503 34.0582 43.4503Z" fill="black"/>
</g>
<defs>
<clipPath id="clip0_2921_23424">
<rect width="60" height="65" fill="white" transform="translate(0 0.268799)"/>
</clipPath>
</defs>
</svg>
