<svg width="60" height="66" viewBox="0 0 60 66" fill="none" xmlns="http://www.w3.org/2000/svg">
<g clip-path="url(#clip0_2921_23425)">
<path d="M29.9999 64.2731C28.7233 64.2731 27.4467 63.9539 26.2978 63.3156L4.34041 51.2518C1.65957 49.7838 0 46.9753 0 43.8476V20.869C0 17.7414 1.65957 14.9329 4.34041 13.4648L16.5957 6.69885C17.234 6.3797 17.9999 6.57119 18.3191 7.20949C18.6382 7.84778 18.4467 8.61373 17.8084 8.93288L5.55317 15.6988C3.70211 16.7201 2.55318 18.6988 2.55318 20.869V43.8476C2.55318 46.0178 3.70211 47.9965 5.55317 49.0178L27.5105 61.0816C29.0424 61.9114 30.8935 61.9114 32.4254 61.0816L36.3828 58.9114C37.0211 58.5922 37.7871 58.7837 38.1062 59.422C38.4254 60.0603 38.2339 60.8263 37.5956 61.1454L33.6382 63.3156C32.5531 63.9539 31.2765 64.2731 29.9999 64.2731Z" fill="black"/>
<path d="M14.8725 16.6564C14.7449 16.6564 14.6172 16.6564 14.4895 16.5925C13.7874 16.4011 13.4683 15.6989 13.6598 14.9968L15.6385 8.67769L9.44701 6.69897C8.74489 6.50749 8.42574 5.74153 8.61723 5.10324C8.80872 4.40111 9.57467 4.01814 10.213 4.27345L17.6172 6.63515C18.2555 6.82663 18.6385 7.52876 18.447 8.23088L16.0853 15.7628C15.9576 16.2734 15.447 16.6564 14.8725 16.6564Z" fill="black"/>
<path d="M42.7016 58.2093C42.2548 58.2093 41.808 57.954 41.5527 57.571C41.2335 56.9327 41.425 56.1668 42.0633 55.8476L54.3186 49.0817C56.1696 48.0604 57.3185 46.0817 57.3185 43.9115V20.869C57.3185 18.6988 56.1696 16.7201 54.3186 15.6989L32.425 3.63508C30.8931 2.8053 29.0421 2.8053 27.5102 3.63508L23.5527 5.80528C22.9144 6.12443 22.1485 5.93294 21.8293 5.29465C21.5102 4.65635 21.7017 3.8904 22.34 3.57125L26.2974 1.40105C28.5953 0.124456 31.3399 0.124456 33.7016 1.40105L55.659 13.4648C58.3398 14.9329 59.9994 17.7414 59.9994 20.869V43.8477C59.9994 46.9753 58.3398 49.7838 55.659 51.2519L43.3399 58.0178C43.1484 58.1455 42.9569 58.2093 42.7016 58.2093Z" fill="black"/>
<path d="M50.1059 60.5711C49.9782 60.5711 49.8506 60.5711 49.7229 60.5072L42.3187 58.1456C41.6804 57.9541 41.2974 57.2519 41.4889 56.5498L43.8506 49.0179C44.0421 48.3158 44.7442 47.9967 45.4463 48.1882C46.1485 48.3796 46.4676 49.0818 46.2761 49.7839L44.2974 56.103L50.4889 58.0817C51.191 58.2732 51.5101 59.0392 51.3187 59.6775C51.191 60.1881 50.6804 60.5711 50.1059 60.5711Z" fill="black"/>
<path d="M50.1059 60.5711C49.9782 60.5711 49.8506 60.5711 49.7229 60.5072L42.3187 58.1456C41.6804 57.9541 41.2974 57.2519 41.4889 56.5498L43.8506 49.0179C44.0421 48.3158 44.7442 47.9967 45.4463 48.1882C46.1485 48.3796 46.4676 49.0818 46.2761 49.7839L44.2974 56.103L50.4889 58.0817C51.191 58.2732 51.5101 59.0392 51.3187 59.6775C51.191 60.1881 50.6804 60.5711 50.1059 60.5711Z" fill="black"/>
<path d="M50.0424 60.571C49.9148 60.571 49.7871 60.571 49.6594 60.5071L42.2552 58.1454C41.6169 57.9539 41.234 57.2518 41.4254 56.5497L43.7871 49.0178C43.9786 48.3157 44.6807 47.9965 45.3829 48.188C46.085 48.3795 46.4041 49.0816 46.2127 49.7838L44.2339 56.1029L50.4254 58.0816C51.1275 58.2731 51.4467 59.039 51.2552 59.6773C51.1275 60.188 50.6169 60.571 50.0424 60.571Z" fill="black"/>
<path d="M20.8087 24.635H7.40452C6.7024 24.635 6.12793 24.0605 6.12793 23.3584C6.12793 22.6563 6.7024 22.0818 7.40452 22.0818H20.8087C21.5108 22.0818 22.0853 22.6563 22.0853 23.3584C22.0853 24.0605 21.5108 24.635 20.8087 24.635Z" fill="black"/>
<path d="M20.8087 29.3582H7.40452C6.7024 29.3582 6.12793 28.7838 6.12793 28.0816C6.12793 27.3795 6.7024 26.8051 7.40452 26.8051H20.8087C21.5108 26.8051 22.0853 27.3795 22.0853 28.0816C22.0853 28.7838 21.5108 29.3582 20.8087 29.3582Z" fill="black"/>
<path d="M20.8087 34.0178H7.40452C6.7024 34.0178 6.12793 33.4433 6.12793 32.7412C6.12793 32.0391 6.7024 31.4646 7.40452 31.4646H20.8087C21.5108 31.4646 22.0853 32.0391 22.0853 32.7412C22.0853 33.4433 21.5108 34.0178 20.8087 34.0178Z" fill="black"/>
<path d="M45.6379 30.8263C44.9358 30.8263 44.3613 30.2518 44.3613 29.5497V24.3795C44.3613 23.6774 44.9358 23.1029 45.6379 23.1029C46.34 23.1029 46.9145 23.6774 46.9145 24.3795V29.5497C46.9145 30.2518 46.34 30.8263 45.6379 30.8263Z" fill="black"/>
<path d="M43.5959 25.5923C43.2767 25.5923 43.0214 25.5285 42.7022 25.4647C40.7874 24.954 39.1916 24.0604 37.9789 22.8477C34.915 19.7838 34.915 14.9328 34.915 14.7413C34.915 14.0392 35.4895 13.4647 36.1916 13.4647C36.3831 13.4647 41.2342 13.4647 44.298 16.5285C45.5107 17.7413 46.3405 19.337 46.915 21.2519C47.2341 22.4647 46.915 23.6774 46.0214 24.5711C45.3192 25.2094 44.4895 25.5923 43.5959 25.5923ZM37.5321 16.1456C37.7235 17.486 38.298 19.5924 39.7023 21.0604C40.5959 21.954 41.8086 22.5923 43.2767 22.9753C43.7235 23.103 43.9788 22.8477 44.1065 22.7838C44.2341 22.6562 44.4256 22.4009 44.298 21.954C43.915 20.4221 43.2767 19.2732 42.3831 18.3796C40.9788 16.9115 38.9363 16.337 37.5321 16.1456Z" fill="black"/>
<path d="M47.1707 28.4007C46.5324 28.4007 45.8941 28.1454 45.3835 27.6986C44.6176 26.9326 44.2346 25.8475 44.4899 24.6986C44.8729 23.1029 45.5112 21.8263 46.341 20.805C48.6388 18.188 52.2133 18.188 52.3409 18.188C53.0431 18.188 53.6175 18.7625 53.6175 19.4646C53.6175 19.6561 53.6175 23.5497 51.3835 26.1028C50.4899 27.1241 49.3409 27.8262 47.8729 28.2731C47.6814 28.3369 47.4261 28.4007 47.1707 28.4007ZM46.9793 25.2731C46.9154 25.5284 46.9793 25.7199 47.1069 25.7837C47.1707 25.8475 47.1707 25.8475 47.1707 25.8475C48.1282 25.5284 48.958 25.0816 49.4686 24.4433C50.3622 23.422 50.7452 22.0816 50.8729 20.9965C50.0431 21.188 48.958 21.6348 48.192 22.5284C47.6814 23.1667 47.2346 24.1241 46.9793 25.2731Z" fill="black"/>
<path d="M52.0206 32.3582H38.6164C37.9143 32.3582 37.3398 31.7838 37.3398 31.0816C37.3398 30.3795 37.9143 29.8051 38.6164 29.8051H52.0206C52.7228 29.8051 53.2972 30.3795 53.2972 31.0816C53.2972 31.7838 52.7228 32.3582 52.0206 32.3582Z" fill="black"/>
<path d="M37.2134 57.1881H23.5539C22.8518 57.1881 22.2773 56.6136 22.2773 55.9115C22.2773 55.2094 22.8518 54.6349 23.5539 54.6349H37.2134C37.9156 54.6349 38.49 55.2094 38.49 55.9115C38.49 56.6136 37.9156 57.1881 37.2134 57.1881Z" fill="black"/>
<path d="M30.1282 57.1882C29.426 57.1882 28.8516 56.6137 28.8516 55.9116V43.4648C28.8516 42.7627 29.426 42.1882 30.1282 42.1882C30.8303 42.1882 31.4047 42.7627 31.4047 43.4648V55.9116C31.4047 56.6137 30.8303 57.1882 30.1282 57.1882Z" fill="black"/>
<path d="M29.681 48.8265C29.4257 48.8265 29.1704 48.7627 28.915 48.5712L24.7023 45.5712C24.064 45.1882 23.6172 44.4861 23.6172 43.7201V40.018C23.6172 39.5712 23.8725 39.1244 24.2555 38.8691C24.6385 38.6138 25.1491 38.6776 25.5321 38.9329L30.2555 41.9329C30.8299 42.3159 31.0214 43.0818 30.6384 43.7201C30.2555 44.2946 29.4895 44.4861 28.8512 44.1031L26.1065 42.3159V43.4648L30.3193 46.4648C30.8938 46.8478 31.0214 47.6775 30.6384 48.252C30.4469 48.635 30.064 48.8265 29.681 48.8265Z" fill="black"/>
<path d="M29.681 53.1031C29.4257 53.1031 29.1704 53.0393 28.915 52.8478L24.7023 49.8478C24.064 49.4648 23.6172 48.7627 23.6172 47.9968V43.6564C23.6172 42.9542 24.1917 42.3798 24.8938 42.3798C25.5959 42.3798 26.1704 42.9542 26.1704 43.6564V47.7414L30.3831 50.7414C30.9576 51.1244 31.0852 51.9542 30.7023 52.5286C30.4469 52.9755 30.064 53.1031 29.681 53.1031Z" fill="black"/>
<path d="M30.1289 48.8266C29.7459 48.8266 29.3629 48.6351 29.1076 48.3159C28.7246 47.7415 28.8523 46.9755 29.4267 46.5287L33.6395 43.5287V42.3798L30.8948 44.167C30.3203 44.55 29.4906 44.3585 29.1076 43.784C28.7246 43.2096 28.9161 42.3798 29.4906 41.9968L34.2139 38.9968C34.5969 38.7415 35.1076 38.7415 35.4905 38.933C35.8735 39.1883 36.1288 39.5713 36.1288 40.0819V43.784C36.1288 44.55 35.7459 45.2521 35.0437 45.6351L30.831 48.6351C30.6395 48.7627 30.3842 48.8266 30.1289 48.8266Z" fill="black"/>
<path d="M30.1289 53.1031C29.7459 53.1031 29.3629 52.9116 29.1076 52.5925C28.7246 52.018 28.8523 51.2521 29.4267 50.8053L33.6395 47.8053V43.7202C33.6395 43.0181 34.2139 42.4436 34.9161 42.4436C35.6182 42.4436 36.1927 43.0181 36.1927 43.7202V48.0606C36.1927 48.8266 35.8097 49.5287 35.1076 49.9117L30.8948 52.9116C30.6395 53.0393 30.3842 53.1031 30.1289 53.1031ZM33.5757 47.9968C33.5757 48.0606 33.5757 48.0606 33.5757 47.9968V47.9968Z" fill="black"/>
<path d="M29.9963 33.6099C29.2942 33.6099 28.7197 33.0355 28.7197 32.3333V9.92918C28.7197 9.22705 29.2942 8.65259 29.9963 8.65259C30.6984 8.65259 31.2729 9.22705 31.2729 9.92918V32.3972C31.2729 33.0355 30.6984 33.6099 29.9963 33.6099Z" fill="black"/>
<path d="M11.0394 44.3972C10.5926 44.3972 10.1458 44.1418 9.95434 43.7589C9.63519 43.1206 9.82668 42.3546 10.465 42.0355L29.3585 31.2483C29.9968 30.9291 30.7628 31.1206 31.0819 31.7589C31.4011 32.3972 31.2096 33.1632 30.5713 33.4823L11.6777 44.2057C11.4224 44.3333 11.2309 44.3972 11.0394 44.3972Z" fill="black"/>
<path d="M48.9542 44.3972C48.7627 44.3972 48.5074 44.3333 48.3159 44.2057L29.3585 33.4823C28.7202 33.1632 28.5287 32.3334 28.8479 31.7589C29.167 31.1206 29.9968 30.9291 30.5713 31.2483L49.5287 41.9716C50.167 42.2908 50.3584 43.1206 50.0393 43.695C49.8478 44.1418 49.401 44.3972 48.9542 44.3972Z" fill="black"/>
</g>
<defs>
<clipPath id="clip0_2921_23425">
<rect width="60" height="65" fill="white" transform="translate(0 0.268799)"/>
</clipPath>
</defs>
</svg>
