<svg width="60" height="66" viewBox="0 0 60 66" fill="none" xmlns="http://www.w3.org/2000/svg">
<path d="M30.0319 64.3414C28.754 64.3414 27.476 64.0219 26.3259 63.3829L3.96166 51.1145C1.53355 49.7727 0 47.2168 0 44.4053V20.3797C0 17.5682 1.53355 15.0123 3.96166 13.6704L26.3259 1.40207C28.6262 0.124115 31.3738 0.124115 33.6741 1.40207L56.0383 13.6704C58.4665 15.0123 60 17.5682 60 20.3797V44.4053C60 47.2168 58.4665 49.7727 56.0383 51.1145L33.6741 63.3829C32.5879 64.0219 31.3099 64.3414 30.0319 64.3414ZM30.0319 2.99951C29.2013 2.99951 28.3706 3.19121 27.5399 3.63849L5.17572 15.9069C3.51438 16.8014 2.55591 18.5267 2.55591 20.3797V44.4053C2.55591 46.2583 3.57827 47.9835 5.17572 48.8781L27.5399 61.1465C29.0735 61.9771 30.9265 61.9771 32.4601 61.1465L54.8243 48.8781C56.4856 47.9835 57.508 46.2583 57.508 44.4053V20.3797C57.508 18.5267 56.4856 16.8014 54.8243 15.9069L32.4601 3.63849C31.6933 3.19121 30.8626 2.99951 30.0319 2.99951Z" fill="black"/>
<path d="M44.7926 43.4486C44.0897 43.4486 43.5146 42.8735 43.5146 42.1707V37.1866C43.5146 36.4838 44.0897 35.9087 44.7926 35.9087C45.4955 35.9087 46.0706 36.4838 46.0706 37.1866V42.1707C46.0706 42.8735 45.4955 43.4486 44.7926 43.4486Z" fill="black"/>
<path d="M50.5441 39.8064C50.2885 39.8064 50.0329 39.7425 49.8412 39.6147L44.0904 35.7169C43.5153 35.3335 43.3875 34.5029 43.7709 33.9278C44.1543 33.3527 44.985 33.2249 45.56 33.6083L51.3108 37.5061C51.8859 37.8895 52.0137 38.7201 51.6303 39.2952C51.3747 39.6147 50.9275 39.8064 50.5441 39.8064Z" fill="black"/>
<path d="M50.5441 34.9501C50.2885 34.9501 50.0329 34.8862 49.7773 34.6945L44.0265 30.3495C43.4514 29.9022 43.3236 29.1354 43.7709 28.5603C44.2182 27.9852 44.985 27.8574 45.5601 28.3047L51.3109 32.6498C51.8859 33.0971 52.0137 33.8638 51.5664 34.4389C51.3109 34.8223 50.9275 34.9501 50.5441 34.9501Z" fill="black"/>
<path d="M49.0747 28.6237C48.8191 28.6237 48.5635 28.5599 48.3079 28.3682L44.2824 25.365C43.7073 24.9177 43.5795 24.1509 44.0268 23.5758C44.4741 23.0007 45.2408 22.873 45.8159 23.3202L49.7776 26.3234C50.3527 26.7707 50.4805 27.5375 50.0332 28.1126C49.8415 28.4321 49.4581 28.6237 49.0747 28.6237Z" fill="black"/>
<path d="M41.0872 28.6237C40.7038 28.6237 40.3205 28.4321 40.0649 28.1126C39.6176 27.5375 39.7454 26.7707 40.3205 26.3234L44.2821 23.3202C44.8572 22.873 45.624 23.0007 46.0713 23.5758C46.5185 24.1509 46.3907 24.9177 45.8157 25.365L41.854 28.3682C41.5984 28.496 41.3428 28.6237 41.0872 28.6237Z" fill="black"/>
<path d="M41.0867 38.4641C40.7033 38.4641 40.256 38.2724 40.0004 37.889C39.617 37.3139 39.7448 36.4833 40.3199 36.0999L44.026 33.544C44.601 33.1606 45.4317 33.2884 45.8151 33.8635C46.1985 34.4385 46.0707 35.2692 45.4956 35.6526L41.7895 38.2085C41.5978 38.4002 41.3423 38.4641 41.0867 38.4641Z" fill="black"/>
<path d="M39.0423 34.9501C38.6589 34.9501 38.2755 34.7584 38.0199 34.4389C37.5727 33.8638 37.7005 33.0971 38.2755 32.6498L44.0263 28.3047C44.6014 27.8574 45.3682 27.9852 45.8155 28.5603C46.2628 29.1354 46.135 29.9022 45.5599 30.3495L39.8091 34.6945C39.6174 34.8862 39.3618 34.9501 39.0423 34.9501Z" fill="black"/>
<path d="M14.6327 38.4616C14.2494 38.4616 13.866 38.2699 13.6104 37.9504L12.3324 36.1612C11.949 35.5862 12.0768 34.8194 12.6519 34.3721C13.227 33.9887 14.0577 34.1165 14.4411 34.6916L15.719 36.4807C16.1024 37.0558 15.9746 37.8226 15.3995 38.2699C15.1439 38.3977 14.8883 38.4616 14.6327 38.4616Z" fill="black"/>
<path d="M11.8219 34.5652C11.119 34.5652 10.5439 33.9901 10.5439 33.2872C10.5439 32.5843 11.119 32.0093 11.8219 32.0093L18.7868 31.8815C19.4896 31.8815 20.0647 32.4565 20.0647 33.1594C20.0647 33.8623 19.4896 34.4374 18.7868 34.4374L11.8219 34.5652Z" fill="black"/>
<path d="M15.9745 30.4757L8.75407 30.284C8.0512 30.284 7.47612 29.6451 7.54001 28.9422C7.60391 28.2393 8.11509 27.6642 8.88187 27.7281L16.0384 27.9198C16.7413 27.9198 17.3164 28.5588 17.2525 29.2617C17.2525 29.9645 16.6774 30.4757 15.9745 30.4757Z" fill="black"/>
<path d="M11.1184 26.1307C11.0545 26.1307 11.0545 26.1307 11.1184 26.1307L6.07048 26.0029C5.3676 26.0029 4.79252 25.3639 4.85642 24.6611C4.85642 23.9582 5.4315 23.3831 6.19827 23.447L11.1823 23.5748C11.8852 23.5748 12.4603 24.2138 12.3964 24.9166C12.3325 25.6195 11.7574 26.1307 11.1184 26.1307Z" fill="black"/>
<path d="M4.60088 30.7312C4.47308 30.7312 4.34528 30.7312 4.21749 30.6673C3.51461 30.4756 3.19513 29.7088 3.38682 29.0698L4.92036 24.3414C5.11206 23.6385 5.87883 23.319 6.51781 23.5107C7.22068 23.7024 7.54017 24.4692 7.34848 25.1082L5.81493 29.8366C5.62324 30.4117 5.11206 30.7312 4.60088 30.7312Z" fill="black"/>
<path d="M9.39275 41.0824C9.26495 41.0824 9.07326 41.0824 8.94547 41.0185C8.30649 40.763 7.9231 40.0601 8.17869 39.3572L10.6068 32.8396C10.8624 32.2007 11.5653 31.8173 12.2681 32.0729C12.9071 32.3284 13.2905 33.0313 13.0349 33.7342L10.6068 40.2518C10.4151 40.763 9.96783 41.0824 9.39275 41.0824Z" fill="black"/>
<path d="M6.6458 37.1208C6.518 37.1208 6.39021 37.1208 6.26241 37.0569C5.55954 36.8652 5.24005 36.0984 5.43174 35.4595L7.60426 28.6224C7.79596 27.9195 8.56273 27.6 9.20171 27.7917C9.90458 27.9834 10.2241 28.7502 10.0324 29.3892L7.85985 36.2262C7.66816 36.7374 7.15698 37.1208 6.6458 37.1208Z" fill="black"/>
<path d="M15.3365 43.4465C14.6337 43.4465 14.0586 42.8715 14.0586 42.1686V40.3156C14.0586 39.6127 14.6337 39.0376 15.3365 39.0376C16.0394 39.0376 16.6145 39.6127 16.6145 40.3156V42.1686C16.6145 42.8715 16.1033 43.4465 15.3365 43.4465Z" fill="black"/>
<path d="M29.2656 38.4634C28.8822 38.4634 28.4988 38.2717 28.2432 37.9522L26.9652 36.1631C26.5819 35.588 26.7097 34.8212 27.2847 34.3739C27.8598 33.9905 28.6905 34.1183 29.0739 34.6934L30.3518 36.4826C30.7352 37.0576 30.6074 37.8244 30.0323 38.2717C29.7767 38.3995 29.5212 38.4634 29.2656 38.4634Z" fill="black"/>
<path d="M26.5182 34.5651C25.8153 34.5651 25.2402 33.99 25.2402 33.351C25.2402 32.6481 25.7514 32.073 26.4543 32.0091L30.7354 31.8813C30.7354 31.8813 30.7354 31.8813 30.7993 31.8813C31.5022 31.8813 32.0773 32.4564 32.0773 33.0954C32.0773 33.7983 31.5661 34.3734 30.8632 34.4373L26.5182 34.5651Z" fill="black"/>
<path d="M26.7092 30.4766L23.4504 30.2849C22.7475 30.221 22.2363 29.6459 22.2363 28.9431C22.2363 28.2402 22.8753 27.729 23.5782 27.729L26.7731 27.9207C27.4759 27.9846 27.9871 28.5597 27.9871 29.2626C27.9232 29.9654 27.3481 30.4766 26.7092 30.4766Z" fill="black"/>
<path d="M22.3642 26.131C22.3003 26.131 22.3003 26.131 22.2364 26.131L20.639 26.0032C19.9361 25.9393 19.4249 25.3003 19.4888 24.5974C19.5527 23.8946 20.1917 23.3834 20.8945 23.4473L22.492 23.5751C23.1949 23.639 23.706 24.278 23.6421 24.9808C23.5782 25.6198 23.0671 26.131 22.3642 26.131Z" fill="black"/>
<path d="M19.2337 30.7328C19.1059 30.7328 18.9781 30.7328 18.8503 30.6689C18.1474 30.4772 17.8279 29.7104 18.0196 29.0714L19.5532 24.343C19.7449 23.6401 20.5116 23.3206 21.1506 23.5123C21.8535 23.704 22.173 24.4708 21.9813 25.1098L20.4477 29.8382C20.3199 30.4133 19.8088 30.7328 19.2337 30.7328Z" fill="black"/>
<path d="M24.09 41.0823C23.9622 41.0823 23.7705 41.0823 23.6427 41.0184C23.0038 40.7628 22.6204 40.06 22.876 39.3571L25.3041 32.8395C25.5597 32.2005 26.2625 31.8171 26.9654 32.0727C27.6044 32.3283 27.9878 33.0312 27.7322 33.7341L25.3041 40.2517C25.1124 40.7628 24.6012 41.0823 24.09 41.0823Z" fill="black"/>
<path d="M21.2786 37.1207C21.1508 37.1207 21.023 37.1207 20.8952 37.0568C20.1923 36.8651 19.8729 36.0983 20.0646 35.4593L22.2371 28.6223C22.4288 27.9194 23.1955 27.5999 23.8345 27.7916C24.5374 27.9833 24.8569 28.7501 24.6652 29.389L22.4927 36.2261C22.3649 36.7373 21.8537 37.1207 21.2786 37.1207Z" fill="black"/>
<path d="M30.0328 43.4465C29.33 43.4465 28.7549 42.8715 28.7549 42.1686V40.3156C28.7549 39.6127 29.33 39.0376 30.0328 39.0376C30.7357 39.0376 31.3108 39.6127 31.3108 40.3156V42.1686C31.3108 42.8715 30.7357 43.4465 30.0328 43.4465Z" fill="black"/>
<path d="M50.1607 53.798C49.8412 53.798 49.5217 53.6703 49.2661 53.4147L8.691 12.9035C8.17982 12.3923 8.17982 11.6255 8.691 11.1143C9.20219 10.6032 9.96896 10.6032 10.4801 11.1143L50.9913 51.6255C51.5025 52.1367 51.5025 52.9035 50.9913 53.4147C50.7996 53.6703 50.4801 53.798 50.1607 53.798Z" fill="black"/>
</svg>
