<svg width="60" height="66" viewBox="0 0 60 66" fill="none" xmlns="http://www.w3.org/2000/svg">
<g clip-path="url(#clip0_2921_23428)">
<path d="M30 64.2734C28.7234 64.2734 27.4468 63.9542 26.2979 63.3159L3.95745 51.0606C1.53192 49.7202 0 47.167 0 44.3585V20.3585C0 17.55 1.53192 14.9968 3.95745 13.6564L26.2979 1.40105C28.5957 0.124455 31.3404 0.124455 33.6383 1.40105C34.2766 1.7202 34.4681 2.48616 34.1489 3.12445C33.8298 3.76275 33.0638 3.95424 32.4255 3.63509C30.8936 2.80531 29.0426 2.80531 27.5106 3.63509L5.17021 15.8904C3.51064 16.784 2.55319 18.5074 2.55319 20.3585V44.3585C2.55319 46.2096 3.57447 47.933 5.17021 48.8266L27.5106 61.0819C29.0426 61.9117 30.8936 61.9117 32.4255 61.0819L54.766 48.8266C56.4255 47.933 57.4468 46.2096 57.4468 44.3585V20.3585C57.4468 18.7628 56.7447 17.2947 55.4681 16.3372C54.8936 15.8904 54.8298 15.1245 55.2766 14.55C55.7234 13.9755 56.4894 13.9117 57.0638 14.3585C58.9149 15.8266 60 17.9968 60 20.4223V44.4223C60 47.2308 58.4681 49.784 56.0426 51.1245L33.7021 63.3798C32.5532 63.9542 31.2766 64.2734 30 64.2734Z" fill="black"/>
<path d="M38.8726 55.784C38.7449 55.784 38.6811 55.784 38.5534 55.7202L35.4896 54.8904C34.7875 54.6989 34.4045 53.9968 34.596 53.3585C34.7875 52.7202 35.4896 52.2734 36.1279 52.4649L38.7449 53.167L40.8513 52.2095C41.4896 51.9542 42.2556 52.2095 42.5109 52.8478C42.7662 53.4861 42.5109 54.2521 41.8726 54.5074L39.3832 55.6563C39.2556 55.784 39.0641 55.784 38.8726 55.784Z" fill="black"/>
<path d="M28.7869 59.6137C28.4039 59.6137 28.0848 59.486 27.8294 59.1669C27.3826 58.6562 27.3826 57.8265 27.9571 57.3797L29.6805 55.8477L29.106 53.9967C28.9145 53.2945 29.2975 52.5924 29.9996 52.4009C30.7018 52.2094 31.4039 52.5924 31.5954 53.2945L32.3614 55.9116C32.489 56.3584 32.3614 56.869 31.9784 57.252L29.6167 59.3584C29.4252 59.5499 29.106 59.6137 28.7869 59.6137Z" fill="black"/>
<path d="M23.6812 56.4222C23.5535 56.4222 23.362 56.4222 23.2344 56.3584L18.511 54.5712C17.8727 54.3159 17.4897 53.6137 17.745 52.9116C18.0003 52.2733 18.7025 51.8903 19.4046 52.1456L24.128 53.9329C24.7663 54.1882 25.1493 54.8903 24.8939 55.5925C24.7025 56.1031 24.1918 56.4222 23.6812 56.4222Z" fill="black"/>
<path d="M42.766 20.2949C39.4468 20.2949 36.7021 17.4225 36.7021 13.9119C36.7021 10.7204 40.9787 6.25232 41.8724 5.42253C42.383 4.91189 43.149 4.91189 43.6596 5.42253C44.4894 6.25232 48.8298 10.7204 48.8298 13.9119C48.8298 17.4225 46.0851 20.2949 42.766 20.2949ZM42.766 8.16721C41.1064 10.0183 39.2553 12.5715 39.2553 13.9119C39.2553 16.0183 40.8511 17.7417 42.766 17.7417C44.6809 17.7417 46.2766 16.0183 46.2766 13.9119C46.2766 12.5715 44.4256 10.0183 42.766 8.16721Z" fill="black"/>
<path d="M42.6387 23.8692C36.3834 23.8692 31.3408 18.8266 31.3408 12.5713C31.3408 6.31599 36.3834 1.27344 42.6387 1.27344C48.894 1.27344 53.9366 6.37982 53.9366 12.5713C53.9366 18.7628 48.8302 23.8692 42.6387 23.8692ZM42.6387 3.82663C37.8515 3.82663 33.894 7.72025 33.894 12.5713C33.894 17.4224 37.7876 21.316 42.6387 21.316C47.4259 21.316 51.3834 17.4224 51.3834 12.5713C51.3834 7.72025 47.4259 3.82663 42.6387 3.82663Z" fill="black"/>
<path d="M50.1706 20.5501C49.8514 20.5501 49.5323 20.4225 49.2769 20.231L35.2982 7.20972C34.7876 6.69908 34.7238 5.93312 35.2344 5.42248C35.745 4.91185 36.5748 4.91185 37.0855 5.35865L51.0003 18.3161C51.511 18.8267 51.5748 19.5927 51.0642 20.1033C50.8727 20.3587 50.4897 20.5501 50.1706 20.5501Z" fill="black"/>
<path d="M21.4475 50.167C20.7454 50.167 20.1709 49.5925 20.1709 48.8904V36.8904C20.1709 36.1882 20.7454 35.6138 21.4475 35.6138C22.1496 35.6138 22.7241 36.1882 22.7241 36.8904V48.8904C22.7241 49.6563 22.1496 50.167 21.4475 50.167Z" fill="black"/>
<path d="M22.7871 32.4862C22.3402 32.4862 21.8934 32.2948 21.5743 31.9756C20.553 31.0182 20.8722 29.1033 20.9998 28.5288C21.319 27.1245 21.8934 25.9756 22.6594 25.1458C23.1062 24.6352 23.936 24.5713 24.4466 25.0182C24.9573 25.465 25.0211 26.2948 24.5743 26.8054C24.1275 27.3799 23.7445 28.1458 23.4892 29.1033C23.4254 29.4224 23.4254 29.6777 23.4254 29.8692C23.8083 29.9969 24.1275 30.316 24.2551 30.699C24.4466 31.4011 24.0636 32.1033 23.4254 32.2948C23.17 32.4224 22.9785 32.4862 22.7871 32.4862Z" fill="black"/>
<path d="M28.1487 37.3372C27.9573 37.3372 27.8296 37.3372 27.6381 37.2734C26.9998 37.0181 26.6807 36.2521 26.936 35.6138C26.9998 35.4223 27.0636 35.2308 27.1275 35.0393C26.6807 35.167 26.2339 35.3585 25.8509 35.6138C25.2764 35.9968 24.4466 35.8691 24.0636 35.2947C23.6807 34.7202 23.8083 33.8904 24.3828 33.5074C26.2339 32.2308 28.4041 32.2308 28.6594 32.2308C29.3615 32.2308 29.936 32.8053 29.936 33.5074C29.936 33.6351 29.936 35.0393 29.2977 36.5074C29.17 37.0181 28.6594 37.3372 28.1487 37.3372Z" fill="black"/>
<path d="M23.043 43.5926C21.7026 43.5926 20.426 42.699 20.043 41.2947C19.9154 40.7841 19.9154 40.2096 20.043 39.699C20.2983 38.6777 20.7451 37.7202 21.2558 36.8905C21.6388 36.316 22.4047 36.1245 23.043 36.5075C23.6175 36.8905 23.809 37.6564 23.426 38.2947C23.043 38.8692 22.7239 39.5713 22.5324 40.4011C22.5324 40.5288 22.5324 40.5926 22.5324 40.7202C22.5962 41.0394 22.9154 41.167 23.1707 41.1032C23.9366 40.9117 24.6388 40.5926 25.2132 40.2734C25.7877 39.8905 26.6175 40.0819 27.0005 40.6564C27.3834 41.2309 27.1919 42.0607 26.6175 42.4436C25.8515 42.9543 24.8941 43.3373 23.8728 43.5926C23.6175 43.5926 23.2983 43.5926 23.043 43.5926Z" fill="black"/>
<path d="M20.0426 45.5075C19.7873 45.5075 19.5958 45.4437 19.3405 45.3798C18.1277 44.9968 17.1064 44.3585 16.4043 43.5288C15.3192 42.316 14.8724 40.7202 14.6809 39.6351C14.5533 38.933 15.0001 38.2947 15.7022 38.1671C15.766 38.1671 15.8937 38.1671 15.9575 38.1671C15.9575 38.1032 15.9575 37.9756 16.0213 37.9117C16.2128 37.2096 16.915 36.8266 17.5533 37.0181C18.8937 37.3373 20.0426 38.0394 20.8086 38.9968C21.5107 39.8266 22.0852 40.9117 22.4043 42.2522C22.6596 43.2096 22.3405 44.2309 21.6384 44.933C21.1916 45.2522 20.6171 45.5075 20.0426 45.5075ZM17.2341 39.5075C17.3618 40.2734 17.6809 41.1671 18.2554 41.8692C18.6384 42.316 19.2128 42.699 19.915 42.9543C19.915 42.8905 19.915 42.8905 19.915 42.8266C19.7235 41.933 19.3405 41.1671 18.8937 40.6564C18.4469 40.0181 17.8086 39.699 17.2341 39.5075Z" fill="black"/>
<path d="M18.511 25.3373C17.8088 25.3373 17.2344 24.7628 17.2344 24.0607C17.2344 20.0394 20.6174 15.6351 20.745 15.5075C21.0003 15.1883 21.3195 15.0607 21.7025 14.9968C22.0854 14.9968 22.4684 15.1245 22.7237 15.4436C22.7876 15.5075 23.9365 16.8479 25.0216 19.4011C25.2769 20.0394 24.9578 20.8053 24.3195 21.0607C23.6812 21.316 22.9152 20.9968 22.6599 20.3585C22.3408 19.6564 22.0854 19.0819 21.8301 18.5713C20.9365 19.9755 19.8514 22.2096 19.8514 24.1245C19.7876 24.7628 19.2131 25.3373 18.511 25.3373Z" fill="black"/>
<path d="M35.5532 51.1244C35.4893 51.1244 35.4893 51.1244 35.4255 51.1244L27.4468 50.2308L21.383 51.1244C21.1915 51.1882 20.9361 51.1244 20.7447 51.0606L13.9149 48.3159L10.1489 48.9542C9.44678 49.0819 8.80849 48.5712 8.68083 47.9329C8.55317 47.2308 9.0638 46.5925 9.7021 46.4648L13.851 45.7627C14.1064 45.6989 14.2978 45.7627 14.5532 45.8265L21.3191 48.5074L27.2553 47.6776C27.383 47.6776 27.4468 47.6776 27.5744 47.6776L35.4255 48.5712L44.2978 45.2521C44.6808 45.1244 45.0638 45.1244 45.3829 45.3797L49.5957 47.8691C50.1702 48.2521 50.4255 49.018 50.0425 49.5925C49.6595 50.167 48.8936 50.4223 48.3191 50.0393L44.617 47.8691L36.0638 51.0606C35.8723 51.0606 35.6808 51.1244 35.5532 51.1244Z" fill="black"/>
<path d="M28.787 43.5925C26.4891 43.5925 24.5742 41.6776 24.5742 39.3798C24.5742 37.0819 26.4891 35.167 28.787 35.167C31.0849 35.167 32.9998 37.0819 32.9998 39.3798C32.9998 41.6776 31.1487 43.5925 28.787 43.5925ZM28.787 37.7202C27.8934 37.7202 27.1274 38.4861 27.1274 39.3798C27.1274 40.2734 27.8934 41.0393 28.787 41.0393C29.6806 41.0393 30.4466 40.2734 30.4466 39.3798C30.4466 38.4861 29.7444 37.7202 28.787 37.7202Z" fill="black"/>
<path d="M14.6815 40.6564C12.3836 40.6564 10.4688 38.7415 10.4688 36.4436C10.4688 34.1457 12.3836 32.2308 14.6815 32.2308C16.9794 32.2308 18.8943 34.1457 18.8943 36.4436C18.8943 38.7415 16.9794 40.6564 14.6815 40.6564ZM14.6815 34.784C13.7879 34.784 13.0219 35.55 13.0219 36.4436C13.0219 37.3372 13.7879 38.1032 14.6815 38.1032C15.5751 38.1032 16.3411 37.3372 16.3411 36.4436C16.3411 35.55 15.5751 34.784 14.6815 34.784Z" fill="black"/>
<path d="M22.2128 38.1671C19.9149 38.1671 18 36.2522 18 33.9543C18 31.6565 19.9149 29.7416 22.2128 29.7416C24.5106 29.7416 26.4255 31.6565 26.4255 33.9543C26.4255 36.2522 24.5106 38.1671 22.2128 38.1671ZM22.2128 32.2948C21.3192 32.2948 20.5532 33.0607 20.5532 33.9543C20.5532 34.848 21.3192 35.6139 22.2128 35.6139C23.1064 35.6139 23.8723 34.848 23.8723 33.9543C23.8723 33.0607 23.1064 32.2948 22.2128 32.2948Z" fill="black"/>
<path d="M17.4257 31.2095C15.1278 31.2095 13.2129 29.2946 13.2129 26.9967C13.2129 24.6988 15.1278 22.7839 17.4257 22.7839C19.7235 22.7839 21.6384 24.6988 21.6384 26.9967C21.6384 29.2946 19.7235 31.2095 17.4257 31.2095ZM17.4257 25.3371C16.532 25.3371 15.7661 26.1031 15.7661 26.9967C15.7661 27.8903 16.532 28.6563 17.4257 28.6563C18.3193 28.6563 19.0852 27.8903 19.0852 26.9967C19.0852 26.1031 18.3193 25.3371 17.4257 25.3371Z" fill="black"/>
<path d="M25.0848 27.316C22.787 27.316 20.8721 25.4011 20.8721 23.1033C20.8721 20.8054 22.787 18.8905 25.0848 18.8905C27.3827 18.8905 29.2976 20.8054 29.2976 23.1033C29.2976 25.4011 27.3827 27.316 25.0848 27.316ZM25.0848 21.4437C24.1912 21.4437 23.4253 22.2097 23.4253 23.1033C23.4253 23.9969 24.1912 24.7628 25.0848 24.7628C25.9785 24.7628 26.7444 23.9969 26.7444 23.1033C26.7444 22.2097 25.9785 21.4437 25.0848 21.4437Z" fill="black"/>
</g>
<defs>
<clipPath id="clip0_2921_23428">
<rect width="60" height="65" fill="white" transform="translate(0 0.268799)"/>
</clipPath>
</defs>
</svg>
