<svg width="64" height="71" viewBox="0 0 64 71" fill="none" xmlns="http://www.w3.org/2000/svg">
<path d="M46.67 19.9251C46.1133 19.9251 45.6804 19.5539 45.4948 19.0591L43.2061 11.7601C43.0206 11.1416 43.3917 10.3993 44.0103 10.2138L51.1855 7.92511C51.8659 7.73954 52.5463 8.04882 52.7319 8.72923C52.9174 9.40964 52.6082 10.09 51.9277 10.2756L45.9278 12.1931L47.8453 18.3168C48.0309 18.9972 47.6597 19.6776 47.0412 19.8632C46.9175 19.9251 46.7937 19.9251 46.67 19.9251Z" fill="black"/>
<path d="M19.701 60.193C19.5154 60.193 19.268 60.1312 19.0824 60.0693L7.20617 53.5126C4.60824 52.09 3 49.3683 3 46.3374V24.0076C3 20.9767 4.60824 18.255 7.20617 16.8324L28.4844 5.1417C30.7112 3.90459 33.371 3.90459 35.6597 5.1417L39.4328 7.24478C40.0514 7.55406 40.237 8.29632 39.9277 8.91488C39.6184 9.53343 38.8761 9.719 38.2576 9.40972L34.4225 7.30664C32.938 6.50252 31.1442 6.50252 29.6597 7.30664L8.38142 18.9973C6.58761 19.987 5.47422 21.9045 5.47422 24.0076V46.2755C5.47422 48.3786 6.58761 50.2961 8.38142 51.2858L20.2577 57.8425C20.8762 58.1518 21.0618 58.8941 20.7525 59.5126C20.5669 59.9456 20.1339 60.193 19.701 60.193Z" fill="black"/>
<path d="M12.5252 62.4825C12.0303 62.4825 11.5355 62.1732 11.3499 61.6165C11.1643 60.9361 11.4736 60.2557 12.154 60.0701L18.154 58.1526L16.2365 52.0289C16.0509 51.3485 16.4221 50.6681 17.0406 50.4825C17.721 50.2969 18.4014 50.6681 18.587 51.2866L20.8756 58.5856C21.0612 59.2041 20.6901 59.9464 20.0715 60.1319L12.8963 62.4206C12.7726 62.4824 12.6489 62.4825 12.5252 62.4825Z" fill="black"/>
<path d="M12.5252 62.4825C12.0303 62.4825 11.5355 62.1732 11.3499 61.6165C11.1643 60.9361 11.4736 60.2557 12.154 60.0701L18.154 58.1526L16.2365 52.0289C16.0509 51.3485 16.4221 50.6681 17.0406 50.4825C17.721 50.2969 18.4014 50.6681 18.587 51.2866L20.8756 58.5856C21.0612 59.2041 20.6901 59.9464 20.0715 60.1319L12.8963 62.4206C12.7726 62.4824 12.6489 62.4825 12.5252 62.4825Z" fill="black"/>
<path d="M31.1453 60.192C30.4649 60.192 29.9082 59.6353 29.9082 58.9549V52.2127C29.9082 51.5323 30.4649 50.9756 31.1453 50.9756C31.8257 50.9756 32.3824 51.5323 32.3824 52.2127V58.8931C32.3824 59.6353 31.8257 60.192 31.1453 60.192Z" fill="black"/>
<path d="M33.0623 53.327C32.1963 53.327 31.3922 53.0178 30.7737 52.3992C29.9696 51.5951 29.6603 50.4198 29.9696 49.2446C30.4644 47.3889 31.2685 45.9044 32.3819 44.791C35.2891 41.8838 39.8046 41.8838 39.9901 41.8838C40.6705 41.8838 41.2272 42.4405 41.2272 43.1209C41.2272 43.3065 41.2272 47.8838 38.32 50.7291C37.2066 51.8425 35.7221 52.7085 33.8664 53.1415C33.6809 53.2652 33.3716 53.327 33.0623 53.327ZM38.6912 44.4817C37.3922 44.6673 35.5365 45.224 34.1757 46.5229C33.3716 47.3271 32.753 48.4405 32.3819 49.8631C32.2582 50.2343 32.5056 50.4817 32.5675 50.6054C32.6293 50.6673 32.9386 50.9147 33.3097 50.791C34.7324 50.4198 35.8458 49.8013 36.6499 48.9972C37.9489 47.6982 38.5056 45.7807 38.6912 44.4817Z" fill="black"/>
<path d="M29.7223 55.9864C29.4749 55.9864 29.2275 55.9245 28.9801 55.8626C27.6192 55.4297 26.5058 54.7493 25.7017 53.8214C23.5986 51.4709 23.5986 47.7596 23.5986 47.574C23.5986 46.8936 24.1553 46.3369 24.8357 46.3369C24.9595 46.3369 28.3615 46.3369 30.5264 48.8111C31.3306 49.739 31.9491 50.9761 32.2584 52.4606C32.5058 53.5121 32.1965 54.5637 31.4543 55.3059C30.9594 55.7389 30.3409 55.9864 29.7223 55.9864ZM26.2584 48.9967C26.444 49.9864 26.8151 51.2235 27.5574 52.1513C28.1141 52.7699 28.7945 53.2029 29.7223 53.4503C29.7842 53.4503 29.9079 53.2647 29.846 52.9554C29.5986 51.9039 29.1656 50.9761 28.6089 50.3575C27.9904 49.6153 27.0007 49.2441 26.2584 48.9967Z" fill="black"/>
<path d="M18.7124 24.3788C16.3619 24.3788 14.4443 22.4613 14.4443 20.1108C14.4443 17.7603 16.3619 15.8428 18.7124 15.8428C21.0629 15.8428 22.9804 17.7603 22.9804 20.1108C22.9804 22.4613 21.0629 24.3788 18.7124 24.3788ZM18.7124 18.3788C17.7227 18.3788 16.9186 19.183 16.9186 20.1727C16.9186 21.1623 17.7227 21.9665 18.7124 21.9665C19.702 21.9665 20.5062 21.1623 20.5062 20.1727C20.5062 19.183 19.702 18.3788 18.7124 18.3788Z" fill="black"/>
<path d="M21.8051 37.9262C21.1865 37.9262 20.6298 37.4314 20.6298 36.751V32.2974C20.6298 31.6788 21.1247 31.1221 21.8051 31.1221H22.671V28.8953C22.671 27.7201 21.6814 26.7304 20.5061 26.7304H16.4236C15.2484 26.7304 14.2587 27.9056 14.2587 28.8953V31.1221H15.1247C15.7432 31.1221 16.2999 31.617 16.2999 32.2974V36.751C16.2999 37.3695 15.8051 37.9262 15.1247 37.9262C14.4443 37.9262 13.9494 37.4314 13.9494 36.751V33.4726H13.0835C12.4649 33.4726 11.9082 32.9778 11.9082 32.2974V28.8953C11.9082 26.7922 13.8257 24.3799 16.4236 24.3799H20.5061C22.9803 24.3799 25.0215 26.4211 25.0215 28.8953V32.2974C25.0215 32.9159 24.5267 33.4726 23.8463 33.4726H22.9803V36.751C22.9803 37.4314 22.4855 37.9262 21.8051 37.9262Z" fill="black"/>
<path d="M32.0086 35.7984C31.3282 35.7984 30.7715 35.2417 30.7715 34.5613V13.283C30.7715 12.6026 31.3282 12.0459 32.0086 12.0459C32.689 12.0459 33.2457 12.6026 33.2457 13.283V34.4994C33.2457 35.2417 32.689 35.7984 32.0086 35.7984Z" fill="black"/>
<path d="M13.6372 46.7471C13.2042 46.7471 12.7712 46.4997 12.5857 46.1286C12.2145 45.51 12.4619 44.7678 13.0186 44.4585L31.266 33.9431C31.8845 33.5719 32.6268 33.8194 32.9361 34.3761C33.3072 34.9946 33.0598 35.7369 32.5031 36.0462L14.2557 46.5616C14.0702 46.6853 13.8228 46.7471 13.6372 46.7471Z" fill="black"/>
<path d="M46.8538 44.6443C46.6683 44.6443 46.4209 44.5825 46.2353 44.4588L31.5756 36.0464C30.957 35.6753 30.7714 34.933 31.1426 34.3763C31.5137 33.7578 32.256 33.5722 32.8127 33.9434L47.4724 42.4175C48.091 42.7887 48.2765 43.5309 47.9054 44.0876C47.7198 44.4588 47.2868 44.6443 46.8538 44.6443Z" fill="black"/>
<path d="M46.547 38.667C42.5882 38.667 39.4336 35.3268 39.4336 31.2444C39.4336 28.2135 42.9594 24.0691 45.0624 21.8423C45.8666 21.0382 47.2892 21.0382 48.0315 21.8423C50.1346 24.0073 53.6603 28.1516 53.6603 31.2444C53.6603 35.3268 50.5057 38.667 46.547 38.667ZM46.547 23.8836C43.7016 26.9145 41.9078 29.7598 41.9078 31.2444C41.9078 33.966 44.0109 36.1928 46.547 36.1928C49.083 36.1928 51.1861 33.966 51.1861 31.2444C51.1861 29.7598 49.3923 26.9145 46.547 23.8836Z" fill="black"/>
<path d="M46.4233 35.5127C44.2583 35.5127 42.5264 33.4714 42.5264 30.9354C42.5264 30.2549 43.0831 29.6982 43.7635 29.6982C44.4439 29.6982 45.0006 30.2549 45.0006 30.9354C45.0006 32.2343 45.8666 33.2859 46.6707 32.9766C47.2892 32.7292 48.0315 33.1003 48.2171 33.7188C48.4645 34.3374 48.0934 35.0797 47.4748 35.2652C47.1655 35.4508 46.7944 35.5127 46.4233 35.5127Z" fill="black"/>
<path d="M60.6494 48.998C60.8968 48.1321 61.0824 47.2042 61.0824 46.2764V24.0085C61.0824 20.9775 59.4742 18.2559 56.8762 16.8332L45 10.2766C44.3815 9.96728 43.6392 10.1528 43.3299 10.7714C43.0206 11.39 43.2062 12.1322 43.8248 12.4415L55.701 18.9982C57.4948 19.9879 58.6082 21.9054 58.6082 24.0085V46.2764C58.6082 46.5238 58.6082 46.7712 58.5463 47.0187C56.8144 45.7816 54.7113 45.0393 52.4227 45.0393C46.6082 45.0393 41.9072 49.7403 41.9072 55.5547C41.9072 56.6063 42.0928 57.6578 42.3402 58.5856L34.4227 62.9774C32.9382 63.7815 31.1444 63.7815 29.6599 62.9774L25.8248 60.8743C25.2063 60.565 24.464 60.7506 24.1547 61.3691C23.8455 61.9877 24.031 62.7299 24.6496 63.0392L28.4846 65.1423C29.598 65.7609 30.8351 66.0701 32.0722 66.0701C33.3093 66.0701 34.5464 65.7609 35.6598 65.1423L43.4536 60.8743C45.3093 63.967 48.6495 66.0701 52.4845 66.0701C58.2989 66.0701 62.9999 61.3691 62.9999 55.5547C62.9381 53.0805 62.0721 50.7918 60.6494 48.998ZM58.2371 56.4207C57.9896 56.6681 57.6804 56.7918 57.3711 56.7918C57.0618 56.7918 56.7525 56.6681 56.5051 56.4207L53.6598 53.6372V60.5031C53.6598 61.1836 53.1031 61.7403 52.4227 61.7403C51.7422 61.7403 51.1855 61.1836 51.1855 60.5031V53.5753L48.3402 56.4207C48.0928 56.6681 47.7835 56.7918 47.4742 56.7918C47.1649 56.7918 46.8557 56.6681 46.6082 56.4207C46.1134 55.9258 46.1134 55.1836 46.6082 54.6887L51.3711 49.9259C51.433 49.864 51.433 49.8022 51.4948 49.7403C51.7422 49.4929 52.0515 49.3692 52.3608 49.3692C52.4227 49.3692 52.5464 49.3692 52.6082 49.3692C52.6701 49.3692 52.6701 49.3692 52.7319 49.431C52.7938 49.431 52.7938 49.431 52.8556 49.4929C52.9175 49.4929 52.9175 49.5547 52.9794 49.5547C52.9794 49.5547 53.0412 49.5547 53.0412 49.6166C53.1649 49.6785 53.2886 49.8022 53.3505 49.9259L58.1133 54.6887C58.7319 55.1836 58.7319 55.9258 58.2371 56.4207Z" fill="black"/>
</svg>
