<svg width="64" height="71" viewBox="0 0 64 71" fill="none" xmlns="http://www.w3.org/2000/svg">
<path d="M58.5266 15.5481L36.1855 3.22323C33.8781 1.95066 31.1219 1.95066 28.8138 3.22323L6.4734 15.5481C4.02234 16.9002 2.5 19.4857 2.5 22.2951V46.3945C2.5 49.2045 4.02234 51.7894 6.4734 53.1415L28.8138 65.4657C29.9679 66.1027 31.2343 66.4208 32.5 66.4208C33.7657 66.4208 35.0321 66.1027 36.1862 65.4657L58.526 53.1415C60.977 51.7894 62.5 49.2045 62.5 46.3945V22.2951C62.5 19.4857 60.977 16.9002 58.5266 15.5481ZM7.70213 17.7975L30.0426 5.47332C30.8117 5.0487 31.6562 4.83639 32.5 4.83639C33.3438 4.83639 34.1883 5.0487 34.9574 5.47332L57.2979 17.7975C58.9319 18.6987 59.9468 20.4222 59.9468 22.2951V45.0834L55.1883 41.6242C54.2206 40.9565 53.0896 40.6037 51.9164 40.6037H45.264C44.2817 40.6037 43.3594 40.9892 42.6662 41.6877C42.0566 42.3022 41.7074 43.0976 41.6296 43.9539L37.143 41.1554C37.0945 41.1188 37.0428 41.0861 36.9872 41.0566C36.2813 40.6749 35.4834 40.5492 34.6849 40.6942C33.7989 40.8533 33.0234 41.367 32.5 42.0739C31.9766 41.3664 31.2011 40.8533 30.3164 40.6942C29.5153 40.5499 28.72 40.6756 28.0134 41.0566C27.9585 41.0861 27.9068 41.1194 27.8577 41.1547L23.3704 43.9539C23.2932 43.1001 22.9434 42.3035 22.3338 41.6877C21.6406 40.9886 20.7177 40.6037 19.736 40.6037H13.0836C11.9104 40.6037 10.7794 40.9565 9.78617 41.6422L5.05319 45.0834V22.2951C5.05319 20.4222 6.06808 18.6987 7.70213 17.7975ZM5.33596 48.0442L11.2568 43.7396C11.7968 43.367 12.4287 43.1701 13.0836 43.1701H19.736C20.034 43.1701 20.3149 43.2874 20.5255 43.4997C20.7362 43.7121 20.8517 43.9943 20.8504 44.2938V44.3689C20.8479 44.9833 20.3481 45.4837 19.736 45.4837H15.4121C14.7074 45.4837 14.1355 46.0584 14.1355 46.7665C14.1355 47.4746 14.7074 48.0493 15.4121 48.0493H20.6449C21.3004 48.0493 21.9413 47.8659 22.4998 47.5176L29.2823 43.2874C29.4196 43.2252 29.6194 43.1752 29.8677 43.2201C30.2513 43.2887 30.5723 43.6229 30.6311 44.0135C30.6828 44.3605 30.5589 44.6947 30.2985 44.9141L20.1981 51.7015C19.6702 52.0537 19.0562 52.2397 18.423 52.2397H10.2611C10.2272 52.2397 10.1953 52.2474 10.1615 52.25L7.70213 50.8934C6.5666 50.2661 5.74064 49.2392 5.33596 48.0442ZM34.9574 63.2169C33.4191 64.0649 31.5815 64.0649 30.0432 63.2169L14.7943 54.8047H18.423C19.5604 54.8047 20.6628 54.4706 21.6138 53.8355L31.7621 47.0154C31.7877 46.9987 31.8126 46.9807 31.8362 46.9621C32.0909 46.7633 32.313 46.5317 32.5 46.2777C32.687 46.5317 32.9091 46.7633 33.1638 46.9621C33.1874 46.9807 33.2123 46.9987 33.2379 47.0154L43.39 53.8381C44.3372 54.4706 45.4402 54.8047 46.577 54.8047H50.2051L34.9574 63.2169ZM57.2979 50.8927L54.8385 52.2493C54.8053 52.2468 54.7734 52.2391 54.7389 52.2391H46.5777C45.9445 52.2391 45.3304 52.0531 44.8057 51.7035L34.7028 44.9147C34.4423 44.6947 34.3179 44.3612 34.3702 44.0135C34.4289 43.6235 34.75 43.2894 35.1336 43.2207C35.3845 43.1771 35.5817 43.2265 35.7183 43.2874L42.5009 47.5182C43.0587 47.8665 43.7002 48.05 44.3557 48.05H49.5879C50.2926 48.05 50.8645 47.4753 50.8645 46.7671C50.8645 46.059 50.2926 45.4843 49.5879 45.4843H45.2647C44.6526 45.4843 44.1528 44.9846 44.1502 44.3637L44.1496 44.2951C44.1483 43.9949 44.2638 43.7133 44.4751 43.5004C44.6857 43.2881 44.966 43.1707 45.264 43.1707H51.9164C52.5713 43.1707 53.2032 43.3676 53.7177 43.7217L59.664 48.0448C59.2594 49.2385 58.4334 50.2661 57.2979 50.8927Z" fill="black"/>
<path d="M44.1226 15.4716C44.1155 15.4453 44.1079 15.4203 44.0989 15.3946C44.0638 15.2913 44.0198 15.1926 43.9611 15.1034C43.9592 15.1008 43.9585 15.0976 43.9566 15.0951C43.8953 15.0033 43.8187 14.9232 43.7364 14.85C43.7166 14.8321 43.6962 14.8154 43.6751 14.7987C43.5864 14.7295 43.4919 14.6685 43.3872 14.6249L43.3853 14.6236C43.3828 14.6223 43.3796 14.6223 43.3764 14.6217C43.2775 14.5813 43.1715 14.5576 43.0617 14.5428C43.0317 14.539 43.003 14.5358 42.973 14.5338C42.9468 14.5325 42.9226 14.5261 42.8964 14.5261H38.5764C37.8717 14.5261 37.2998 15.1008 37.2998 15.809C37.2998 16.5171 37.8717 17.0918 38.5764 17.0918H39.8153L36.0915 20.8338C35.0983 20.0455 33.8479 19.5709 32.487 19.5709C31.0911 19.5709 29.8094 20.0673 28.8041 20.8928L28.0547 20.1398L29.1162 19.0731C29.6147 18.5722 29.6147 17.7602 29.1162 17.2592C28.6183 16.7583 27.8089 16.7583 27.3111 17.2592L26.2496 18.3259L24.816 16.8853H26.0543C26.7589 16.8853 27.3309 16.3106 27.3309 15.6024C27.3309 14.8943 26.7589 14.3196 26.0543 14.3196H21.7336C21.7068 14.3196 21.6819 14.326 21.6558 14.3273C21.6258 14.3292 21.597 14.3324 21.5677 14.3363C21.4579 14.351 21.3513 14.3748 21.2524 14.4152C21.2498 14.4164 21.2472 14.4158 21.2453 14.4171L21.2441 14.4177C21.1387 14.462 21.0436 14.5229 20.9549 14.5922C20.9338 14.6082 20.9141 14.6249 20.8943 14.6422C20.8113 14.7153 20.7353 14.7955 20.6734 14.8879C20.6715 14.8905 20.6709 14.893 20.6689 14.8956C20.6102 14.9854 20.5662 15.0842 20.5311 15.1874C20.5221 15.2131 20.5145 15.2381 20.5075 15.2644C20.4781 15.3728 20.457 15.4844 20.457 15.6018V20.1199C20.457 20.8281 21.0289 21.4028 21.7336 21.4028C22.4383 21.4028 23.0102 20.8281 23.0102 20.1199V18.6985L24.4438 20.1392L22.9917 21.5984C22.4932 22.0993 22.4932 22.9114 22.9917 23.4123C23.2406 23.6631 23.5675 23.7882 23.8943 23.7882C24.2211 23.7882 24.5479 23.6631 24.7968 23.4123L26.2489 21.9531L27.2211 22.93C26.863 23.6888 26.6568 24.5335 26.6568 25.427C26.6568 28.2159 28.6081 30.5513 31.2092 31.1382V32.9496H29.4315C28.7268 32.9496 28.1549 33.5243 28.1549 34.2324C28.1549 34.9405 28.7268 35.5152 29.4315 35.5152H31.2092V37.7948C31.2092 38.5029 31.7811 39.0777 32.4858 39.0777C33.1904 39.0777 33.7624 38.5029 33.7624 37.7948V35.5152H35.5394C36.2441 35.5152 36.816 34.9405 36.816 34.2324C36.816 33.5243 36.2441 32.9496 35.5394 32.9496H33.7624V31.1382C36.3634 30.5513 38.3147 28.2153 38.3147 25.427C38.3147 24.4963 38.0919 23.6195 37.7058 22.837L41.6185 18.9051V20.3265C41.6185 21.0346 42.1904 21.6093 42.8951 21.6093C43.5998 21.6093 44.1717 21.0346 44.1717 20.3265V15.8077C44.173 15.6916 44.1519 15.58 44.1226 15.4716ZM32.4864 28.7194C30.68 28.7194 29.2106 27.2429 29.2106 25.4277C29.2106 23.6124 30.68 22.1359 32.4864 22.1359C34.2928 22.1359 35.7621 23.6124 35.7621 25.4277C35.7621 27.2429 34.2934 28.7194 32.4864 28.7194Z" fill="black"/>
</svg>
