<svg width="64" height="71" viewBox="0 0 64 71" fill="none" xmlns="http://www.w3.org/2000/svg">
<path d="M58.5266 16.4828L36.1855 4.21859C33.8781 2.9522 31.1226 2.9522 28.8138 4.21859L6.4734 16.4835C4.02234 17.829 2.5 20.402 2.5 23.1977V47.1799C2.5 49.9762 4.02234 52.5486 6.4734 53.8941L28.8138 66.1584C29.9679 66.7922 31.2343 67.1088 32.5 67.1088C33.7657 67.1088 35.0321 66.7922 36.1862 66.1584L58.526 53.8941C60.977 52.5486 62.5 49.9762 62.5 47.1799V23.1977C62.5 20.402 60.977 17.829 58.5266 16.4828ZM7.70149 18.722L30.0419 6.45773C30.8117 6.03518 31.6562 5.8239 32.5 5.8239C33.3438 5.8239 34.1883 6.03518 34.9574 6.4571L57.2979 18.7214C58.9319 19.6188 59.9468 21.3339 59.9468 23.1977V45.8752L55.1883 42.4335C54.2206 41.769 53.0896 41.4179 51.9164 41.4179H45.5066V33.6416C45.9298 33.7967 46.3766 33.8809 46.8343 33.8809C47.1802 33.8809 47.5319 33.835 47.8798 33.7405C50.2364 33.1079 52.164 32.0541 53.6111 30.6071C57.3374 26.8807 57.3368 21.0122 57.3349 20.7645C57.3304 20.0669 56.7655 19.5026 56.0679 19.4975C55.8151 19.495 49.9549 19.4918 46.2253 23.2214C44.8568 24.5905 43.8445 26.395 43.203 28.5805C43.1889 28.5639 43.1762 28.546 43.1615 28.5294C40.4366 25.4152 36.1077 25.4133 35.9385 25.4133C35.2409 25.419 34.6772 25.9839 34.6728 26.6816C34.6715 26.8826 34.6715 31.6328 37.3338 34.6756C38.3928 35.8858 39.8053 36.7686 41.5313 37.2977C41.8166 37.3852 42.107 37.4279 42.3943 37.4279C42.5826 37.4279 42.7696 37.4082 42.9534 37.3718V42.2592C42.8577 42.3377 42.7549 42.4067 42.6662 42.496C42.0566 43.1075 41.7068 43.899 41.6296 44.7518L37.1423 41.9669C37.0938 41.9311 37.0421 41.8979 36.9866 41.8686C36.2806 41.4894 35.4828 41.3637 34.6843 41.5079C33.7996 41.6656 33.0234 42.1769 32.5 42.8809C31.9766 42.1762 31.2004 41.665 30.3157 41.5073C29.5147 41.3637 28.7187 41.4882 28.0128 41.8679C27.9579 41.8973 27.9055 41.9299 27.857 41.9656L23.3711 44.7505C23.2938 43.9009 22.9434 43.1088 22.3338 42.4967C21.6604 41.8214 20.7687 41.4467 19.8177 41.4262V33.6416C20.2409 33.7967 20.6877 33.8809 21.1453 33.8809C21.4919 33.8809 21.843 33.835 22.1908 33.7405C24.5474 33.1079 26.4757 32.0541 27.9221 30.6071C31.6485 26.8807 31.6479 21.0122 31.646 20.7645C31.6415 20.0669 31.0766 19.5026 30.3789 19.4975C30.1357 19.502 24.266 19.4918 20.5364 23.2214C19.1672 24.5911 18.1543 26.3962 17.5134 28.5824C17.4994 28.5658 17.4879 28.546 17.4732 28.5294C14.7438 25.4094 10.4194 25.405 10.2496 25.4133C9.55191 25.419 8.9883 25.9839 8.98383 26.6816C8.98255 26.8826 8.98255 31.6328 11.6449 34.675C12.7038 35.8858 14.1164 36.7686 15.8423 37.2977C16.1277 37.3852 16.4181 37.4279 16.7053 37.4279C16.8936 37.4279 17.0806 37.4088 17.2645 37.3724V41.4179H13.0836C11.9104 41.4179 10.7794 41.769 9.78617 42.4514L5.05319 45.8752V23.1977C5.05319 21.3339 6.06809 19.6188 7.70149 18.722ZM47.2179 31.2754C46.5228 31.4631 46.0625 31.0992 45.8985 30.9345C45.7338 30.7699 45.3706 30.3116 45.5577 29.6152C46.0728 27.6965 46.9045 26.1531 48.0304 25.0271C50.0315 23.0267 52.9683 22.3705 54.677 22.156C54.4619 23.8654 53.8064 26.8022 51.806 28.8026C50.6794 29.9286 49.136 30.7603 47.2179 31.2754ZM42.6802 34.7458C42.4919 34.9233 42.3387 34.8754 42.28 34.8569C41.0149 34.4694 39.9974 33.842 39.2551 32.9937C38.004 31.5633 37.524 29.4996 37.3402 28.1292C38.4834 28.3571 40.097 28.9035 41.2408 30.2101C42.0023 31.0801 42.5672 32.2839 42.9208 33.789C43.0249 34.232 42.8557 34.5811 42.6802 34.7458ZM21.5296 31.276C20.8338 31.4631 20.3749 31.0999 20.2102 30.9352C20.0455 30.7705 19.6823 30.3116 19.8694 29.6152C20.3845 27.6965 21.2162 26.1531 22.3421 25.0271C24.3432 23.0267 27.28 22.3705 28.9887 22.156C28.7736 23.8654 28.1181 26.8022 26.1177 28.8033C24.9917 29.9292 23.4477 30.7609 21.5296 31.276ZM16.9919 34.7458C16.8036 34.9233 16.6498 34.8754 16.5917 34.8569C15.326 34.4694 14.3085 33.842 13.5668 32.9937C12.3157 31.5633 11.8357 29.4996 11.6519 28.1292C12.7945 28.3571 14.4087 28.9028 15.5526 30.2101C16.3134 31.0801 16.8789 32.2845 17.2326 33.789C17.3366 34.232 17.1681 34.5811 16.9919 34.7458ZM5.33596 48.8216L11.2568 44.538C11.7968 44.1671 12.4287 43.9711 13.0836 43.9711H19.736C20.034 43.9711 20.3149 44.088 20.5255 44.2992C20.7362 44.5105 20.8517 44.7914 20.8504 45.0894V45.1641C20.8479 45.7756 20.3481 46.2735 19.736 46.2735H15.4109C14.7062 46.2735 14.1343 46.8454 14.1343 47.5501C14.1343 48.2548 14.7062 48.8267 15.4109 48.8267H20.6436C21.2991 48.8267 21.94 48.6441 22.4985 48.2975L29.2811 44.0879C29.4183 44.0267 29.6187 43.9769 29.8664 44.0209C30.25 44.0892 30.5711 44.4218 30.6298 44.8105C30.6821 45.1558 30.5577 45.4877 30.2972 45.7067L20.1981 52.4605C19.6702 52.8109 19.0568 52.996 18.423 52.996H10.2611C10.2266 52.996 10.1947 53.0037 10.1609 53.0062L7.70213 51.6562C6.5666 51.0326 5.74064 50.0101 5.33596 48.8216ZM34.9568 63.9205C33.4185 64.7643 31.5809 64.7643 30.0426 63.9205L14.7936 55.5492H18.423C19.5604 55.5492 20.6628 55.2173 21.6138 54.5854L31.7615 47.7977C31.787 47.7811 31.8119 47.7633 31.8355 47.7448C32.0902 47.5469 32.3123 47.3165 32.4994 47.0631C32.687 47.3165 32.9085 47.5469 33.1638 47.7454C33.1874 47.7639 33.2123 47.7818 33.2379 47.7984L43.3906 54.5873C44.3379 55.2167 45.4408 55.5492 46.5777 55.5492H50.2057L34.9568 63.9205ZM57.2972 51.6562L54.8372 53.0069C54.804 53.0043 54.7721 52.9967 54.7383 52.9967H46.577C45.9438 52.9967 45.3298 52.8116 44.8051 52.4637L34.7028 45.7073C34.4423 45.4884 34.3185 45.1565 34.3702 44.8105C34.4289 44.4224 34.7494 44.0899 35.1336 44.0216C35.3845 43.9775 35.5817 44.0267 35.7183 44.0879L42.5009 48.2982C43.0587 48.6448 43.7002 48.8273 44.3557 48.8273H49.5879C50.2926 48.8273 50.8645 48.2554 50.8645 47.5507C50.8645 46.846 50.2926 46.2741 49.5879 46.2741H45.2711C45.2691 46.2741 45.2672 46.2735 45.2647 46.2735C44.6526 46.2735 44.1528 45.7762 44.1502 45.1584L44.1496 45.0901C44.1483 44.7914 44.2638 44.5111 44.4751 44.2992C44.6857 44.088 44.9653 43.9711 45.264 43.9711H51.9164C52.5713 43.9711 53.2025 44.1665 53.7177 44.5194L59.664 48.8216C59.2594 50.0107 58.4334 51.0333 57.2972 51.6562Z" fill="black"/>
</svg>
