<svg width="64" height="71" viewBox="0 0 64 71" fill="none" xmlns="http://www.w3.org/2000/svg">
<path d="M58.0266 15.8556L35.6855 3.59139C33.3781 2.32501 30.6226 2.32501 28.3138 3.59139L5.9734 15.8563C3.52234 17.2018 2 19.7748 2 22.5705V46.5527C2 49.3491 3.52234 51.9214 5.9734 53.2669L28.3138 65.5312C29.4679 66.165 30.7343 66.4816 32 66.4816C33.2657 66.4816 34.5321 66.165 35.6862 65.5312L58.026 53.2669C60.477 51.9214 62 49.3491 62 46.5527V22.5705C62 19.7748 60.477 17.2018 58.0266 15.8556ZM7.20149 18.0948L29.5419 5.83054C30.3117 5.40798 31.1562 5.19671 32 5.19671C32.8438 5.19671 33.6883 5.40798 34.4574 5.8299L56.7979 18.0942C58.4319 18.9916 59.4468 20.7067 59.4468 22.5705V45.248L54.6883 41.8063C53.7206 41.1418 52.5896 40.7907 51.4164 40.7907H44.764C44.3089 40.7907 43.8698 40.8814 43.4574 41.0384C43.287 41.1329 43.1249 41.2427 42.9838 41.3844C42.59 41.7801 42.3736 42.3054 42.3762 42.8646V42.9731C42.3806 44.1131 43.3164 45.045 44.4621 45.045H49.0311C49.7357 45.045 50.3077 45.6169 50.3077 46.3216C50.3077 47.0263 49.7357 47.5982 49.0311 47.5982H44.4621C42.0315 47.5982 40.0304 45.7108 39.8421 43.3248L36.643 41.339C36.5945 41.3027 36.5428 41.2701 36.4872 41.2407C35.7813 40.861 34.9834 40.7359 34.1849 40.8801C33.2996 41.0384 32.5234 41.5497 32 42.2537C31.4766 41.549 30.7004 41.0378 29.8157 40.8801C29.0147 40.7365 28.2187 40.861 27.5128 41.2407C27.4579 41.2701 27.4055 41.3027 27.357 41.3384L22.8711 44.1233C22.7938 43.2737 22.4434 42.4816 21.8338 41.8695C21.1604 41.1942 20.2687 40.8195 19.3177 40.799V33.0144C19.7409 33.1695 20.1877 33.2537 20.6453 33.2537C20.9919 33.2537 21.343 33.2078 21.6908 33.1133C24.0474 32.4807 25.9757 31.4269 27.4221 29.9799C31.1485 26.2535 31.1479 20.385 31.146 20.1373C31.1415 19.4397 30.5766 18.8754 29.8789 18.8703C29.6357 18.8748 23.766 18.8646 20.0364 22.5942C18.6672 23.9639 17.6543 25.769 17.0134 27.9552C16.9994 27.9386 16.9879 27.9188 16.9732 27.9022C14.2438 24.7822 9.91936 24.7778 9.74957 24.7861C9.05191 24.7918 8.4883 25.3567 8.48383 26.0544C8.48255 26.2554 8.48255 31.0056 11.1449 34.0478C12.2038 35.2586 13.6164 36.1414 15.3423 36.6705C15.6277 36.758 15.9181 36.8008 16.2053 36.8008C16.3936 36.8008 16.5806 36.7816 16.7645 36.7452V40.7907H12.5836C11.4104 40.7907 10.2794 41.1418 9.28617 41.8242L4.55319 45.248V22.5705C4.55319 20.7067 5.56809 18.9916 7.20149 18.0948ZM21.0296 30.6488C20.3338 30.8359 19.8749 30.4727 19.7102 30.308C19.5455 30.1433 19.1823 29.6844 19.3694 28.988C19.8845 27.0693 20.7162 25.5259 21.8421 24.3999C23.8432 22.3995 26.78 21.7433 28.4887 21.5288C28.2736 23.2382 27.6181 26.175 25.6177 28.1761C24.4917 29.302 22.9477 30.1337 21.0296 30.6488ZM16.4919 34.1186C16.3036 34.2961 16.1498 34.2482 16.0917 34.2297C14.826 33.8422 13.8085 33.2148 13.0668 32.3665C11.8157 30.9361 11.3357 28.8724 11.1519 27.502C12.2945 27.7299 13.9087 28.2756 15.0526 29.5829C15.8134 30.4529 16.3789 31.6573 16.7326 33.1618C16.8366 33.6048 16.6681 33.9539 16.4919 34.1186ZM4.83596 48.1944L10.7568 43.9108C11.2968 43.5399 11.9287 43.3439 12.5836 43.3439H19.236C19.534 43.3439 19.8149 43.4608 20.0255 43.672C20.2362 43.8833 20.3517 44.1642 20.3504 44.4622V44.5369C20.3479 45.1484 19.8481 45.6463 19.236 45.6463H14.9109C14.2062 45.6463 13.6343 46.2182 13.6343 46.9229C13.6343 47.6276 14.2062 48.1995 14.9109 48.1995H20.1436C20.7991 48.1995 21.44 48.0169 21.9985 47.6703L28.7811 43.4608C28.9183 43.3995 29.1187 43.3497 29.3664 43.3937C29.75 43.462 30.0711 43.7946 30.1298 44.1833C30.1821 44.5286 30.0577 44.8605 29.7972 45.0795L19.6981 51.8333C19.1702 52.1837 18.5568 52.3688 17.923 52.3688H9.76106C9.7266 52.3688 9.69468 52.3765 9.66085 52.3791L7.20213 51.0291C6.0666 50.4054 5.24064 49.3829 4.83596 48.1944ZM34.4568 63.2933C32.9185 64.1371 31.0809 64.1371 29.5426 63.2933L14.2936 54.922H17.923C19.0604 54.922 20.1628 54.5901 21.1138 53.9582L31.2615 47.1705C31.287 47.1539 31.3119 47.1361 31.3355 47.1176C31.5909 46.919 31.8123 46.6886 32 46.4352C32.1877 46.6886 32.4091 46.919 32.6645 47.1176C32.6881 47.1361 32.713 47.1539 32.7385 47.1705L42.8906 53.9601C43.8379 54.5895 44.9408 54.922 46.0777 54.922H49.7057L34.4568 63.2933Z" fill="black"/>
<path d="M41.0314 36.6705C41.3167 36.7579 41.6072 36.8007 41.8944 36.8007C42.0827 36.8007 42.2697 36.7809 42.4535 36.7445V38.6441C42.4535 39.3488 43.0255 39.9207 43.7301 39.9207C44.4348 39.9207 45.0067 39.3488 45.0067 38.6441V33.0143C45.4299 33.1694 45.8767 33.2537 46.3344 33.2537C46.6804 33.2537 47.0321 33.2077 47.3799 33.1132C49.7365 32.4807 51.6642 31.4268 53.1112 29.9798C56.8376 26.2534 56.8369 20.3849 56.835 20.1373C56.8306 19.4396 56.2657 18.8754 55.568 18.8703C55.3152 18.8677 49.455 18.8645 45.7255 22.5941C44.3569 23.9632 43.3446 25.7677 42.7031 27.9532C42.6891 27.9366 42.6763 27.9188 42.6616 27.9022C39.9367 24.7879 35.6078 24.786 35.4387 24.786C34.741 24.7917 34.1774 25.3566 34.1729 26.0543C34.1716 26.2554 34.1716 31.0056 36.834 34.0483C37.8929 35.2586 39.3055 36.1413 41.0314 36.6705ZM45.0578 28.9879C45.5729 27.0692 46.4046 25.5258 47.5306 24.3998C49.5316 22.3994 52.4684 21.7432 54.1772 21.5288C53.9621 23.2381 53.3065 26.1749 51.3061 28.1754C50.1795 29.3013 48.6361 30.133 46.718 30.6481C46.0229 30.8358 45.5627 30.472 45.3986 30.3073C45.234 30.1426 44.8708 29.6843 45.0578 28.9879ZM40.741 29.5828C41.5025 30.4528 42.0674 31.6566 42.421 33.1617C42.525 33.6047 42.3559 33.9539 42.1804 34.1186C41.9921 34.296 41.8389 34.2481 41.7801 34.2296C40.515 33.8422 39.4976 33.2147 38.7552 32.3664C37.5042 30.936 37.0242 28.8724 36.8404 27.502C37.9835 27.7298 39.5972 28.2762 40.741 29.5828Z" fill="black"/>
</svg>
