<svg width="64" height="71" viewBox="0 0 64 71" fill="none" xmlns="http://www.w3.org/2000/svg">
<mask id="mask0_2921_22844" style="mask-type:luminance" maskUnits="userSpaceOnUse" x="2" y="3" width="60" height="61">
<path d="M62 3.21387H2V63.2138H62V3.21387Z" fill="white"/>
</mask>
<g mask="url(#mask0_2921_22844)">
<path fill-rule="evenodd" clip-rule="evenodd" d="M60.2008 44.4937V21.9337C60.2008 19.3471 58.7668 16.9009 56.4688 15.6079C56.4628 15.6055 56.4628 15.6037 56.4568 15.6019L35.4568 4.08192C35.4568 4.07952 35.4508 4.07712 35.4448 4.07472C33.2908 2.92692 30.7108 2.92692 28.5568 4.07472C28.5508 4.07712 28.5508 4.07952 28.5448 4.08192L7.54478 15.6019C7.53878 15.6037 7.53876 15.6055 7.53276 15.6079C5.23476 16.9009 3.80078 19.2751 3.80078 21.9337V44.4937C3.80078 47.0803 5.23476 49.5265 7.53276 50.8195C7.53876 50.8219 7.53878 50.8237 7.54478 50.8255L28.5448 62.3454C28.5508 62.3478 28.5508 62.3502 28.5568 62.3526C30.7108 63.5004 33.2908 63.5004 35.4448 62.3526C35.4508 62.3502 35.4568 62.3478 35.4568 62.3454L56.4568 50.8255C56.4628 50.8237 56.4628 50.8219 56.4688 50.8195C58.7668 49.5265 60.2008 47.0803 60.2008 44.4937ZM6.20078 32.0137V44.4937C6.20078 46.2253 7.16681 47.8585 8.70281 48.7255L13.0888 51.1285L15.6508 49.0765C15.9268 48.8551 16.2868 48.7675 16.6348 48.8371L18.3388 49.1779L20.4028 48.8305C21.0568 48.7201 21.6748 49.1611 21.7828 49.8139C21.8968 50.4673 21.4528 51.0871 20.7988 51.1968L18.5188 51.5815C18.3748 51.6054 18.2308 51.6031 18.0868 51.5748L16.7128 51.3L15.3628 52.3788L29.6908 60.237C31.1368 61.0056 32.8648 61.0056 34.3108 60.237L49.8388 51.7206C48.4228 50.7301 44.9068 48.2881 40.5988 45.4429L40.8328 46.2601L42.2668 47.2153C42.5128 47.3809 42.6927 47.6329 42.7647 47.9227L43.3647 50.3227C43.5267 50.9653 43.1368 51.6175 42.4948 51.7777C41.8468 51.9384 41.1988 51.5473 41.0368 50.9047L40.5508 48.9547L40.0828 48.6421L38.9608 50.1337C38.5648 50.6634 37.8088 50.7709 37.2808 50.3736C36.7528 49.9765 36.6448 49.2235 37.0408 48.6937L38.4808 46.7707L38.1388 45.5707L36.4468 47.2621C36.3148 47.3941 36.1588 47.4931 35.9788 47.5519L34.1788 48.1519C33.5548 48.3613 32.8708 48.0217 32.6608 47.3929C32.4508 46.7647 32.7928 46.0849 33.4228 45.8755L34.9528 45.3649L36.3808 43.9393L36.7768 42.9481C34.2688 41.3371 31.6408 39.6955 29.0968 38.1865L29.4328 39.3601L30.8668 40.3153C31.1128 40.4809 31.2927 40.7329 31.3647 41.0227L31.9647 43.4227C32.1267 44.0653 31.7368 44.7175 31.0948 44.8777C30.4468 45.0385 29.7988 44.6473 29.6368 44.0047L29.1508 42.0547L28.6828 41.7421L27.5608 43.2337C27.1648 43.7635 26.4088 43.8709 25.8808 43.4737C25.3528 43.0765 25.2448 42.3235 25.6408 41.7937L27.0808 39.8707L26.7388 38.6707L25.0468 40.3621C24.9148 40.4941 24.7588 40.5931 24.5788 40.6519L22.7788 41.2519C22.1548 41.4613 21.4708 41.1217 21.2608 40.4929C21.0508 39.8647 21.3928 39.1849 22.0228 38.9755L23.5528 38.4649L24.9808 37.0393L25.3768 36.0469C22.8268 34.6357 20.4927 33.4663 18.6147 32.7445C17.8707 32.4571 17.2108 32.2387 16.6528 32.1187L17.4328 34.8601L18.8668 35.8153C19.1128 35.9809 19.2927 36.2329 19.3647 36.5227L19.9647 38.9227C20.1267 39.5653 19.7368 40.2175 19.0948 40.3777C18.4468 40.5385 17.7988 40.1473 17.6368 39.5047L17.1508 37.5547L16.6828 37.2421L15.5608 38.7337C15.1648 39.2635 14.4088 39.3709 13.8808 38.9737C13.3528 38.5765 13.2448 37.8235 13.6408 37.2937L15.0808 35.3707L14.7388 34.1707L13.0468 35.8621C12.9148 35.9941 12.7588 36.0931 12.5788 36.1519L10.7788 36.7519C10.1548 36.9613 9.47077 36.6217 9.26077 35.9929C9.05077 35.3647 9.39278 34.6849 10.0228 34.4755L11.5528 33.9649L12.9808 32.5393L13.1908 32.0137H6.20078ZM27.4048 53.5482L26.2048 55.3482C25.8328 55.899 25.9828 56.6448 26.5348 57.012C27.0868 57.3792 27.8308 57.2304 28.1968 56.679L29.3968 54.879C29.7688 54.3282 29.6188 53.5824 29.0668 53.2152C28.5148 52.848 27.7708 52.9968 27.4048 53.5482ZM33.2008 54.2136H34.7908L35.2168 55.2906C35.3488 55.6158 35.6128 55.8678 35.9488 55.9812L37.6168 56.5494C38.2408 56.763 38.9248 56.4276 39.1348 55.8006C39.3508 55.1742 39.0148 54.4914 38.3848 54.2778L37.2448 53.8872L36.7168 52.5679C36.5308 52.1125 36.0928 51.8137 35.6008 51.8137H33.2008C32.5408 51.8137 32.0008 52.3512 32.0008 53.0136C32.0008 53.676 32.5408 54.2136 33.2008 54.2136ZM57.8008 42.6751C56.7328 42.2887 55.3468 41.6137 54.2008 41.6137C53.5528 41.6137 52.7848 41.8981 51.9808 42.1567C50.9188 42.4951 49.8148 42.8137 48.8008 42.8137C47.7748 42.8137 46.7488 42.4939 45.7228 42.1519C44.9488 41.8939 44.1748 41.6137 43.4008 41.6137C42.2128 41.6137 41.3008 42.0001 40.2808 42.3619C46.7368 46.5823 52.0648 50.3761 52.1368 50.4601L55.2988 48.7255C56.8348 47.8585 57.8008 46.2253 57.8008 44.4937V42.6751ZM21.8848 45.6595L23.0848 48.6595C23.2288 49.0171 23.5348 49.2847 23.9128 49.3777L26.3128 49.9777C26.9548 50.1385 27.6027 49.7473 27.7647 49.1047C27.9267 48.4621 27.5368 47.8099 26.8948 47.6497L25.0888 47.1985L24.1168 44.7679C23.8708 44.1529 23.1688 43.8535 22.5568 44.0995C21.9388 44.3455 21.6388 45.0445 21.8848 45.6595ZM48.9868 44.6887C48.3808 44.9113 48.0568 45.5773 48.2608 46.1929C48.4708 46.8217 49.1548 47.1613 49.7788 46.9519C50.1628 46.8253 50.5588 46.5307 50.9308 46.1809C51.0268 46.0897 51.1828 45.9559 51.2848 45.8683C51.3388 45.8905 51.3988 45.9163 51.4408 45.9385C51.6328 46.0387 51.8428 46.1581 52.0707 46.2775C52.7907 46.6537 53.6728 47.0137 54.8008 47.0137C55.4608 47.0137 56.0008 46.4761 56.0008 45.8137C56.0008 45.1513 55.4608 44.6137 54.8008 44.6137C53.7808 44.6137 53.0968 44.0929 52.5448 43.8073C52.0528 43.5529 51.6028 43.4137 51.2008 43.4137C50.7748 43.4137 50.3488 43.5697 49.9408 43.8649C49.7368 44.0149 49.5268 44.2069 49.3228 44.3971C49.2148 44.4997 49.0168 44.6635 48.9868 44.6887ZM10.1788 45.7519L11.6008 45.2785L13.0228 45.7519C13.6468 45.9613 14.3308 45.6217 14.5408 44.9929C14.7508 44.3647 14.4088 43.6849 13.7788 43.4755L11.9788 42.8755C11.7328 42.7933 11.4688 42.7933 11.2228 42.8755L9.42278 43.4755C8.79278 43.6849 8.45077 44.3647 8.66077 44.9929C8.87077 45.6217 9.55478 45.9613 10.1788 45.7519ZM57.8008 40.1245V21.9337C57.8008 20.2021 56.8348 18.5689 55.2988 17.7019L34.3108 6.19031C32.8648 5.42171 31.1368 5.42171 29.6908 6.19031L8.70281 17.7019C7.16681 18.5689 6.20078 20.1541 6.20078 21.9337V29.6137H14.0008V26.9731C12.2308 26.9389 11.0248 26.3485 10.2568 25.4227C9.35679 24.3313 9.01481 22.6453 9.30881 20.4565C9.35081 20.1313 9.52477 19.8379 9.78877 19.6447C10.0528 19.4515 10.3828 19.3747 10.7068 19.4323C12.1228 19.6861 13.2568 20.1517 14.1208 20.8015C14.2708 20.4091 14.4628 20.0359 14.6908 19.6879C15.6388 18.2617 17.2948 17.2093 19.7908 17.0173C20.4268 16.9681 20.9908 17.4295 21.0748 18.0649C21.4408 21.0061 20.9728 23.3341 19.5748 24.6259C18.8248 25.3189 17.7928 25.7707 16.4008 25.8403V29.6563C18.4708 29.9263 21.9808 31.4611 26.0008 33.6523V31.4731C24.2308 31.4389 23.0248 30.8485 22.2568 29.9227C21.3568 28.8313 21.0148 27.1453 21.3088 24.9565C21.3508 24.6313 21.5248 24.3379 21.7888 24.1447C22.0528 23.9515 22.3828 23.8747 22.7068 23.9323C24.1228 24.1861 25.2568 24.6517 26.1208 25.3015C26.2708 24.9091 26.4628 24.5359 26.6908 24.1879C27.6388 22.7617 29.2948 21.7093 31.7908 21.5173C32.4268 21.4681 32.9908 21.9295 33.0748 22.5649C33.4408 25.5061 32.9728 27.8341 31.5748 29.1259C30.8248 29.8189 29.7928 30.2707 28.4008 30.3403V34.9993C31.3288 36.6823 34.4368 38.6023 37.4008 40.4995V38.3731C35.6308 38.3389 34.4248 37.7485 33.6568 36.8227C32.7568 35.7313 32.4148 34.0453 32.7088 31.8565C32.7508 31.5313 32.9248 31.2379 33.1888 31.0447C33.4528 30.8515 33.7828 30.7747 34.1068 30.8323C35.5228 31.0861 36.6567 31.5517 37.5207 32.2015C37.6707 31.8091 37.8628 31.4359 38.0908 31.0879C39.0388 29.6617 40.6948 28.6093 43.1908 28.4173C43.8268 28.3681 44.3908 28.8295 44.4748 29.4649C44.8408 32.4061 44.3728 34.7341 42.9748 36.0259C42.2248 36.7189 41.1928 37.1707 39.8008 37.2403V40.0279C40.9888 39.6349 42.0328 39.2137 43.4008 39.2137C44.4268 39.2137 45.4528 39.5335 46.4788 39.8755C47.2528 40.1335 48.0268 40.4137 48.8008 40.4137C49.7668 40.4137 50.8228 40.0003 51.8128 39.6913C52.6768 39.4207 53.4988 39.2137 54.2008 39.2137C55.3228 39.2137 56.6548 39.7015 57.8008 40.1245ZM37.2268 35.9773C36.4468 35.9437 35.8708 35.7373 35.5048 35.2933C35.1508 34.8601 35.0008 34.2655 34.9888 33.5383C35.6188 33.7717 36.1228 34.0867 36.5068 34.5055C36.8728 34.9069 37.1068 35.3983 37.2268 35.9773ZM39.5308 34.8523C39.4648 33.9535 39.6328 33.1057 40.0888 32.4169C40.5328 31.7557 41.2288 31.2685 42.1948 31.0063C42.2188 31.6147 42.1888 32.1763 42.0988 32.6821C41.9728 33.3373 41.7568 33.8857 41.3488 34.2637C40.9228 34.6573 40.3228 34.8421 39.5308 34.8523ZM25.8268 29.0773C25.0468 29.0437 24.4708 28.8373 24.1048 28.3933C23.7508 27.9601 23.6008 27.3655 23.5888 26.6383C24.2188 26.8717 24.7228 27.1867 25.1068 27.6055C25.4728 28.0069 25.7068 28.4983 25.8268 29.0773ZM28.1308 27.9523C28.0648 27.0535 28.2328 26.2057 28.6888 25.5169C29.1328 24.8557 29.8288 24.3685 30.7948 24.1063C30.8188 24.7147 30.7888 25.2763 30.6988 25.7821C30.5728 26.4373 30.3568 26.9857 29.9488 27.3637C29.5228 27.7573 28.9228 27.9421 28.1308 27.9523ZM13.8268 24.5773C13.0468 24.5437 12.4708 24.3373 12.1048 23.8933C11.7508 23.4601 11.6008 22.8655 11.5888 22.1383C12.2188 22.3717 12.7228 22.6867 13.1068 23.1055C13.4728 23.5069 13.7068 23.9983 13.8268 24.5773ZM16.1308 23.4523C16.0648 22.5535 16.2328 21.7057 16.6888 21.0169C17.1328 20.3557 17.8288 19.8685 18.7948 19.6063C18.8188 20.2147 18.7888 20.7763 18.6988 21.2821C18.5728 21.9373 18.3568 22.4857 17.9488 22.8637C17.5228 23.2573 16.9228 23.4421 16.1308 23.4523Z" fill="black"/>
</g>
</svg>
