<svg width="60" height="66" viewBox="0 0 60 66" fill="none" xmlns="http://www.w3.org/2000/svg">
<path d="M29.9681 64.3414C28.6901 64.3414 27.4121 64.0219 26.262 63.3829L11.5016 55.2679C10.8626 54.9484 10.6709 54.1816 10.9904 53.5426C11.3099 52.9037 12.0767 52.712 12.7157 53.0315L27.5399 61.1465C29.0735 61.9771 30.9265 61.9771 32.4601 61.1465L54.8243 48.8781C56.4856 47.9835 57.508 46.2583 57.508 44.4053V20.3797C57.508 18.5267 56.4856 16.8014 54.8243 15.9069L32.4601 3.63849C30.9265 2.80782 29.0735 2.80782 27.5399 3.63849L5.17572 15.9069C3.51438 16.8014 2.55591 18.5267 2.55591 20.3797V43.8302C2.55591 44.5331 1.98083 45.1081 1.27796 45.1081C0.57508 45.1081 0 44.5331 0 43.8302V20.3797C0 17.5682 1.53355 15.0123 3.96166 13.6704L26.3259 1.40207C28.6262 0.124115 31.3738 0.124115 33.6741 1.40207L56.0383 13.6704C58.4665 15.0123 60 17.5682 60 20.3797V44.4053C60 47.2168 58.4665 49.7727 56.0383 51.1145L33.6741 63.3829C32.524 64.0219 31.246 64.3414 29.9681 64.3414Z" fill="black"/>
<path d="M26.1339 55.3313H12.2042C11.5013 55.3313 10.9262 54.7562 10.9262 54.0533C10.9262 53.3504 11.5013 52.7753 12.2042 52.7753H26.1978C27.4757 52.7753 28.6898 52.392 29.7122 51.6891L47.0284 40.1236C47.7313 39.5485 48.1147 38.6539 47.923 37.6955C47.7952 36.6731 46.9007 35.7785 45.8783 35.5868C45.3032 35.4591 44.792 35.5868 44.2808 35.7785L32.6514 43.0629C31.8208 43.5741 30.8623 43.8297 29.9677 43.8297H20.9582C20.2553 43.8297 19.6802 43.2546 19.6802 42.5517C19.6802 41.8488 20.2553 41.2737 20.9582 41.2737H29.9038C30.3511 41.2737 30.8623 41.146 31.2457 40.8904L42.7473 33.7338C42.8112 33.6699 42.8751 33.6699 42.939 33.606C43.9614 33.0309 45.1115 32.9031 46.2617 33.0948C48.3703 33.4782 50.0316 35.2035 50.3511 37.3121C50.6067 39.1651 49.9038 41.0182 48.4342 42.1044L48.3703 42.1683L31.1179 53.8616C29.6483 54.8201 27.923 55.3313 26.1339 55.3313Z" fill="black"/>
<path d="M1.27765 45.0437C0.894259 45.0437 0.510873 44.852 0.255282 44.5325C-0.128105 43.9575 -0.000309315 43.1907 0.574771 42.7434L11.8847 34.5645C13.4182 33.5421 15.1435 32.967 16.9965 32.967H28.3703C29.8399 32.967 31.1818 33.5421 32.2042 34.5645C33.2265 35.5868 33.8016 36.9287 33.7377 38.3984V38.5261C33.7377 41.4654 31.3096 43.8936 28.3703 43.8936C27.6674 43.8936 27.0923 43.3185 27.0923 42.6156C27.0923 41.9127 27.6674 41.3376 28.3703 41.3376C29.9038 41.3376 31.1818 40.0597 31.1818 38.5261V38.3984C31.1818 37.6316 30.8623 36.9287 30.3511 36.4175C29.8399 35.9063 29.1371 35.5868 28.3703 35.5868H16.9965C15.7185 35.5868 14.4406 35.9702 13.3543 36.737L2.04442 44.852C1.85273 44.9798 1.53324 45.0437 1.27765 45.0437Z" fill="black"/>
<path d="M37.8267 32.3298C27.6669 32.3298 22.1078 23.1285 21.8522 22.7451C21.5966 22.3617 21.5966 21.8506 21.8522 21.4033C22.1078 21.0199 27.7308 11.8186 37.8906 11.8186C45.8778 11.8186 51.1174 17.6333 52.9704 20.1253C53.8011 21.2755 53.8011 22.8729 52.9704 24.0231C51.0535 26.5151 45.8139 32.3298 37.8267 32.3298ZM24.472 22.1061C25.8778 24.087 30.5423 29.7739 37.8267 29.7739C44.6637 29.7739 49.2644 24.6621 50.9257 22.4895C51.1174 22.2339 51.1174 21.9145 50.9257 21.7228C49.3283 19.5502 44.7276 14.4384 37.8906 14.4384C30.6701 14.4384 25.8778 20.1253 24.472 22.1061Z" fill="black"/>
<path d="M11.4369 29.7739C10.9896 29.7739 10.5423 29.5183 10.2867 29.071C10.0311 28.6237 10.095 28.1125 10.3506 27.7291C10.3506 27.6652 12.3315 24.8537 12.3315 21.9783C12.3315 19.1029 10.4784 16.4192 10.4145 16.4192C10.1589 16.0359 10.095 15.5247 10.2867 15.0774C10.4784 14.6301 10.9257 14.3745 11.4369 14.3745C19.4241 14.3745 23.7692 21.0838 23.9609 21.3394C24.2164 21.7867 24.2164 22.2978 23.9609 22.7451C23.8331 23.0646 19.4241 29.7739 11.4369 29.7739ZM13.8011 17.2499C14.3762 18.5279 14.9513 20.1892 14.9513 22.0422C14.9513 23.8953 14.3762 25.6844 13.7372 27.0263C17.635 26.1317 20.3187 23.3841 21.341 22.1061C20.3187 20.8282 17.6989 18.0806 13.8011 17.2499Z" fill="black"/>
<path d="M44.0247 20.8282C44.7305 20.8282 45.3027 20.256 45.3027 19.5502C45.3027 18.8444 44.7305 18.2723 44.0247 18.2723C43.319 18.2723 42.7468 18.8444 42.7468 19.5502C42.7468 20.256 43.319 20.8282 44.0247 20.8282Z" fill="black"/>
<path d="M40.766 31.3713C40.5104 31.3713 40.1909 31.3074 39.9992 31.1157C37.3155 29.0071 35.7819 25.8761 35.7819 22.6173C35.7819 18.6557 37.9545 15.0774 41.5327 13.0327C42.1717 12.7132 42.9385 12.9049 43.258 13.5438C43.5775 14.1828 43.3858 14.9496 42.7468 15.2691C39.9353 16.8665 38.274 19.6141 38.274 22.6173C38.274 25.1093 39.488 27.4736 41.5327 29.1349C42.1078 29.5822 42.1717 30.349 41.7244 30.924C41.4688 31.2435 41.1494 31.3713 40.766 31.3713Z" fill="black"/>
</svg>
