<svg width="64" height="71" viewBox="0 0 64 71" fill="none" xmlns="http://www.w3.org/2000/svg">
<path d="M32.5319 67.1666C31.254 67.1666 29.976 66.8471 28.8259 66.2081L6.46166 53.9397C4.03355 52.5979 2.5 50.042 2.5 47.2305V23.2049C2.5 20.3934 4.03355 17.8375 6.46166 16.4956L28.8259 4.22727C31.1262 2.94931 33.8738 2.94931 36.1741 4.22727L58.5383 16.4956C60.9665 17.8375 62.5 20.3934 62.5 23.2049V47.2305C62.5 50.042 60.9665 52.5979 58.5383 53.9397L36.1741 66.2081C35.0879 66.8471 33.8099 67.1666 32.5319 67.1666ZM32.5319 5.82471C31.7013 5.82471 30.8706 6.0164 30.0399 6.46369L7.67572 18.7321C6.01438 19.6266 5.05591 21.3519 5.05591 23.2049V47.2305C5.05591 49.0835 6.07827 50.8087 7.67572 51.7033L30.0399 63.9717C31.5735 64.8023 33.4265 64.8023 34.9601 63.9717L57.3243 51.7033C58.9856 50.8087 60.008 49.0835 60.008 47.2305V23.2049C60.008 21.3519 58.9856 19.6266 57.3243 18.7321L35.024 6.46369C34.2572 6.0164 33.4265 5.82471 32.5319 5.82471Z" fill="black"/>
<path d="M31.7749 26.2149C37.2701 26.7261 36.9506 21.806 36.9506 21.806C36.9506 21.806 31.711 20.0169 31.711 29.6654C31.6471 28.4514 31.5193 24.298 27.5576 24.1702" fill="black"/>
<path d="M31.7106 31.0063C31.0077 31.0063 30.4965 30.4952 30.4326 29.7923V29.7284C30.3048 26.853 29.4103 25.575 27.4933 25.5111C26.7905 25.5111 26.2154 24.8722 26.2793 24.1693C26.2793 23.4664 26.8544 22.8913 27.6211 22.9552C28.8352 23.0191 30.177 23.3386 31.1994 24.4249C31.7106 23.0191 32.4135 21.9968 33.3719 21.2939C34.9055 20.2076 36.5668 20.3354 37.3975 20.6549C37.9087 20.7827 38.2921 21.2939 38.2921 21.8051C38.2921 22.0607 38.4198 24.4249 36.6946 26.0862C35.8 26.9808 34.6499 27.4281 33.1802 27.5559C33.1163 28.1948 33.0524 28.9616 33.0524 29.7284C32.9885 30.4313 32.4135 31.0063 31.7106 31.0063ZM35.4806 23.0191C35.225 23.083 34.9694 23.2108 34.7777 23.3386C34.3304 23.6581 34.0109 24.1054 33.7553 24.8083C34.2026 24.6805 34.5221 24.4888 34.8416 24.2332C35.1611 23.9137 35.4167 23.4664 35.4806 23.0191Z" fill="black"/>
<path d="M34.2664 45.64C33.0524 45.64 31.6466 45.3205 30.6882 44.6816C28.9629 45.5761 26.5987 45.64 24.8735 44.1065C23.1482 42.5729 21.5508 40.4004 21.5508 35.2247C21.5508 31.3908 23.7872 28.1959 26.9821 27.4292C29.1546 26.918 31.0715 27.9403 32.03 28.5154C32.0939 28.5154 32.1578 28.5793 32.1578 28.5154C33.1802 28.0042 35.161 27.2375 37.3335 27.9403C39.1227 28.5793 40.6562 30.1768 41.423 32.2854C42.4454 35.033 42.062 38.2279 40.4006 41.0394L40.2728 41.295C39.4422 42.7646 38.3559 44.6177 35.8 45.3844C35.3527 45.5761 34.8415 45.64 34.2664 45.64ZM30.7521 41.7423C30.816 41.7423 30.816 41.7423 30.8799 41.7423C31.2632 41.8062 31.5827 41.934 31.7744 42.2534C32.1578 42.8285 34.0108 43.2758 35.0971 42.9563C36.6946 42.4451 37.3335 41.3589 38.1003 40.017L38.2281 39.7614C39.5061 37.5889 39.8255 35.2247 39.0588 33.18C38.5476 31.7742 37.5891 30.7518 36.5668 30.3685C35.3527 29.9212 34.0747 30.4324 33.3719 30.7518C32.4773 31.1991 31.4549 31.1352 30.6243 30.624C29.9853 30.2407 28.7712 29.6017 27.4933 29.8573C25.768 30.2407 24.0428 32.1576 24.0428 35.1608C24.0428 39.5697 25.3207 41.0394 26.4709 42.1256C27.6211 43.148 29.2185 42.5729 29.7936 42.0617C30.1131 41.8701 30.4326 41.7423 30.7521 41.7423Z" fill="black"/>
<path d="M32.0303 57.0132C31.4553 57.0132 30.8802 56.8854 30.3051 56.6937C18.6757 52.4126 14.9696 40.9749 14.5863 39.6969C14.4585 39.3135 14.3946 38.9301 14.3946 38.5468L13.5 23.6586C13.5 21.6777 14.7141 19.8247 16.5671 19.1218L30.1773 12.6043C31.3275 12.157 32.6054 12.157 33.6917 12.6043L33.7556 12.6682L47.1102 19.1218C49.0272 19.8886 50.2412 21.6777 50.2412 23.6586L49.5383 38.6107C49.5383 38.9301 49.4744 39.3774 49.3466 39.7608C48.9633 41.0388 45.1933 52.4765 33.6278 56.7576C33.1805 56.8854 32.6054 57.0132 32.0303 57.0132ZM16.1198 23.6586L17.0144 38.5468C17.0144 38.6746 17.0144 38.8662 17.0783 38.994C17.4617 40.1442 20.7843 50.4956 31.2636 54.3295C31.7748 54.5212 32.3498 54.5212 32.9249 54.3295C43.3403 50.4956 46.7268 40.1442 47.0463 38.994C47.1102 38.8662 47.1102 38.6746 47.1102 38.5468L47.8131 23.5947C47.8131 22.764 47.3019 21.9333 46.5351 21.5499H46.4712L32.7971 14.9685C32.2859 14.7768 31.7109 14.7768 31.1997 14.9685L17.5895 21.4861C16.6949 21.8694 16.1198 22.7001 16.1198 23.6586Z" fill="black"/>
</svg>
