<svg width="64" height="71" viewBox="0 0 64 71" fill="none" xmlns="http://www.w3.org/2000/svg">
<path d="M58.5266 16.4835L36.1855 4.21859C33.8781 2.9522 31.1219 2.9522 28.8138 4.21859L6.4734 16.4835C4.02234 17.829 2.5 20.402 2.5 23.1977V47.1799C2.5 49.9762 4.02234 52.5486 6.4734 53.8941L28.8138 66.1584C29.9679 66.7922 31.2343 67.1088 32.5 67.1088C33.7657 67.1088 35.0321 66.7922 36.1862 66.1584L47.177 60.1245C47.3774 60.0703 47.5581 59.9701 47.7068 59.8335L58.526 53.8941C60.977 52.5486 62.5 49.9762 62.5 47.1799V23.1977C62.5 20.402 60.977 17.829 58.5266 16.4835ZM27.7428 62.6573L25.7743 61.5767V56.1722C25.7743 56.0516 25.8726 55.9526 25.9938 55.9526H27.5232C27.6438 55.9526 27.7428 56.0509 27.7428 56.1722V62.6573ZM30.296 64.0392V56.1728C30.296 54.6435 29.0519 53.4001 27.5232 53.4001H25.9938C24.4651 53.4001 23.2211 54.6435 23.2211 56.1728V60.1756L19.4309 58.0948V50.4837H45.5691V58.0948L41.7789 60.1756V59.7601V56.245C41.7789 54.7156 40.5355 53.4722 39.0062 53.4722H37.4768C35.9474 53.4722 34.704 54.7156 34.704 56.245V64.0399C33.3036 64.712 31.6964 64.712 30.296 64.0392ZM16.6581 47.8979V44.0854H48.3426V47.8979H16.6581ZM39.2257 59.7594V61.5767L37.2572 62.6573V56.2443C37.2572 56.1237 37.3555 56.0248 37.4768 56.0248H39.0062C39.1268 56.0248 39.2257 56.1231 39.2257 56.2443V59.7594ZM59.9468 47.1799C59.9468 49.0443 58.9319 50.7588 57.2979 51.6562L48.1223 56.6931V50.4511H49.6191C50.3238 50.4511 50.8957 49.8792 50.8957 49.1745V42.8088C50.8957 42.1041 50.3238 41.5322 49.6191 41.5322H15.3815C14.6768 41.5322 14.1049 42.1041 14.1049 42.8088V49.1745C14.1049 49.8792 14.6768 50.4511 15.3815 50.4511H16.8777V56.6931L7.70213 51.6562C6.06808 50.7594 5.05319 49.0443 5.05319 47.1799V23.1977C5.05319 21.3339 6.06808 19.6188 7.70213 18.7214L30.0426 6.4571C30.8117 6.03518 31.6562 5.8239 32.5 5.8239C33.3438 5.8239 34.1883 6.03518 34.9574 6.45773L57.2979 18.722C58.9319 19.6188 59.9468 21.3339 59.9468 23.1977V47.1799Z" fill="black"/>
<path d="M42.3377 25.9873C42.3377 23.2266 40.5256 19.6994 37.5977 18.8147C36.6441 18.5262 35.1619 18.7694 34.0564 19.0943C34.0717 18.7515 34.0941 18.4273 34.1247 18.1298C35.4147 18.0213 36.4736 17.5707 37.2843 16.7849C38.8864 15.2319 38.8054 13.0317 38.79 12.7853C38.7581 12.2434 38.3873 11.7909 37.883 11.639C37.5441 11.5324 35.813 11.076 34.1502 12.2664C33.3102 12.8683 32.6662 13.7709 32.2219 14.967C31.2747 14.0766 30.0951 13.7811 29.0298 13.7434C28.3149 13.707 27.7334 14.2694 27.7092 14.9741C27.6843 15.6788 28.2351 16.2698 28.9398 16.2947C30.399 16.3464 31.1451 17.1673 31.3973 19.0713C30.3613 18.8173 29.086 18.6609 28.2524 18.7719C25.3175 19.1632 23.2858 22.8915 23.2979 25.9924C23.3011 26.9083 23.5054 27.5881 23.7019 28.2449C23.746 28.3911 23.7907 28.5405 23.8341 28.6962C24.8802 32.4577 27.9754 36.2881 30.9594 36.2881C31.1528 36.2881 31.3449 36.2722 31.5358 36.239C32.1109 36.1394 32.5245 35.9064 32.8258 35.7366C33.1328 35.5636 33.2502 35.4953 33.5298 35.5075C33.8483 35.517 33.9868 35.5968 34.2619 35.7558C34.5951 35.9485 35.0515 36.2115 35.7326 36.2556C38.993 36.4866 41.6056 30.5294 41.9962 28.6158C42.1615 27.8064 42.3377 26.87 42.3377 25.9873ZM35.6107 14.3613C35.7498 14.2585 35.8909 14.1845 36.0288 14.1322C35.9183 14.4232 35.7498 14.7194 35.4958 14.9626C35.3088 15.1407 35.0828 15.2817 34.8173 15.3851C35.0879 14.8407 35.3802 14.533 35.6107 14.3613ZM39.4947 28.1032C39.0224 30.4196 36.743 33.7502 35.8973 33.7056C35.8245 33.7011 35.7709 33.6762 35.5379 33.5422C35.1511 33.3188 34.5671 32.9817 33.6045 32.9536C32.6215 32.9262 31.9871 33.2773 31.5728 33.5109C31.3494 33.6366 31.2371 33.6979 31.1017 33.7215C29.7728 33.9513 27.1883 31.2258 26.2947 28.0107C26.2468 27.8377 26.1971 27.6724 26.1485 27.5102C25.9839 26.9613 25.8543 26.5273 25.8517 25.9815C25.8428 23.6996 27.3754 21.4636 28.59 21.3015C28.6826 21.2894 28.7885 21.2836 28.9041 21.2836C29.7702 21.2836 31.1905 21.597 31.5294 21.7783C32.3285 22.2443 33.323 22.2443 34.1209 21.7783C34.5773 21.5166 36.3651 21.1094 36.8605 21.2581C38.5341 21.7636 39.7851 24.1713 39.7851 25.9866C39.7845 26.6319 39.6351 27.4177 39.4947 28.1032Z" fill="black"/>
<path d="M17.1955 28.6128L19.0051 27.5131C19.6077 27.1467 19.7992 26.3616 19.4328 25.759C19.067 25.1571 18.2819 24.9656 17.6787 25.3314L13.0958 28.1169C13.0524 28.1431 13.016 28.1762 12.9764 28.2069C12.9541 28.2241 12.9304 28.2388 12.9094 28.2573C12.8372 28.3218 12.7728 28.392 12.7185 28.4686C12.7179 28.4699 12.7166 28.4705 12.716 28.4718C12.7109 28.4788 12.7089 28.4865 12.7045 28.4935C12.6572 28.5637 12.6177 28.6377 12.5851 28.7143C12.5736 28.7424 12.5653 28.7711 12.5558 28.7992C12.5353 28.8599 12.5187 28.9205 12.5079 28.9837C12.5021 29.0156 12.497 29.0469 12.4938 29.0794C12.4875 29.1445 12.4868 29.2103 12.4907 29.276C12.4919 29.3035 12.4913 29.3309 12.4945 29.359C12.5053 29.4522 12.5245 29.5448 12.5564 29.6354C12.557 29.6367 12.557 29.6379 12.5577 29.6392L14.4438 34.9377C14.68 35.6016 15.4096 35.9482 16.0747 35.712C16.7392 35.4758 17.0851 34.7456 16.8489 34.0811L15.6636 30.7518C19.383 31.7973 22.277 35.7126 22.277 39.0024C22.277 39.7071 22.849 40.279 23.5536 40.279C24.2583 40.279 24.8302 39.7071 24.8302 39.0024C24.8296 34.1437 21.2136 30.146 17.1955 28.6128Z" fill="black"/>
<path d="M53.5418 29.0805C53.5386 29.0486 53.5335 29.0167 53.5277 28.9848C53.5162 28.9216 53.5003 28.8609 53.4792 28.8003C53.4696 28.7722 53.4613 28.7435 53.4498 28.716C53.4167 28.6369 53.3764 28.5609 53.3273 28.4894C53.3235 28.4843 53.3222 28.4779 53.3184 28.4728C53.3184 28.4728 53.3171 28.4716 53.3164 28.4703C53.2622 28.393 53.1977 28.3228 53.125 28.2584C53.1033 28.2392 53.0796 28.2245 53.0567 28.2067C53.0177 28.1767 52.9813 28.1435 52.9386 28.1173L48.3556 25.3318C47.7518 24.9648 46.9667 25.1582 46.6015 25.7594C46.2352 26.362 46.4273 27.1471 47.0292 27.5135L48.8388 28.6133C44.8207 30.1465 41.2041 34.1441 41.2041 39.0028C41.2041 39.7075 41.776 40.2794 42.4807 40.2794C43.1854 40.2794 43.7573 39.7075 43.7573 39.0028C43.7573 35.713 46.6513 31.7971 50.3707 30.7522L49.186 34.0816C48.9492 34.746 49.2964 35.4762 49.9603 35.7124C50.6241 35.9486 51.355 35.602 51.5911 34.9382L53.4754 29.6435C53.5092 29.5503 53.5296 29.4545 53.5405 29.3588C53.5437 29.332 53.543 29.3052 53.5443 29.2784C53.5488 29.212 53.5488 29.1462 53.5418 29.0805Z" fill="black"/>
</svg>
