<svg width="64" height="71" viewBox="0 0 64 71" fill="none" xmlns="http://www.w3.org/2000/svg">
<path d="M23.7211 55.3697H20.8758C20.1954 55.3697 19.6387 54.813 19.6387 54.1326C19.6387 53.4522 20.1954 52.8955 20.8758 52.8955H23.7211C24.4016 52.8955 24.9583 53.4522 24.9583 54.1326C24.9583 54.813 24.4634 55.3697 23.7211 55.3697Z" fill="black"/>
<path d="M39.0617 55.3697H32.8143C32.1338 55.3697 31.5771 54.813 31.5771 54.1326C31.5771 53.4522 32.1338 52.8955 32.8143 52.8955H39.0617C39.7421 52.8955 40.2988 53.4522 40.2988 54.1326C40.2988 54.813 39.7421 55.3697 39.0617 55.3697Z" fill="black"/>
<path d="M35.3498 60.8756H29.1023C28.4219 60.8756 27.8652 60.3189 27.8652 59.6385C27.8652 58.9581 28.4219 58.4014 29.1023 58.4014H35.3498C36.0302 58.4014 36.5869 58.9581 36.5869 59.6385C36.5869 60.3189 36.0302 60.8756 35.3498 60.8756Z" fill="black"/>
<path d="M24.8966 47.9459H12.8348C12.1544 47.9459 11.5977 47.3892 11.5977 46.7088C11.5977 46.0284 12.1544 45.4717 12.8348 45.4717H24.8966C25.577 45.4717 26.1337 46.0284 26.1337 46.7088C26.1337 47.3892 25.577 47.9459 24.8966 47.9459Z" fill="black"/>
<path d="M54.2779 40.524H8.50469C7.82428 40.524 7.26758 39.9673 7.26758 39.2869C7.26758 38.6065 7.82428 38.0498 8.50469 38.0498H54.2779C54.9583 38.0498 55.515 38.6065 55.515 39.2869C55.515 39.9673 54.9583 40.524 54.2779 40.524Z" fill="black"/>
<path d="M31.8865 39.5969C31.2061 39.5969 30.6494 39.0402 30.6494 38.3598V31.4938C30.6494 30.8134 31.2061 30.2567 31.8865 30.2567C32.5669 30.2567 33.1236 30.8134 33.1236 31.4938V38.3598C33.1236 39.0402 32.5669 39.5969 31.8865 39.5969Z" fill="black"/>
<path d="M33.9279 32.4214C33.0619 32.4214 32.2578 32.1121 31.6392 31.4317C30.7732 30.5657 30.4639 29.3905 30.7732 28.2152C31.2681 26.2977 32.134 24.7513 33.3093 23.6379C36.2784 20.6688 41.0413 20.6688 41.2268 20.6688C41.9072 20.6688 42.4639 21.2255 42.4639 21.9059C42.4639 22.0915 42.4639 26.7925 39.4949 29.8235C38.3196 30.9987 36.7732 31.8647 34.9175 32.3595C34.4846 32.3595 34.1753 32.4214 33.9279 32.4214ZM39.8041 23.2049C38.4433 23.3905 36.4639 23.9472 35.0413 25.3699C34.1753 26.2358 33.5567 27.4111 33.1856 28.8956C33.0619 29.3286 33.3093 29.576 33.3712 29.6998C33.4949 29.8235 33.7423 30.009 34.1753 29.8853C35.6598 29.5142 36.8351 28.8338 37.701 28.0296C39.0619 26.607 39.6186 24.5657 39.8041 23.2049Z" fill="black"/>
<path d="M30.4021 35.2044C30.1546 35.2044 29.9072 35.1425 29.6598 35.0807C28.2371 34.6477 27.1237 33.9054 26.2577 32.9776C24.0928 30.5034 24.0928 26.7302 24.0928 26.5446C24.0928 25.8642 24.6495 25.3075 25.3299 25.3075C25.4536 25.3075 28.9794 25.3075 31.2062 27.8436C32.0722 28.8333 32.6289 30.0704 33 31.6168C33.2474 32.6683 32.9381 33.7817 32.134 34.524C31.701 34.957 31.0825 35.2044 30.4021 35.2044ZM26.7526 27.9673C26.9381 29.0188 27.3093 30.3797 28.1752 31.3075C28.7319 31.9261 29.4742 32.4209 30.4639 32.7302C30.4639 32.7302 30.5258 32.7302 30.5258 32.6683C30.6495 32.5446 30.7113 32.359 30.6495 32.1116C30.4021 30.9982 29.9691 30.0704 29.4124 29.39C28.6082 28.5858 27.5567 28.1529 26.7526 27.9673Z" fill="black"/>
<path d="M46.1744 20.4218C45.8652 20.4218 45.5559 20.2981 45.3085 20.0507C41.7827 16.5249 37.0198 14.5455 32.0095 14.5455C26.9992 14.5455 22.2981 16.5249 18.7105 20.0507C18.2157 20.5455 17.4734 20.5455 16.9786 20.0507C16.4837 19.5558 16.4837 18.8136 16.9786 18.3187C20.9992 14.2981 26.3188 12.0713 32.0095 12.0713C37.7002 12.0713 43.0198 14.2981 47.0404 18.3187C47.5353 18.8136 47.5353 19.5558 47.0404 20.0507C46.793 20.2981 46.4837 20.4218 46.1744 20.4218Z" fill="black"/>
<path d="M32.0096 17.9469C31.3292 17.9469 30.7725 17.3902 30.7725 16.7098V13.2459C30.7725 12.5655 31.3292 12.0088 32.0096 12.0088C32.69 12.0088 33.2467 12.5655 33.2467 13.2459V16.7098C33.2467 17.3902 32.69 17.9469 32.0096 17.9469Z" fill="black"/>
<path d="M40.2986 20.1737C40.113 20.1737 39.8656 20.1119 39.6801 19.9882C39.0615 19.617 38.8759 18.8748 39.2471 18.3181L40.979 15.349C41.3502 14.7304 42.0924 14.5449 42.6491 14.916C43.2677 15.2871 43.4533 16.0294 43.0821 16.5861L41.3502 19.5552C41.1027 19.9263 40.7316 20.1737 40.2986 20.1737Z" fill="black"/>
<path d="M23.7207 20.236C23.2877 20.236 22.8547 19.9885 22.6692 19.6174L20.9372 16.6483C20.5661 16.0298 20.8135 15.2875 21.3702 14.9782C21.9888 14.6071 22.731 14.8545 23.0403 15.4112L24.7723 18.3803C25.1434 18.9988 24.896 19.7411 24.3393 20.0504C24.1537 20.1741 23.9063 20.236 23.7207 20.236Z" fill="black"/>
<path d="M28.4842 55.0607C27.8038 55.0607 27.2471 54.504 27.2471 53.8236V45.7205C27.2471 45.0401 27.8038 44.4834 28.4842 44.4834H30.0924C32.5048 44.4834 33.9275 45.8442 33.9275 48.1947C33.9275 49.6793 33.3089 51.4731 30.278 51.4731H29.7213V53.8236C29.7213 54.504 29.1646 55.0607 28.4842 55.0607ZM29.7213 48.9989H30.278C31.4533 48.9989 31.4533 48.8133 31.4533 48.1947C31.4533 47.3906 31.2677 46.9576 30.0924 46.9576H29.7213V48.9989Z" fill="black"/>
<path d="M35.783 51.5959C35.1026 51.5959 34.5459 51.0392 34.5459 50.3588V42.4413C34.5459 41.7609 35.1026 41.2042 35.783 41.2042C36.4634 41.2042 37.0201 41.7609 37.0201 42.4413V50.4207C37.0201 51.0392 36.4634 51.5959 35.783 51.5959Z" fill="black"/>
<path d="M41.2264 51.5959C40.546 51.5959 39.9893 51.0392 39.9893 50.3588V42.4413C39.9893 41.7609 40.546 41.2042 41.2264 41.2042C41.9068 41.2042 42.4635 41.7609 42.4635 42.4413V50.4207C42.4635 51.0392 41.9068 51.5959 41.2264 51.5959Z" fill="black"/>
<path d="M41.0404 47.6373H35.8445C35.1641 47.6373 34.6074 47.0806 34.6074 46.4002C34.6074 45.7198 35.1641 45.1631 35.8445 45.1631H41.0404C41.7208 45.1631 42.2775 45.7198 42.2775 46.4002C42.2775 47.0806 41.7208 47.6373 41.0404 47.6373Z" fill="black"/>
<path d="M60.7732 49.0592C61.0206 48.317 61.1443 47.5128 61.1443 46.7087V23.5128C61.1443 20.7912 59.6598 18.317 57.3093 17.018L35.6598 5.1417C33.433 3.90459 30.7732 3.90459 28.5464 5.1417L6.89691 17.018C4.48454 18.317 3 20.7912 3 23.5128V46.7706C3 49.4922 4.48454 51.9664 6.83505 53.2654L28.4845 65.1417C29.5979 65.7603 30.8351 66.0695 32.0722 66.0695C33.3093 66.0695 34.5464 65.7603 35.6598 65.1417L43.4536 60.8737C45.3093 63.9664 48.6495 66.0695 52.4845 66.0695C58.299 66.0695 63 61.3685 63 55.5541C63 53.1417 62.134 50.853 60.7732 49.0592ZM57.866 52.5231L52.9175 59.9458C52.732 60.2551 52.4227 60.4407 52.0515 60.5025C51.9897 60.5025 51.9278 60.5025 51.866 60.5025C51.5567 60.5025 51.3093 60.3788 51.0619 60.1933L47.3505 57.1005C46.8557 56.6675 46.732 55.8634 47.1649 55.3685C47.5979 54.8737 48.4021 54.75 48.8969 55.1829L51.5567 57.4097L55.7629 51.1623C56.134 50.6056 56.9381 50.4201 57.4948 50.7912C58.0515 51.1623 58.2371 51.9664 57.866 52.5231ZM58.6701 46.7706C58.6701 46.8943 58.6701 46.9561 58.6701 47.0798C56.9381 45.8427 54.835 45.0386 52.4845 45.0386C46.6701 45.0386 41.9691 49.7396 41.9691 55.5541C41.9691 56.6056 42.1546 57.6572 42.4021 58.585L34.4227 62.9768C32.9381 63.7809 31.1443 63.7809 29.6598 62.9768L8.01031 51.1005C6.40206 50.2345 5.41237 48.5644 5.41237 46.7706V23.5128C5.41237 21.719 6.40206 20.0489 7.94845 19.1829L29.7216 7.30665C30.4639 6.87366 31.268 6.68809 32.0722 6.68809C32.8763 6.68809 33.6804 6.87366 34.4227 7.30665L56.0722 19.1829C57.6804 20.0489 58.6701 21.719 58.6701 23.5128V46.7706Z" fill="black"/>
</svg>
