<svg width="60" height="66" viewBox="0 0 60 66" fill="none" xmlns="http://www.w3.org/2000/svg">
<g clip-path="url(#clip0_2921_23429)">
<path d="M30.0319 64.3414C28.754 64.3414 27.476 64.0219 26.3259 63.3829L3.96166 51.1145C1.53355 49.7727 0 47.2168 0 44.4053V20.3797C0 17.5682 1.53355 15.0123 3.96166 13.6704L26.3259 1.40207C28.6262 0.124115 31.3738 0.124115 33.6741 1.40207L56.0383 13.6704C58.4665 15.0123 60 17.5682 60 20.3797V44.4053C60 47.2168 58.4665 49.7727 56.0383 51.1145L33.6741 63.3829C32.5879 64.0219 31.3099 64.3414 30.0319 64.3414ZM30.0319 2.99951C29.2013 2.99951 28.3706 3.19121 27.5399 3.63849L5.17572 15.9069C3.51438 16.8014 2.55591 18.5267 2.55591 20.3797V44.4053C2.55591 46.2583 3.57827 47.9835 5.17572 48.8781L27.5399 61.1465C29.0735 61.9771 30.9265 61.9771 32.4601 61.1465L54.8243 48.8781C56.4856 47.9835 57.4441 46.2583 57.4441 44.4053V20.3797C57.4441 18.5267 56.4217 16.8014 54.7604 15.9069L32.4601 3.63849C31.6933 3.19121 30.8626 2.99951 30.0319 2.99951Z" fill="black"/>
<path d="M50.1593 53.7983C49.8398 53.7983 49.5203 53.6705 49.2647 53.4149L8.7535 12.9037C8.24232 12.3925 8.24232 11.6258 8.7535 11.1146C9.26469 10.6034 10.0315 10.6034 10.5426 11.1146L51.1177 51.6258C51.6289 52.137 51.6289 52.9037 51.1177 53.4149C50.8621 53.6705 50.4787 53.7983 50.1593 53.7983Z" fill="black"/>
<path d="M34.761 23.4466C34.3776 23.4466 34.0581 23.3827 33.7386 23.191L30.4799 21.4658C29.5853 20.9546 29.138 19.9323 29.3936 18.9099L30.991 13.2869C31.1827 12.584 31.8856 12.2006 32.5885 12.3923C33.2914 12.584 33.6747 13.2869 33.483 13.9898L31.9495 19.3572L34.6971 20.8268L38.1476 16.8013C38.5949 16.2901 39.4255 16.2262 39.9367 16.6735C40.4479 17.1208 40.5118 17.9514 40.0645 18.4626L36.4223 22.6799C35.9751 23.191 35.3361 23.4466 34.761 23.4466Z" fill="black"/>
<path d="M23.4507 34.7565C23.1312 35.3316 23.3868 36.0983 23.9619 36.4178C24.537 36.7373 25.3037 36.4817 25.6232 35.9066L26.0705 35.076C26.39 34.5009 26.1344 33.7341 25.5593 33.4146C24.9842 33.0951 24.2175 33.3507 23.898 33.9258L23.4507 34.7565Z" fill="black"/>
<path d="M25.8784 30.2199C25.5589 30.7949 25.8145 31.5617 26.3896 31.8812C26.9647 32.2007 27.7315 31.9451 28.051 31.37L28.4982 30.5394C28.8177 29.9643 28.5621 29.1975 27.9871 28.878C27.412 28.5585 26.6452 28.8141 26.3257 29.3892L25.8784 30.2199Z" fill="black"/>
<path d="M29.1376 26.8332C29.7126 27.1527 30.4794 26.8971 30.7989 26.322L31.2462 25.4913C31.5657 24.9162 31.3101 24.1495 30.735 23.83C30.1599 23.5105 29.3932 23.7661 29.0737 24.3412L28.6264 25.1718C28.3069 25.7469 28.4986 26.4498 29.1376 26.8332Z" fill="black"/>
<path d="M16.6136 30.4754C16.7414 30.6671 16.8692 30.7949 17.0609 30.8588C17.4443 31.0505 17.9555 31.0505 18.3389 30.7949L19.1695 30.2837C19.7446 29.9003 19.8724 29.1336 19.489 28.5585C19.1056 27.9834 18.3389 27.8556 17.7638 28.239L16.9331 28.7502C16.4219 29.1336 16.2941 29.9003 16.6136 30.4754Z" fill="black"/>
<path d="M12.269 33.1591C12.3967 33.3508 12.5245 33.4786 12.7162 33.5424C13.0996 33.7341 13.6108 33.7341 13.9942 33.4786L14.8249 32.9674C15.3999 32.584 15.5277 31.8172 15.1444 31.2421C14.761 30.667 13.9942 30.5393 13.4191 30.9226L12.5884 31.4338C12.0134 31.8172 11.8856 32.584 12.269 33.1591Z" fill="black"/>
<path d="M23.8338 25.747C23.4504 25.1719 22.6836 25.0441 22.1086 25.4275L21.2779 25.9387C20.7028 26.3221 20.575 27.0889 20.9584 27.6639C21.0862 27.8556 21.214 27.9834 21.4057 28.0473C21.7891 28.239 22.3003 28.239 22.6836 27.9834L23.5143 27.4723C24.0255 27.0889 24.2172 26.3221 23.8338 25.747Z" fill="black"/>
<path d="M25.5588 24.2773C25.6866 24.469 25.8144 24.5968 26.0061 24.6607C26.3895 24.8524 26.9007 24.8524 27.2841 24.5968L28.1148 24.0857C28.6898 23.7023 28.8176 22.9355 28.4342 22.3604C28.0509 21.7853 27.2841 21.6575 26.709 22.0409L25.8783 22.5521C25.3672 22.9355 25.1755 23.7023 25.5588 24.2773Z" fill="black"/>
<path d="M34.2494 36.993C34.2494 36.2901 33.6743 35.7789 33.0353 35.7789C32.3325 35.7789 31.8213 36.354 31.8213 36.993V37.9515C31.8213 38.3987 32.0769 38.846 32.4603 39.0377C32.652 39.1016 32.8437 39.1655 33.0353 39.1655C33.7382 39.1655 34.2494 38.5904 34.2494 37.9515V36.993Z" fill="black"/>
<path d="M33.866 33.0953C34.0577 32.8397 34.2494 32.5841 34.2494 32.2007V31.2423C34.2494 30.5394 33.6743 30.0282 33.0353 30.0282C32.4603 30.0282 31.9491 30.4755 31.8213 31.0506" fill="black"/>
<path d="M34.3773 41.9132C34.3773 41.2103 33.8023 40.6991 33.1633 40.6991C32.4604 40.6991 31.9492 41.2742 31.9492 41.9771V42.9355C31.9492 43.3828 32.2048 43.8301 32.5882 44.0218C32.7799 44.0857 32.9716 44.1496 33.1633 44.1496C33.8662 44.1496 34.3773 43.5745 34.3773 42.9355V41.9132Z" fill="black"/>
<path d="M34.4408 26.1942C34.4408 25.4913 33.8657 24.9802 33.2268 24.9802C32.5239 24.9802 32.0127 25.5552 32.0127 26.1942V27.1527C32.0127 27.6 32.2683 28.0473 32.6517 28.2389C32.8434 28.3028 33.0351 28.3667 33.2268 28.3667C33.9296 28.3667 34.4408 27.7917 34.4408 27.1527V26.1942Z" fill="black"/>
<path d="M41.5337 19.9323C41.342 19.9323 41.0864 19.8684 40.8947 19.8045L29.5209 13.6064C29.2015 13.4147 29.0098 13.1591 28.882 12.8397C28.8181 12.5202 28.8181 12.1368 29.0098 11.8812L33.8021 3.19109C34.1216 2.55211 34.8884 2.36042 35.5273 2.67991C36.1663 2.9994 36.358 3.76617 36.0385 4.40515L31.8852 11.9451L40.9586 16.9291L44.8564 9.26138C45.1759 8.6224 45.9427 8.36681 46.5816 8.6863C47.2206 9.00578 47.4762 9.77256 47.1567 10.4115L42.6839 19.2294C42.5561 19.5489 42.2366 19.7406 41.9171 19.8684C41.7893 19.9323 41.6615 19.9323 41.5337 19.9323Z" fill="black"/>
<path d="M58.6589 29.3252C58.4672 29.3252 58.2117 29.2613 58.02 29.1974L48.2436 23.8938C48.1797 23.8938 48.1797 23.8299 48.1158 23.8299C45.3682 22.2964 44.3458 18.7181 45.8794 15.9066L48.3075 11.0504C48.627 10.4114 49.3938 10.1558 50.0327 10.4753C50.6717 10.7948 50.9273 11.5616 50.6078 12.2006L48.1158 17.0568C47.2212 18.7181 47.7963 20.699 49.3938 21.5935C49.4577 21.5935 49.5216 21.6574 49.5855 21.7213L59.234 26.9609C59.873 27.2804 60.0647 28.0472 59.7452 28.6862C59.5535 29.0696 59.1062 29.3252 58.6589 29.3252Z" fill="black"/>
<path d="M22.556 59.9962C22.4921 60.0601 22.3643 60.0601 22.3004 60.124C23.6423 57.1208 24.0257 51.945 23.0033 46.961C23.0033 46.8332 23.0672 46.7693 23.0672 46.6415C23.0672 44.2773 23.7062 42.0409 24.2174 41.8492C24.2174 41.8492 24.9841 41.7853 26.6455 43.8939C25.9426 44.6607 25.3675 45.6831 25.1119 46.7054C24.2813 49.3252 24.9202 51.8172 26.9011 53.7981C27.2206 54.1176 27.54 54.2454 27.9873 54.2454C28.0512 54.2454 28.179 54.2454 28.2429 54.2454C28.6263 54.1815 29.5209 53.9898 30.8627 51.1144C30.8627 51.0505 30.9266 51.0505 30.9266 50.9866C31.8212 48.1751 31.3739 45.6192 29.5848 43.4466C29.457 43.2549 29.2653 43.191 29.1375 43.0632C27.6678 41.0185 25.6231 38.9099 23.5145 39.5489C22.4921 39.8684 21.7892 40.8268 21.4059 41.9131C20.7669 40.5712 20.064 39.2933 19.1694 38.207C17.572 36.1623 15.8468 35.2677 14.1854 35.5233C12.7158 35.715 11.4378 36.8013 10.5432 38.5265C8.62631 40.7629 8.11513 43.3188 9.07359 46.1942C9.07359 46.2581 9.13749 46.322 9.13749 46.322C10.5432 49.1974 11.5656 49.3891 11.8851 49.3891C11.949 49.3891 12.0768 49.3891 12.2046 49.3891C12.588 49.3891 12.9714 49.2613 13.2269 49.0057C15.2078 47.1527 15.9746 44.7885 15.3356 42.2965C14.9522 40.8907 14.1215 39.5489 13.2908 38.7821C13.6742 38.3348 14.0576 38.0153 14.5049 37.9514C15.2717 37.8236 16.2301 38.4626 17.2525 39.7406C22.1726 45.8747 22.2365 55.8428 19.9362 58.5265M27.2206 48.3029C27.3484 47.2805 27.7956 46.3859 28.179 45.8109C28.6902 46.7054 29.1375 48.1112 28.4985 50.1559C28.3068 50.5393 28.1151 50.9227 27.9234 51.3061C27.3484 50.3476 27.0928 49.3252 27.2206 48.3029ZM11.7573 40.699C12.2046 41.2102 12.8436 42.1687 12.9714 43.3188C13.0992 44.4051 12.8436 45.4914 12.0768 46.3859C11.8212 46.0025 11.5656 45.5553 11.31 45.108C10.6071 42.9994 11.1822 41.5936 11.7573 40.699Z" fill="black"/>
</g>
<defs>
<clipPath id="clip0_2921_23429">
<rect width="60" height="65" fill="white" transform="translate(0 0.268799)"/>
</clipPath>
</defs>
</svg>
