<svg width="60" height="66" viewBox="0 0 60 66" fill="none" xmlns="http://www.w3.org/2000/svg">
<path d="M30.0208 65.0879C28.7433 65.0879 27.4658 64.7686 26.3161 64.1298L3.96019 51.866C1.53298 50.5246 0 47.9697 0 45.1592V21.1426C0 18.3321 1.53298 15.7772 3.96019 14.4358L26.3161 2.17198C28.6156 0.894497 31.3622 0.894497 33.6616 2.17198L56.0176 14.4358C58.4448 15.7772 59.9777 18.3321 59.9777 21.1426V44.6482C59.9777 45.3508 59.4029 45.9257 58.7003 45.9257C57.9977 45.9257 57.4228 45.3508 57.4228 44.6482V21.1426C57.4228 19.2902 56.4008 17.5656 54.7401 16.6714L32.448 4.40757C30.9151 3.57721 29.0627 3.57721 27.5297 4.40757L5.1738 16.6714C3.51307 17.5656 2.55496 19.2902 2.55496 21.1426V45.1592C2.55496 47.0116 3.57695 48.7362 5.1738 49.6304L27.5297 61.8942C29.0627 62.7246 30.9151 62.7246 32.448 61.8942L47.2668 53.7822C47.9055 53.4629 48.672 53.6545 48.9914 54.2932C49.3108 54.932 49.1192 55.6984 48.4804 56.0178L33.7255 64.1298C32.5758 64.7686 31.2983 65.0879 30.0208 65.0879Z" fill="black"/>
<path d="M58.7648 45.9258C58.7009 45.9258 58.5731 45.9258 58.5093 45.9258C52.1219 44.7122 44.2015 41.3907 38.7722 39.0912C33.1513 36.664 30.4685 34.4284 30.1492 31.9373C29.7659 28.9353 32.8319 26.5081 36.4088 23.6976C38.2612 22.2285 40.3052 20.6316 42.0936 18.7793C42.5407 18.3322 42.7324 17.9489 42.6046 17.6934C41.4549 14.883 26.5722 12.5835 13.3503 12.0725C12.6477 12.0725 12.0728 11.4338 12.1367 10.7312C12.1367 10.0285 12.7754 9.45368 13.478 9.51755C20.3126 9.77305 42.7324 11.1144 44.968 16.7353C45.3512 17.6296 45.4151 18.9709 43.946 20.5678C42.0298 22.5479 39.9219 24.2086 38.0057 25.7416C35.1314 27.9772 32.4486 30.085 32.7041 31.6819C32.8319 32.7038 34.1732 34.3646 39.7942 36.8557C45.0957 39.1551 52.8883 42.3488 58.9564 43.5624C59.659 43.6902 60.1061 44.3928 59.9784 45.0315C59.9145 45.4786 59.3396 45.9258 58.7648 45.9258Z" fill="black"/>
<path d="M47.9066 56.1462C47.7788 56.1462 47.715 56.1462 47.5872 56.0824C44.3935 55.3159 40.5611 53.7829 36.1538 51.5473C35.515 51.2279 35.2595 50.4614 35.5789 49.8227C35.8983 49.184 36.6648 48.9285 37.3035 49.2478C41.5192 51.4196 45.16 52.8248 48.1621 53.5913C48.8647 53.7829 49.2479 54.4216 49.1202 55.1243C48.9925 55.763 48.4815 56.1462 47.9066 56.1462Z" fill="black"/>
<path d="M20.0575 39.3461C19.6104 39.3461 19.1633 39.0906 18.9717 38.7074C17.4387 36.1524 17.0555 33.5336 17.8219 30.9147C19.2272 25.9326 24.4649 22.2917 28.6167 20.0562C29.5109 19.609 29.8303 19.2897 29.958 19.098C28.7444 17.5651 18.5884 15.7766 7.47435 15.1378C6.77174 15.074 6.26074 14.4991 6.26074 13.7965C6.32462 13.0939 6.89948 12.5829 7.6021 12.5829C7.66597 12.5829 13.4146 12.9023 19.2272 13.7326C30.2774 15.2017 32.1297 17.0541 32.4491 18.6509C32.8962 20.6949 30.5329 21.9085 29.7664 22.3556C24.5287 25.1661 21.0795 28.4237 20.1853 31.6812C19.6743 33.5975 19.9298 35.5137 21.0795 37.4938C21.4628 38.1325 21.2073 38.899 20.6324 39.2184C20.5047 39.2822 20.313 39.3461 20.0575 39.3461Z" fill="black"/>
<path d="M21.9747 43.2419C21.5276 43.2419 21.0805 42.9864 20.825 42.5393C20.6972 42.2838 20.5695 42.0921 20.4417 41.8366C20.0585 41.2618 20.1862 40.4314 20.7611 40.0482C21.336 39.6649 22.1663 39.7927 22.5496 40.3675C22.7412 40.6869 22.9328 41.0063 23.1244 41.3257C23.4438 41.9644 23.1883 42.7309 22.5496 43.0502C22.3579 43.2419 22.1663 43.2419 21.9747 43.2419Z" fill="black"/>
<path d="M18.5888 52.9503C18.2056 52.9503 17.8224 52.7586 17.5669 52.5031C17.1197 51.9283 17.1836 51.1618 17.7585 50.7147C18.2056 50.3314 18.6527 49.9482 19.036 49.5649C19.547 49.0539 20.3134 49.0539 20.8244 49.5649C21.3354 50.0759 21.3354 50.8424 20.8244 51.3534C20.3773 51.8005 19.8663 52.2476 19.3553 52.6948C19.1637 52.8864 18.9082 52.9503 18.5888 52.9503ZM22.1658 48.6707C21.9742 48.6707 21.8464 48.6068 21.6548 48.5429C21.0161 48.2874 20.6967 47.521 21.0161 46.8822C21.2077 46.3712 21.3354 45.9241 21.3993 45.4131C21.4632 44.7105 22.1019 44.1995 22.8045 44.3273C23.5071 44.3911 24.0181 45.0299 23.8904 45.7325C23.8265 46.4351 23.571 47.1377 23.3155 47.8403C23.1239 48.4152 22.6129 48.6707 22.1658 48.6707Z" fill="black"/>
<path d="M14.6927 55.5706C14.2455 55.5706 13.7984 55.3151 13.6068 54.9318C13.2874 54.2931 13.479 53.5266 14.1178 53.2072C14.3733 53.0795 14.6288 52.8879 14.9481 52.7601C15.523 52.3769 16.3534 52.5685 16.6727 53.2072C17.056 53.7821 16.8644 54.6125 16.2256 54.9318C15.9701 55.1235 15.6508 55.2512 15.3953 55.4428C15.1398 55.5067 14.9481 55.5706 14.6927 55.5706Z" fill="black"/>
<path d="M33.4717 51.6118C32.833 51.6118 32.2581 51.1008 32.1943 50.4621C32.1304 50.1427 32.1304 49.8872 32.0665 49.5678C31.9388 48.8652 32.4498 48.2265 33.1524 48.0987C33.855 47.971 34.4937 48.482 34.6215 49.1846C34.6853 49.504 34.7492 49.8233 34.7492 50.2066C34.8131 50.9092 34.3021 51.5479 33.5995 51.6118C33.5995 51.6118 33.5356 51.6118 33.4717 51.6118Z" fill="black"/>
<path d="M30.3415 61.3846C30.0222 61.3846 29.6389 61.2569 29.3834 61.0014C28.9363 60.4904 28.9363 59.66 29.4473 59.2129C29.8305 58.8297 30.2138 58.4464 30.4693 58.0632C30.9164 57.4883 31.6829 57.4244 32.2578 57.8077C32.8326 58.2548 32.8965 59.0213 32.5132 59.5962C32.13 60.1072 31.6829 60.6182 31.1719 61.0653C30.9803 61.2569 30.6609 61.3846 30.3415 61.3846ZM33.152 56.9135C33.0242 56.9135 32.8965 56.9135 32.7687 56.8496C32.0661 56.658 31.6829 55.9553 31.8745 55.2527C32.0023 54.7417 32.13 54.2307 32.1939 53.7198C32.2578 53.0171 32.8965 52.5061 33.5991 52.6339C34.3017 52.6978 34.8127 53.3365 34.685 54.0391C34.6211 54.6779 34.4933 55.3805 34.3017 55.9553C34.174 56.5302 33.7269 56.9135 33.152 56.9135Z" fill="black"/>
<path d="M26.5729 63.8122C26.0619 63.8122 25.6148 63.5567 25.4231 63.0457C25.1038 62.407 25.4231 61.6405 26.0619 61.385C26.3174 61.2573 26.6367 61.1295 26.8922 61.0018C27.531 60.6824 28.2975 60.9379 28.6168 61.5766C28.9362 62.2154 28.6807 62.9819 28.042 63.3012C27.7226 63.429 27.4671 63.6206 27.1477 63.7483C26.8922 63.7483 26.7006 63.8122 26.5729 63.8122Z" fill="black"/>
<path d="M39.0275 43.6272C38.8997 43.6272 38.7081 43.6272 38.5804 43.5633C31.4265 40.8806 26.8275 36.9204 26.0611 32.7047C25.6139 30.4691 26.3165 28.3613 28.0411 26.8922C28.5521 26.445 29.3825 26.445 29.8296 27.0199C30.2767 27.5309 30.2767 28.3613 29.7019 28.8084C28.6799 29.7026 28.2966 30.9162 28.5521 32.2576C28.8076 33.4712 30.2767 37.8146 39.4746 41.2C40.1133 41.4554 40.4966 42.1581 40.2411 42.8607C40.0495 43.3078 39.5385 43.6272 39.0275 43.6272Z" fill="black"/>
<path d="M45.0324 50.2703C44.9046 50.2703 44.8407 50.2703 44.713 50.2064C41.5832 49.4399 29.6387 45.2881 25.934 41.6473C25.423 41.1363 25.423 40.3698 25.934 39.8588C26.445 39.3478 27.2115 39.3478 27.7225 39.8588C30.6607 42.797 41.5193 46.8211 45.2879 47.7153C45.9905 47.907 46.3737 48.5457 46.246 49.2483C46.1182 49.8871 45.6072 50.2703 45.0324 50.2703Z" fill="black"/>
</svg>
