<svg width="60" height="65" viewBox="0 0 60 65" fill="none" xmlns="http://www.w3.org/2000/svg">
<path d="M29.9046 64.1971C28.632 64.1971 27.3595 63.879 26.2142 63.2427L4.32662 51.2172C1.65429 49.7538 0 46.9543 0 43.8365V20.9309C0 17.8132 1.65429 15.0136 4.32662 13.5502L16.5429 6.80579C17.1792 6.48766 17.9427 6.67854 18.2609 7.3148C18.579 7.95107 18.3881 8.71459 17.7519 9.03272L5.53552 15.7772C3.69035 16.7952 2.54507 18.7676 2.54507 20.9309V43.8365C2.54507 45.9999 3.69035 47.9723 5.53552 48.9903L27.4231 61.0158C28.9502 61.8429 30.7953 61.8429 32.3224 61.0158L36.2672 58.8525C36.9035 58.5343 37.667 58.7252 37.9852 59.3615C38.3033 59.9977 38.1124 60.7613 37.4761 61.0794L33.5313 63.2427C32.4496 63.879 31.1771 64.1971 29.9046 64.1971Z" fill="black"/>
<path d="M42.8205 58.0258C42.3751 58.0258 41.9297 57.7713 41.6752 57.3895C41.3571 56.7533 41.548 55.9897 42.1842 55.6716L54.4006 48.9272C56.2457 47.9091 57.391 45.9367 57.391 43.7734V20.8678C57.391 18.7045 56.2457 16.732 54.4006 15.714L32.513 3.62494C30.9859 2.79779 29.1408 2.79779 27.6137 3.62494L23.6689 5.78825C23.0326 6.10638 22.2691 5.9155 21.9509 5.27923C21.6328 4.64297 21.8237 3.87945 22.4599 3.56131L26.4048 1.398C28.6954 0.12547 31.4313 0.12547 33.7855 1.398L55.6731 13.4235C58.3454 14.8869 59.9997 17.6864 59.9997 20.8042V43.7098C59.9997 46.8275 58.3454 49.6271 55.6731 51.0905L43.3931 57.8349C43.2023 57.9622 43.0114 58.0258 42.8205 58.0258Z" fill="black"/>
<path d="M14.8251 16.7315C14.6979 16.7315 14.5706 16.7315 14.4434 16.6679C13.7435 16.477 13.4253 15.7771 13.6162 15.0772L15.5887 8.77819L9.41686 6.80576C8.71696 6.61488 8.39883 5.85136 8.58971 5.21509C8.78059 4.5152 9.54411 4.13344 10.1804 4.38795L17.5611 6.74214C18.1973 6.93302 18.5791 7.63291 18.3882 8.3328L16.034 15.8408C15.9068 16.3498 15.3978 16.7315 14.8251 16.7315Z" fill="black"/>
<path d="M49.9475 60.5078C49.8203 60.5078 49.693 60.5078 49.5657 60.4441L42.185 58.0899C41.5488 57.8991 41.167 57.1992 41.3579 56.4993L43.7121 48.9913C43.903 48.2914 44.6029 47.9733 45.3028 48.1642C46.0027 48.3551 46.3208 49.0549 46.1299 49.7548L44.1575 56.0539L50.3293 58.0263C51.0292 58.2172 51.3473 58.9807 51.1564 59.617C51.0292 60.126 50.5201 60.5078 49.9475 60.5078Z" fill="black"/>
<path d="M39.0039 56.3727C36.9042 56.3727 35.8225 54.9729 35.059 53.9549C34.3591 53.0005 33.9137 52.5551 33.0866 52.5551C32.2594 52.5551 31.8777 53.0641 31.1142 53.9549C30.3506 54.9729 29.269 56.3727 27.1693 56.3727C25.0696 56.3727 23.988 54.9729 23.2245 53.9549C22.5246 53.0005 22.0792 52.5551 21.252 52.5551C20.5521 52.5551 19.9795 51.9824 19.9795 51.2825C19.9795 50.5827 20.5521 50.01 21.252 50.01C23.3517 50.01 24.4334 51.4098 25.1969 52.4278C25.8968 53.3822 26.3422 53.8276 27.1693 53.8276C27.9965 53.8276 28.3782 53.3186 29.1417 52.4278C29.9053 51.4098 30.9869 50.01 33.0866 50.01C35.1863 50.01 36.2679 51.4098 37.0315 52.4278C37.7313 53.3822 38.1767 53.8276 39.0039 53.8276C39.7038 53.8276 40.2764 54.4003 40.2764 55.1001C40.2764 55.8 39.7038 56.3727 39.0039 56.3727Z" fill="black"/>
<path d="M39.0039 51.5992C36.9042 51.5992 35.8225 50.1995 35.059 49.1814C34.3591 48.227 33.9137 47.7816 33.0866 47.7816C32.2594 47.7816 31.8777 48.2907 31.1142 49.1814C30.3506 50.1995 29.269 51.5992 27.1693 51.5992C25.0696 51.5992 23.988 50.1995 23.2245 49.1814C22.5246 48.227 22.0792 47.7816 21.252 47.7816C20.5521 47.7816 19.9795 47.209 19.9795 46.5091C19.9795 45.8092 20.5521 45.2366 21.252 45.2366C23.3517 45.2366 24.4334 46.6364 25.1969 47.6544C25.8968 48.6088 26.3422 49.0542 27.1693 49.0542C27.9965 49.0542 28.3782 48.5452 29.1417 47.6544C29.9053 46.6364 30.9869 45.2366 33.0866 45.2366C35.1863 45.2366 36.2679 46.6364 37.0315 47.6544C37.7313 48.6088 38.1767 49.0542 39.0039 49.0542C39.7038 49.0542 40.2764 49.6268 40.2764 50.3267C40.2764 51.0266 39.7038 51.5992 39.0039 51.5992Z" fill="black"/>
<path d="M39.0039 46.7653C36.9042 46.7653 35.8225 45.3655 35.059 44.3474C34.3591 43.393 33.9137 42.9477 33.0866 42.9477C32.2594 42.9477 31.8777 43.4567 31.1142 44.3474C30.3506 45.3655 29.269 46.7653 27.1693 46.7653C25.0696 46.7653 23.988 45.3655 23.2245 44.3474C22.5246 43.393 22.0792 42.9477 21.252 42.9477C20.5521 42.9477 19.9795 42.375 19.9795 41.6751C19.9795 40.9752 20.5521 40.4026 21.252 40.4026C23.3517 40.4026 24.4334 41.8024 25.1969 42.8204C25.8968 43.7748 26.3422 44.2202 27.1693 44.2202C27.9965 44.2202 28.3782 43.7112 29.1417 42.8204C29.9053 41.8024 30.9869 40.4026 33.0866 40.4026C35.1863 40.4026 36.2679 41.8024 37.0315 42.8204C37.7313 43.7748 38.1767 44.2202 39.0039 44.2202C39.7038 44.2202 40.2764 44.7928 40.2764 45.4927C40.2764 46.1926 39.7038 46.7653 39.0039 46.7653Z" fill="black"/>
<path d="M43.7758 34.229C39.3219 34.229 35.7588 30.4114 35.7588 25.7667C35.7588 22.2672 39.7673 17.4952 42.1851 14.9501C42.6305 14.5048 43.2031 14.2502 43.7758 14.2502C44.3484 14.2502 44.9847 14.5048 45.3664 14.9501C47.7842 17.4952 51.7927 22.2672 51.7927 25.7667C51.8563 30.4751 48.2296 34.229 43.7758 34.229ZM43.7758 16.9862C40.4035 20.6129 38.3039 23.9851 38.3039 25.7667C38.3039 29.0116 40.7853 31.684 43.7758 31.684C46.8298 31.684 49.2477 29.0116 49.2477 25.7667C49.3113 23.9851 47.2116 20.6129 43.7758 16.9862Z" fill="black"/>
<path d="M43.6479 30.7293C41.2301 30.7293 39.3213 28.4387 39.3213 25.5755C39.3213 24.8756 39.8939 24.303 40.5938 24.303C41.2937 24.303 41.8664 24.8756 41.8664 25.5755C41.8664 26.9753 42.6935 28.1842 43.6479 28.1842C43.7752 28.1842 43.9024 28.1842 44.0297 28.1206C44.6659 27.8661 45.4295 28.2478 45.6203 28.8841C45.8748 29.5204 45.4931 30.2839 44.8568 30.4748C44.4751 30.6657 44.0297 30.7293 43.6479 30.7293Z" fill="black"/>
<path d="M7.63521 31.3026C6.68081 31.3026 5.72641 30.4754 5.34465 30.1573C4.58113 29.3302 4.13574 28.3121 4.13574 27.1668C4.13574 25.0035 5.72641 23.222 7.76247 22.9675C8.71687 21.2496 10.562 20.1043 12.5981 20.1043C13.807 18.1319 15.8431 16.9866 18.07 16.9866C21.315 16.9866 24.0509 19.5953 24.6235 22.9675C26.3415 23.4765 27.5504 25.1308 27.5504 27.0396C27.5504 29.3938 25.7052 31.3026 23.4146 31.3662L7.63521 31.3026ZM7.1262 28.3121C7.31708 28.503 7.57158 28.6939 7.69884 28.7575H23.4146C24.2418 28.7575 25.0053 27.9304 25.0053 26.976C25.0053 26.0852 24.3054 25.3217 23.4146 25.258H22.2057V24.0491C22.1421 21.5677 20.2969 19.5316 18.1336 19.5316C16.6066 19.5316 15.2704 20.486 14.5705 22.0131L14.0615 22.8402L13.1071 22.6494C11.6437 22.3948 10.2439 23.222 9.73489 24.6218L9.41676 25.5126L8.46236 25.4489C8.39873 25.4489 8.33511 25.4489 8.33511 25.4489C7.44433 25.4489 6.68081 26.2124 6.68081 27.1668C6.61718 27.6122 6.80806 27.994 7.1262 28.3121Z" fill="black"/>
<path d="M15.4614 37.7924C15.2069 37.7924 15.016 37.7288 14.8252 37.6015C14.2525 37.2198 13.998 36.4563 14.3798 35.8836L16.5431 32.3205C16.9248 31.7479 17.6884 31.4934 18.261 31.8751C18.8336 32.2569 19.0881 33.0204 18.7064 33.593L16.5431 37.1561C16.3522 37.6015 15.9068 37.7924 15.4614 37.7924Z" fill="black"/>
<path d="M11.3257 37.7924C11.0712 37.7924 10.8803 37.7288 10.6894 37.6015C10.1168 37.2198 9.86226 36.4563 10.244 35.8836L12.4073 32.3205C12.7891 31.7479 13.5526 31.4934 14.1253 31.8751C14.6979 32.2569 14.9524 33.0204 14.5706 33.593L12.4073 37.1561C12.1528 37.6015 11.7711 37.7924 11.3257 37.7924Z" fill="black"/>
<path d="M7.31689 37.7924C7.06238 37.7924 6.8715 37.7288 6.68062 37.6015C6.10798 37.2198 5.85348 36.4563 6.23524 35.8836L8.39854 32.3205C8.7803 31.7479 9.54383 31.4934 10.1165 31.8751C10.6891 32.2569 10.9436 33.0204 10.5619 33.593L8.39854 37.1561C8.14404 37.6015 7.69865 37.7924 7.31689 37.7924Z" fill="black"/>
<path d="M29.9639 33.6302C29.264 33.6302 28.6914 33.0576 28.6914 32.3577V10.0247C28.6914 9.32484 29.264 8.7522 29.9639 8.7522C30.6638 8.7522 31.2365 9.32484 31.2365 10.0247V32.3577C31.2365 33.0576 30.6638 33.6302 29.9639 33.6302Z" fill="black"/>
<path d="M11.0669 44.3826C10.6215 44.3826 10.1761 44.1281 9.98524 43.7464C9.60348 43.1101 9.85798 42.3466 10.4306 42.0284L29.0096 31.2755C29.6459 30.8938 30.4094 31.1483 30.7275 31.7209C31.1093 32.3572 30.8548 33.1207 30.2822 33.4388L11.7032 44.1917C11.5123 44.319 11.2578 44.3826 11.0669 44.3826Z" fill="black"/>
<path d="M48.8612 44.3833C48.6703 44.3833 48.4158 44.3197 48.2249 44.1924L29.3278 33.4395C28.6915 33.1214 28.5006 32.2942 28.8824 31.7216C29.2005 31.0853 30.0277 30.8944 30.6003 31.2762L49.4975 42.0291C50.1337 42.3472 50.3246 43.1744 49.9428 43.747C49.752 44.1288 49.3066 44.3833 48.8612 44.3833Z" fill="black"/>
</svg>
