<svg width="60" height="64" viewBox="0 0 60 64" fill="none" xmlns="http://www.w3.org/2000/svg">
<path d="M43.1135 33.9705H15.2785C14.5362 33.9705 13.9795 33.352 13.9795 32.6716V17.8881C13.9795 17.4551 14.2269 17.0221 14.598 16.7746L28.5156 8.053C28.9486 7.80558 29.5053 7.80558 29.9383 8.053L43.8558 16.7746C44.2269 17.0221 44.4743 17.4551 44.4743 17.8881V32.6097C44.4743 33.352 43.8558 33.9705 43.1135 33.9705ZM16.6393 31.3107H41.8145V18.5685L29.196 10.6509L16.6393 18.5685V31.3107Z" fill="black"/>
<path d="M43.1132 49.8056C42.4328 49.8056 41.8761 49.2489 41.8761 48.5685V38.486H16.5152V53.4551C16.5152 54.1355 15.9585 54.6922 15.2781 54.6922C14.5977 54.6922 14.041 54.1355 14.041 53.4551V37.2489C14.041 36.5685 14.5977 36.0118 15.2781 36.0118H43.1132C43.7936 36.0118 44.3503 36.5685 44.3503 37.2489V48.6303C44.3503 49.2489 43.7936 49.8056 43.1132 49.8056Z" fill="black"/>
<path d="M45.4018 38.5481H13.0513C12.309 38.5481 11.6904 37.9295 11.6904 37.1872C11.6904 36.445 12.309 35.8264 13.0513 35.8264H45.3399C46.0822 35.8264 46.7007 36.445 46.7007 37.1872C46.7007 37.9295 46.0822 38.5481 45.4018 38.5481Z" fill="black"/>
<path d="M43.1132 48.6918C42.9895 48.6918 42.8039 48.6918 42.6802 48.6299L14.8452 38.3619C14.2266 38.1144 13.8555 37.434 14.1029 36.7536C14.3503 36.1351 15.0307 35.7639 15.7111 36.0113L43.5462 46.2794C44.1647 46.5268 44.5359 47.2072 44.2885 47.8876C44.1029 48.3825 43.608 48.6918 43.1132 48.6918Z" fill="black"/>
<path d="M15.34 48.693C14.8451 48.693 14.3503 48.3837 14.1647 47.8889C13.9173 47.2703 14.2266 46.5281 14.907 46.2807L42.742 36.0126C43.3606 35.7652 44.1029 36.0745 44.3503 36.7549C44.5977 37.3734 44.2884 38.1157 43.608 38.3631L15.773 48.6312C15.5874 48.693 15.4637 48.693 15.34 48.693Z" fill="black"/>
<path d="M29.0105 30.26C25.2991 30.26 22.3301 27.1054 22.3301 23.2085C22.3301 20.3012 25.6084 16.4043 27.5878 14.3631C28.3301 13.559 29.7528 13.559 30.495 14.3631C32.4744 16.4043 35.7528 20.3631 35.7528 23.2085C35.7528 27.1054 32.7218 30.26 29.0105 30.26ZM29.0105 16.4043C26.4126 19.1878 24.8043 21.8476 24.8043 23.2085C24.8043 25.7445 26.7218 27.7858 29.0105 27.7858C31.2991 27.7858 33.2167 25.7445 33.2167 23.2085C33.2785 21.8476 31.6084 19.2497 29.0105 16.4043Z" fill="black"/>
<path d="M29.0102 27.2899C26.9689 27.2899 25.2988 25.3105 25.2988 22.96C25.2988 22.2796 25.8555 21.7229 26.5359 21.7229C27.2164 21.7229 27.7731 22.2796 27.7731 22.96C27.7731 24.259 28.639 25.0013 29.2576 24.8157C29.8761 24.5683 30.6184 24.9394 30.804 25.558C31.0514 26.1765 30.6803 26.9188 30.0617 27.1043C29.6906 27.2281 29.3813 27.2899 29.0102 27.2899Z" fill="black"/>
<path d="M57.7732 45.289C58.0206 44.5467 58.1443 43.7426 58.1443 42.9385V19.7426C58.1443 17.0209 56.6598 14.5467 54.3093 13.2477L32.6598 1.37144C30.433 0.134325 27.7732 0.134325 25.5464 1.37144L3.89691 13.2477C1.48454 14.5467 0 17.0209 0 19.7426V43.0003C0 45.722 1.48454 48.1962 3.83505 49.4952L25.4845 61.3714C26.5979 61.99 27.8351 62.2993 29.0722 62.2993C30.3093 62.2993 31.5464 61.99 32.6598 61.3714L40.4536 57.1034C42.3093 60.1962 45.6495 62.2993 49.4845 62.2993C55.299 62.2993 60 57.5982 60 51.7838C60 49.3714 59.134 47.0828 57.7732 45.289ZM55.299 52.6498C55.0515 52.8972 54.7423 53.0209 54.433 53.0209C54.1237 53.0209 53.8144 52.8972 53.567 52.6498L50.7216 49.8663V56.7323C50.7216 57.4127 50.1649 57.9694 49.4845 57.9694C48.8041 57.9694 48.2474 57.4127 48.2474 56.7323V49.8044L45.4021 52.6498C45.1546 52.8972 44.8454 53.0209 44.5361 53.0209C44.2268 53.0209 43.9175 52.8972 43.6701 52.6498C43.1753 52.1549 43.1753 51.4127 43.6701 50.9178L48.433 46.1549C48.4948 46.0931 48.4948 46.0312 48.5567 45.9694C48.8041 45.722 49.1134 45.5982 49.4227 45.5982C49.4845 45.5982 49.6082 45.5982 49.6701 45.5982C49.732 45.5982 49.732 45.5982 49.7938 45.6601C49.8557 45.6601 49.8557 45.6601 49.9175 45.722C49.9794 45.722 49.9794 45.7838 50.0412 45.7838C50.0412 45.7838 50.1031 45.7838 50.1031 45.8457C50.2268 45.9075 50.3505 46.0312 50.4124 46.1549L55.1753 50.9178C55.7938 51.4127 55.7938 52.1549 55.299 52.6498ZM55.6701 43.0003C55.6701 43.124 55.6701 43.1859 55.6701 43.3096C53.9381 42.0725 51.835 41.2683 49.4845 41.2683C43.6701 41.2683 38.9691 45.9694 38.9691 51.7838C38.9691 52.8354 39.1546 53.8869 39.4021 54.8147L31.4227 59.2065C29.9381 60.0106 28.1443 60.0106 26.6598 59.2065L5.01031 47.3302C3.40206 46.4642 2.41237 44.7941 2.41237 43.0003V19.7426C2.41237 17.9488 3.40206 16.2787 4.94845 15.4127L26.7216 3.53639C27.4639 3.1034 28.268 2.91783 29.0722 2.91783C29.8763 2.91783 30.6804 3.1034 31.4227 3.53639L53.0722 15.4127C54.6804 16.2787 55.6701 17.9488 55.6701 19.7426V43.0003Z" fill="black"/>
</svg>
