<svg width="60" height="63" viewBox="0 0 60 63" fill="none" xmlns="http://www.w3.org/2000/svg">
<path d="M29.1045 31.2918C23.6668 31.2918 19.2178 26.7192 19.2178 21.0961C19.2178 15.782 27.3125 7.81083 28.2394 6.94575C28.7337 6.5132 29.4752 6.5132 29.9696 6.94575C30.8965 7.81083 38.9912 15.782 38.9912 21.0961C38.9912 26.7192 34.5422 31.2918 29.1045 31.2918ZM29.1045 9.54101C26.4474 12.2599 21.6895 17.8211 21.6895 21.0961C21.6895 25.3598 25.0262 28.8201 29.1045 28.8201C33.1828 28.8201 36.5195 25.3598 36.5195 21.0961C36.5195 17.8829 31.7615 12.3216 29.1045 9.54101Z" fill="black"/>
<path d="M28.6717 26.9661C25.8293 26.9661 23.543 24.1854 23.543 20.7869C23.543 20.1072 24.0991 19.551 24.7788 19.551C25.4585 19.551 26.0146 20.1072 26.0146 20.7869C26.0146 22.826 27.2505 24.4944 28.6717 24.4944C28.9189 24.4944 29.1042 24.4326 29.2896 24.3708C29.9075 24.1236 30.649 24.4326 30.8962 25.0505C31.1434 25.6684 30.8344 26.4099 30.2165 26.6571C29.7222 26.8425 29.2278 26.9661 28.6717 26.9661Z" fill="black"/>
<path d="M25.3347 53.5383H11.8022C11.1225 53.5383 10.5664 52.9822 10.5664 52.3025C10.5664 51.6227 11.1225 51.0666 11.8022 51.0666H25.3347C26.5705 51.0666 27.7446 50.6959 28.7332 50.0162L45.4789 38.77C46.1586 38.1521 46.5293 37.287 46.344 36.4219C46.1586 35.3715 45.3553 34.5682 44.3666 34.321C43.8723 34.1974 43.3162 34.321 42.8218 34.5682L31.6375 41.6742C30.7724 42.1686 29.9691 42.4157 28.9804 42.4157H20.4531C19.7734 42.4157 19.2173 41.8596 19.2173 41.1799C19.2173 40.5002 19.7734 39.9441 20.4531 39.9441H28.9804C29.4747 39.9441 29.9073 39.8205 30.3398 39.5733L41.5242 32.529C41.5242 32.529 41.586 32.529 41.586 32.4672C42.5746 31.9111 43.7487 31.7257 44.8609 31.9729C46.9001 32.4054 48.4449 34.012 48.8156 36.0512C49.1246 37.7813 48.4449 39.5733 47.0237 40.7474L46.9619 40.8091L30.0927 52.1171C28.7332 53.044 27.0649 53.5383 25.3347 53.5383Z" fill="black"/>
<path d="M1.29702 43.6516C0.926265 43.6516 0.555513 43.4662 0.308345 43.1572C-0.0624068 42.6011 0.0611771 41.8596 0.555513 41.4271L11.4927 33.5177C12.9139 32.529 14.6441 31.9729 16.436 31.9729H27.435C30.2775 31.9729 32.6255 34.321 32.6255 37.1634V37.287C32.6255 40.1294 30.2775 42.4775 27.435 42.4775C26.7553 42.4775 26.1992 41.9214 26.1992 41.2417C26.1992 40.562 26.7553 40.0059 27.435 40.0059C28.918 40.0059 30.1539 38.77 30.1539 37.287V37.1634C30.1539 35.6804 28.918 34.4446 27.435 34.4446H16.436C15.2002 34.4446 13.9026 34.8153 12.9139 35.495L2.03852 43.4044C1.79135 43.5898 1.54418 43.6516 1.29702 43.6516Z" fill="black"/>
<path d="M60 51.6846C60 57.493 55.3038 62.1892 49.4954 62.1892C45.6643 62.1892 42.2657 60.0883 40.4737 56.9987L32.688 61.2624C31.5757 61.8803 30.3399 62.1892 29.104 62.1892C27.8682 62.1892 26.6941 61.8803 25.5819 61.3241L11.1843 53.4148C10.5664 53.1058 10.3811 52.3025 10.69 51.7464C10.999 51.1285 11.7405 50.9431 12.3584 51.2521L26.7559 59.0996C28.2389 59.9029 30.0309 59.9029 31.5139 59.0996L39.4233 54.7742C39.1143 53.7855 38.9907 52.7969 38.9907 51.6846C38.9907 45.8762 43.6869 41.18 49.4954 41.18C51.7817 41.18 53.9444 41.9215 55.6746 43.2191C55.6746 43.0955 55.6746 43.0337 55.6746 42.9101V19.6764C55.6746 17.8844 54.6859 16.216 53.0793 15.2891L31.4521 3.48686C29.9691 2.68356 28.1771 2.68356 26.6941 3.48686L5.06694 15.3509C3.46035 16.216 2.47168 17.8844 2.47168 19.6764V42.4158C2.47168 43.0955 1.91555 43.6516 1.23584 43.6516C0.556128 43.6516 0 43.0955 0 42.4158V19.6764C0 17.0193 1.48301 14.4858 3.8311 13.1882L25.4583 1.32414C27.6828 0.150092 30.3399 0.150092 32.5644 1.32414L54.1916 13.1882C56.6014 14.5476 58.0227 16.9575 58.0227 19.7381V42.9719C58.0227 43.7752 57.8991 44.5167 57.6519 45.2582C59.1349 46.9884 60 49.2129 60 51.6846ZM55.3038 50.8195L50.3605 45.8761C50.2987 45.8144 50.2369 45.7526 50.1751 45.6908L50.1133 45.629C50.0515 45.629 50.0515 45.5672 49.9897 45.5672C49.9279 45.5672 49.9279 45.5672 49.8661 45.5054C49.8043 45.5054 49.8043 45.5054 49.7425 45.4436C49.5572 45.3818 49.4336 45.3818 49.2482 45.4436C49.1864 45.4436 49.1864 45.4436 49.1246 45.5054C49.0628 45.5054 49.0628 45.5054 49.001 45.5672C48.9392 45.5672 48.9392 45.629 48.8774 45.629C48.8774 45.629 48.8157 45.629 48.8157 45.6908C48.7539 45.7526 48.6921 45.8144 48.6303 45.8761L43.6869 50.8195C43.1926 51.3138 43.1926 52.0553 43.6869 52.5497C43.9341 52.7969 44.243 52.9204 44.552 52.9204C44.861 52.9204 45.1699 52.7969 45.4171 52.5497L48.2595 49.7073V56.628C48.2595 57.3077 48.8157 57.8638 49.4954 57.8638C50.1751 57.8638 50.7312 57.3077 50.7312 56.628V49.7073L53.5736 52.5497C53.8208 52.7969 54.1298 52.9204 54.4387 52.9204C54.7477 52.9204 55.0566 52.7969 55.3038 52.5497C55.7981 52.0553 55.7981 51.3138 55.3038 50.8195Z" fill="black"/>
</svg>
