<svg width="62" height="65" viewBox="0 0 62 65" fill="none" xmlns="http://www.w3.org/2000/svg">
<path d="M21.5665 53.2204H18.6737C17.982 53.2204 17.416 52.6544 17.416 51.9626C17.416 51.2709 17.982 50.7049 18.6737 50.7049H21.5665C22.2583 50.7049 22.8243 51.2709 22.8243 51.9626C22.8243 52.6544 22.3212 53.2204 21.5665 53.2204Z" fill="black"/>
<path d="M18.3598 46.9317H10.4989C9.80719 46.9317 9.24121 46.3657 9.24121 45.674C9.24121 44.9822 9.80719 44.4163 10.4989 44.4163H18.3598C19.0515 44.4163 19.6175 44.9822 19.6175 45.674C19.6175 46.3657 19.0515 46.9317 18.3598 46.9317Z" fill="black"/>
<path d="M48.4814 40.0771H36.0927C35.4009 40.0771 34.835 39.5111 34.835 38.8194C34.835 38.1276 35.4009 37.5616 36.0927 37.5616H48.4814C49.1731 37.5616 49.7391 38.1276 49.7391 38.8194C49.7391 39.5111 49.1731 40.0771 48.4814 40.0771Z" fill="black"/>
<path d="M17.1649 40.0772H6.53703C5.84528 40.0772 5.2793 39.5112 5.2793 38.8194C5.2793 38.1277 5.84528 37.5617 6.53703 37.5617H17.1649C17.8566 37.5617 18.4226 38.1277 18.4226 38.8194C18.4226 39.5112 17.8566 40.0772 17.1649 40.0772Z" fill="black"/>
<path d="M52.6327 33.3476H6.0966C5.40485 33.3476 4.83887 32.7816 4.83887 32.0898C4.83887 31.3981 5.40485 30.8321 6.0966 30.8321H52.6327C53.3244 30.8321 53.8904 31.3981 53.8904 32.0898C53.8904 32.7816 53.3244 33.3476 52.6327 33.3476Z" fill="black"/>
<path d="M29.8681 32.4033C29.1763 32.4033 28.6104 31.8373 28.6104 31.1456V24.1651C28.6104 23.4734 29.1763 22.9074 29.8681 22.9074C30.5598 22.9074 31.1258 23.4734 31.1258 24.1651V31.1456C31.1258 31.8373 30.5598 32.4033 29.8681 32.4033Z" fill="black"/>
<path d="M31.9433 25.0466C31.0629 25.0466 30.2454 24.7322 29.6165 24.0404C28.7361 23.16 28.4217 21.9652 28.7361 20.7703C29.2392 18.8208 30.1196 17.2487 31.3145 16.1167C34.333 13.0981 39.1753 13.0981 39.3639 13.0981C40.0557 13.0981 40.6217 13.6641 40.6217 14.3559C40.6217 14.5445 40.6217 19.3239 37.6031 22.4054C36.4083 23.6002 34.8361 24.4806 32.9495 24.9837C32.5093 25.0466 32.1949 25.0466 31.9433 25.0466ZM37.9175 15.7394C36.534 15.928 34.5217 16.494 33.0753 17.9404C32.1949 18.8208 31.566 20.0157 31.1887 21.5249C31.0629 21.9652 31.3145 22.2167 31.3773 22.3425C31.5031 22.4682 31.7547 22.6569 32.1949 22.5311C33.7041 22.1538 34.899 21.4621 35.7794 20.6445C37.1629 19.1353 37.7289 17.1229 37.9175 15.7394Z" fill="black"/>
<path d="M28.3588 27.876C28.1072 27.876 27.8557 27.8131 27.6041 27.7502C26.1577 27.31 25.0258 26.5554 24.1454 25.6121C21.9443 23.0966 21.9443 19.2605 21.9443 19.0719C21.9443 18.3801 22.5103 17.8141 23.2021 17.8141C23.3278 17.8141 26.9124 17.8141 29.1763 20.3925C30.0567 21.3987 30.6227 22.6564 31 24.2286C31.2516 25.2977 30.9371 26.4296 30.1196 27.1843C29.6794 27.6245 29.0505 27.876 28.3588 27.876ZM24.6485 20.5183C24.8371 21.5873 25.2144 22.9708 26.0949 23.9141C26.6608 24.543 27.4155 25.0461 28.4217 25.3605C28.4217 25.3605 28.4845 25.3605 28.4845 25.2977C28.6103 25.1719 28.6732 24.9832 28.6103 24.7317C28.3588 23.5997 27.9186 22.6564 27.3526 21.9647C26.5351 21.21 25.466 20.7698 24.6485 20.5183Z" fill="black"/>
<path d="M31.8167 57.7493C27.9178 57.7493 24.7734 54.4163 24.7734 50.3287C24.7734 47.3101 28.2322 43.1596 30.3075 40.9586C30.6848 40.5184 31.2508 40.3297 31.8167 40.3297C32.3827 40.3297 32.9487 40.5813 33.326 40.9586C35.4013 43.1596 38.86 47.2472 38.86 50.3287C38.9229 54.4163 35.7157 57.7493 31.8167 57.7493ZM31.8167 43.0338C29.0497 46.0524 27.2889 48.8823 27.2889 50.3287C27.2889 53.0328 29.3013 55.2338 31.8167 55.2338C34.3322 55.2338 36.3446 53.0328 36.3446 50.3287C36.3446 48.8823 34.5837 46.0524 31.8167 43.0338Z" fill="black"/>
<path d="M23.3279 43.7878C21.2526 43.7878 19.5547 42.027 19.5547 39.8259C19.5547 38.6311 20.4351 37.0589 22.1959 35.2352C22.5104 34.9208 22.9506 34.7321 23.3908 34.7321C23.831 34.7321 24.2712 34.9208 24.5856 35.2352C26.3464 37.0589 27.2269 38.6311 27.2269 39.8259C27.164 42.027 25.4031 43.7878 23.3279 43.7878ZM23.3279 37.7507C22.4475 38.8197 22.0702 39.5744 22.0702 39.8888C22.0702 40.7063 22.6361 41.3352 23.3279 41.3352C24.0196 41.3352 24.5856 40.7063 24.5856 39.8888C24.6485 39.5744 24.2083 38.7569 23.3279 37.7507Z" fill="black"/>
<path d="M31.7535 54.6034C29.6153 54.6034 27.8545 52.5281 27.8545 50.0127C27.8545 49.3209 28.4205 48.7549 29.1122 48.7549C29.804 48.7549 30.37 49.3209 30.37 50.0127C30.37 51.2704 31.1875 52.2766 32.005 52.025C32.6339 51.7735 33.3885 52.1508 33.5772 52.7797C33.7658 53.4086 33.4514 54.1632 32.8225 54.3519C32.5081 54.5405 32.1308 54.6034 31.7535 54.6034Z" fill="black"/>
<path d="M59.2361 46.8067C59.4876 46.052 59.6134 45.2345 59.6134 44.417V20.8345C59.6134 18.0675 58.1041 15.552 55.7144 14.2314L33.7041 2.15717C31.4402 0.899434 28.7361 0.899434 26.4722 2.15717L4.46186 14.2314C2.00928 15.552 0.5 18.0675 0.5 20.8345V44.4799C0.5 47.2469 2.00928 49.7623 4.39897 51.0829L26.4093 63.1572C27.5412 63.786 28.799 64.1005 30.0567 64.1005C31.3144 64.1005 32.5722 63.786 33.7041 63.1572L41.6278 58.818C43.5144 61.9623 46.9103 64.1005 50.8093 64.1005C56.7206 64.1005 61.5 59.3211 61.5 53.4097C61.5 50.9572 60.6196 48.6304 59.2361 46.8067ZM55.8402 54.6675H52.067V58.4407C52.067 59.1324 51.501 59.6984 50.8093 59.6984C50.1175 59.6984 49.5515 59.1324 49.5515 58.4407V54.6675H45.7784C45.0866 54.6675 44.5206 54.1015 44.5206 53.4097C44.5206 52.718 45.0866 52.152 45.7784 52.152H49.5515V48.3788C49.5515 47.6871 50.1175 47.1211 50.8093 47.1211C51.501 47.1211 52.067 47.6871 52.067 48.3788V52.152H55.8402C56.532 52.152 57.0979 52.718 57.0979 53.4097C57.0979 54.1015 56.532 54.6675 55.8402 54.6675ZM57.0979 44.4799C57.0979 44.6056 57.0979 44.6685 57.0979 44.7943C55.3371 43.5366 53.199 42.719 50.8093 42.719C44.8979 42.719 40.1186 47.4984 40.1186 53.4097C40.1186 54.4788 40.3072 55.5479 40.5588 56.4912L32.4464 60.9561C30.9371 61.7737 29.1134 61.7737 27.6041 60.9561L5.59381 48.8819C3.95876 48.0015 2.95258 46.3036 2.95258 44.4799V20.8345C2.95258 19.0108 3.95876 17.3128 5.53093 16.4324L27.667 4.3582C28.4216 3.91799 29.2392 3.72933 30.0567 3.72933C30.8742 3.72933 31.6918 3.91799 32.4464 4.3582L54.4567 16.4324C56.0918 17.3128 57.0979 19.0108 57.0979 20.8345V44.4799Z" fill="black"/>
</svg>
