<svg width="64" height="71" viewBox="0 0 64 71" fill="none" xmlns="http://www.w3.org/2000/svg">
<path d="M32.5 67.0986C31.2234 67.0986 29.9468 66.7794 28.7979 66.1411L10.4787 56.1199C9.84043 55.8007 9.64894 55.0347 9.96808 54.3965C10.2872 53.7582 11.0532 53.5667 11.6915 53.8858L30.0106 63.9071C31.5426 64.7369 33.3936 64.7369 34.9255 63.9071L57.266 51.6518C58.9255 50.7582 59.9468 49.0348 59.9468 47.1837V23.1837C59.9468 21.3326 58.9255 19.6092 57.266 18.7156L43.6064 11.1837C42.9681 10.8645 42.7766 10.0986 43.0957 9.46029C43.4149 8.82199 44.1809 8.6305 44.8191 8.94965L58.5426 16.4816C60.9681 17.822 62.5 20.3752 62.5 23.1837V47.1837C62.5 49.9922 60.9681 52.5454 58.5426 53.8858L36.2021 66.1411C35.0532 66.7794 33.7766 67.0986 32.5 67.0986Z" fill="black"/>
<path d="M11.117 56.2475C10.9255 56.2475 10.6702 56.1837 10.4787 56.1199L6.45745 53.8858C4.03191 52.5454 2.5 49.9922 2.5 47.1837V23.1837C2.5 20.3752 4.03191 17.822 6.45745 16.4816L28.7979 4.22625C31.0957 2.94965 33.8404 2.94965 36.1383 4.22625L44.8191 8.94965C45.4574 9.2688 45.6489 10.0348 45.3298 10.6731C45.0106 11.3114 44.2447 11.5028 43.6064 11.1837L34.9894 6.46029C33.4574 5.6305 31.6064 5.6305 30.0745 6.46029L7.73404 18.7156C6.07447 19.6092 5.11702 21.3326 5.11702 23.1837V47.1837C5.11702 49.0348 6.1383 50.7582 7.73404 51.6518L11.7553 53.8858C12.3936 54.205 12.5851 55.0348 12.266 55.6092C12.0106 56.056 11.5638 56.2475 11.117 56.2475Z" fill="black"/>
<path d="M32.5 53.6943C31.8617 53.6943 31.1596 53.3752 30.7766 52.8007C27.266 48.2688 19.0957 37.0348 19.0957 31.2262C19.0957 23.8858 25.0957 17.9496 32.5 17.9496C36.0745 17.9496 39.4574 19.3539 41.9468 21.8433C44.5 24.3326 45.9043 27.7156 45.9043 31.2262C45.9043 37.0348 37.734 48.205 34.2234 52.8007C34.0957 52.9922 33.9043 53.1837 33.6489 53.3114C33.3298 53.5667 32.9468 53.6943 32.5 53.6943ZM32.5 20.5028C26.5 20.5028 21.6489 25.2901 21.6489 31.2262C21.6489 35.2475 27.2021 43.9284 32.5 50.822C37.7979 43.8645 43.3511 35.2475 43.3511 31.2262C43.3511 28.3539 42.2021 25.6731 40.1596 23.6305C38.117 21.6518 35.4362 20.5028 32.5 20.5028Z" fill="black"/>
<path d="M34.7233 41.6726H29.6807C28.9786 41.6726 28.4041 41.0981 28.4041 40.396C28.4041 39.6938 28.9786 39.1194 29.6807 39.1194H34.7233C35.4254 39.1194 35.9999 39.6938 35.9999 40.396C35.9999 41.0981 35.4254 41.6726 34.7233 41.6726Z" fill="black"/>
<path d="M34.7233 44.6097H29.6807C28.9786 44.6097 28.4041 44.0353 28.4041 43.3331C28.4041 42.631 28.9786 42.0565 29.6807 42.0565H34.7233C35.4254 42.0565 35.9999 42.631 35.9999 43.3331C35.9999 44.0353 35.4254 44.6097 34.7233 44.6097Z" fill="black"/>
<path d="M32.1703 36.1199C31.4682 36.1199 32.1061 36.1199 30.8937 36.1199V34.0778C30.8937 33.3757 31.4682 32.8012 32.1703 32.8012C32.8725 32.8012 33.4469 33.3757 33.4469 34.0778V36.1199C32.5513 36.1199 32.8725 36.1199 32.1703 36.1199Z" fill="black"/>
<path d="M34.7232 38.6731H29.6168C29.2338 38.6731 28.8509 38.4816 28.6594 38.2262C28.2126 37.7156 24.5743 33.056 25.7232 29.1624C26.17 27.6943 28.2126 25.3965 31.9785 25.2688C32.0424 25.2688 32.0424 25.2688 32.1062 25.2688H32.2977C32.3615 25.2688 32.3615 25.2688 32.4253 25.2688C36.1913 25.3965 38.2977 27.6943 38.6807 29.1624C39.8296 33.056 36.1275 37.7156 35.7445 38.2262C35.4892 38.4816 35.1062 38.6731 34.7232 38.6731ZM30.2551 36.1199H34.0849C35.1062 34.7156 36.7658 31.8433 36.1913 29.8645C36.0636 29.4816 34.9785 27.822 32.17 27.822C29.2977 27.8858 28.2126 29.4816 28.1487 29.8645C27.5743 31.7794 29.2338 34.7156 30.2551 36.1199Z" fill="black"/>
</svg>
