<svg width="60" height="66" viewBox="0 0 60 66" fill="none" xmlns="http://www.w3.org/2000/svg">
<g clip-path="url(#clip0_2921_23426)">
<path d="M30 64.2735C28.7234 64.2735 27.4468 63.9543 26.2979 63.316L3.95745 51.0607C1.53192 49.7203 0 47.1671 0 44.3586V20.3586C0 18.2522 0.893617 16.2735 2.3617 14.8054C2.87234 14.2947 3.70213 14.3586 4.14894 14.8692C4.65957 15.3798 4.59574 16.2096 4.08511 16.6564C3.12766 17.6139 2.55319 18.9543 2.55319 20.3586V44.3586C2.55319 46.2096 3.57447 47.933 5.17021 48.8267L27.5106 61.082C29.0426 61.9118 30.8936 61.9118 32.4255 61.082L54.766 48.8267C56.4255 47.933 57.4468 46.2096 57.4468 44.3586V20.3586C57.4468 19.0181 56.8723 17.6777 55.9149 16.7203C55.4043 16.2096 55.4043 15.4437 55.9149 14.933C56.4255 14.4224 57.1915 14.4224 57.7021 14.933C59.1702 16.3373 60 18.3798 60 20.4224V44.4224C60 47.2309 58.4681 49.7841 56.0426 51.1245L33.7021 63.3798C32.5532 63.9543 31.2766 64.2735 30 64.2735Z" fill="black"/>
<path d="M9.82984 13.1457C9.38303 13.1457 8.93622 12.8904 8.68091 12.5074C8.36176 11.8691 8.55325 11.1032 9.19154 10.784L26.2979 1.40105C28.5958 0.124455 31.3405 0.124455 33.6384 1.40105L50.7447 10.784C51.383 11.1032 51.5745 11.8691 51.2554 12.5074C50.9362 13.1457 50.1703 13.3372 49.532 13.0181L32.4256 3.63509C30.8937 2.80531 29.0426 2.80531 27.5107 3.63509L10.4681 13.0181C10.2766 13.0819 10.0852 13.1457 9.82984 13.1457Z" fill="black"/>
<path d="M50.1698 13.2097H9.82933C9.1272 13.2097 8.55273 12.6352 8.55273 11.9331C8.55273 11.231 9.1272 10.6565 9.82933 10.6565H50.1059C50.8081 10.6565 51.3825 11.231 51.3825 11.9331C51.3825 12.6352 50.8719 13.2097 50.1698 13.2097Z" fill="black"/>
<path d="M56.8083 17.0395H3.25511C2.55298 17.0395 1.97852 16.465 1.97852 15.7629C1.97852 15.0607 2.55298 14.4863 3.25511 14.4863H56.8083C57.5104 14.4863 58.0849 15.0607 58.0849 15.7629C58.0849 16.465 57.5104 17.0395 56.8083 17.0395Z" fill="black"/>
<path d="M27.8928 21.316C27.8289 21.316 27.8289 21.316 27.8928 21.316C27.1268 21.2522 26.5523 20.6777 26.6162 19.9756C26.6162 19.9118 26.6162 19.7841 26.6162 19.7203C26.6162 19.0181 27.1906 18.4437 27.8928 18.4437C28.5949 18.4437 29.1694 19.0181 29.1694 19.7203C29.1694 19.8479 29.1694 19.9756 29.1694 20.1032C29.1055 20.8054 28.5311 21.316 27.8928 21.316Z" fill="black"/>
<path d="M23.361 27.2522C22.8504 27.2522 22.4036 26.9969 22.2121 26.4862C21.9568 25.8479 22.2121 25.082 22.8504 24.8266C22.9781 24.7628 23.1695 24.699 23.2972 24.6352C23.9355 24.316 24.7015 24.5713 25.0206 25.2096C25.3398 25.8479 25.0844 26.6139 24.4461 26.933C24.2547 27.0607 24.0632 27.1245 23.8717 27.1883C23.6802 27.1883 23.5525 27.2522 23.361 27.2522ZM26.4887 24.8905C26.2334 24.8905 25.9142 24.8266 25.6589 24.6352C25.0844 24.1883 25.0206 23.3586 25.4674 22.8479C25.5312 22.7203 25.6589 22.5926 25.7227 22.4649C26.1057 21.8905 26.9355 21.7628 27.51 22.1458C28.0844 22.5288 28.2121 23.3586 27.8291 23.933C27.7015 24.1245 27.5738 24.316 27.4461 24.4437C27.1908 24.7628 26.8078 24.8905 26.4887 24.8905Z" fill="black"/>
<path d="M19.7864 28.0181C19.0842 28.0181 18.5098 27.4437 18.5098 26.7415C18.5098 26.0394 19.0842 25.4649 19.7864 25.4649C19.8502 25.4649 19.9779 25.4649 20.0417 25.4649C20.7438 25.4649 21.3183 25.9756 21.3821 26.6777C21.3821 27.3798 20.8715 27.9543 20.1693 28.0181C20.0417 28.0181 19.914 28.0181 19.7864 28.0181Z" fill="black"/>
<path d="M32.1067 21.3161C31.4045 21.3161 30.8939 20.8054 30.8301 20.1033C30.8301 19.9756 30.8301 19.848 30.8301 19.7203C30.8301 19.0182 31.4045 18.4437 32.1067 18.4437C32.8088 18.4437 33.3833 19.0182 33.3833 19.7203C33.3833 19.7842 33.3833 19.9118 33.3833 19.9756C33.4471 20.6778 32.8726 21.2522 32.1067 21.3161C32.1705 21.3161 32.1705 21.3161 32.1067 21.3161Z" fill="black"/>
<path d="M36.6385 27.2522C36.447 27.2522 36.3194 27.1884 36.1279 27.1245C35.9364 27.0607 35.7449 26.933 35.5534 26.8692C34.9151 26.5501 34.6598 25.7841 34.979 25.1458C35.2981 24.5075 36.0641 24.2522 36.7024 24.5713C36.83 24.6352 37.0215 24.699 37.1492 24.7628C37.7875 25.0181 38.1066 25.7841 37.7875 26.4224C37.596 26.933 37.1492 27.2522 36.6385 27.2522ZM33.5109 24.8905C33.1279 24.8905 32.7449 24.699 32.4896 24.4437C32.3619 24.2522 32.2343 24.1245 32.1066 23.933C31.7236 23.3586 31.8513 22.5288 32.4258 22.1458C33.0002 21.7628 33.83 21.8905 34.213 22.4649C34.2768 22.5926 34.4045 22.7203 34.4683 22.8479C34.9151 23.4224 34.8513 24.1883 34.2768 24.6352C34.0853 24.8266 33.83 24.8905 33.5109 24.8905Z" fill="black"/>
<path d="M40.2129 28.0182C40.0852 28.0182 39.9576 28.0182 39.8299 28.0182C39.1278 28.0182 38.5533 27.3799 38.6172 26.6778C38.6172 25.9756 39.1916 25.4012 39.9576 25.465C40.0214 25.465 40.1491 25.465 40.2129 25.465C40.915 25.465 41.4895 26.0395 41.4895 26.7416C41.4895 27.4437 40.915 28.0182 40.2129 28.0182Z" fill="black"/>
<path d="M30.0002 25.465C29.2981 25.465 28.7236 24.8905 28.7236 24.1884V23.8692C28.7236 23.1671 29.2981 22.5926 30.0002 22.5926C30.7024 22.5926 31.2768 23.1671 31.2768 23.8692V24.1884C31.2768 24.8905 30.7024 25.465 30.0002 25.465Z" fill="black"/>
<path d="M30.0002 29.2947C29.2981 29.2947 28.7236 28.7203 28.7236 28.0181V27.699C28.7236 26.9969 29.2981 26.4224 30.0002 26.4224C30.7024 26.4224 31.2768 26.9969 31.2768 27.699V28.0181C31.2768 28.7203 30.7024 29.2947 30.0002 29.2947Z" fill="black"/>
<path d="M16.5953 43.2096C16.2123 43.2096 15.8932 43.1458 15.574 43.0819C15.0634 42.9543 14.6804 42.5075 14.6166 41.933C14.2974 37.9117 16.7868 34.1458 19.34 32.4862C20.8719 31.5287 22.34 31.3372 23.4889 31.9755C24.2549 32.4223 25.2123 33.4436 25.1485 35.8053C25.1485 35.8692 25.1485 35.8692 25.1485 35.933C24.8932 38.1032 23.6804 40.0819 21.7017 41.4223C20.106 42.5713 18.1272 43.2096 16.5953 43.2096ZM22.0208 34.2096C21.7655 34.2096 21.3187 34.3372 20.7443 34.7202C19.0847 35.8053 17.4251 38.1032 17.1698 40.6564C17.9996 40.5287 19.1485 40.1458 20.2336 39.4436C21.1911 38.8053 22.4038 37.5926 22.5953 35.8053C22.5953 34.7841 22.4038 34.4011 22.2123 34.2734C22.1485 34.2096 22.0847 34.2096 22.0208 34.2096Z" fill="black"/>
<path d="M43.468 43.2097C41.9361 43.2097 40.0212 42.5714 38.4254 41.4863C36.4467 40.082 35.2339 38.1671 34.9786 35.9969C34.9786 35.9331 34.9786 35.9331 34.9786 35.8692C34.9148 33.5075 35.8722 32.4863 36.6382 32.0394C37.7871 31.4011 39.2552 31.5926 40.7871 32.5501C43.4041 34.2097 45.8297 37.9756 45.5105 41.9969C45.4467 42.5714 45.0637 43.0182 44.5531 43.1458C44.2339 43.2097 43.851 43.2097 43.468 43.2097ZM37.5318 35.7416C37.7871 37.5288 38.9361 38.7416 39.8935 39.3799C40.9148 40.082 42.0637 40.465 42.9573 40.5926C42.702 38.0394 41.0424 35.6777 39.3829 34.6565C38.6169 34.1458 38.0424 34.1458 37.9148 34.2097C37.7871 34.3373 37.5318 34.7203 37.5318 35.7416Z" fill="black"/>
<path d="M29.9995 36.1246C29.2974 36.1246 28.7229 35.5501 28.7229 34.848C28.7229 33.5714 27.7016 32.6139 26.4888 32.6139C25.5952 32.6139 24.7654 33.1884 24.3825 34.0182C24.1271 34.6565 23.3612 34.9756 22.7229 34.7203C22.0846 34.465 21.7654 33.699 22.0208 33.0607C22.7867 31.2735 24.5101 30.1246 26.4888 30.1246C29.1697 30.1246 31.2761 32.2948 31.2761 34.9118C31.2761 35.5501 30.7016 36.1246 29.9995 36.1246Z" fill="black"/>
<path d="M30.0002 50.2309C29.2981 50.2309 28.7236 49.6564 28.7236 48.9543V34.8479C28.7236 32.1671 30.8938 30.0607 33.5109 30.0607C35.4258 30.0607 37.213 31.2096 37.979 32.9969C38.2343 33.6352 37.979 34.4011 37.2768 34.6564C36.6385 34.9118 35.8726 34.6564 35.6173 33.9543C35.2343 33.1245 34.4683 32.5501 33.5109 32.5501C32.2343 32.5501 31.2768 33.5713 31.2768 34.7841V48.9543C31.2768 49.6564 30.7024 50.2309 30.0002 50.2309Z" fill="black"/>
<path d="M54.7658 51.5076H5.36156C4.65943 51.5076 4.08496 50.9331 4.08496 50.231C4.08496 49.5288 4.65943 48.9544 5.36156 48.9544H54.7658C55.4679 48.9544 56.0424 49.5288 56.0424 50.231C56.0424 50.9331 55.4679 51.5076 54.7658 51.5076Z" fill="black"/>
<path d="M33.0641 63.5076C32.8088 63.5076 32.6173 63.4438 32.362 63.3162L26.0428 59.231L20.1705 59.4225C19.4683 59.4225 18.8939 58.9119 18.83 58.2098C18.7662 57.5076 19.3407 56.9332 20.0428 56.8693L26.2981 56.6779C26.5535 56.6779 26.8088 56.7417 27.0003 56.8693L33.6386 61.1459C34.213 61.5289 34.4045 62.2949 34.0215 62.9332C33.8939 63.2523 33.5109 63.5076 33.0641 63.5076Z" fill="black"/>
<path d="M18.3824 57.699C17.9356 57.699 17.4888 57.4437 17.2335 56.9968L14.1696 50.9969C13.8505 50.3586 14.1058 49.5926 14.7441 49.2734C15.3824 48.9543 16.1483 49.2096 16.4675 49.8479L19.5313 55.8479C19.8505 56.4862 19.5952 57.2522 18.9569 57.5713C18.7654 57.6351 18.5739 57.699 18.3824 57.699Z" fill="black"/>
<path d="M26.426 59.2309C26.2345 59.2309 26.043 59.1671 25.8515 59.1032C25.2132 58.7841 24.9579 58.0181 25.277 57.3798L28.8515 50.1671C29.1707 49.5288 29.9366 49.2734 30.5749 49.5926C31.2132 49.9117 31.4685 50.6777 31.1494 51.316L27.5749 58.5288C27.3196 58.9756 26.8728 59.2309 26.426 59.2309Z" fill="black"/>
<path d="M31.787 62.8693C31.5317 62.8693 31.2764 62.8055 31.0211 62.614C30.4466 62.1672 30.3189 61.4012 30.7657 60.8267L38.7445 49.848C39.1913 49.2735 39.9572 49.1459 40.5317 49.5927C41.1062 50.0395 41.2338 50.8055 40.787 51.3799L32.8721 62.3586C32.6168 62.6778 32.2338 62.8693 31.787 62.8693Z" fill="black"/>
<path d="M42.4466 58.1459C42.2551 58.1459 41.9998 58.0821 41.8083 57.9544L38.1062 55.7842C37.4679 55.4012 37.2764 54.6353 37.6594 54.0608C38.0424 53.4225 38.8083 53.231 39.3828 53.614L43.0849 55.7842C43.7232 56.1672 43.9147 56.9331 43.5317 57.5076C43.3402 57.9544 42.8934 58.1459 42.4466 58.1459Z" fill="black"/>
</g>
<defs>
<clipPath id="clip0_2921_23426">
<rect width="60" height="65" fill="white" transform="translate(0 0.268799)"/>
</clipPath>
</defs>
</svg>
