<svg width="60" height="66" viewBox="0 0 60 66" fill="none" xmlns="http://www.w3.org/2000/svg">
<g clip-path="url(#clip0_2921_23427)">
<path d="M56.8051 50.2839C56.4856 50.2839 56.1022 50.1561 55.9105 49.9005C55.3994 49.3893 55.4633 48.5586 55.9744 48.1113C56.9968 47.1529 57.5719 45.811 57.5719 44.4053V20.3797C57.5719 18.5267 56.5495 16.8014 54.8882 15.9069L32.4601 3.63849C30.9265 2.80782 29.0735 2.80782 27.5399 3.63849L5.17572 15.9069C3.51438 16.8014 2.55591 18.5267 2.55591 20.3797V44.4053C2.55591 45.7471 3.13099 47.089 4.08946 48.0474C4.60064 48.5586 4.60064 49.3254 4.08946 49.8366C3.57827 50.3478 2.8115 50.3478 2.30032 49.8366C0.830671 48.4308 0 46.45 0 44.4053V20.3797C0 17.5682 1.53355 15.0123 3.96166 13.6704L26.3259 1.40207C28.6262 0.124115 31.3738 0.124115 33.6741 1.40207L56.0383 13.6704C58.4665 15.0123 60 17.5682 60 20.3797V44.4053C60 46.5139 59.1054 48.4947 57.6358 49.9644C57.4441 50.1561 57.1246 50.2839 56.8051 50.2839Z" fill="black"/>
<path d="M30.0323 64.3414C28.7543 64.3414 27.4764 64.0219 26.3262 63.3829L9.26549 53.9899C8.62651 53.6704 8.43482 52.9037 8.75431 52.2647C9.0738 51.6257 9.84057 51.434 10.4795 51.7535L27.6041 61.1465C29.1377 61.9772 30.9907 61.9772 32.5243 61.1465L49.6489 51.7535C50.2879 51.434 51.0546 51.6257 51.3741 52.2647C51.6936 52.9037 51.5019 53.6704 50.8629 53.9899L33.7383 63.3829C32.5882 64.0219 31.3102 64.3414 30.0323 64.3414Z" fill="black"/>
<path d="M50.2238 54.1178H9.84046C9.13758 54.1178 8.5625 53.5428 8.5625 52.8399C8.5625 52.137 9.13758 51.5619 9.84046 51.5619H50.1599C50.8628 51.5619 51.4379 52.137 51.4379 52.8399C51.4379 53.5428 50.9267 54.1178 50.2238 54.1178Z" fill="black"/>
<path d="M35.9104 58.0795H24.8561C24.1532 58.0795 23.5781 57.5044 23.5781 56.8015C23.5781 56.0986 24.1532 55.5236 24.8561 55.5236H35.9104C36.6133 55.5236 37.1883 56.0986 37.1883 56.8015C37.1883 57.5044 36.6133 58.0795 35.9104 58.0795Z" fill="black"/>
<path d="M56.8052 50.284H3.19495C2.49207 50.284 1.91699 49.7089 1.91699 49.006C1.91699 48.3032 2.49207 47.7281 3.19495 47.7281H56.8052C57.508 47.7281 58.0831 48.3032 58.0831 49.006C58.0831 49.7089 57.508 50.284 56.8052 50.284Z" fill="black"/>
<path d="M30.0309 56.9933C29.328 56.9933 28.7529 56.4182 28.7529 55.7153V31.3064C28.7529 30.6035 29.328 30.0284 30.0309 30.0284C30.7338 30.0284 31.3088 30.6035 31.3088 31.3064V55.7792C31.3088 56.4182 30.7338 56.9933 30.0309 56.9933Z" fill="black"/>
<path d="M32.8428 32.137C31.7565 32.137 30.7342 31.6898 29.9674 30.923C28.945 29.9006 28.4978 28.3671 28.8811 26.8974C29.584 24.3415 30.6703 22.2968 32.2677 20.7632C36.2933 16.7377 42.5553 16.7377 42.8109 16.8016C43.5137 16.8016 44.0888 17.3767 44.0888 18.0795C44.0888 18.3351 44.0888 24.661 40.1272 28.6227C38.5936 30.1562 36.485 31.3064 33.993 32.0093C33.6096 32.0731 33.2262 32.137 32.8428 32.137ZM41.4051 19.4214C39.5521 19.6131 36.2933 20.316 34.0569 22.5524C32.8428 23.7664 31.9482 25.4917 31.3732 27.5364C31.2454 28.1115 31.3732 28.6866 31.7565 29.07C32.1399 29.4533 32.715 29.645 33.2901 29.4533C35.3987 28.8783 37.0601 27.9837 38.2741 26.7696C40.5105 24.5332 41.2134 21.2744 41.4051 19.4214Z" fill="black"/>
<path d="M28.0504 35.9709C27.7309 35.9709 27.4753 35.907 27.1559 35.8431C25.3028 35.268 23.7693 34.3096 22.683 33.0316C19.8076 29.7728 19.8076 24.661 19.8076 24.4054C19.8076 23.7026 20.3827 23.1275 21.0856 23.1275C21.2773 23.1275 25.8779 23.1275 28.8172 26.4502C29.9035 27.7281 30.7341 29.3895 31.2453 31.4342C31.5648 32.776 31.1814 34.1179 30.223 35.0125C29.584 35.6514 28.8172 35.9709 28.0504 35.9709ZM22.4913 25.8751C22.683 27.3447 23.1942 29.7089 24.5999 31.3064C25.4306 32.2649 26.5169 32.9038 27.9226 33.3511C27.9865 33.3511 28.1782 33.415 28.4338 33.2233C28.6255 33.0316 28.8172 32.5843 28.7533 32.0732C28.3699 30.4118 27.7309 29.1339 26.9003 28.1754C25.5584 26.7057 23.7054 26.1307 22.4913 25.8751Z" fill="black"/>
<path d="M26.8365 47.153C26.1337 47.153 25.5586 46.5779 25.5586 45.875C25.5586 45.7472 25.5586 45.6194 25.5586 45.4916C25.6225 44.7888 26.1976 44.2137 26.9004 44.2776C27.6033 44.3415 28.1784 44.9166 28.1145 45.6194C28.1145 45.6833 28.1145 45.8111 28.1145 45.875C28.1145 46.5779 27.5394 47.153 26.8365 47.153Z" fill="black"/>
<path d="M27.9232 43.7025C27.6676 43.7025 27.412 43.6386 27.2203 43.5108C26.6452 43.1275 26.5174 42.2968 26.9008 41.7217C27.0286 41.53 27.1564 41.3383 27.2842 41.2105C27.7315 40.6354 28.5621 40.5715 29.0733 41.0188C29.6484 41.4661 29.7123 42.2968 29.265 42.808C29.2011 42.9358 29.0733 43.0636 29.0094 43.1914C28.7538 43.5108 28.3065 43.7025 27.9232 43.7025ZM30.8625 41.1466C30.4152 41.1466 29.9679 40.891 29.7123 40.4438C29.3928 39.8048 29.6484 39.038 30.2874 38.7185C30.4791 38.5907 30.6708 38.5268 30.8625 38.4629C31.5014 38.1434 32.2682 38.4629 32.5238 39.1019C32.7794 39.7409 32.5238 40.5077 31.8848 40.7632C31.757 40.8271 31.5653 40.891 31.4375 40.9549C31.2458 41.1466 31.0541 41.1466 30.8625 41.1466Z" fill="black"/>
<path d="M34.6324 40.1242C33.9296 40.1242 33.3545 39.613 33.3545 38.9102C33.3545 38.2073 33.8657 37.6322 34.5686 37.5683C34.6963 37.5683 34.8241 37.5683 34.9519 37.5683C35.6548 37.5683 36.2299 38.1434 36.2299 38.8463C36.2299 39.5491 35.6548 40.1242 34.9519 40.1242C34.8241 40.1242 34.7602 40.1242 34.6324 40.1242Z" fill="black"/>
<path d="M22.6207 47.153C21.9178 47.153 21.3427 46.5779 21.3427 45.875C21.3427 45.8111 21.3427 45.6833 21.3427 45.6194C21.2789 44.9166 21.8539 44.3415 22.5568 44.2776C23.2597 44.2137 23.8348 44.7888 23.8987 45.4916C23.8987 45.6194 23.8987 45.7472 23.8987 45.875C23.8987 46.5779 23.3236 47.153 22.6207 47.153Z" fill="black"/>
<path d="M21.5336 43.7026C21.1502 43.7026 20.7029 43.5109 20.4473 43.1275C20.3834 42.9997 20.2556 42.8719 20.1917 42.7441C19.7445 42.1691 19.8084 41.4023 20.3834 40.955C20.9585 40.5077 21.7253 40.5716 22.1726 41.1467C22.3004 41.3384 22.4282 41.4662 22.556 41.6579C22.9393 42.233 22.8115 43.0636 22.2365 43.447C21.9809 43.6387 21.7892 43.7026 21.5336 43.7026ZM18.5943 41.1467C18.4026 41.1467 18.2109 41.0828 18.0192 41.0189C17.8914 40.955 17.7636 40.8911 17.5719 40.8272C16.933 40.5716 16.6135 39.8048 16.933 39.1659C17.2524 38.5269 17.9553 38.2074 18.5943 38.5269C18.786 38.5908 18.9777 38.7186 19.1694 38.7825C19.8084 39.102 20.0639 39.8687 19.7445 40.5077C19.4889 40.8911 19.0416 41.1467 18.5943 41.1467Z" fill="black"/>
<path d="M14.825 40.1242C14.6972 40.1242 14.5694 40.1242 14.5055 40.1242C13.8026 40.1242 13.2275 39.5491 13.2275 38.8463C13.2275 38.1434 13.8026 37.5683 14.5055 37.5683C14.6333 37.5683 14.7611 37.5683 14.8889 37.5683C15.5918 37.5683 16.1668 38.2073 16.1029 38.9102C16.039 39.613 15.5279 40.1242 14.825 40.1242Z" fill="black"/>
<path d="M24.7291 42.9997C24.0263 42.9997 23.4512 42.4246 23.4512 41.7218V41.4023C23.4512 40.6994 24.0263 40.1243 24.7291 40.1243C25.432 40.1243 26.0071 40.6994 26.0071 41.4023V41.7218C26.0071 42.4246 25.432 42.9997 24.7291 42.9997Z" fill="black"/>
<path d="M24.7291 39.1659C24.0263 39.1659 23.4512 38.5908 23.4512 37.8879V37.5684C23.4512 36.8655 24.0263 36.2905 24.7291 36.2905C25.432 36.2905 26.0071 36.8655 26.0071 37.5684V37.8879C26.0071 38.5908 25.432 39.1659 24.7291 39.1659Z" fill="black"/>
</g>
<defs>
<clipPath id="clip0_2921_23427">
<rect width="60" height="65" fill="white" transform="translate(0 0.268799)"/>
</clipPath>
</defs>
</svg>
