<svg width="64" height="71" viewBox="0 0 64 71" fill="none" xmlns="http://www.w3.org/2000/svg">
<path d="M62.5 23.2049C62.5 20.3934 60.9665 17.8375 58.5383 16.4956L36.1741 4.22727C33.8738 2.94931 31.1262 2.94931 28.8259 4.22727L6.46166 16.4956C4.03355 17.8375 2.5 20.3934 2.5 23.2049V47.2305C2.5 50.042 4.03355 52.5979 6.46166 53.9397L28.8259 66.2081C29.976 66.8471 31.254 67.1666 32.5319 67.1666C33.8099 67.1666 35.0879 66.8471 36.1741 66.2081L58.5383 53.9397C60.4764 52.8688 61.8291 51.019 62.3026 48.888C62.4246 48.6541 62.4674 48.3966 62.438 48.1493C62.4744 47.8464 62.5 47.541 62.5 47.2305V23.2049ZM7.67572 18.7321L30.0399 6.46369C30.8706 6.0164 31.7013 5.82471 32.5319 5.82471C33.3626 5.82471 34.1933 6.0164 34.9601 6.46369L57.3243 18.7321C58.9856 19.6266 60.008 21.3519 60.008 23.2049V45.8752L55.2796 42.3742C54.3211 41.6714 53.1709 41.3519 52.0208 41.3519H45.3754C44.353 41.3519 43.4585 41.7353 42.7556 42.4381C42.0981 43.0956 41.7332 43.9787 41.6872 44.8745L37.1326 42.0547C37.1326 41.9908 37.0687 41.9269 37.0048 41.9269C36.3019 41.5436 35.5351 41.4158 34.7045 41.5436C33.8482 41.6995 33.0674 42.2132 32.5409 42.9206C32.0272 42.2132 31.254 41.6995 30.3594 41.5436C29.5927 41.4158 28.762 41.5436 28.0591 41.9269C28.0591 41.9908 27.9952 41.9908 27.9313 42.0547L23.4259 44.8439C23.3486 43.9659 22.9939 43.1877 22.3722 42.5659C21.6693 41.863 20.7109 41.4797 19.7524 41.4797H13.107C11.893 41.4797 10.8067 41.7991 9.78435 42.502L5.05591 45.9123V23.2049C5.05591 21.3519 6.01438 19.6266 7.67572 18.7321ZM5.33898 48.8669L11.254 44.6746C11.8291 44.2912 12.4681 44.0995 13.107 44.0995H19.8163C20.0719 44.0995 20.3914 44.2273 20.5831 44.419C20.7748 44.6107 20.9026 44.8662 20.9026 45.1857V45.2496C20.9026 45.8247 20.4553 46.3359 19.8163 46.3359H15.4712C14.7684 46.3359 14.1933 46.911 14.1933 47.6138C14.1933 48.3167 14.7684 48.8918 15.4712 48.8918H20.7109C21.3498 48.8918 21.9888 48.7001 22.5639 48.3806L29.3371 44.1634C29.4649 44.0995 29.6566 44.0356 29.9121 44.0995C30.2955 44.1634 30.615 44.4829 30.6789 44.8662C30.7428 45.1857 30.615 45.5691 30.3594 45.7608L20.2636 52.534C19.7524 52.8535 19.1134 53.0452 18.4744 53.0452H10.2955C10.2457 53.0452 10.1978 53.0541 10.1492 53.0599L7.67572 51.7033C6.56581 51.0816 5.74345 50.0547 5.33898 48.8669ZM34.9601 63.9717C33.4265 64.8023 31.5735 64.8023 30.0399 63.9717L14.7811 55.6011H18.4105C19.5607 55.6011 20.7109 55.2816 21.6054 54.6426L31.7652 47.8694L31.8291 47.8055C32.1019 47.6011 32.3358 47.3576 32.5319 47.0899C32.7281 47.3576 32.962 47.6011 33.2348 47.8055L33.2987 47.8694L43.4585 54.6426C44.4169 55.2816 45.5032 55.6011 46.6534 55.6011H50.2188L34.9601 63.9717ZM57.3243 51.7033L54.9594 53.0004C54.8968 52.9908 54.8335 52.9813 54.7684 52.9813H46.5895C45.9505 52.9813 45.3115 52.7896 44.8003 52.4701L34.7045 45.6969C34.4489 45.5052 34.3211 45.1218 34.385 44.8023C34.4489 44.419 34.7684 44.0995 35.1518 44.0356C35.4073 43.9717 35.599 44.0356 35.7268 44.0995L42.5 48.3806C43.0751 48.7001 43.7141 48.8918 44.353 48.8918H49.5927C50.2955 48.8918 50.8706 48.3167 50.8706 47.6138C50.8706 46.911 50.2955 46.3359 49.5927 46.3359H45.8572C45.6911 46.256 45.507 46.2081 45.3115 46.2081C44.7364 46.2081 44.2252 45.7608 44.2252 45.1218V45.0579C44.2252 44.8023 44.353 44.4829 44.5447 44.2912C44.7364 44.0995 44.992 43.9717 45.3115 43.9717H51.9569C52.5958 43.9717 53.2348 44.1634 53.746 44.5468L59.7256 48.8592C59.3179 50.0503 58.4815 51.0803 57.3243 51.7033Z" fill="black"/>
<path d="M22.7555 33.6202H17.7075C17.0047 33.6202 16.4296 34.1953 16.4296 34.8982C16.4296 35.6011 17.0047 36.1761 17.7075 36.1761H22.7555C23.4583 36.1761 24.0334 35.6011 24.0334 34.8982C24.0334 34.1953 23.4583 33.6202 22.7555 33.6202Z" fill="black"/>
<path d="M22.7556 36.4954H17.7076C17.0048 36.4954 16.4297 37.0704 16.4297 37.7733C16.4297 38.4762 17.0048 39.0513 17.7076 39.0513H22.7556C23.4584 39.0513 24.0335 38.4762 24.0335 37.7733C24.0335 37.0704 23.4584 36.4954 22.7556 36.4954Z" fill="black"/>
<path d="M17.6437 33.1092H22.7555C23.1389 33.1092 23.5223 32.9814 23.7779 32.6619C24.1612 32.1507 27.8673 27.4862 26.7172 23.5884C26.3338 22.1188 24.2251 19.8185 20.4552 19.6907C20.3913 19.6907 20.3913 19.6907 20.3274 19.6907H20.1357C20.0718 19.6907 20.0718 19.6907 20.0079 19.6907C16.2379 19.8185 14.1932 22.1188 13.7459 23.5884C12.5957 27.4862 16.2379 32.1507 16.6852 32.6619C16.8769 32.9175 17.2603 33.1092 17.6437 33.1092ZM16.174 24.2913C16.2379 23.9079 17.3242 22.3105 20.1996 22.2466C23.0111 22.2466 24.0973 23.9079 24.2251 24.2913C24.8002 26.2721 23.1389 29.1475 22.1165 30.5533H21.4775V28.5725C21.4775 27.8696 20.9025 27.2945 20.1996 27.2945C19.4967 27.2945 18.9216 27.8696 18.9216 28.5725V30.5533H18.2826C17.2603 29.1475 15.5989 26.2721 16.174 24.2913Z" fill="black"/>
<path d="M47.3561 33.6202H42.3082C41.6053 33.6202 41.0302 34.1953 41.0302 34.8982C41.0302 35.6011 41.6053 36.1761 42.3082 36.1761H47.3561C48.059 36.1761 48.6341 35.6011 48.6341 34.8982C48.6341 34.1953 48.059 33.6202 47.3561 33.6202Z" fill="black"/>
<path d="M47.3562 36.4954H42.3082C41.6054 36.4954 41.0303 37.0704 41.0303 37.7733C41.0303 38.4762 41.6054 39.0513 42.3082 39.0513H47.3562C48.059 39.0513 48.6341 38.4762 48.6341 37.7733C48.6341 37.0704 48.059 36.4954 47.3562 36.4954Z" fill="black"/>
<path d="M42.3087 33.1092H47.4205C47.8039 33.1092 48.1234 32.9814 48.4429 32.6619C48.8263 32.1507 52.5323 27.4862 51.3822 23.5884C50.9988 22.1188 48.8902 19.8185 45.1202 19.6907C45.0563 19.6907 45.0563 19.6907 44.9924 19.6907H44.8007C44.7368 19.6907 44.7368 19.6907 44.6729 19.6907C40.903 19.8185 38.8582 22.1188 38.4109 23.5884C37.2608 27.4862 40.903 32.1507 41.3502 32.6619C41.5419 32.9175 41.9253 33.1092 42.3087 33.1092ZM40.8391 24.2913C40.903 23.9079 41.9892 22.3105 44.8646 22.2466C47.6761 22.2466 48.7624 23.9079 48.8902 24.2913C49.4653 26.2721 47.8039 29.1475 46.7816 30.5533H46.1426V28.5725C46.1426 27.8696 45.5675 27.2945 44.8646 27.2945C44.1617 27.2945 43.5867 27.8696 43.5867 28.5725V30.5533H42.9477C41.8614 29.1475 40.2001 26.2721 40.8391 24.2913Z" fill="black"/>
</svg>
