<svg width="64" height="71" viewBox="0 0 64 71" fill="none" xmlns="http://www.w3.org/2000/svg">
<path d="M58.0383 16.4956L35.6741 4.22727C33.3738 2.94931 30.6262 2.94931 28.3259 4.22727L5.96166 16.4956C3.53355 17.8375 2 20.3934 2 23.2049V47.2305C2 50.042 3.53355 52.5979 5.96166 53.9397L28.3259 66.2081C29.476 66.8471 30.754 67.1666 32.0319 67.1666C33.3099 67.1666 34.5879 66.8471 35.6741 66.2081L58.0383 53.9397C60.4665 52.5979 62 50.042 62 47.2305V23.2049C62 20.3934 60.4665 17.8375 58.0383 16.4956ZM4.55591 47.2305V23.2049C4.55591 21.3519 5.51438 19.6266 7.17572 18.7321L29.5399 6.46369C30.3706 6.0164 31.2013 5.82471 32.0319 5.82471C32.8626 5.82471 33.6933 6.0164 34.4601 6.46369L56.8243 18.7321C58.4856 19.6266 59.508 21.3519 59.508 23.2049V28.5698C59.1815 26.6535 57.554 25.1953 55.5585 25.1289C56.7387 24.463 57.5272 23.2023 57.5272 21.7353C57.5272 19.5627 55.8019 17.8375 53.6294 17.8375C51.4569 17.8375 49.7316 19.5627 49.7316 21.7353C49.7316 23.2049 50.5227 24.4675 51.7061 25.1321C49.5559 25.2413 47.7508 27.1052 47.7508 29.2752V31.1819C47.2869 30.8579 46.7208 30.6809 46.1534 30.6809C44.7476 30.6809 43.2141 31.8311 43.2141 33.9397C43.2141 34.6426 43.7891 35.2177 44.492 35.2177C45.1949 35.2177 45.77 34.6426 45.77 33.9397C45.77 33.4285 45.9617 33.2369 46.1534 33.2369C46.2173 33.2369 46.2812 33.3007 46.2812 33.3007C46.3451 33.3646 46.4728 33.5563 46.4728 33.9397V37.9052L37.7783 38.0145C37.8332 35.6905 36.9649 33.6375 36.1284 32.2145H38.1022C38.8051 32.2145 39.3802 31.6394 39.3802 30.9365C39.3802 30.2337 38.8051 29.6586 38.1022 29.6586H33.3866C33.4339 28.7787 33.3981 27.9429 33.2767 27.1666H45.6422C46.3451 27.1666 46.9201 26.5276 46.8562 25.8886V23.8439C46.8562 23.141 46.2812 22.5659 45.5783 22.5659C44.8754 22.5659 44.3003 23.141 44.3003 23.8439V24.6107H34.2684V23.9078C34.2684 23.2049 33.6933 22.6298 32.9904 22.6298C32.4856 22.6298 32.0505 22.9289 31.8435 23.3563C31.561 22.9289 31.2492 22.5397 30.9131 22.1947C31.0403 22.2535 31.2141 22.3103 31.393 22.3103C31.9042 22.3103 32.3514 22.0547 32.607 21.5436L35.0351 16.1761L39.2383 13.2445L43.5335 16.24L45.9617 21.5436C46.1534 22.0547 46.6006 22.3103 47.1118 22.3103C47.3035 22.3103 47.4952 22.3103 47.6869 22.2464C48.3259 21.9269 48.6454 21.1602 48.3259 20.5212L45.77 14.8343C45.6422 14.6426 45.5144 14.4509 45.3227 14.3231L40.147 10.7448C39.9329 10.5787 39.6926 10.5014 39.4524 10.4982C39.1067 10.4215 38.7284 10.4765 38.4217 10.6809L33.246 14.2592C33.0543 14.387 32.9265 14.5787 32.7987 14.7704L30.2428 20.4573C30.0479 20.8471 30.0933 21.2835 30.3016 21.6381C29.63 21.088 28.8939 20.6854 28.1342 20.4573C25.77 19.7544 23.5974 20.3934 22.5751 20.8407C21.5527 20.3934 19.3802 19.7544 17.016 20.4573C14.0562 21.3276 11.5278 24.7333 11.7572 29.6586H6.28115C5.57827 29.6586 5.00319 30.2337 5.00319 30.9365C5.00319 31.6394 5.57827 32.2145 6.28115 32.2145H8.89393C7.95527 33.7966 6.97572 36.1928 7.30351 38.9238C7.65304 41.7774 9.33419 44.2592 12.2895 46.4183C10.6319 48.2285 9.87029 50.7717 9.93035 53.2151L7.17572 51.7033C5.57827 50.8087 4.55591 49.0835 4.55591 47.2305ZM37.6767 62.2068C36.078 58.0138 35.1597 50.5027 35.4058 43.9167C36.2965 42.8688 36.9438 41.757 37.3348 40.5749L55.2907 40.3295C54.7323 43.6177 54.8428 47.6356 55.6096 52.3698L37.6767 62.2068ZM29.6249 47.0471C31.9457 48.2234 33.1189 51.1206 32.6709 54.7065C32.4511 56.357 32.0422 57.4861 31.6607 58.1742L29.6249 47.0471ZM12.6217 54.6905C12.6192 54.6324 12.6179 54.5742 12.607 54.5148C11.8645 50.6886 13.6243 47.9397 15.8767 46.9416L14.3476 55.6375L12.6217 54.6905ZM17.655 22.9493C19.8275 22.3103 21.8722 23.3966 21.8722 23.3966C22.2556 23.5883 22.7029 23.5883 23.0863 23.3966C23.0863 23.3966 25.131 22.3103 27.3035 22.9493C29.2339 23.5346 30.9974 26.0509 30.7923 29.6586H14.2058C14.0128 26.0311 15.7527 23.5257 17.655 22.9493ZM35.1629 38.6043C34.8518 40.8452 33.3182 42.902 30.6409 44.7199C30.1783 44.4873 29.6863 44.3014 29.1668 44.1666C31.9776 42.1186 33.7955 38.817 33.7572 35.0899C33.7572 34.387 33.1821 33.8119 32.4792 33.8119C31.7764 33.8119 31.2013 34.387 31.2013 35.0899C31.2013 35.1889 31.1898 35.2848 31.1866 35.3832C31.0038 35.056 30.8128 34.5761 30.5623 33.8758C30.3879 33.3531 30.1974 32.7723 29.9355 32.2145H33.0422C33.7137 33.0918 35.5291 35.6758 35.1629 38.6043ZM14.3482 38.0413C15.7189 37.2228 16.2792 35.6515 16.6965 34.4509C17.2716 32.6618 17.5911 32.3423 18.2939 32.3423C18.522 32.3627 18.7342 32.311 18.922 32.2145H26.2498C26.3578 32.272 26.4728 32.3193 26.6 32.3423C27.3029 32.4701 27.6224 33.173 28.1335 34.6426C28.5329 35.8413 29.1323 37.5046 30.6249 38.1749C29.3776 41.4464 26.216 43.78 22.5112 43.78C18.7565 43.78 15.5597 41.3825 14.3482 38.0413ZM12.0089 32.2145H12.7891C12.9131 32.2541 13.0435 32.2784 13.1821 32.2784C13.3099 32.2784 13.3738 32.2784 13.246 32.3423C13.3776 32.3186 13.4997 32.2714 13.6147 32.2145H14.7911C14.5719 32.6963 14.407 33.1864 14.2684 33.6202C14.0965 34.1142 13.9463 34.5148 13.7962 34.8426C13.6799 34.2573 13.1617 33.8119 12.5431 33.8119C11.8403 33.8119 11.2652 34.387 11.2652 35.0899C11.2652 38.8445 13.124 42.1678 15.9623 44.2119C15.4032 44.3602 14.8792 44.5544 14.4 44.7998C11.6486 42.9781 10.1093 40.9154 9.85943 38.6682C9.48754 35.6394 11.3649 33.0145 12.0089 32.2145ZM22.5112 46.3359C23.3942 46.3359 24.2486 46.2253 25.0722 46.0356C24.8562 46.3583 24.6652 46.6816 24.492 46.9749C23.7891 48.2528 23.3419 48.8279 22.7029 48.8279C22.0639 48.8279 21.6166 48.2528 20.8498 46.9749C20.6901 46.7046 20.5137 46.4107 20.3144 46.1167C21.0256 46.2586 21.7591 46.3359 22.5112 46.3359ZM32.761 46.3333C32.7712 46.3257 32.7821 46.318 32.7923 46.3103C32.7923 46.3301 32.793 46.3493 32.793 46.3691C32.7821 46.357 32.7719 46.3448 32.761 46.3333ZM49.0064 33.4899C49.0141 33.4899 49.0211 33.4924 49.0288 33.4924H49.476V37.8675L49.0288 37.8733V33.9397C49.0288 33.7813 49.0205 33.6317 49.0064 33.4899ZM50.754 30.9365H50.3067V29.2752C50.3067 28.5723 51.0735 27.6777 51.9042 27.6777H55.4185C56.3131 27.6777 57.016 28.3806 57.016 29.2752V30.9365H56.5687C55.8658 30.9365 55.2907 31.5116 55.2907 32.2145V37.7947L52.032 37.8356V32.2145C52.032 31.5116 51.4569 30.9365 50.754 30.9365ZM52.2875 21.7992C52.2875 21.0324 52.8626 20.4573 53.6294 20.4573C54.3962 20.4573 54.9712 21.0324 54.9712 21.7992C54.9712 22.5659 54.3962 23.141 53.6294 23.141C52.8626 23.141 52.2875 22.5659 52.2875 21.7992ZM16.692 56.9238L18.2939 47.8119C18.3917 47.9634 18.4971 48.1301 18.6134 48.3167C19.4441 49.6586 20.4665 51.4477 22.7029 51.4477C24.9393 51.4477 25.9617 49.6586 26.7284 48.3167C26.8907 48.0356 27.0275 47.8126 27.1546 47.6126L30.2019 64.2675C29.9764 64.1838 29.7546 64.088 29.5399 63.9717L16.692 56.9238ZM32.8217 64.5206L32.2147 61.2036C33.0454 60.7263 33.6435 59.8477 34.0767 58.872C34.4575 60.6113 34.9137 62.1634 35.4294 63.4394L34.4601 63.9717C33.9425 64.2522 33.3879 64.4292 32.8217 64.5206ZM57.993 50.8343C57.338 46.1774 57.3604 42.311 58.1661 39.4349C58.2939 38.9876 58.23 38.6043 57.9744 38.2848C57.9361 38.2369 57.8901 38.1985 57.8466 38.1563V33.4924H58.2939C58.8645 33.4924 59.3451 33.111 59.508 32.5921V47.2305C59.508 48.5953 58.9495 49.8886 57.993 50.8343Z" fill="black"/>
<path d="M39.317 44.2915H51.6493C52.3522 44.2915 52.9911 43.7164 52.9911 43.0136C52.9911 42.3107 52.4161 41.7356 51.7132 41.7356H39.317C38.6141 41.7356 38.0391 42.3107 38.0391 43.0136C38.0391 43.7164 38.6141 44.2915 39.317 44.2915Z" fill="black"/>
<path d="M47.0475 50.6802H51.9037C52.6066 50.6802 53.1817 50.1051 53.1817 49.4022C53.1817 48.6993 52.6066 48.1243 51.9037 48.1243H47.0475C46.3446 48.1243 45.7695 48.6993 45.7695 49.4022C45.7695 50.1051 46.3446 50.6802 47.0475 50.6802Z" fill="black"/>
<path d="M52.224 51.3196H47.3678C46.6649 51.3196 46.0898 51.8947 46.0898 52.5975C46.0898 53.3004 46.6649 53.8755 47.3678 53.8755H52.224C52.9269 53.8755 53.502 53.3004 53.502 52.5975C53.502 51.8947 52.9269 51.3196 52.224 51.3196Z" fill="black"/>
<path d="M39.317 47.4849H51.6493C52.3522 47.4849 52.9911 46.9098 52.9911 46.2069C52.9911 45.504 52.4161 44.929 51.7132 44.929H39.317C38.6141 44.929 38.0391 45.504 38.0391 46.2069C38.0391 46.9098 38.6141 47.4849 39.317 47.4849Z" fill="black"/>
<path d="M42.5746 48.2524C41.6161 48.1247 40.7216 48.3163 39.9548 48.8275C39.2519 49.3387 38.7407 50.1694 38.549 51.064C38.4059 51.894 38.5855 52.7227 38.9912 53.4147L37.6545 56.4953C37.4628 56.9425 37.5906 57.5176 37.974 57.901C38.2296 58.0927 38.549 58.2205 38.8685 58.2205C39.0602 58.2205 39.2519 58.1566 39.4436 58.0927L40.7286 57.4505L41.6161 58.4122C41.8717 58.7317 42.1912 58.8595 42.5746 58.8595C42.7663 58.8595 42.8941 58.8595 43.0219 58.8595C43.4692 58.6678 43.8526 58.2205 43.8526 57.7093L44.0155 54.4499C44.6986 53.9342 45.2136 53.1758 45.3861 52.278C45.7056 50.425 44.4276 48.5719 42.5746 48.2524ZM41.4883 50.9362C41.6161 50.8084 41.8078 50.7445 41.9995 50.7445C41.9995 50.7445 42.0634 50.7445 42.1912 50.8084C42.6385 50.9362 42.958 51.3834 42.8941 51.8946C42.7663 52.3419 42.319 52.6614 41.8078 52.5975C41.3605 52.4697 41.0411 52.0224 41.105 51.5112C41.1689 51.2556 41.2967 51.0639 41.4883 50.9362Z" fill="black"/>
<path d="M26.4083 40.0732C26.4722 39.3703 25.9611 38.7314 25.2582 38.6675C24.6192 38.6036 24.108 39.0509 23.9163 39.6259C23.8524 39.6898 23.5329 39.8815 22.7662 39.8815C22.0633 39.8815 21.7438 39.7537 21.6799 39.6898C21.4882 39.1147 20.977 38.6675 20.3381 38.7314C19.6352 38.7314 19.0601 39.3703 19.124 40.0732C19.124 40.1371 19.3157 42.4374 22.7023 42.4374C25.386 42.4374 26.2167 40.9678 26.4083 40.0732Z" fill="black"/>
<path d="M19.7633 34.7066C19.7633 34.1066 19.2771 33.6204 18.6771 33.6204C18.0771 33.6204 17.5908 34.1066 17.5908 34.7066C17.5908 35.3066 18.0771 35.7929 18.6771 35.7929C19.2771 35.7929 19.7633 35.3066 19.7633 34.7066Z" fill="black"/>
<path d="M26.4085 35.7929C27.0085 35.7929 27.4948 35.3065 27.4948 34.7066C27.4948 34.1067 27.0085 33.6204 26.4085 33.6204C25.8086 33.6204 25.3223 34.1067 25.3223 34.7066C25.3223 35.3065 25.8086 35.7929 26.4085 35.7929Z" fill="black"/>
</svg>
