<svg width="64" height="71" viewBox="0 0 64 71" fill="none" xmlns="http://www.w3.org/2000/svg">
<path d="M38.3966 59.7863L36.6646 60.7371C36.6646 60.7371 36.6634 60.7383 36.6622 60.7389L34.7676 61.7786C33.3583 62.5516 31.6748 62.5516 30.2655 61.7786L9.79893 50.543C8.30136 49.7214 7.37159 48.1502 7.37159 46.4421V34.2095L10.527 37.4286C10.7562 37.6619 11.0591 37.7794 11.362 37.7794C11.6573 37.7794 11.9532 37.6683 12.1807 37.4455C12.642 36.9935 12.6496 36.2526 12.197 35.7913L7.13768 30.629C6.89676 30.3834 6.57398 30.2705 6.2547 30.2834C6.23715 30.2828 6.2202 30.2781 6.20207 30.2781C5.74771 30.2781 5.35826 30.5401 5.1647 30.919L0.359729 35.5299C-0.106325 35.9778 -0.121529 36.7175 0.325813 37.1836C0.773154 37.6496 1.51346 37.6654 1.97951 37.2181L5.03255 34.2873V46.4421C5.03255 49.0039 6.4272 51.3605 8.67268 52.5932L29.1393 63.8287C30.1965 64.4094 31.3567 64.6995 32.5163 64.6995C33.6759 64.6995 34.836 64.4094 35.8927 63.8287L37.7885 62.7885L37.7902 62.7879L39.5223 61.8371C40.0883 61.5265 40.2953 60.8155 39.9842 60.2488C39.6743 59.6834 38.9633 59.4746 38.3966 59.7863Z" fill="black"/>
<path d="M56.3599 18.3206C56.2856 18.2797 56.209 18.2493 56.1312 18.2259C56.088 18.2008 56.0464 18.1733 56.002 18.1493L54.0676 17.0874C53.5004 16.7757 52.7905 16.9833 52.4794 17.5493C52.1683 18.1154 52.3753 18.8264 52.9414 19.1375L54.8763 20.2C56.5791 21.1351 57.6376 22.9496 57.6376 24.9354V46.0049C57.6376 47.9879 56.5827 49.7989 54.8839 50.7356L46.1716 55.5184L47.4546 51.3789C47.6458 50.762 47.3008 50.107 46.6838 49.9158C46.0675 49.7234 45.4114 50.0696 45.2208 50.6865L43.0811 57.5914C43.0805 57.5931 43.0805 57.5955 43.08 57.5972C43.0624 57.6545 43.0525 57.713 43.0443 57.7721C43.042 57.7896 43.0361 57.8077 43.0343 57.8253C43.0343 57.827 43.0338 57.8288 43.0338 57.8305C43.0303 57.8697 43.0338 57.9095 43.0343 57.9492C43.0349 57.9837 43.0314 58.0188 43.0349 58.0533C43.0379 58.0796 43.046 58.106 43.0501 58.1323C43.0583 58.1808 43.0653 58.2293 43.0794 58.2755C43.0864 58.2978 43.0975 58.3194 43.1063 58.3416C43.125 58.3919 43.1437 58.4416 43.1688 58.489C43.1706 58.4925 43.1718 58.4966 43.1735 58.5001C43.1788 58.5094 43.187 58.5165 43.1922 58.5258C43.2338 58.5972 43.284 58.6632 43.3402 58.7246C43.3577 58.7439 43.3753 58.7626 43.394 58.7808C43.4542 58.8381 43.5191 58.8901 43.5922 58.934C43.6004 58.9392 43.608 58.9463 43.6168 58.9509C43.6869 58.9913 43.7612 59.0252 43.8407 59.0509L50.614 61.228C50.7333 61.266 50.8538 61.2847 50.9719 61.2847C51.4666 61.2847 51.9262 60.9684 52.0853 60.4725C52.2829 59.8573 51.9443 59.1983 51.3298 59.0006L47.1429 57.6551L56.0026 52.7911C56.0108 52.7864 56.0178 52.7817 56.026 52.777L56.3593 52.594C58.6048 51.3607 60 49.0042 60 46.4423V24.4717C60 21.9105 58.6048 19.5533 56.3599 18.3206Z" fill="black"/>
<path d="M49.4781 15.0782L47.5472 8.23129C47.3724 7.61027 46.7274 7.24831 46.104 7.42315C45.483 7.59858 45.1205 8.24415 45.2959 8.86634L46.4239 12.8655L35.8924 7.08399C33.7785 5.92383 31.2535 5.92383 29.139 7.08399L8.67236 18.3196C6.42688 19.5528 5.03223 21.91 5.03223 24.4712V25.3653C5.03223 26.0109 5.55617 26.5349 6.20175 26.5349C6.84732 26.5349 7.37127 26.0109 7.37127 25.3653V24.4712C7.37127 22.7637 8.30104 21.1925 9.79802 20.3703L30.2646 9.13474C31.6751 8.36111 33.358 8.36111 34.7673 9.13474L45.4842 15.018L41.0868 16.308C40.4669 16.4899 40.112 17.1395 40.2944 17.7594C40.4441 18.2693 40.9102 18.6003 41.416 18.6003C41.5254 18.6003 41.6359 18.5851 41.7458 18.5523L48.6816 16.5173C49.2968 16.3372 49.6524 15.6952 49.4781 15.0782Z" fill="black"/>
<path d="M16.7119 33.4705C16.7119 31.5759 18.1153 30.1163 20.6702 30.1163C23.5197 30.1163 25.0494 31.9127 25.0494 35.085C25.0494 38.0884 23.7863 40.2783 20.5017 40.2783C19.5755 40.2783 17.3019 39.8994 17.3019 38.4533C17.3019 37.7375 17.7931 37.2744 18.4808 37.2744C19.4071 37.2744 19.772 38.2568 20.6006 38.2568C21.8917 38.2568 22.1584 37.12 22.1584 35.871C21.5549 36.4043 20.8672 36.6007 20.1088 36.6007C18.1153 36.6002 16.7119 35.4774 16.7119 33.4705ZM20.7678 32.2215C19.9684 32.2215 19.5188 32.839 19.5188 33.4846C19.5188 34.2424 19.9819 34.7476 20.7678 34.7476C21.5824 34.7476 22.0315 34.1161 22.0315 33.4846C22.0315 32.8384 21.5824 32.2215 20.7678 32.2215Z" fill="black"/>
<path d="M30.2557 30.1144C32.9783 30.1144 34.4098 32.0511 34.4098 35.1533C34.4098 38.8723 32.6696 40.2763 30.2557 40.2763C27.8418 40.2763 26.1016 38.8729 26.1016 35.1533C26.101 32.0517 27.5331 30.1144 30.2557 30.1144ZM30.2557 32.3037C29.3435 32.3037 28.9926 33.2165 28.9926 35.1948C28.9926 37.5525 29.4423 38.0858 30.2557 38.0858C31.0703 38.0858 31.5188 37.5525 31.5188 35.1948C31.5188 33.2165 31.1679 32.3037 30.2557 32.3037Z" fill="black"/>
<path d="M35.6582 32.6694C35.6582 31.2238 36.3318 30.1151 38.0861 30.1151C39.841 30.1151 40.5006 31.2238 40.5006 32.6694V33.343C40.5006 34.6482 39.7428 35.8136 38.0861 35.8136C36.4166 35.8136 35.6582 34.6488 35.6582 33.343V32.6694ZM38.0861 31.2946C37.4131 31.2946 37.3429 32.0378 37.3429 32.9641C37.3429 33.8903 37.4131 34.6341 38.0861 34.6341C38.7463 34.6341 38.8165 33.8903 38.8165 32.9641C38.8165 32.0378 38.7463 31.2946 38.0861 31.2946ZM43.4063 30.6484C43.8273 29.7923 44.0378 29.7081 44.4167 29.7081C44.7816 29.7081 45.0904 30.0871 45.0904 30.2976C45.0904 30.4245 45.0342 30.6063 44.9079 30.8595L40.5152 39.7438C40.0936 40.5999 39.8831 40.6835 39.5042 40.6835C39.1393 40.6835 38.8305 40.3052 38.8305 40.0941C38.8305 39.9677 38.8867 39.7853 39.013 39.5327L43.4063 30.6484ZM43.4197 37.1328C43.4197 35.6867 44.0934 34.5786 45.8476 34.5786C47.6019 34.5786 48.2621 35.6873 48.2621 37.1328V37.8065C48.2621 39.1117 47.5037 40.2771 45.8476 40.2771C44.1776 40.2771 43.4197 39.1122 43.4197 37.8065V37.1328ZM45.8482 35.7575C45.1746 35.7575 45.105 36.5013 45.105 37.4275C45.105 38.3538 45.1746 39.0976 45.8482 39.0976C46.5078 39.0976 46.578 38.3538 46.578 37.4275C46.578 36.5013 46.5078 35.7575 45.8482 35.7575Z" fill="black"/>
</svg>
