<svg width="64" height="71" viewBox="0 0 64 71" fill="none" xmlns="http://www.w3.org/2000/svg">
<path d="M38.3966 59.7863L36.6646 60.7371C36.6646 60.7371 36.6634 60.7383 36.6622 60.7389L34.7676 61.7786C33.3583 62.5516 31.6748 62.5516 30.2655 61.7786L9.79893 50.543C8.30136 49.7214 7.37159 48.1501 7.37159 46.4421V34.2095L10.527 37.4286C10.7562 37.6619 11.0591 37.7794 11.362 37.7794C11.6573 37.7794 11.9532 37.6683 12.1807 37.4455C12.642 36.9935 12.6496 36.2526 12.197 35.7912L7.13768 30.629C6.89676 30.3834 6.57398 30.2705 6.2547 30.2834C6.23715 30.2828 6.2202 30.2781 6.20207 30.2781C5.74771 30.2781 5.35826 30.5401 5.1647 30.919L0.359729 35.5299C-0.106325 35.9778 -0.121529 36.7175 0.325813 37.1836C0.773154 37.6496 1.51346 37.6654 1.97951 37.2181L5.03255 34.2872V46.4421C5.03255 49.0039 6.4272 51.3605 8.67268 52.5932L29.1393 63.8287C30.1965 64.4094 31.3567 64.6994 32.5163 64.6994C33.6759 64.6994 34.836 64.4094 35.8927 63.8287L37.7885 62.7884L37.7902 62.7879L39.5223 61.837C40.0883 61.5265 40.2953 60.8155 39.9842 60.2488C39.6743 59.6834 38.9633 59.4746 38.3966 59.7863Z" fill="black"/>
<path d="M56.3599 18.3206C56.2856 18.2797 56.209 18.2493 56.1312 18.2259C56.088 18.2008 56.0464 18.1733 56.002 18.1493L54.0676 17.0874C53.5004 16.7757 52.7905 16.9833 52.4794 17.5493C52.1683 18.1154 52.3753 18.8264 52.9414 19.1375L54.8763 20.2C56.5791 21.1351 57.6376 22.9496 57.6376 24.9354V46.0049C57.6376 47.9879 56.5827 49.7989 54.8839 50.7356L46.1716 55.5184L47.4546 51.3789C47.6458 50.762 47.3008 50.107 46.6838 49.9158C46.0675 49.7234 45.4114 50.0696 45.2208 50.6865L43.0811 57.5914C43.0805 57.5931 43.0805 57.5955 43.08 57.5972C43.0624 57.6545 43.0525 57.713 43.0443 57.7721C43.042 57.7896 43.0361 57.8077 43.0343 57.8253C43.0343 57.827 43.0338 57.8288 43.0338 57.8305C43.0303 57.8697 43.0338 57.9095 43.0343 57.9492C43.0349 57.9837 43.0314 58.0188 43.0349 58.0533C43.0379 58.0796 43.046 58.106 43.0501 58.1323C43.0583 58.1808 43.0653 58.2293 43.0794 58.2755C43.0864 58.2978 43.0975 58.3194 43.1063 58.3416C43.125 58.3919 43.1437 58.4416 43.1688 58.489C43.1706 58.4925 43.1718 58.4966 43.1735 58.5001C43.1788 58.5094 43.187 58.5165 43.1922 58.5258C43.2338 58.5972 43.284 58.6632 43.3402 58.7246C43.3577 58.7439 43.3753 58.7626 43.394 58.7808C43.4542 58.8381 43.5191 58.8901 43.5922 58.934C43.6004 58.9392 43.608 58.9463 43.6168 58.9509C43.6869 58.9913 43.7612 59.0252 43.8407 59.0509L50.614 61.228C50.7333 61.266 50.8538 61.2847 50.9719 61.2847C51.4666 61.2847 51.9262 60.9684 52.0853 60.4725C52.2829 59.8573 51.9443 59.1983 51.3298 59.0006L47.1429 57.6551L56.0026 52.7911C56.0108 52.7864 56.0178 52.7817 56.026 52.777L56.3593 52.594C58.6048 51.3607 60 49.0042 60 46.4423V24.4717C60 21.9105 58.6048 19.5533 56.3599 18.3206Z" fill="black"/>
<path d="M49.4781 15.0782L47.5472 8.23129C47.3724 7.61027 46.7274 7.24831 46.104 7.42315C45.483 7.59858 45.1205 8.24415 45.2959 8.86634L46.4239 12.8655L35.8924 7.08399C33.7785 5.92383 31.2535 5.92383 29.139 7.08399L8.67236 18.3196C6.42688 19.5528 5.03223 21.91 5.03223 24.4712V25.3653C5.03223 26.0109 5.55617 26.5349 6.20175 26.5349C6.84732 26.5349 7.37127 26.0109 7.37127 25.3653V24.4712C7.37127 22.7637 8.30104 21.1925 9.79802 20.3703L30.2646 9.13474C31.6751 8.36111 33.358 8.36111 34.7673 9.13474L45.4842 15.018L41.0868 16.308C40.4669 16.4899 40.112 17.1395 40.2944 17.7594C40.4441 18.2693 40.9102 18.6003 41.416 18.6003C41.5254 18.6003 41.6359 18.5851 41.7458 18.5523L48.6816 16.5173C49.2968 16.3372 49.6524 15.6952 49.4781 15.0782Z" fill="black"/>
<path d="M23.7574 37.7368C24.5988 37.7368 24.9503 38.1719 24.9503 38.9157C24.9503 39.6595 24.5988 40.0951 23.7574 40.0951H18.0308C17.287 40.0951 16.8379 39.5338 16.8379 38.9303C16.8379 38.0602 17.0478 37.6111 19.6307 35.8147L20.964 34.8884C21.6516 34.4113 21.9037 34.0183 21.9037 33.4423C21.9037 32.7546 21.4405 32.3056 20.6827 32.3056C19.0828 32.3056 19.9108 34.2563 18.3249 34.2563C17.3139 34.2563 16.949 33.6949 16.949 32.895C16.949 31.5477 18.2688 30.1162 20.7663 30.1162C23.7562 30.1162 24.7947 31.7442 24.7947 33.302C24.7947 34.4814 24.2053 35.3229 22.9562 36.1094L20.4155 37.7093V37.7368H23.7574Z" fill="black"/>
<path d="M28.8378 34.0731C29.5956 33.6661 29.9886 33.5819 30.8306 33.5819C32.5007 33.5819 34.1567 34.452 34.1567 36.7121C34.1567 39.2523 32.1639 40.2774 29.6933 40.2774C28.4302 40.2774 26.3525 39.7856 26.3525 38.2699C26.3525 37.5822 26.956 37.1331 27.7004 37.1331C28.753 37.1331 28.753 38.0874 29.8336 38.0874C30.83 38.0874 31.2651 37.3857 31.2651 36.7682C31.2651 35.9963 30.647 35.3508 29.8617 35.3508C29.0617 35.3508 28.753 35.8981 27.756 35.8981C27.2648 35.8981 26.4367 35.6876 26.4367 34.7052C26.4367 34.1158 26.7595 32.3474 26.942 31.5048C27.1385 30.5645 27.5168 30.2979 28.5138 30.2979H32.3036C33.1317 30.2979 33.5527 30.7329 33.5527 31.4346C33.5527 32.1363 33.1317 32.5714 32.3036 32.5714H29.1033L28.8378 34.0731Z" fill="black"/>
<path d="M35.6572 32.6692C35.6572 31.2237 36.3309 30.115 38.0852 30.115C39.84 30.115 40.4996 31.2237 40.4996 32.6692V33.3429C40.4996 34.6481 39.7418 35.8135 38.0852 35.8135C36.4157 35.8135 35.6572 34.6486 35.6572 33.3429V32.6692ZM38.0852 31.2945C37.4121 31.2945 37.3419 32.0377 37.3419 32.964C37.3419 33.8902 37.4121 34.634 38.0852 34.634C38.7453 34.634 38.8155 33.8902 38.8155 32.964C38.8155 32.0377 38.7453 31.2945 38.0852 31.2945ZM43.4053 30.6483C43.8263 29.7922 44.0368 29.708 44.4158 29.708C44.7807 29.708 45.0894 30.0869 45.0894 30.2974C45.0894 30.4243 45.0333 30.6062 44.907 30.8594L40.5142 39.7437C40.0926 40.5998 39.8821 40.6834 39.5032 40.6834C39.1383 40.6834 38.8295 40.305 38.8295 40.0939C38.8295 39.9676 38.8857 39.7852 39.012 39.5326L43.4053 30.6483ZM43.4187 37.1327C43.4187 35.6866 44.0924 34.5785 45.8467 34.5785C47.6009 34.5785 48.2611 35.6872 48.2611 37.1327V37.8064C48.2611 39.1115 47.5027 40.277 45.8467 40.277C44.1766 40.277 43.4187 39.1121 43.4187 37.8064V37.1327ZM45.8473 35.7574C45.1736 35.7574 45.104 36.5012 45.104 37.4274C45.104 38.3537 45.1736 39.0975 45.8473 39.0975C46.5069 39.0975 46.577 38.3537 46.577 37.4274C46.577 36.5012 46.5069 35.7574 45.8473 35.7574Z" fill="black"/>
</svg>
