<svg width="64" height="71" viewBox="0 0 64 71" fill="none" xmlns="http://www.w3.org/2000/svg">
<path d="M38.3966 59.7863L36.6646 60.7371C36.6646 60.7371 36.6634 60.7383 36.6622 60.7388L34.7676 61.7785C33.3583 62.5516 31.6748 62.5516 30.2655 61.7785L9.79893 50.543C8.30136 49.7214 7.37159 48.1501 7.37159 46.442V34.2094L10.527 37.4286C10.7562 37.6619 11.0591 37.7794 11.362 37.7794C11.6573 37.7794 11.9532 37.6683 12.1807 37.4455C12.642 36.9935 12.6496 36.2526 12.197 35.7912L7.13768 30.629C6.89676 30.3834 6.57398 30.2705 6.2547 30.2834C6.23715 30.2828 6.2202 30.2781 6.20207 30.2781C5.74771 30.2781 5.35826 30.5401 5.1647 30.919L0.359729 35.5298C-0.106325 35.9778 -0.121529 36.7175 0.325813 37.1835C0.773154 37.6496 1.51346 37.6654 1.97951 37.218L5.03255 34.2872V46.442C5.03255 49.0039 6.4272 51.3605 8.67268 52.5931L29.1393 63.8287C30.1965 64.4094 31.3567 64.6994 32.5163 64.6994C33.6759 64.6994 34.836 64.4094 35.8927 63.8287L37.7885 62.7884L37.7902 62.7878L39.5223 61.837C40.0883 61.5265 40.2953 60.8155 39.9842 60.2488C39.6743 59.6834 38.9633 59.4746 38.3966 59.7863Z" fill="black"/>
<path d="M56.3599 18.3206C56.2856 18.2797 56.209 18.2493 56.1312 18.2259C56.088 18.2008 56.0464 18.1733 56.002 18.1493L54.0676 17.0874C53.5004 16.7757 52.7905 16.9833 52.4794 17.5493C52.1683 18.1154 52.3753 18.8264 52.9414 19.1375L54.8763 20.2C56.5791 21.1351 57.6376 22.9496 57.6376 24.9354V46.0049C57.6376 47.9879 56.5827 49.7989 54.8839 50.7356L46.1716 55.5184L47.4546 51.3789C47.6458 50.762 47.3008 50.107 46.6838 49.9158C46.0675 49.7234 45.4114 50.0696 45.2208 50.6865L43.0811 57.5914C43.0805 57.5931 43.0805 57.5955 43.08 57.5972C43.0624 57.6545 43.0525 57.713 43.0443 57.7721C43.042 57.7896 43.0361 57.8077 43.0343 57.8253C43.0343 57.827 43.0338 57.8288 43.0338 57.8305C43.0303 57.8697 43.0338 57.9095 43.0343 57.9492C43.0349 57.9837 43.0314 58.0188 43.0349 58.0533C43.0379 58.0796 43.046 58.106 43.0501 58.1323C43.0583 58.1808 43.0653 58.2293 43.0794 58.2755C43.0864 58.2978 43.0975 58.3194 43.1063 58.3416C43.125 58.3919 43.1437 58.4416 43.1688 58.489C43.1706 58.4925 43.1718 58.4966 43.1735 58.5001C43.1788 58.5094 43.187 58.5165 43.1922 58.5258C43.2338 58.5972 43.284 58.6632 43.3402 58.7246C43.3577 58.7439 43.3753 58.7626 43.394 58.7808C43.4542 58.8381 43.5191 58.8901 43.5922 58.934C43.6004 58.9392 43.608 58.9463 43.6168 58.9509C43.6869 58.9913 43.7612 59.0252 43.8407 59.0509L50.614 61.228C50.7333 61.266 50.8538 61.2847 50.9719 61.2847C51.4666 61.2847 51.9262 60.9684 52.0853 60.4725C52.2829 59.8573 51.9443 59.1983 51.3298 59.0006L47.1429 57.6551L56.0026 52.7911C56.0108 52.7864 56.0178 52.7817 56.026 52.777L56.3593 52.594C58.6048 51.3607 60 49.0042 60 46.4423V24.4717C60 21.9105 58.6048 19.5533 56.3599 18.3206Z" fill="black"/>
<path d="M49.4781 15.0782L47.5472 8.23129C47.3724 7.61027 46.7274 7.24831 46.104 7.42315C45.483 7.59858 45.1205 8.24415 45.2959 8.86634L46.4239 12.8655L35.8924 7.08399C33.7785 5.92383 31.2535 5.92383 29.139 7.08399L8.67236 18.3196C6.42688 19.5528 5.03223 21.91 5.03223 24.4712V25.3653C5.03223 26.0109 5.55617 26.5349 6.20175 26.5349C6.84732 26.5349 7.37127 26.0109 7.37127 25.3653V24.4712C7.37127 22.7637 8.30104 21.1925 9.79802 20.3703L30.2646 9.13474C31.6751 8.36111 33.358 8.36111 34.7673 9.13474L45.4842 15.018L41.0868 16.308C40.4669 16.4899 40.112 17.1395 40.2944 17.7594C40.4441 18.2693 40.9102 18.6003 41.416 18.6003C41.5254 18.6003 41.6359 18.5851 41.7458 18.5523L48.6816 16.5173C49.2968 16.3372 49.6524 15.6952 49.4781 15.0782Z" fill="black"/>
<path d="M17.9678 32.5715C17.1398 32.5715 16.7188 32.1365 16.7188 31.4347C16.7188 30.733 17.1398 30.298 17.9678 30.298H23.4417C24.3119 30.298 24.8311 30.6213 24.8311 31.533C24.8311 32.0663 24.551 32.5294 23.568 33.568C22.9926 34.1714 21.8418 36.3052 21.5892 38.2981C21.3641 40.0804 20.6343 40.2775 19.9191 40.2775C19.3011 40.2775 18.6695 39.7155 18.6695 38.9858C18.6695 37.1613 20.8308 33.4697 21.8699 32.5715H17.9678Z" fill="black"/>
<path d="M29.7284 30.1144C32.451 30.1144 33.8825 32.0511 33.8825 35.1533C33.8825 38.8723 32.1422 40.2763 29.7284 40.2763C27.3145 40.2763 25.5742 38.8729 25.5742 35.1533C25.5742 32.0517 27.0057 30.1144 29.7284 30.1144ZM29.7284 32.3037C28.8161 32.3037 28.4653 33.2165 28.4653 35.1948C28.4653 37.5525 28.915 38.0858 29.7284 38.0858C30.5429 38.0858 30.9914 37.5525 30.9914 35.1948C30.992 33.2165 30.6412 32.3037 29.7284 32.3037Z" fill="black"/>
<path d="M35.1318 32.6694C35.1318 31.2238 35.8055 30.1151 37.5598 30.1151C39.3146 30.1151 39.9742 31.2238 39.9742 32.6694V33.343C39.9742 34.6482 39.2164 35.8136 37.5598 35.8136C35.8903 35.8136 35.1318 34.6488 35.1318 33.343V32.6694ZM37.5598 31.2946C36.8867 31.2946 36.8165 32.0378 36.8165 32.9641C36.8165 33.8903 36.8867 34.6341 37.5598 34.6341C38.22 34.6341 38.2901 33.8903 38.2901 32.9641C38.2901 32.0378 38.22 31.2946 37.5598 31.2946ZM42.8799 30.6484C43.3009 29.7923 43.5114 29.7081 43.8904 29.7081C44.2553 29.7081 44.564 30.0871 44.564 30.2976C44.564 30.4245 44.5079 30.6063 44.3816 30.8595L39.9889 39.7438C39.5672 40.5999 39.3567 40.6835 38.9778 40.6835C38.6129 40.6835 38.3042 40.3052 38.3042 40.0941C38.3042 39.9677 38.3603 39.7853 38.4866 39.5327L42.8799 30.6484ZM42.8934 37.1328C42.8934 35.6867 43.567 34.5786 45.3213 34.5786C47.0756 34.5786 47.7358 35.6873 47.7358 37.1328V37.8065C47.7358 39.1117 46.9773 40.2771 45.3213 40.2771C43.6512 40.2771 42.8934 39.1122 42.8934 37.8065V37.1328ZM45.3213 35.7575C44.6476 35.7575 44.5781 36.5013 44.5781 37.4275C44.5781 38.3538 44.6476 39.0976 45.3213 39.0976C45.9809 39.0976 46.0511 38.3538 46.0511 37.4275C46.0511 36.5013 45.9809 35.7575 45.3213 35.7575Z" fill="black"/>
</svg>
