<svg width="65" height="71" viewBox="0 0 65 71" fill="none" xmlns="http://www.w3.org/2000/svg">
<path d="M38.8966 59.5818L37.1646 60.5326C37.1646 60.5326 37.1634 60.5338 37.1622 60.5344L35.2676 61.5741C33.8583 62.3471 32.1748 62.3471 30.7655 61.5741L10.2989 50.3385C8.80136 49.5169 7.87159 47.9457 7.87159 46.2376V34.005L11.027 37.2241C11.2562 37.4574 11.5591 37.575 11.862 37.575C12.1573 37.575 12.4532 37.4639 12.6807 37.2411C13.142 36.789 13.1496 36.0481 12.697 35.5868L7.63768 30.4245C7.39676 30.1789 7.07398 30.0661 6.7547 30.0789C6.73715 30.0783 6.7202 30.0737 6.70207 30.0737C6.24771 30.0737 5.85826 30.3356 5.6647 30.7146L0.859729 35.3254C0.393675 35.7733 0.378471 36.513 0.825813 36.9791C1.27315 37.4451 2.01346 37.4609 2.47951 37.0136L5.53255 34.0828V46.2376C5.53255 48.7994 6.9272 51.156 9.17268 52.3887L29.6393 63.6243C30.6965 64.2049 31.8567 64.495 33.0163 64.495C34.1759 64.495 35.336 64.2049 36.3927 63.6243L38.2885 62.584L38.2902 62.5834L40.0223 61.6326C40.5883 61.3221 40.7953 60.611 40.4842 60.0444C40.1743 59.4789 39.4633 59.2701 38.8966 59.5818Z" fill="black"/>
<path d="M56.8599 18.1162C56.7856 18.0752 56.709 18.0448 56.6312 18.0214C56.588 17.9963 56.5464 17.9688 56.502 17.9448L54.5676 16.8829C54.0004 16.5712 53.2905 16.7788 52.9794 17.3449C52.6683 17.9109 52.8753 18.622 53.4414 18.9331L55.3763 19.9956C57.0791 20.9306 58.1376 22.7451 58.1376 24.731V45.8005C58.1376 47.7834 57.0827 49.5944 55.3839 50.5312L46.6716 55.3139L47.9546 51.1744C48.1458 50.5575 47.8008 49.9026 47.1838 49.7113C46.5675 49.519 45.9114 49.8651 45.7208 50.4821L43.5811 57.3869C43.5805 57.3887 43.5805 57.391 43.58 57.3927C43.5624 57.4501 43.5525 57.5085 43.5443 57.5676C43.542 57.5851 43.5361 57.6033 43.5343 57.6208C43.5343 57.6226 43.5338 57.6243 43.5338 57.6261C43.5303 57.6652 43.5338 57.705 43.5343 57.7448C43.5349 57.7793 43.5314 57.8144 43.5349 57.8489C43.5379 57.8752 43.546 57.9015 43.5501 57.9278C43.5583 57.9763 43.5653 58.0249 43.5794 58.0711C43.5864 58.0933 43.5975 58.1149 43.6063 58.1371C43.625 58.1874 43.6437 58.2371 43.6688 58.2845C43.6706 58.288 43.6718 58.2921 43.6735 58.2956C43.6788 58.305 43.687 58.312 43.6922 58.3213C43.7338 58.3927 43.784 58.4588 43.8402 58.5202C43.8577 58.5395 43.8753 58.5582 43.894 58.5763C43.9542 58.6336 44.0191 58.6857 44.0922 58.7295C44.1004 58.7348 44.108 58.7418 44.1168 58.7465C44.1869 58.7868 44.2612 58.8207 44.3407 58.8465L51.114 61.0235C51.2333 61.0615 51.3538 61.0802 51.4719 61.0802C51.9666 61.0802 52.4262 60.7639 52.5853 60.268C52.7829 59.6528 52.4443 58.9938 51.8298 58.7962L47.6429 57.4506L56.5026 52.5866C56.5108 52.5819 56.5178 52.5772 56.526 52.5726L56.8593 52.3895C59.1048 51.1563 60.5 48.7997 60.5 46.2379V24.2673C60.5 21.706 59.1048 19.3488 56.8599 18.1162Z" fill="black"/>
<path d="M49.9781 14.8738L48.0472 8.02682C47.8724 7.40581 47.2274 7.04384 46.604 7.21868C45.983 7.39411 45.6205 8.03969 45.7959 8.66187L46.9239 12.661L36.3924 6.87952C34.2785 5.71936 31.7535 5.71936 29.639 6.87952L9.17236 18.1151C6.92688 19.3484 5.53223 21.7055 5.53223 24.2668V25.1609C5.53223 25.8065 6.05617 26.3304 6.70175 26.3304C7.34732 26.3304 7.87127 25.8065 7.87127 25.1609V24.2668C7.87127 22.5593 8.80104 20.988 10.298 20.1659L30.7646 8.93028C32.1751 8.15664 33.858 8.15664 35.2673 8.93028L45.9842 14.8135L41.5868 16.1035C40.9669 16.2854 40.612 16.9351 40.7944 17.5549C40.9441 18.0648 41.4102 18.3958 41.916 18.3958C42.0254 18.3958 42.1359 18.3806 42.2458 18.3478L49.1816 16.3129C49.7968 16.1328 50.1524 15.4907 49.9781 14.8738Z" fill="black"/>
<path d="M21.4236 35.7627C20.4833 35.6925 20.1605 35.3557 20.1605 34.8785C20.1605 34.1347 20.6517 33.9101 21.3113 33.9101C21.7884 33.9101 22.2796 33.6294 22.2796 32.9698C22.2796 32.2535 21.7042 32.0155 20.9745 32.0155C20.4412 32.0155 20.1464 32.1839 19.7394 32.8155C19.4447 33.2646 19.1921 33.3903 18.7571 33.3903C17.901 33.3903 17.522 32.7307 17.522 32.1412C17.522 30.9343 18.8834 29.9098 21.3259 29.9098C23.4872 29.9098 25.0029 30.9764 25.0029 32.6751C25.0029 33.6154 24.5818 34.3171 23.81 34.5838V34.6124C24.7503 34.9071 25.2415 35.7211 25.2415 36.7035C25.2415 37.9806 24.5818 40.0723 20.9891 40.0723C18.743 40.0723 17.3115 38.8508 17.3115 37.6158C17.3115 36.8298 17.7887 36.2685 18.6033 36.2685C20.119 36.2685 19.3611 37.9666 20.9049 37.9666C21.8879 37.9666 22.351 37.6152 22.351 36.6755C22.3498 35.9732 21.999 35.8048 21.4236 35.7627Z" fill="black"/>
<path d="M30.7557 29.9098C33.4783 29.9098 34.9098 31.8465 34.9098 34.9487C34.9098 38.6677 33.1696 40.0718 30.7557 40.0718C28.3418 40.0718 26.6016 38.6683 26.6016 34.9487C26.601 31.8471 28.0331 29.9098 30.7557 29.9098ZM30.7557 32.0991C29.8435 32.0991 29.4926 33.0119 29.4926 34.9902C29.4926 37.3479 29.9423 37.8812 30.7557 37.8812C31.5703 37.8812 32.0188 37.3479 32.0188 34.9902C32.0188 33.0119 31.6679 32.0991 30.7557 32.0991Z" fill="black"/>
<path d="M36.1592 32.4648C36.1592 31.0192 36.8328 29.9105 38.5871 29.9105C40.342 29.9105 41.0016 31.0192 41.0016 32.4648V33.1384C41.0016 34.4436 40.2437 35.609 38.5871 35.609C36.9176 35.609 36.1592 34.4442 36.1592 33.1384V32.4648ZM38.5871 31.09C37.914 31.09 37.8439 31.8332 37.8439 32.7595C37.8439 33.6857 37.914 34.4296 38.5871 34.4296C39.2473 34.4296 39.3175 33.6857 39.3175 32.7595C39.3175 31.8332 39.2473 31.09 38.5871 31.09ZM43.9073 30.4438C44.3283 29.5877 44.5388 29.5035 44.9177 29.5035C45.2826 29.5035 45.5914 29.8825 45.5914 30.093C45.5914 30.2199 45.5352 30.4017 45.4089 30.6549L41.0162 39.5392C40.5946 40.3953 40.3841 40.4789 40.0051 40.4789C39.6403 40.4789 39.3315 40.1006 39.3315 39.8895C39.3315 39.7632 39.3876 39.5807 39.5139 39.3281L43.9073 30.4438ZM43.9207 36.9282C43.9207 35.4821 44.5943 34.374 46.3486 34.374C48.1029 34.374 48.7631 35.4827 48.7631 36.9282V37.6019C48.7631 38.9071 48.0047 40.0725 46.3486 40.0725C44.6785 40.0725 43.9207 38.9077 43.9207 37.6019V36.9282ZM46.3492 35.5529C45.6756 35.5529 45.606 36.2967 45.606 37.223C45.606 38.1492 45.6756 38.893 46.3492 38.893C47.0088 38.893 47.079 38.1492 47.079 37.223C47.079 36.2967 47.0088 35.5529 46.3492 35.5529Z" fill="black"/>
</svg>
