<svg width="64" height="71" viewBox="0 0 64 71" fill="none" xmlns="http://www.w3.org/2000/svg">
<path d="M38.3966 59.7863L36.6646 60.7371C36.6646 60.7371 36.6634 60.7383 36.6622 60.7389L34.7676 61.7786C33.3583 62.5516 31.6748 62.5516 30.2655 61.7786L9.79893 50.543C8.30136 49.7214 7.37159 48.1502 7.37159 46.4421V34.2095L10.527 37.4286C10.7562 37.6619 11.0591 37.7794 11.362 37.7794C11.6573 37.7794 11.9532 37.6683 12.1807 37.4455C12.642 36.9935 12.6496 36.2526 12.197 35.7913L7.13768 30.629C6.89676 30.3834 6.57398 30.2705 6.2547 30.2834C6.23715 30.2828 6.2202 30.2781 6.20207 30.2781C5.74771 30.2781 5.35826 30.5401 5.1647 30.919L0.359729 35.5299C-0.106325 35.9778 -0.121529 36.7175 0.325813 37.1836C0.773154 37.6496 1.51346 37.6654 1.97951 37.2181L5.03255 34.2873V46.4421C5.03255 49.0039 6.4272 51.3605 8.67268 52.5932L29.1393 63.8287C30.1965 64.4094 31.3567 64.6995 32.5163 64.6995C33.6759 64.6995 34.836 64.4094 35.8927 63.8287L37.7885 62.7885L37.7902 62.7879L39.5223 61.8371C40.0883 61.5265 40.2953 60.8155 39.9842 60.2488C39.6743 59.6834 38.9633 59.4746 38.3966 59.7863Z" fill="black"/>
<path d="M56.3599 18.3206C56.2856 18.2797 56.209 18.2493 56.1312 18.2259C56.088 18.2008 56.0464 18.1733 56.002 18.1493L54.0676 17.0874C53.5004 16.7757 52.7905 16.9833 52.4794 17.5493C52.1683 18.1154 52.3753 18.8264 52.9414 19.1375L54.8763 20.2C56.5791 21.1351 57.6376 22.9496 57.6376 24.9354V46.0049C57.6376 47.9879 56.5827 49.7989 54.8839 50.7356L46.1716 55.5184L47.4546 51.3789C47.6458 50.762 47.3008 50.107 46.6838 49.9158C46.0675 49.7234 45.4114 50.0696 45.2208 50.6865L43.0811 57.5914C43.0805 57.5931 43.0805 57.5955 43.08 57.5972C43.0624 57.6545 43.0525 57.713 43.0443 57.7721C43.042 57.7896 43.0361 57.8077 43.0343 57.8253C43.0343 57.827 43.0338 57.8288 43.0338 57.8305C43.0303 57.8697 43.0338 57.9095 43.0343 57.9492C43.0349 57.9837 43.0314 58.0188 43.0349 58.0533C43.0379 58.0796 43.046 58.106 43.0501 58.1323C43.0583 58.1808 43.0653 58.2293 43.0794 58.2755C43.0864 58.2978 43.0975 58.3194 43.1063 58.3416C43.125 58.3919 43.1437 58.4416 43.1688 58.489C43.1706 58.4925 43.1718 58.4966 43.1735 58.5001C43.1788 58.5094 43.187 58.5165 43.1922 58.5258C43.2338 58.5972 43.284 58.6632 43.3402 58.7246C43.3577 58.7439 43.3753 58.7626 43.394 58.7808C43.4542 58.8381 43.5191 58.8901 43.5922 58.934C43.6004 58.9392 43.608 58.9463 43.6168 58.9509C43.6869 58.9913 43.7612 59.0252 43.8407 59.0509L50.614 61.228C50.7333 61.266 50.8538 61.2847 50.9719 61.2847C51.4666 61.2847 51.9262 60.9684 52.0853 60.4725C52.2829 59.8573 51.9443 59.1983 51.3298 59.0006L47.1429 57.6551L56.0026 52.7911C56.0108 52.7864 56.0178 52.7817 56.026 52.777L56.3593 52.594C58.6048 51.3607 60 49.0042 60 46.4423V24.4717C60 21.9105 58.6048 19.5533 56.3599 18.3206Z" fill="black"/>
<path d="M49.4781 15.0782L47.5472 8.23129C47.3724 7.61027 46.7274 7.24831 46.104 7.42315C45.483 7.59858 45.1205 8.24415 45.2959 8.86634L46.4239 12.8655L35.8924 7.08399C33.7785 5.92383 31.2535 5.92383 29.139 7.08399L8.67236 18.3196C6.42688 19.5528 5.03223 21.91 5.03223 24.4712V25.3653C5.03223 26.0109 5.55617 26.5349 6.20175 26.5349C6.84732 26.5349 7.37127 26.0109 7.37127 25.3653V24.4712C7.37127 22.7637 8.30104 21.1925 9.79802 20.3703L30.2646 9.13474C31.6751 8.36111 33.358 8.36111 34.7673 9.13474L45.4842 15.018L41.0868 16.308C40.4669 16.4899 40.112 17.1395 40.2944 17.7594C40.4441 18.2693 40.9102 18.6003 41.416 18.6003C41.5254 18.6003 41.6359 18.5851 41.7458 18.5523L48.6816 16.5173C49.2968 16.3372 49.6524 15.6952 49.4781 15.0782Z" fill="black"/>
<path d="M15.5972 34.227H14.0815C13.3798 34.227 13.043 33.8761 13.043 33.2306C13.043 32.5148 13.2816 32.3183 14.4043 32.1219C15.261 31.9669 15.696 31.5739 16.0609 31.0687C16.51 30.4512 16.7907 30.1144 17.3521 30.1144C18.0678 30.1144 18.4888 30.4231 18.4888 31.0968V38.8448C18.4888 39.8272 17.8854 40.2763 17.0427 40.2763C16.2001 40.2763 15.5966 39.8267 15.5966 38.8448V34.227H15.5972Z" fill="black"/>
<path d="M24.5233 30.1144C27.2459 30.1144 28.6774 32.0511 28.6774 35.1533C28.6774 38.8723 26.9372 40.2763 24.5233 40.2763C22.1094 40.2763 20.3691 38.8729 20.3691 35.1533C20.3691 32.0517 21.8006 30.1144 24.5233 30.1144ZM24.5233 32.3037C23.6111 32.3037 23.2602 33.2165 23.2602 35.1948C23.2602 37.5525 23.7099 38.0858 24.5233 38.0858C25.3378 38.0858 25.7864 37.5525 25.7864 35.1948C25.7864 33.2165 25.4361 32.3037 24.5233 32.3037Z" fill="black"/>
<path d="M33.8983 30.1144C36.6209 30.1144 38.0524 32.0511 38.0524 35.1533C38.0524 38.8723 36.3122 40.2763 33.8983 40.2763C31.4844 40.2763 29.7441 38.8729 29.7441 35.1533C29.7441 32.0517 31.1756 30.1144 33.8983 30.1144ZM33.8983 32.3037C32.9861 32.3037 32.6352 33.2165 32.6352 35.1948C32.6352 37.5525 33.0849 38.0858 33.8983 38.0858C34.7128 38.0858 35.1614 37.5525 35.1614 35.1948C35.1614 33.2165 34.8111 32.3037 33.8983 32.3037Z" fill="black"/>
<path d="M39.3018 32.6694C39.3018 31.2238 39.9754 30.1151 41.7297 30.1151C43.4845 30.1151 44.1442 31.2238 44.1442 32.6694V33.343C44.1442 34.6482 43.3863 35.8136 41.7297 35.8136C40.0602 35.8136 39.3018 34.6488 39.3018 33.343V32.6694ZM41.7297 31.2946C41.0566 31.2946 40.9865 32.0378 40.9865 32.9641C40.9865 33.8903 41.0566 34.6341 41.7297 34.6341C42.3899 34.6341 42.46 33.8903 42.46 32.9641C42.46 32.0378 42.3899 31.2946 41.7297 31.2946ZM47.0498 30.6484C47.4709 29.7923 47.6814 29.7081 48.0603 29.7081C48.4252 29.7081 48.7339 30.0871 48.7339 30.2976C48.7339 30.4245 48.6778 30.6063 48.5515 30.8595L44.1588 39.7438C43.7372 40.5999 43.5266 40.6835 43.1477 40.6835C42.7828 40.6835 42.4741 40.3052 42.4741 40.0941C42.4741 39.9677 42.5302 39.7853 42.6565 39.5327L47.0498 30.6484ZM47.0633 37.1328C47.0633 35.6867 47.7369 34.5786 49.4912 34.5786C51.2455 34.5786 51.9057 35.6873 51.9057 37.1328V37.8065C51.9057 39.1117 51.1472 40.2771 49.4912 40.2771C47.8211 40.2771 47.0633 39.1122 47.0633 37.8065V37.1328ZM49.4912 35.7575C48.8176 35.7575 48.748 36.5013 48.748 37.4275C48.748 38.3538 48.8176 39.0976 49.4912 39.0976C50.1508 39.0976 50.221 38.3538 50.221 37.4275C50.221 36.5013 50.1508 35.7575 49.4912 35.7575Z" fill="black"/>
</svg>
