<svg width="64" height="71" viewBox="0 0 64 71" fill="none" xmlns="http://www.w3.org/2000/svg">
<path d="M37.4109 54.0293H26.481C24.8192 54.0293 23.413 52.6231 23.413 50.9613V40.7345C23.413 39.0726 24.8192 37.6664 26.481 37.6664H37.4109C39.0728 37.6664 40.479 39.0726 40.479 40.7345V50.9613C40.479 52.687 39.0728 54.0293 37.4109 54.0293ZM26.481 40.287C26.2254 40.287 25.9697 40.5427 25.9697 40.7984V51.0252C25.9697 51.2808 26.2254 51.5365 26.481 51.5365H37.4109C37.6666 51.5365 37.9223 51.2808 37.9223 51.0252V40.7984C37.9223 40.5427 37.6666 40.287 37.4109 40.287H26.481Z" fill="black"/>
<path d="M35.1738 21.4314H28.7182C27.2481 21.4314 26.0336 20.2169 26.0336 18.7468V16.8293C26.0336 15.3592 27.2481 14.1448 28.7182 14.1448H35.1738C36.6439 14.1448 37.8584 15.3592 37.8584 16.8293V18.7468C37.8584 20.2808 36.6439 21.4314 35.1738 21.4314ZM28.7182 16.7015C28.6542 16.7015 28.5903 16.7654 28.5903 16.8293V18.7468C28.5903 18.8107 28.6542 18.8747 28.7182 18.8747H35.1738C35.2377 18.8747 35.3017 18.8107 35.3017 18.7468V16.8293C35.3017 16.7654 35.2377 16.7015 35.1738 16.7015H28.7182Z" fill="black"/>
<path d="M37.4109 40.287H26.481C24.8192 40.287 23.413 38.8808 23.413 37.219V36.452C23.413 34.7901 24.8192 33.3839 26.481 33.3839H37.4109C39.0728 33.3839 40.479 34.7901 40.479 36.452V37.219C40.479 38.9448 39.0728 40.287 37.4109 40.287ZM26.481 35.9406C26.2254 35.9406 25.9697 36.1963 25.9697 36.452V37.219C25.9697 37.4747 26.2254 37.7303 26.481 37.7303H37.4109C37.6666 37.7303 37.9223 37.4747 37.9223 37.219V36.452C37.9223 36.1963 37.6666 35.9406 37.4109 35.9406H26.481Z" fill="black"/>
<path d="M37.4109 35.9406H26.481C24.8192 35.9406 23.413 34.5345 23.413 32.8726V32.1056C23.413 30.4437 24.8192 29.0375 26.481 29.0375H37.4109C39.0728 29.0375 40.479 30.4437 40.479 32.1056V32.8726C40.479 34.5345 39.0728 35.9406 37.4109 35.9406ZM26.481 31.5942C26.2254 31.5942 25.9697 31.8499 25.9697 32.1056V32.8726C25.9697 33.1283 26.2254 33.3839 26.481 33.3839H37.4109C37.6666 33.3839 37.9223 33.1283 37.9223 32.8726V32.1056C37.9223 31.8499 37.6666 31.5942 37.4109 31.5942H26.481Z" fill="black"/>
<path d="M37.0274 31.5942H26.8645C24.947 31.5942 23.413 30.0602 23.413 28.1427V27.0561C23.413 25.586 26.8645 19.0025 29.1656 19.0025H34.7264C37.0274 19.0025 40.479 25.586 40.479 27.0561V28.1427C40.479 30.0602 38.945 31.5942 37.0274 31.5942ZM29.4212 21.6231C28.4625 22.3262 26.1615 26.2252 26.0336 27.1839V28.2066C26.0336 28.718 26.4171 29.1015 26.9285 29.1015H37.0914C37.6027 29.1015 37.9862 28.718 37.9862 28.2066V27.12C37.8584 26.1613 35.5573 22.3262 34.5986 21.6231C34.5346 21.6231 29.4212 21.6231 29.4212 21.6231Z" fill="black"/>
<path d="M61.699 49.5541C61.9546 48.7871 62.0825 47.9561 62.0825 47.1252V23.1561C62.0825 20.3438 60.5485 17.7871 58.1196 16.4448L35.7485 4.17263C33.4474 2.89428 30.699 2.89428 28.3979 4.17263L6.0268 16.4448C3.53402 17.7871 2 20.3438 2 23.1561V47.1891C2 50.0015 3.53402 52.5582 5.96289 53.9005L28.334 66.1726C29.4845 66.8118 30.7629 67.1314 32.0412 67.1314C33.3196 67.1314 34.5979 66.8118 35.7485 66.1726L43.8021 61.7623C45.7196 64.9582 49.1711 67.1314 53.134 67.1314C59.1423 67.1314 64 62.2737 64 56.2654C64 53.7726 63.1052 51.4077 61.699 49.5541ZM59.1423 57.1603L54.2206 62.0819C54.1567 62.1458 54.1567 62.2097 54.0928 62.2737C53.8371 62.5293 53.4536 62.6572 53.134 62.6572C53.0701 62.6572 52.9423 62.6572 52.8784 62.6572C52.8144 62.6572 52.8144 62.6572 52.7505 62.5933C52.6866 62.5933 52.6866 62.5933 52.6227 62.5293C52.5588 62.5293 52.5588 62.4654 52.4949 62.4654C52.4949 62.4654 52.4309 62.4654 52.4309 62.4015C52.3031 62.3376 52.1753 62.2097 52.1113 62.0819L47.1897 57.1603C46.6784 56.6489 46.6784 55.8819 47.1897 55.3706C47.701 54.8592 48.468 54.8592 48.9794 55.3706L51.8557 58.2469V51.152C51.8557 50.4489 52.4309 49.8737 53.134 49.8737C53.8371 49.8737 54.4124 50.4489 54.4124 51.152V58.3108L57.3526 55.3706C57.8639 54.8592 58.6309 54.8592 59.1423 55.3706C59.6536 55.8819 59.6536 56.6489 59.1423 57.1603ZM59.5258 47.1891C59.5258 47.317 59.5258 47.3809 59.5258 47.5087C57.7361 46.2304 55.5629 45.3994 53.134 45.3994C47.1258 45.3994 42.268 50.2572 42.268 56.2654C42.268 57.352 42.4598 58.4386 42.7155 59.3974L34.4701 63.9355C32.9361 64.7665 31.0825 64.7665 29.5485 63.9355L7.17732 51.6634C5.51546 50.7685 4.49278 49.0427 4.49278 47.1891V23.1561C4.49278 21.3025 5.51546 19.5768 7.1134 18.6819L29.6124 6.40974C30.3794 5.96232 31.2103 5.77057 32.0412 5.77057C32.8722 5.77057 33.7031 5.96232 34.4701 6.40974L56.8412 18.6819C58.5031 19.5768 59.5258 21.3025 59.5258 23.1561V47.1891Z" fill="black"/>
</svg>
