<svg width="64" height="71" viewBox="0 0 64 71" fill="none" xmlns="http://www.w3.org/2000/svg">
<path d="M31.9872 32.1621C24.7643 32.1621 18.8881 38.0382 18.8881 45.2612C18.8881 52.4835 24.7649 58.3597 31.9872 58.3597C39.2096 58.3597 45.0857 52.4835 45.0857 45.2612C45.0864 38.0382 39.2102 32.1621 31.9872 32.1621ZM26.9587 44.8872C26.9587 44.148 27.0206 43.4261 27.1272 42.7246C28.1894 42.4425 29.39 42.244 30.7106 42.1648V47.8093C29.4257 47.7461 28.2372 47.5897 27.1738 47.3669C27.0347 46.5691 26.9587 45.7386 26.9587 44.8872ZM24.4949 46.5678C23.5923 46.1969 22.8972 45.775 22.4587 45.341C22.8711 44.7838 23.5451 44.2361 24.4438 43.7542C24.4196 44.1282 24.4055 44.5061 24.4055 44.8878C24.4055 45.4572 24.4413 46.0163 24.4949 46.5678ZM33.2638 35.9459C34.4626 36.8389 35.4487 38.238 36.1087 39.9321C35.2036 39.7655 34.2506 39.6557 33.2638 39.604V35.9459ZM30.7106 35.9223V39.6078C29.7213 39.6633 28.7619 39.7782 27.8498 39.9518C28.5104 38.2399 29.5043 36.8248 30.7106 35.9223ZM30.7106 50.3663V53.8584C29.5681 53.0076 28.6221 51.6933 27.964 50.1059C28.8398 50.2374 29.7596 50.3248 30.7106 50.3663ZM33.2638 53.8821V50.3657C34.2194 50.3235 35.1417 50.2342 36.0194 50.1027C35.3606 51.701 34.4109 53.0248 33.2638 53.8821ZM33.2638 47.808V42.1623C34.58 42.2401 35.78 42.4367 36.8428 42.7169C36.9526 43.4293 37.0157 44.164 37.0157 44.9165C37.0157 45.7552 36.9411 46.5755 36.8045 47.3638C35.7423 47.5878 34.5526 47.7442 33.2638 47.808ZM39.5274 43.7376C40.4287 44.215 41.1079 44.7569 41.5279 45.3084C41.0964 45.7521 40.3974 46.1842 39.4828 46.5627C39.5345 46.0221 39.5689 45.475 39.5689 44.9178C39.5689 44.5195 39.5536 44.1263 39.5274 43.7376ZM42.1145 42.3467C41.2655 41.7072 40.2309 41.1595 39.0474 40.7242C38.5694 38.8661 37.774 37.2084 36.7438 35.861C39.3277 37.1746 41.2981 39.5152 42.1145 42.3467ZM27.2051 35.8738C26.1762 37.2327 25.3853 38.9018 24.9123 40.7669C23.7277 41.2112 22.6911 41.7665 21.8434 42.4106C22.6464 39.5599 24.6149 37.1989 27.2051 35.8738ZM21.8281 48.0512C22.7077 48.6116 23.7908 49.091 25.0381 49.465C25.6872 51.7431 26.8106 53.7046 28.2723 55.1184C25.1428 53.9344 22.7243 51.3091 21.8281 48.0512ZM35.7404 55.1044C37.1874 53.6855 38.3 51.7265 38.9428 49.4599C40.1919 49.0833 41.2732 48.6001 42.1502 48.0359C41.2611 51.288 38.8566 53.9121 35.7404 55.1044Z" fill="black"/>
<path d="M26.3357 23.7544C29.1717 23.7544 31.4791 21.4469 31.4791 18.6104C31.4791 15.7738 29.1717 13.4663 26.3357 13.4663C23.4998 13.4663 21.1917 15.7738 21.1917 18.6104C21.1917 21.4469 23.4998 23.7544 26.3357 23.7544ZM26.3357 16.0201C27.7643 16.0201 28.926 17.1825 28.926 18.611C28.926 20.0395 27.7643 21.2018 26.3357 21.2018C24.9072 21.2018 23.7449 20.0395 23.7449 18.611C23.7449 17.1825 24.9079 16.0201 26.3357 16.0201Z" fill="black"/>
<path d="M33.514 26.1078C33.514 26.8125 34.086 27.3844 34.7906 27.3844H42.7955V34.938C42.7955 35.6427 43.3674 36.2146 44.0721 36.2146C44.7768 36.2146 45.3487 35.6427 45.3487 34.938V27.2682C45.3487 25.9246 44.2553 24.8312 42.9123 24.8312H34.7906C34.086 24.8312 33.514 25.4031 33.514 26.1078Z" fill="black"/>
<path d="M31.9451 31.3744C32.6498 31.3744 33.2217 30.8025 33.2217 30.0978V29.9433C33.2217 27.1246 30.9315 24.8312 28.116 24.8312H24.1732C21.2504 24.8312 19.0668 27.5299 19.0668 29.9433V34.938C19.0668 35.6427 19.6387 36.2146 20.3434 36.2146C21.0481 36.2146 21.62 35.6427 21.62 34.938V29.9433C21.62 28.7912 22.7983 27.3844 24.1732 27.3844H28.116C29.5234 27.3844 30.6685 28.5321 30.6685 29.9433V30.0978C30.6685 30.8031 31.2404 31.3744 31.9451 31.3744Z" fill="black"/>
<path d="M37.2034 23.2291H42.0423C42.9577 23.2291 43.7766 22.7561 44.2336 21.9633C44.6906 21.1712 44.69 20.2252 44.2311 19.4338L41.8113 15.2542C41.3536 14.4646 40.536 13.9923 39.6226 13.9923C38.7098 13.9923 37.8921 14.464 37.4345 15.2542L35.0147 19.4338C34.5564 20.2252 34.5551 21.1712 35.0121 21.9633C35.4704 22.7555 36.2887 23.2291 37.2034 23.2291ZM37.2245 20.7123L39.6028 16.5327L42.043 20.6752L37.2232 20.7148L37.2245 20.7123Z" fill="black"/>
<path d="M38.3319 61.5627L34.4626 63.6876C32.9204 64.5327 31.0789 64.5327 29.5368 63.6876L7.5666 51.6257C5.70787 50.6044 4.55319 48.6244 4.55319 46.4561V23.4576C4.55319 21.2899 5.70787 19.3093 7.56596 18.2887L17.7181 12.715L16.3202 17.2272C16.1115 17.9006 16.4881 18.6155 17.1615 18.8242C17.2872 18.8638 17.4143 18.8816 17.5394 18.8816C18.0845 18.8816 18.5887 18.5299 18.7585 17.9823L21.0934 10.4465C21.3008 9.77823 20.9313 9.0678 20.2649 8.85333L12.8728 6.47695C12.2019 6.26184 11.4826 6.63014 11.2668 7.30163C11.0511 7.97312 11.42 8.69184 12.0915 8.90759L16.6687 10.3795L6.33723 16.0508C3.66213 17.5201 2 20.358 2 23.4576V46.4561C2 49.5557 3.66213 52.3942 6.33723 53.8629L28.3081 65.9248C29.4634 66.5593 30.7311 66.8759 31.9994 66.8759C33.2677 66.8759 34.5353 66.5593 35.6906 65.9248L39.56 63.7999C40.1779 63.461 40.4038 62.6848 40.0643 62.0663C39.726 61.4484 38.9517 61.2238 38.3319 61.5627Z" fill="black"/>
<path d="M57.6621 16.0782L35.6913 4.01567C33.38 2.74737 30.62 2.74674 28.3087 4.01567L24.4394 6.14057C23.8215 6.4795 23.5955 7.25631 23.9345 7.87354C24.274 8.49142 25.0508 8.71865 25.6674 8.37844L29.5368 6.25418C31.0789 5.40716 32.9204 5.4078 34.4613 6.25418L56.4321 18.3155C58.2915 19.3367 59.4468 21.3174 59.4468 23.4857V46.4835C59.4468 48.6512 58.2915 50.6318 56.4328 51.6531L46.2206 57.2593L47.6294 52.714C47.8381 52.0406 47.4615 51.3257 46.7881 51.1169C46.1147 50.9069 45.3998 51.2842 45.1911 51.9582L42.8555 59.4952C42.6481 60.1635 43.0177 60.874 43.684 61.0884L51.0774 63.4648C51.2077 63.5063 51.3391 63.5267 51.4681 63.5267C52.0081 63.5267 52.5098 63.1814 52.6834 62.6401C52.8991 61.9686 52.5296 61.2493 51.8587 61.0335L47.3128 59.5725L57.6621 53.891C60.3379 52.4216 62 49.5831 62 46.4835V23.4857C62 20.3855 60.3379 17.5469 57.6621 16.0782Z" fill="black"/>
</svg>
