<svg width="64" height="71" viewBox="0 0 64 71" fill="none" xmlns="http://www.w3.org/2000/svg">
<path d="M32.0319 67.1116C30.754 67.1116 29.476 66.7921 28.3259 66.1532L5.96166 53.8848C3.53355 52.5429 2 49.987 2 47.1755V23.15C2 20.3385 3.53355 17.7826 5.96166 16.4407L28.3259 4.17233C30.6262 2.89438 33.3738 2.89438 35.6741 4.17233L58.0383 16.4407C60.4665 17.7826 62 20.3385 62 23.15V47.1755C62 49.987 60.4665 52.5429 58.0383 53.8848L35.6741 66.1532C34.5879 66.7921 33.3099 67.1116 32.0319 67.1116ZM32.0319 5.76978C31.2013 5.76978 30.3706 5.96147 29.5399 6.40876L7.17572 18.6771C5.51438 19.5717 4.55591 21.2969 4.55591 23.15V47.1755C4.55591 49.0286 5.57827 50.7538 7.17572 51.6484L29.5399 63.9167C31.0735 64.7474 32.9265 64.7474 34.4601 63.9167L56.8243 51.6484C58.4856 50.7538 59.4441 49.0286 59.4441 47.1755V23.15C59.4441 21.2969 58.4217 19.5717 56.7604 18.6771L34.4601 6.40876C33.6933 5.96147 32.8626 5.76978 32.0319 5.76978Z" fill="black"/>
<path d="M28.9648 57.9102H21.361C20.6581 57.9102 20.083 57.3351 20.083 56.6322C20.083 55.9293 20.6581 55.3542 21.361 55.3542H28.9648C29.6677 55.3542 30.2428 55.9293 30.2428 56.6322C30.2428 57.3351 29.6677 57.9102 28.9648 57.9102Z" fill="black"/>
<path d="M42.8317 57.9102H38.6783C37.9755 57.9102 37.4004 57.3351 37.4004 56.6322C37.4004 55.9293 37.9755 55.3542 38.6783 55.3542H42.8317C43.5346 55.3542 44.1097 55.9293 44.1097 56.6322C44.1097 57.3351 43.5346 57.9102 42.8317 57.9102Z" fill="black"/>
<path d="M53.1193 52.2891H36.442C35.7391 52.2891 35.1641 51.714 35.1641 51.0111C35.1641 50.3082 35.7391 49.7332 36.442 49.7332H53.1193C53.8222 49.7332 54.3973 50.3082 54.3973 51.0111C54.3973 51.714 53.8222 52.2891 53.1193 52.2891Z" fill="black"/>
<path d="M25.6425 52.2892H15.2272C14.5243 52.2892 13.9492 51.7141 13.9492 51.0112C13.9492 50.3084 14.5243 49.7333 15.2272 49.7333H25.6425C26.3454 49.7333 26.9205 50.3084 26.9205 51.0112C26.9205 51.7141 26.3454 52.2892 25.6425 52.2892Z" fill="black"/>
<path d="M22.9592 46.0898H8.19885C7.49598 46.0898 6.9209 45.5148 6.9209 44.8119C6.9209 44.109 7.49598 43.5339 8.19885 43.5339H22.9592C23.6621 43.5339 24.2372 44.109 24.2372 44.8119C24.2372 45.5148 23.6621 46.0898 22.9592 46.0898Z" fill="black"/>
<path d="M55.5472 46.0908C52.1606 46.0908 49.6686 46.0269 47.1766 46.0269C44.7485 46.0269 42.2565 45.963 38.9977 45.963C38.2948 45.963 37.7197 45.3879 37.7197 44.6851C37.7197 43.9822 38.2948 43.4071 38.9977 43.4071C42.3204 43.4071 44.7485 43.471 47.1766 43.471C49.6686 43.471 52.1606 43.5349 55.5472 43.5349C56.2501 43.5349 56.8252 44.11 56.8252 44.8129C56.8252 45.5157 56.2501 46.0908 55.5472 46.0908Z" fill="black"/>
<path d="M28.2619 46.1535C29.1795 46.1535 29.9233 45.4097 29.9233 44.4922C29.9233 43.5746 29.1795 42.8308 28.2619 42.8308C27.3444 42.8308 26.6006 43.5746 26.6006 44.4922C26.6006 45.4097 27.3444 46.1535 28.2619 46.1535Z" fill="black"/>
<path d="M31.9045 35.2277C32.822 35.2277 33.5658 34.4839 33.5658 33.5664C33.5658 32.6488 32.822 31.905 31.9045 31.905C30.987 31.905 30.2432 32.6488 30.2432 33.5664C30.2432 34.4839 30.987 35.2277 31.9045 35.2277Z" fill="black"/>
<path d="M32.799 40.9152C33.7166 40.9152 34.4604 40.1714 34.4604 39.2539C34.4604 38.3363 33.7166 37.5925 32.799 37.5925C31.8815 37.5925 31.1377 38.3363 31.1377 39.2539C31.1377 40.1714 31.8815 40.9152 32.799 40.9152Z" fill="black"/>
<path d="M34.3322 59.7648C35.2498 59.7648 35.9936 59.021 35.9936 58.1035C35.9936 57.1859 35.2498 56.4421 34.3322 56.4421C33.4147 56.4421 32.6709 57.1859 32.6709 58.1035C32.6709 59.021 33.4147 59.7648 34.3322 59.7648Z" fill="black"/>
<path d="M29.6682 50.6905C30.5857 50.6905 31.3295 49.9467 31.3295 49.0291C31.3295 48.1116 30.5857 47.3678 29.6682 47.3678C28.7506 47.3678 28.0068 48.1116 28.0068 49.0291C28.0068 49.9467 28.7506 50.6905 29.6682 50.6905Z" fill="black"/>
<path d="M34.0129 47.9445C34.9304 47.9445 35.6742 47.2007 35.6742 46.2832C35.6742 45.3656 34.9304 44.6218 34.0129 44.6218C33.0954 44.6218 32.3516 45.3656 32.3516 46.2832C32.3516 47.2007 33.0954 47.9445 34.0129 47.9445Z" fill="black"/>
<path d="M32.8635 54.716C33.781 54.716 34.5248 53.9722 34.5248 53.0547C34.5248 52.1371 33.781 51.3933 32.8635 51.3933C31.946 51.3933 31.2021 52.1371 31.2021 53.0547C31.2021 53.9722 31.946 54.716 32.8635 54.716Z" fill="black"/>
<path d="M40.0831 31.0763C39.8914 31.0763 39.6997 30.9485 39.4441 30.8207C38.869 30.4373 38.7412 29.6066 39.1246 29.0315C39.2524 28.8398 39.3802 28.712 39.5719 28.6481C40.4665 28.0731 48.7732 22.3862 49.7955 21.4916L45.5783 16.6354L45.2588 16.891C44.1086 17.9133 38.9968 23.6641 37.1438 25.8366C36.6965 26.3478 35.8658 26.4117 35.3546 25.9644C34.8435 25.5172 34.7796 24.6865 35.2268 24.1753C35.8658 23.4085 42.0639 16.3159 43.5336 15.0379L44.6837 14.0156C45.3227 13.5044 46.2173 13.5683 46.7923 14.1434L52.4153 20.597C52.9265 21.236 52.8626 22.1306 52.2876 22.7057L51.5208 23.3446C51.0735 23.728 49.1566 25.1338 45.77 27.4341C44.492 28.3287 43.278 29.1593 42.3834 29.7344C41.0415 30.7568 40.5304 31.0763 40.0831 31.0763Z" fill="black"/>
<path d="M37.9737 32.9933C37.9098 32.9933 37.9098 32.9933 37.8459 32.9933C37.1431 32.9294 35.3539 32.0349 34.9705 31.5876L33.5009 30.054C33.1175 29.6068 32.4785 27.6898 32.4785 26.987C32.4785 26.6036 32.6702 26.2841 32.9258 26.0285L34.7149 24.431C35.4178 23.7921 36.5041 23.9199 37.0792 24.6227L40.7213 28.7761C41.0408 29.0956 41.1686 29.5429 41.1686 29.9901C41.1686 30.4374 40.913 30.8208 40.5935 31.1403L38.8044 32.7378C38.6127 32.9294 38.2932 32.9933 37.9737 32.9933ZM36.7597 29.8624C36.9514 29.9901 37.3347 30.1818 37.6542 30.3096L38.2932 29.7985L35.8012 26.9231L35.1622 27.4342C35.29 27.7537 35.4178 28.201 35.4817 28.3927L36.7597 29.8624Z" fill="black"/>
<path d="M40.5935 26.5387C40.2101 26.5387 39.8906 26.4109 39.6351 26.0914C39.1878 25.5802 39.2517 24.7495 39.7628 24.3022L45.5136 19.3821C46.0248 18.9348 46.8555 18.9987 47.3028 19.5099C47.7501 20.0211 47.6862 20.8518 47.175 21.2991L41.4242 26.2192C41.1686 26.4109 40.913 26.5387 40.5935 26.5387Z" fill="black"/>
</svg>
