<svg width="64" height="71" viewBox="0 0 64 71" fill="none" xmlns="http://www.w3.org/2000/svg">
<path d="M32.0319 67.1116C30.754 67.1116 29.476 66.7921 28.3259 66.1532L5.96166 53.8848C3.53355 52.5429 2 49.987 2 47.1755V23.15C2 20.3385 3.53355 17.7826 5.96166 16.4407L28.3259 4.17233C30.6262 2.89438 33.3738 2.89438 35.6741 4.17233L58.0383 16.4407C60.4665 17.7826 62 20.3385 62 23.15V47.1755C62 49.987 60.4665 52.5429 58.0383 53.8848L35.6741 66.1532C34.5879 66.7921 33.3099 67.1116 32.0319 67.1116ZM32.0319 5.76978C31.2013 5.76978 30.3706 5.96147 29.5399 6.40876L7.17572 18.6771C5.51438 19.5717 4.55591 21.2969 4.55591 23.15V47.1755C4.55591 49.0286 5.57827 50.7538 7.17572 51.6484L29.5399 63.9167C31.0735 64.7474 32.9265 64.7474 34.4601 63.9167L56.8243 51.6484C58.4856 50.7538 59.508 49.0286 59.508 47.1755V23.15C59.508 21.2969 58.4856 19.5717 56.8243 18.6771L34.4601 6.40876C33.6933 5.96147 32.8626 5.76978 32.0319 5.76978Z" fill="black"/>
<path d="M31.5837 56.2502H23.277C22.5741 56.2502 21.999 55.6752 21.999 54.9723C21.999 54.2694 22.5741 53.6943 23.277 53.6943H31.5837C32.2866 53.6943 32.8616 54.2694 32.8616 54.9723C32.8616 55.6752 32.2866 56.2502 31.5837 56.2502Z" fill="black"/>
<path d="M43.2777 42.7034H28.1979C27.495 42.7034 26.9199 42.1283 26.9199 41.4254C26.9199 40.7225 27.495 40.1475 28.1979 40.1475H43.2777C43.9806 40.1475 44.5557 40.7225 44.5557 41.4254C44.5557 42.1283 43.9806 42.7034 43.2777 42.7034Z" fill="black"/>
<path d="M52.99 43.2784C53.5012 42.3199 52.6066 40.6586 50.8175 39.5084C49.6034 38.6778 48.3255 38.2944 47.4948 38.55C47.1114 38.6139 46.8558 38.8056 46.6641 39.125C46.153 40.0835 47.0475 41.7449 48.8367 42.895C49.7951 43.534 50.8814 43.9174 51.6482 43.9174C51.8398 43.9174 51.9676 43.9174 52.1593 43.8535C52.5427 43.7257 52.8622 43.534 52.99 43.2784Z" fill="black"/>
<path d="M8.96427 38.8053C8.38919 39.1248 8.00581 39.5721 7.87801 40.0194C7.75021 40.3389 7.81411 40.6584 8.00581 40.9779C8.2614 41.4252 8.77258 41.6168 9.28376 41.6168C9.66715 41.6168 10.0505 41.489 10.4339 41.2974C11.009 41.0418 11.3924 40.5306 11.5202 40.0833C11.648 39.7638 11.5841 39.4443 11.3924 39.1248C11.009 38.4859 9.92274 38.2942 8.96427 38.8053Z" fill="black"/>
<path d="M27.0472 49.4758C27.4945 50.2426 28.3251 50.6259 29.1558 50.6259C29.5392 50.6259 29.9865 50.5621 30.306 50.3704C30.881 50.0509 31.3283 49.5397 31.4561 48.9646C31.5839 48.3895 31.52 47.8144 31.2005 47.2394C30.5615 46.1531 29.028 45.7697 27.8778 46.4087C27.3028 46.7282 26.8555 47.2394 26.7277 47.8144C26.5999 48.3256 26.7277 48.9646 27.0472 49.4758Z" fill="black"/>
<path d="M50.3701 45.4513C49.156 45.7068 48.0698 46.0263 47.1113 46.3458C45.45 46.857 44.172 47.2404 43.0857 46.9848C42.6385 46.857 42.1912 46.7292 41.7439 46.6014C40.0825 46.0902 38.3573 45.5791 35.6736 46.218C34.9707 46.4097 33.6289 46.6653 33.8845 47.5599C34.1401 48.3906 35.4819 48.4544 37.3988 48.3267C37.7822 48.3906 38.2934 48.5183 38.8685 48.7739C39.7631 49.0934 40.9132 49.4768 42.3829 49.6685C45.5139 50.1158 48.6448 49.2212 50.5618 48.3267C51.0091 48.135 51.2008 48.135 51.2008 48.0711C51.3925 48.135 51.648 48.6461 51.7119 48.8378C51.8397 49.1573 52.1592 49.7963 53.1177 49.7963C53.1177 49.7963 53.1177 49.7963 53.1816 49.7963C54.204 49.7963 54.4595 49.0934 54.5234 48.8378C54.9068 47.8155 54.3956 46.6014 53.4372 45.9624C52.6065 45.3874 51.5202 45.2596 50.3701 45.4513Z" fill="black"/>
<path d="M55.6736 33.8215H49.8589C49.0922 31.5851 46.8557 28.4541 42.5746 28.7736C37.4628 29.157 31.2647 31.5212 31.0091 31.649C30.5618 31.8407 30.2423 32.2241 30.1784 32.7353C30.1145 33.1826 30.3062 33.5659 30.6896 33.8215H8.38928C7.68641 33.8215 7.11133 34.3966 7.11133 35.0995C7.11133 35.8024 7.68641 36.3774 8.38928 36.3774H35.2263C37.2711 37.3998 39.5714 38.4222 41.3605 38.7417C41.7439 38.8056 42.1273 38.8695 42.5107 38.8695C45.0666 38.8695 47.4308 37.5276 48.7088 36.5691C49.6672 37.1442 50.4979 37.7832 51.073 38.3583C51.3286 38.6139 51.6481 38.7417 51.9676 38.7417C52.287 38.7417 52.6065 38.6139 52.8621 38.3583C53.3733 37.8471 53.3094 37.0164 52.8621 36.5691C52.7982 36.5052 52.7982 36.5052 52.7343 36.4413H55.6736C56.3765 36.4413 56.9516 35.8663 56.9516 35.1634C56.9516 34.4605 56.3765 33.8215 55.6736 33.8215ZM41.8078 36.1858C39.7631 35.8663 36.696 34.2688 34.5235 33.1187C36.696 32.4158 39.9548 31.5212 42.7663 31.3295C44.6193 31.2017 45.7695 31.9685 46.4724 32.8631C46.2168 32.7992 46.0251 32.7353 45.7695 32.6714C43.9803 32.288 42.1273 32.2241 40.2743 32.5436C39.5714 32.6714 39.1241 33.3104 39.188 34.0132C39.3158 34.7161 39.9548 35.1634 40.6577 35.0995C42.1912 34.8439 43.7247 34.9078 45.1944 35.2273C45.3861 35.2912 45.5778 35.3551 45.7695 35.3551C44.6193 35.9302 43.1497 36.4413 41.8078 36.1858Z" fill="black"/>
<path d="M26.6639 37.7198C26.3444 37.3364 25.8971 37.2086 25.4498 37.2725C25.1303 37.3364 17.5265 38.9339 14.3955 41.1703C11.9674 42.8955 11.2006 46.2821 11.0089 48.1351C10.306 48.2629 9.73096 48.3268 9.15588 48.3268C8.45301 48.3268 7.87793 48.9019 7.87793 49.6048C7.87793 50.3077 8.45301 50.8827 9.15588 50.8827C9.15588 50.8827 9.15589 50.8827 9.21978 50.8827C9.85876 50.8827 10.6894 50.8188 11.5201 50.6272C12.5425 51.33 14.3316 52.0329 16.1846 52.0329C17.9099 52.0329 19.699 51.3939 21.1687 49.6048C24.4274 45.5792 26.8556 39.1895 26.9195 38.9339C27.0473 38.5505 26.9834 38.0393 26.6639 37.7198ZM19.1239 48.0712C17.9099 49.5409 16.4402 49.7326 15.2262 49.477C15.7374 49.2214 16.3124 48.9658 16.8236 48.5824C18.3572 47.5601 19.699 46.2821 20.7853 44.7486C21.1687 44.1735 21.0409 43.4067 20.4658 42.9594C19.8907 42.576 19.1239 42.7038 18.6767 43.2789C17.7821 44.5569 16.6958 45.5792 15.4179 46.4099C14.8428 46.7933 14.2038 47.1128 13.6287 47.3684C13.9482 45.8987 14.5872 44.1096 15.8013 43.215C17.3987 42.0649 20.9131 40.9786 23.469 40.2757C22.5744 42.5121 20.977 45.7709 19.1239 48.0712Z" fill="black"/>
<path d="M41.2964 58.997C40.9769 58.997 40.6575 58.8692 40.4019 58.6136C40.0824 58.2941 39.699 57.9746 39.3156 57.719C38.7405 57.2717 38.6766 56.5049 39.06 55.9299C39.5073 55.3548 40.2741 55.2909 40.8491 55.6743C41.2964 55.9938 41.7437 56.3771 42.1271 56.7605C42.6383 57.2717 42.6383 58.0385 42.1271 58.5497C41.9354 58.8692 41.6159 58.997 41.2964 58.997Z" fill="black"/>
<path d="M37.9739 60.787C37.5266 60.787 37.0794 60.5314 36.8877 60.148C36.3765 59.2534 33.7567 54.525 35.2902 51.7135C35.4819 51.3301 35.8653 51.0745 36.2487 51.0745C36.4404 51.0745 41.4883 50.4994 45.5139 55.1001C45.9612 55.6113 45.8973 56.4419 45.3861 56.8892C44.8749 57.3365 44.0442 57.2726 43.5969 56.7614C41.2966 54.1416 38.6768 53.6943 37.3989 53.5665C37.2711 54.9723 38.2934 57.4643 39.1241 58.87C39.5075 59.509 39.2519 60.2758 38.6768 60.5953C38.4212 60.7231 38.1656 60.787 37.9739 60.787Z" fill="black"/>
</svg>
