<svg width="60" height="66" viewBox="0 0 60 66" fill="none" xmlns="http://www.w3.org/2000/svg">
<g clip-path="url(#clip0_2921_22839)">
<path d="M28.0514 52.0769C27.6041 52.0769 27.1568 51.8213 26.9012 51.3741C26.5817 50.7351 26.8373 49.9683 27.4763 49.6488C27.7958 49.4571 28.5626 49.1376 28.6904 46.9012V31.7574C28.6904 31.0546 29.2654 30.4795 29.9683 30.4795C30.6712 30.4795 31.2463 31.0546 31.2463 31.7574V46.9651V47.029C31.0546 49.5849 30.2239 51.1185 28.6265 51.9491C28.4348 52.013 28.2431 52.0769 28.0514 52.0769Z" fill="black"/>
<path d="M28.4343 36.103C28.1787 36.103 27.8593 36.0391 27.6037 35.9752C25.9423 35.5279 24.5366 34.7611 23.4503 33.7388C20.7666 31.0551 20.7666 26.8378 20.7666 26.6461C20.7666 25.9432 21.3417 25.3682 22.0446 25.3682C22.2363 25.3682 26.4535 25.3682 29.1372 28.0519C30.1596 29.0742 30.9263 30.48 31.3736 32.2052C31.5014 32.7164 31.5014 33.2915 31.3736 33.8027C31.1819 34.5694 30.6708 35.2723 29.904 35.6557C29.4567 35.9752 28.9455 36.103 28.4343 36.103ZM23.5142 28.0519C23.7059 29.202 24.2171 30.7995 25.3033 31.8857C26.0062 32.5886 27.0286 33.1637 28.3065 33.4832C28.4982 33.5471 28.626 33.4832 28.6899 33.4193C28.7538 33.3554 28.8816 33.2915 28.9455 33.0998C28.9455 33.0359 28.9455 32.9081 28.9455 32.8442C28.626 31.5662 28.0509 30.5439 27.3481 29.841C26.1979 28.7547 24.6005 28.2436 23.5142 28.0519Z" fill="black"/>
<path d="M31.5019 35.654C30.8629 35.654 30.2878 35.3984 29.8405 34.9511C29.1377 34.2482 28.8182 33.2259 29.0738 32.2035C29.3932 30.7978 29.9683 29.6476 30.7351 28.8169C32.7159 26.5166 35.8469 26.5166 36.0386 26.5166C36.7415 26.5166 37.3166 27.0917 37.3166 27.7946C37.3166 27.9224 37.3166 31.3728 35.3996 33.6093C34.6329 34.5038 33.6105 35.1428 32.3325 35.5262C31.9492 35.5901 31.7575 35.654 31.5019 35.654ZM34.5051 29.392C33.8661 29.5837 33.1632 29.9671 32.5881 30.5422C32.1408 31.1172 31.7575 31.884 31.5019 32.8425C31.5019 32.9703 31.5019 33.0342 31.5019 33.0981C32.2686 32.8425 32.9076 32.4591 33.3549 31.9479C33.9939 31.1811 34.3134 30.2227 34.5051 29.392Z" fill="black"/>
<path d="M32.7152 29.841C32.0124 29.841 31.4373 29.266 31.4373 28.5631C31.4373 27.4129 30.8622 26.0711 30.2871 25.0487C29.712 26.135 29.137 27.4768 29.137 28.5631C29.137 29.266 28.5619 29.841 27.859 29.841C27.1561 29.841 26.5811 29.266 26.5811 28.5631C26.5811 25.496 29.0092 22.3011 29.3287 21.9177C29.8398 21.2787 30.8622 21.2787 31.3734 21.9177C31.629 22.3011 34.121 25.496 34.121 28.5631C33.9932 29.266 33.4181 29.841 32.7152 29.841Z" fill="black"/>
<path d="M49.0732 35.0159C48.4342 35.0159 47.8591 34.7603 47.4118 34.3769C46.7089 33.674 46.3895 32.6516 46.645 31.6293C46.9645 30.2235 47.5396 29.0734 48.3064 28.2427C50.2872 25.9424 53.4821 25.9424 53.6099 25.9424C54.3128 25.9424 54.8879 26.5175 54.8879 27.2203C54.8879 27.3481 54.8879 30.7986 52.9709 33.035C52.2042 33.9296 51.1818 34.5686 49.9038 34.952C49.5204 34.952 49.2649 35.0159 49.0732 35.0159ZM49.0732 32.2044C49.0732 32.3322 49.0732 32.3961 49.0732 32.46C49.8399 32.2044 50.4789 31.821 50.9262 31.3098C51.5652 30.6069 51.8847 29.5846 52.0764 28.7539C51.4374 28.9456 50.7345 29.329 50.1594 29.904C49.6482 30.4152 49.3288 31.2459 49.0732 32.2044Z" fill="black"/>
<path d="M46.0066 35.4643C45.751 35.4643 45.4315 35.4004 45.1759 35.3365C43.5146 34.8892 42.1088 34.1225 41.0226 33.1001C38.3389 30.4164 38.3389 26.1991 38.3389 26.0074C38.3389 25.3046 38.9139 24.7295 39.6168 24.7295C39.6807 24.7295 40.7031 24.7295 42.1088 25.049C42.3644 25.1129 42.5561 25.2407 42.7478 25.4324L42.8117 25.4963C43.5785 26.263 44.5369 26.7742 45.8149 27.0937C45.8788 27.0937 45.8788 27.0937 45.9427 27.0937C46.2622 27.0937 46.5817 27.2215 46.7734 27.4771C47.7957 28.4995 48.4986 29.8413 48.9459 31.5027C49.0737 32.0138 49.0737 32.5889 48.9459 33.1001C48.7542 33.8669 48.243 34.5697 47.4762 34.9531C47.029 35.3365 46.5178 35.4643 46.0066 35.4643ZM41.0226 27.4132C41.2143 28.5634 41.7254 30.1608 42.8117 31.2471C43.5146 31.9499 44.5369 32.525 45.8149 32.8445C46.0066 32.9084 46.1344 32.8445 46.1983 32.7806C46.2622 32.7167 46.39 32.6528 46.4539 32.4611C46.4539 32.3972 46.4539 32.2694 46.4539 32.2055C46.1983 31.1832 45.751 30.2886 45.1759 29.5857H45.112C43.5146 29.1384 42.1727 28.4356 41.0865 27.4771C41.0865 27.4132 41.0865 27.4132 41.0226 27.4132Z" fill="black"/>
<path d="M49.0732 29.2639C48.4342 29.2639 47.8591 29.0083 47.4118 28.6249C46.7089 27.9221 46.3895 26.8997 46.645 25.8773C46.9645 24.4716 47.5396 23.3214 48.3064 22.4907C50.2872 20.1904 53.4182 20.1904 53.6099 20.1904C54.3128 20.1904 54.8879 20.7655 54.8879 21.4684C54.8879 21.5962 54.8879 25.0467 52.9709 27.2831C52.2042 28.1776 51.1818 28.8166 49.9038 29.2C49.5204 29.2 49.2649 29.2639 49.0732 29.2639ZM49.0732 26.4524C49.0732 26.5802 49.0732 26.6441 49.0732 26.708C49.8399 26.4524 50.4789 26.069 50.9262 25.5578C51.5652 24.855 51.8847 23.8326 52.0764 23.0019C51.4374 23.1936 50.7345 23.577 50.1594 24.1521C49.6482 24.6633 49.3288 25.4939 49.0732 26.4524Z" fill="black"/>
<path d="M50.224 23.4492C49.5212 23.4492 48.9461 22.8741 48.9461 22.1712C48.9461 21.021 48.371 19.6792 47.7959 18.6568C47.2208 19.7431 46.6458 21.021 46.6458 22.1712C46.6458 22.8741 46.0707 23.4492 45.3678 23.4492C44.6649 23.4492 44.0898 22.8741 44.0898 22.1712C44.0898 19.1041 46.518 15.9092 46.8374 15.5258C47.093 15.2063 47.4764 15.0146 47.8598 15.0146C48.2432 15.0146 48.6266 15.2063 48.8822 15.5258C49.1378 15.9092 51.6298 19.1041 51.6298 22.1712C51.502 22.8741 50.9269 23.4492 50.224 23.4492Z" fill="black"/>
<path d="M53.6746 43.387H6.39026C5.68738 43.387 5.1123 42.8119 5.1123 42.109C5.1123 41.4061 5.68738 40.8311 6.39026 40.8311H53.6746C54.3775 40.8311 54.9526 41.4061 54.9526 42.109C54.9526 42.8119 54.3775 43.387 53.6746 43.387Z" fill="black"/>
<path d="M30.0319 65.1116C28.754 65.1116 27.476 64.7921 26.3259 64.1532L3.96166 51.8848C1.53355 50.5429 0 47.987 0 45.1755V21.15C0 18.3385 1.53355 15.7826 3.96166 14.4407L26.3259 2.17233C28.6262 0.894378 31.3738 0.894378 33.6741 2.17233L56.0383 14.4407C58.4665 15.7826 60 18.3385 60 21.15V45.1755C60 47.987 58.4665 50.5429 56.0383 51.8848L33.6741 64.1532C32.5879 64.7921 31.3099 65.1116 30.0319 65.1116ZM30.0319 3.76978C29.2013 3.76978 28.3706 3.96147 27.5399 4.40876L5.17572 16.6771C3.51438 17.5717 2.55591 19.2969 2.55591 21.15V45.1755C2.55591 47.0286 3.57827 48.7538 5.17572 49.6484L27.5399 61.9167C29.0735 62.7474 30.9265 62.7474 32.4601 61.9167L54.8243 49.6484C56.4856 48.7538 57.4441 47.0286 57.4441 45.1755V21.15C57.4441 19.2969 56.4217 17.5717 54.8243 16.6771L32.4601 4.40876C31.6933 3.96147 30.8626 3.76978 30.0319 3.76978Z" fill="black"/>
<path d="M19.1048 50.2874H11.8844C11.1815 50.2874 10.6064 49.7123 10.6064 49.0094C10.6064 48.3065 11.1815 47.7314 11.8844 47.7314H19.1048C19.8077 47.7314 20.3828 48.3065 20.3828 49.0094C20.3828 49.7123 19.8077 50.2874 19.1048 50.2874Z" fill="black"/>
<path d="M37.5078 57.4436H22.0446C21.3417 57.4436 20.7666 56.8685 20.7666 56.1657C20.7666 55.4628 21.3417 54.8877 22.0446 54.8877H37.5078C38.2107 54.8877 38.7858 55.4628 38.7858 56.1657C38.7858 56.8685 38.2107 57.4436 37.5078 57.4436Z" fill="black"/>
<path d="M24.154 50.0959H23.2594C22.5565 50.0959 21.9814 49.5209 21.9814 48.818C21.9814 48.1151 22.5565 47.54 23.2594 47.54H24.154C24.8568 47.54 25.4319 48.1151 25.4319 48.818C25.4319 49.5209 24.8568 50.0959 24.154 50.0959Z" fill="black"/>
<path d="M38.722 50.0959H35.6549C34.952 50.0959 34.377 49.5209 34.377 48.818C34.377 48.1151 34.952 47.54 35.6549 47.54H38.722C39.4249 47.54 40 48.1151 40 48.818C40 49.5209 39.4249 50.0959 38.722 50.0959Z" fill="black"/>
<path d="M46.0066 29.7124C45.751 29.7124 45.4315 29.6485 45.1759 29.5846C43.5146 29.1373 42.1088 28.3705 41.0226 27.3481C38.3389 24.6644 38.3389 20.4472 38.3389 20.2555C38.3389 19.5526 38.9139 18.9775 39.6168 18.9775C39.8085 18.9775 44.0258 18.9775 46.7095 21.6612C47.7318 22.6836 48.4986 24.0894 48.9459 25.8146C49.0737 26.3258 49.0737 26.9009 48.9459 27.412C48.7542 28.1788 48.243 28.8817 47.4762 29.2651C47.029 29.5846 46.5178 29.7124 46.0066 29.7124ZM41.0226 21.6612C41.2143 22.8114 41.7254 24.4088 42.8117 25.4951C43.5146 26.198 44.5369 26.7731 45.8149 27.0926C46.0066 27.1565 46.1344 27.0926 46.1983 27.0287C46.2622 26.9648 46.39 26.9009 46.4539 26.7092C46.4539 26.6453 46.4539 26.5175 46.4539 26.4536C46.1344 25.1756 45.5593 24.1533 44.8564 23.4504C43.7702 22.3641 42.1727 21.8529 41.0226 21.6612Z" fill="black"/>
<path d="M32.3965 53.8015C32.1409 53.8015 31.9492 53.7376 31.6936 53.6098C30.6713 52.9709 28.6904 50.2233 28.6904 46.9645C28.6904 46.2616 29.2655 45.6865 29.9684 45.6865C30.6713 45.6865 31.2463 46.2616 31.2463 46.9645C31.3102 49.3287 32.7799 51.2456 33.1633 51.5651C33.7384 51.9485 33.8661 52.7792 33.4828 53.3543C33.2272 53.6098 32.8438 53.8015 32.3965 53.8015Z" fill="black"/>
<path d="M50.4797 50.8618C50.4158 50.8618 50.4158 50.8618 50.3519 50.8618C48.6266 50.734 46.7097 49.0088 46.4541 45.6222V45.5583V30.2867C46.4541 29.5839 47.0292 29.0088 47.7321 29.0088C48.4349 29.0088 49.01 29.5839 49.01 30.2867V45.4305C49.1378 47.2835 50.0324 48.242 50.5436 48.3059C51.2464 48.3698 51.7576 49.0088 51.6937 49.7117C51.6937 50.3506 51.1825 50.8618 50.4797 50.8618Z" fill="black"/>
<path d="M42.0446 54.0569C41.3417 54.0569 40.7666 53.4818 40.7666 52.7789C40.7666 52.0761 41.3417 51.501 42.0446 51.501C44.6644 51.501 45.7506 47.9866 45.7506 45.8141C45.7506 45.1112 46.3896 44.5361 47.0286 44.5361C47.7315 44.5361 48.3065 45.1112 48.3065 45.8141C48.2426 49.9035 46.0701 54.0569 42.0446 54.0569Z" fill="black"/>
<path d="M42.8112 48.8811C42.1083 48.8811 41.5332 48.306 41.5332 47.6032C41.5332 46.9003 42.1083 46.3252 42.8112 46.3252C45.431 46.3252 46.5172 42.8108 46.5172 40.6383C46.5172 39.9354 47.0923 39.3604 47.7952 39.3604C48.4981 39.3604 49.0731 39.9354 49.0731 40.6383C49.0092 44.7278 46.8367 48.8811 42.8112 48.8811Z" fill="black"/>
<path d="M50.0958 54.6967C50.032 54.6967 50.0319 54.6967 49.9681 54.6967C48.2428 54.5689 46.3259 52.8436 46.0703 49.4571C46.0064 48.7542 46.5815 48.1152 47.2843 48.1152C47.9872 48.0513 48.6262 48.6264 48.6262 49.3293C48.754 51.2462 49.6486 52.2047 50.1597 52.2047C50.8626 52.2686 51.3738 52.9075 51.3099 53.6104C51.3099 54.1855 50.7348 54.6967 50.0958 54.6967Z" fill="black"/>
</g>
<defs>
<clipPath id="clip0_2921_22839">
<rect width="60" height="65" fill="white" transform="translate(0 0.268799)"/>
</clipPath>
</defs>
</svg>
