<svg width="60" height="66" viewBox="0 0 60 66" fill="none" xmlns="http://www.w3.org/2000/svg">
<path d="M29.553 54.1928H21.2551C20.553 54.1928 19.9785 53.6184 19.9785 52.9162C19.9785 52.2141 20.553 51.6396 21.2551 51.6396H29.553C30.2551 51.6396 30.8296 52.2141 30.8296 52.9162C30.8296 53.6184 30.2551 54.1928 29.553 54.1928Z" fill="black"/>
<path d="M39.7658 54.1928H34.6594C33.9573 54.1928 33.3828 53.6184 33.3828 52.9162C33.3828 52.2141 33.9573 51.6396 34.6594 51.6396H39.7658C40.4679 51.6396 41.0424 52.2141 41.0424 52.9162C41.0424 53.6184 40.4679 54.1928 39.7658 54.1928Z" fill="black"/>
<path d="M53.8088 45.8315H48.7024C48.0002 45.8315 47.4258 45.257 47.4258 44.5549C47.4258 43.8528 48.0002 43.2783 48.7024 43.2783H53.8088C54.5109 43.2783 55.0854 43.8528 55.0854 44.5549C55.0854 45.257 54.5109 45.8315 53.8088 45.8315Z" fill="black"/>
<path d="M50.9363 41.2362C51.4469 40.2787 50.5533 38.6192 48.766 37.4702C47.5533 36.6404 46.2767 36.2575 45.4469 36.5128C45.0639 36.5766 44.8086 36.7681 44.6171 37.0872C44.1065 38.0447 45.0001 39.7043 46.7873 40.8532C47.7448 41.4915 48.8299 41.8745 49.5958 41.8745C49.7873 41.8745 49.915 41.8745 50.1065 41.8106C50.4894 41.683 50.8086 41.4915 50.9363 41.2362Z" fill="black"/>
<path d="M6.95719 36.7678C6.38272 37.087 5.99974 37.5338 5.87208 37.9806C5.74442 38.2997 5.80825 38.6189 5.99974 38.938C6.25506 39.3848 6.7657 39.5763 7.27634 39.5763C7.65931 39.5763 8.04229 39.4487 8.42527 39.2572C8.99974 39.0018 9.38272 38.4912 9.51038 38.0444C9.63804 37.7252 9.57421 37.4061 9.38272 37.087C8.99974 36.4487 7.91463 36.2572 6.95719 36.7678Z" fill="black"/>
<path d="M8.99971 43.8517C9.8295 44.107 10.5955 44.49 11.2976 44.7453C12.4465 45.2559 13.3401 45.7027 14.1061 45.3836C14.4252 45.2559 14.7444 45.1283 14.9997 45.0006C16.1486 44.49 17.3614 43.9793 19.2125 44.5538C19.7231 44.7453 20.6167 45.0644 20.4891 45.8942C20.2976 46.7878 19.3401 46.7878 17.9997 46.724C17.7444 46.7878 17.3614 46.9793 16.9784 47.1708C16.3401 47.49 15.5742 47.9368 14.4891 48.1283C12.3827 48.5751 10.2125 47.6814 8.87205 46.724C8.5529 46.4687 8.42525 46.4687 8.42525 46.4687C8.29759 46.5325 8.1061 47.107 8.04227 47.2985C7.91461 47.6176 7.72312 48.2559 7.08482 48.2559C6.38269 48.2559 6.1912 47.49 6.12737 47.2346C5.87205 46.2134 6.1912 44.9368 6.89333 44.2346C7.40397 43.7878 8.16993 43.5963 8.99971 43.8517Z" fill="black"/>
<path d="M35.7445 34.4693C36.4466 34.4693 37.0211 33.8948 37.0211 33.1927C37.0211 32.4906 36.4466 31.9161 35.7445 31.9161H34.2126C34.1487 31.7885 34.0211 31.597 33.8934 31.4693L36.0636 29.7459C36.6381 29.2991 36.7019 28.5331 36.2551 27.9587C35.8083 27.3842 35.0424 27.3204 34.4679 27.7672L31.7232 29.9374C31.6594 29.9374 31.5956 29.9374 31.5956 29.8736V27.7034C31.5956 27.0012 31.0211 26.4268 30.319 26.4268C29.6168 26.4268 29.0424 27.0012 29.0424 27.7034V29.7459C28.5956 29.8097 28.2126 29.9374 27.8296 30.0651L26.6168 28.8523C26.1062 28.3417 25.3402 28.3417 24.8296 28.8523C24.319 29.3629 24.319 30.1289 24.8296 30.6395L25.787 31.597C25.7232 31.6608 25.6594 31.7246 25.6594 31.8523H21.9573C21.2551 31.8523 20.6807 32.4268 20.6807 33.1289C20.6807 33.831 21.2551 34.4055 21.9573 34.4055H25.2764C25.4041 34.8523 25.5956 35.2991 25.9147 35.6821L24.9573 36.6395C24.4466 37.1502 24.4466 37.9161 24.9573 38.4268C25.2126 38.6821 25.5317 38.8097 25.8509 38.8097C26.17 38.8097 26.4892 38.6821 26.7445 38.4268L28.0211 37.1502C28.3402 37.2778 28.6594 37.3417 29.0424 37.4055V39.0651C29.0424 39.7672 29.6168 40.3417 30.319 40.3417C31.0211 40.3417 31.5956 39.7672 31.5956 39.0651V37.214C31.8509 37.1502 32.17 37.0225 32.4253 36.8948L34.2764 38.7459C34.5317 39.0012 34.8509 39.1289 35.17 39.1289C35.4892 39.1289 35.8083 39.0012 36.0636 38.7459C36.5743 38.2353 36.5743 37.4693 36.0636 36.9587L34.3402 35.2353C34.5317 34.9799 34.6594 34.6608 34.7232 34.3417H35.7445V34.4693ZM29.9998 35.0438C28.6594 35.0438 27.7658 34.2778 27.7658 33.6395C27.7658 33.0012 28.6594 32.2353 29.9998 32.2353C31.3402 32.2353 32.2339 33.0012 32.2339 33.6395C32.2339 34.2778 31.2764 35.0438 29.9998 35.0438Z" fill="black"/>
<path d="M56.0426 14.4266L33.7021 2.17131C31.4043 0.894718 28.6596 0.894718 26.3617 2.17131L4.02128 14.4266C1.53191 15.7671 0 18.3202 0 21.1288V45.1288C0 47.9373 1.53191 50.4905 3.95745 51.8309L26.2979 64.0862C27.4468 64.7245 28.7234 65.0437 30 65.0437C31.2766 65.0437 32.5532 64.7245 33.7021 64.0862L48.383 56.0437C48.7021 55.916 48.9574 55.7883 49.2128 55.533C50.234 54.5756 50.3617 52.9798 49.4043 51.9585L40.8511 42.4479C40.7872 42.3841 40.7234 42.3203 40.6596 42.2564C42.5106 40.0862 43.6596 37.3415 43.9149 34.3415H53.617C54.3191 34.3415 54.8936 33.7671 54.8936 33.0649C54.8936 32.3628 54.3191 31.7883 53.617 31.7883H43.8511C43.0851 24.7032 37.1489 19.2139 29.8723 19.2139C22.5957 19.2139 16.6596 24.7032 15.9574 31.7883H6.38298C5.68085 31.7883 5.10638 32.3628 5.10638 33.0649C5.10638 33.7671 5.68085 34.3415 6.38298 34.3415H15.8936C16.4681 41.5543 22.5319 47.299 29.8723 47.299C32.3617 47.299 34.7234 46.6607 36.766 45.5117C36.8298 45.6394 36.9574 45.7671 37.0213 45.8947L45.1277 54.9585L32.4255 61.8522C30.8936 62.6819 29.0426 62.6819 27.5106 61.8522L5.17021 49.5968C3.51064 48.7032 2.55319 46.9798 2.55319 45.1288V21.1288C2.55319 19.2777 3.57447 17.5543 5.17021 16.6607L27.5106 4.40536C29.0426 3.57557 30.8936 3.57557 32.4255 4.40536L54.766 16.6607C56.4255 17.5543 57.4468 19.2777 57.4468 21.1288V44.6181C57.4468 45.3202 58.0213 45.8947 58.7234 45.8947C59.4255 45.8947 60 45.3202 60 44.6181V21.1288C60 18.3202 58.4681 15.7671 56.0426 14.4266ZM18.383 33.2564C18.383 26.9373 23.5532 21.7671 29.8723 21.7671C36.1915 21.7671 41.3617 26.9373 41.3617 33.2564C41.3617 39.5756 36.1915 44.7458 29.8723 44.7458C23.5532 44.7458 18.383 39.5756 18.383 33.2564Z" fill="black"/>
</svg>
