<svg width="65" height="71" viewBox="0 0 65 71" fill="none" xmlns="http://www.w3.org/2000/svg">
<path d="M61.736 23.0795V47.4336C61.736 49.8302 60.4308 51.9676 58.3424 53.1335L35.5006 65.5697C33.5427 66.606 31.1933 66.606 29.2354 65.5697L6.39364 53.1335C4.30524 51.9676 3 49.7654 3 47.4336V23.0795C3 20.7478 4.30524 18.5455 6.39364 17.3797L29.2354 4.94352C31.1933 3.90717 33.5427 3.90717 35.5006 4.94352L45.2247 10.2548L46.8562 11.1616L48.8793 12.2627L50.5109 13.1695L58.3424 17.4444C60.4308 18.5455 61.736 20.7478 61.736 23.0795Z" stroke="black" stroke-width="4" stroke-linecap="round" stroke-linejoin="round"/>
<path d="M15.0737 41.4746C15.0085 41.6042 14.9432 41.7337 14.8779 41.7985C14.8779 41.7337 14.8779 41.6689 14.9432 41.6042L15.0737 41.4746Z" fill="black"/>
<path d="M27.8464 18.0264C22.1033 17.8969 18.9055 21.7184 16.4255 23.2729C16.2297 23.2081 6.50563 18.415 6.50563 18.415M36.461 28.9728L31.7621 27.1592L28.5641 28.714C24.5178 30.4629 21.8421 24.18 24.6484 23.9857C26.9325 23.7914 31.762 21.7835 34.3072 20.6824C36.1998 19.8403 38.2229 19.4517 40.3113 19.646C43.5744 19.9699 46.1197 21.4596 48.5344 23.0789C48.7301 23.0142 57.9321 18.0915 57.9321 18.0915M26.0843 42.5754L35.4821 46.7208C36.7873 47.3037 37.3094 48.8583 36.722 50.2832C36.6568 50.348 36.6568 50.4775 36.5915 50.5423C35.8736 51.773 34.3726 52.2911 33.1326 51.7082L18.9054 46.0731C15.4465 44.5186 11.7266 40.0493 11.4656 36.2926L3.37305 32.6006M28.3031 37.5223L41.2902 43.2222C42.5302 43.7404 43.1176 45.1654 42.726 46.5256C42.2692 47.9505 40.7681 48.7926 39.3976 48.3392C39.3324 48.3392 39.2671 48.2744 39.1366 48.2744L34.8293 46.396M36.3956 28.9725L44.9449 32.8588C46.1849 33.3769 46.7723 34.8019 46.3807 36.1621C45.9239 37.5871 44.4228 38.4291 43.0523 37.9757C42.987 37.9757 42.9218 37.9109 42.7913 37.9109L30.522 32.5349M41.3555 37.2632L45.6628 39.1416C46.9028 39.6598 47.4901 41.0848 47.0986 42.445C46.6417 43.8699 45.1407 44.712 43.7702 44.2586C43.705 44.2586 43.6397 44.1938 43.5092 44.1938L39.724 42.5097M52.0112 36.4229L60.8869 32.7309" stroke="black" stroke-width="4" stroke-linecap="round" stroke-linejoin="round"/>
<path d="M53.9051 67.6412C60.0325 67.6412 64.9997 62.7114 64.9997 56.6301C64.9997 50.5488 60.0325 45.6189 53.9051 45.6189C47.7778 45.6189 42.8105 50.5488 42.8105 56.6301C42.8105 62.7114 47.7778 67.6412 53.9051 67.6412Z" fill="black"/>
<path d="M49.3358 61.7487C49.5316 61.2305 50.1189 60.7123 50.7715 60.9714C51.5547 61.2305 52.3378 61.4248 53.1862 61.4248C55.0788 61.4248 55.9925 60.8419 55.9925 59.7407C55.9925 58.5749 55.2746 57.9919 53.3168 57.2794C50.7063 56.4374 49.4663 55.142 49.4663 53.5227C49.4663 51.3852 51.3589 49.6364 54.4915 49.6364C55.4704 49.6364 56.3841 49.8307 57.1672 50.0898C57.6893 50.2841 57.9504 50.8023 57.7546 51.2557C57.5588 51.7738 56.9715 52.292 56.3841 52.1625C55.6662 52.0329 55.0136 51.7738 54.2957 51.7738C52.7294 51.7738 52.0115 52.2272 52.0115 53.2636C52.0115 54.3647 52.8599 54.8181 54.7525 55.5306C57.2978 56.3726 58.5377 57.5385 58.5377 59.5464C58.5377 61.8782 56.5799 63.4975 53.121 63.4975C52.0768 63.4975 51.0326 63.3679 50.1189 63.0441C49.9231 62.9793 49.6621 62.8498 49.5316 62.7202C49.2705 62.3964 49.2052 62.0725 49.3358 61.7487Z" fill="white"/>
<path d="M54.0346 51.2552H53.7736C53.121 51.2552 52.5989 50.8018 52.5989 50.154V48.9234C52.5989 48.3404 53.121 47.8223 53.7083 47.8223H53.9694C54.5567 47.8223 55.0788 48.3404 55.0788 48.9234V50.154C55.1441 50.8018 54.622 51.2552 54.0346 51.2552Z" fill="white"/>
<path d="M54.0346 65.4401H53.7736C53.1862 65.4401 52.6641 64.9219 52.6641 64.339V63.1083C52.6641 62.5254 53.1862 62.0072 53.7736 62.0072H54.0346C54.622 62.0072 55.1441 62.5254 55.1441 63.1083V64.339C55.1441 64.9219 54.622 65.4401 54.0346 65.4401Z" fill="white"/>
</svg>
