<svg width="64" height="71" viewBox="0 0 64 71" fill="none" xmlns="http://www.w3.org/2000/svg">
<path d="M58.5383 16.4859L36.1741 4.22633C33.8738 2.9493 31.1262 2.9493 28.8259 4.22633L6.46166 16.4859C4.03355 17.8268 2.5 20.3809 2.5 23.1904V47.1987C2.5 50.0082 4.03355 52.5623 6.46166 53.9031L14.155 58.1206C14.3377 58.3415 14.5907 58.5088 14.8962 58.5643C14.9134 58.5643 14.9409 58.5643 14.9645 58.5643L28.8259 66.1627C29.976 66.8012 31.254 67.1205 32.5319 67.1205C33.8099 67.1205 35.0879 66.8012 36.1741 66.1627L58.5383 53.9031C60.9664 52.5623 62.5 50.0082 62.5 47.1987V23.1904C62.5 20.3809 60.9664 17.8268 58.5383 16.4859ZM5.05591 47.1987V33.0714C5.22971 33.1602 5.42332 33.2151 5.63099 33.2151H11.2361C11.0412 34.0746 10.9345 34.9525 10.9345 35.833C10.9345 39.7995 12.9077 43.3076 15.9179 45.4511C12.6476 46.3661 10.3058 49.2247 9.73323 52.796L7.67572 51.6683C6.07827 50.7744 5.05591 49.0504 5.05591 47.1987ZM32.7875 25.0421C33.2802 26.088 32.9332 28.0291 31.7652 30.5678C31.7064 30.5959 31.6482 30.6246 31.5971 30.661H13.8201C12.6898 28.3017 12.3032 26.5151 12.7875 25.4252C13.2987 24.1481 15.0879 23.6373 16.6853 23.2542C17.0687 23.1904 17.3882 23.0627 17.7077 22.9988C19.8802 22.2964 21.7971 21.4664 22.7556 21.0194C23.7141 21.4664 25.7588 22.3603 27.9313 22.9988C28.3786 23.1265 28.8259 23.1904 29.2732 23.3181C30.7428 23.6373 32.2764 23.9566 32.7875 25.0421ZM31.9569 35.833C31.9569 40.9412 27.8035 45.0916 22.6917 45.0916C17.5799 45.0916 13.4265 40.9412 13.4265 35.833C13.4265 34.9276 13.5613 34.056 13.8182 33.2151H31.5645C31.822 34.056 31.9569 34.9276 31.9569 35.833ZM33.8054 54.2754C33.8067 54.9292 33.7332 55.6137 33.5543 56.3295C33.2233 57.5708 32.9128 58.595 32.2527 59.494L30.185 48.2618C31.7856 49.0197 33.1243 50.5535 33.6137 52.5833C33.6706 53.1542 33.7345 53.718 33.8054 54.2754ZM12.1601 54.1266C12.2866 51.2086 13.8227 49.2598 15.5984 48.3742L14.2361 55.2645L12.1601 54.1266ZM24.3575 47.5218C23.8054 48.0933 23.3288 48.6979 22.9473 49.242C22.5626 48.7177 22.0942 48.1373 21.5588 47.585C21.9524 47.6246 22.3518 47.6456 22.7556 47.6456C23.3 47.6456 23.8323 47.5946 24.3575 47.5218ZM16.6214 56.5722L18.2636 48.2682C19.8214 49.1315 21.3377 51.3554 21.861 52.3068C22.1166 52.69 22.5639 52.9454 23.0112 52.9454C23.5224 52.9454 23.9696 52.6899 24.1613 52.243C24.6335 51.2999 26.0815 49.1066 27.6048 48.228L30.5371 64.1578C30.369 64.0888 30.2022 64.0154 30.0399 63.9279L16.6214 56.5722ZM33.1748 64.5038L32.8086 62.5161C33.753 61.7474 34.4022 60.9269 34.8687 60.0719C35.1831 61.3144 35.5396 62.4325 35.9294 63.396L34.9601 63.9279C34.3978 64.2325 33.792 64.4227 33.1748 64.5038ZM59.9441 47.1987C59.9441 48.576 59.4125 49.8811 58.4572 50.828C57.8348 45.9887 57.8738 40.9591 58.6661 38.1317C58.7939 37.6847 58.73 37.3016 58.4744 36.9824C58.2188 36.6631 57.8355 36.4716 57.4521 36.4716L37.2604 36.7908C36.5575 36.7908 35.9824 37.3655 35.9824 38.0679C35.9824 38.7702 36.5575 39.3449 37.2604 39.3449L55.9185 39.0895C55.3115 42.5484 55.3978 47.5639 56.1211 52.3279L38.1767 62.1643C37.3185 59.9142 36.6553 56.7082 36.2636 53.2008C36.2482 53.0552 36.2399 52.9077 36.2182 52.7653C35.9013 49.7362 35.7837 46.5091 35.9185 43.4953C35.9824 42.7929 35.4073 42.2182 34.7045 42.1544C34.0016 42.1544 33.4265 42.6652 33.3626 43.3676C33.2974 44.6606 33.2821 45.9874 33.3051 47.3194C32.2802 46.4018 31.0687 45.7416 29.7843 45.4108C29.7326 45.3974 29.6827 45.3936 29.631 45.3821C32.5684 43.2328 34.4872 39.758 34.4489 35.833C34.4489 34.9251 34.3441 34.0573 34.153 33.2151H39.2412C39.9441 33.2151 40.5192 32.6404 40.5192 31.9381C40.5192 31.2357 39.9441 30.661 39.2412 30.661H34.5537C35.077 29.3489 35.3901 28.1849 35.5121 27.1492H46.1422C46.8451 27.1492 47.4201 26.5107 47.4201 25.8721V23.8289C47.4201 23.1265 46.8451 22.5518 46.1422 22.5518C45.4393 22.5518 44.8642 23.1265 44.8642 23.8289V24.5951H35.3556C35.2834 24.3499 35.1958 24.1149 35.0879 23.8927C34.5863 22.8896 33.8105 22.23 32.9454 21.7703C33.0029 21.6956 33.061 21.6215 33.107 21.5302L35.5351 16.1666L39.7383 13.2371L44.0335 16.2305L46.4617 21.5302C46.6534 22.041 47.1006 22.2964 47.6118 22.2964C47.8035 22.2964 47.9952 22.2964 48.1869 22.2326C48.8259 21.9133 49.1454 21.1471 48.8259 20.5086L46.27 14.8258C46.1422 14.6342 46.0144 14.4426 45.8227 14.3149L40.647 10.7392C40.4329 10.5732 40.1927 10.496 39.9524 10.4928C39.6067 10.4161 39.2284 10.4711 38.9217 10.6754L33.746 14.2511C33.5543 14.3788 33.4265 14.5703 33.2987 14.7619L30.7428 20.4447C30.6629 20.6044 30.6233 20.7716 30.6182 20.9383C30.3543 20.8744 30.0955 20.817 29.8482 20.764C29.401 20.6363 29.0176 20.5724 28.6981 20.4447C25.9505 19.6147 23.3307 18.3376 23.3307 18.3376C22.9473 18.1461 22.5639 18.1461 22.1805 18.3376C22.1166 18.3376 19.6885 19.5508 16.9409 20.3809C16.6853 20.4447 16.3658 20.5724 16.0463 20.6363C14.1294 21.1471 11.5096 21.7856 10.4233 24.212C9.71406 25.9015 9.94473 28.015 11.0981 30.661H5.63099C5.42332 30.661 5.22971 30.7159 5.05591 30.8047V23.1904C5.05591 21.3387 6.01438 19.6147 7.67572 18.7207L30.0399 6.46115C30.8706 6.01419 31.7013 5.82263 32.5319 5.82263C33.3626 5.82263 34.1933 6.01419 34.9601 6.46115L57.2604 18.7207C58.9217 19.6147 59.9441 21.3387 59.9441 23.1904V47.1987Z" fill="black"/>
<path d="M39.8163 43.623H52.1486C52.8514 43.623 53.4904 43.0483 53.4904 42.3459C53.4904 41.6436 52.9153 41.0689 52.2125 41.0689H39.8163C39.1134 41.0689 38.5383 41.6436 38.5383 42.3459C38.5383 43.0483 39.1134 43.623 39.8163 43.623Z" fill="black"/>
<path d="M52.4042 47.4541H47.5479C46.845 47.4541 46.27 48.0288 46.27 48.7311C46.27 49.4335 46.845 50.0082 47.5479 50.0082H52.4042C53.107 50.0082 53.6821 49.4335 53.6821 48.7311C53.6821 48.0288 53.107 47.4541 52.4042 47.4541Z" fill="black"/>
<path d="M52.7236 50.6467H47.8674C47.1645 50.6467 46.5895 51.2214 46.5895 51.9237C46.5895 52.6261 47.1645 53.2008 47.8674 53.2008H52.7236C53.4265 53.2008 54.0016 52.6261 54.0016 51.9237C54.0016 51.2214 53.4265 50.6467 52.7236 50.6467Z" fill="black"/>
<path d="M39.8163 46.8156H52.1486C52.8514 46.8156 53.4904 46.2409 53.4904 45.5385C53.4904 44.8362 52.9153 44.2615 52.2125 44.2615H39.8163C39.1134 44.2615 38.5383 44.8362 38.5383 45.5385C38.5383 46.2409 39.1134 46.8156 39.8163 46.8156Z" fill="black"/>
<path d="M39.369 57.5427C39.5607 57.5427 39.7524 57.4788 39.9441 57.415L41.2291 56.7733L42.1166 57.7343C42.3722 58.0535 42.6917 58.1812 43.0751 58.1812C43.2668 58.1812 43.3946 58.1812 43.5224 58.1812C43.9696 57.9897 44.353 57.5427 44.353 57.0319L44.516 53.7748C45.199 53.2595 45.7141 52.5016 45.8866 51.6045C46.2061 49.7528 44.9281 47.9011 43.0751 47.5818C42.1166 47.4541 41.222 47.6457 40.4553 48.1565C39.7524 48.6673 39.2412 49.4974 39.0495 50.3913C38.9064 51.2207 39.0859 52.0489 39.4917 52.7404L38.1549 55.8187C37.9633 56.2657 38.0911 56.8403 38.4744 57.2234C38.73 57.415 39.0495 57.5427 39.369 57.5427ZM41.9888 50.2636C42.1166 50.1359 42.3083 50.072 42.5 50.072C42.5 50.072 42.5639 50.072 42.6917 50.1359C43.139 50.2636 43.4585 50.7105 43.3946 51.2214C43.2668 51.6683 42.8195 51.9876 42.3083 51.9237C41.861 51.796 41.5415 51.3491 41.6054 50.8382C41.6693 50.5828 41.7971 50.3913 41.9888 50.2636Z" fill="black"/>
<path d="M18.6661 36.4077C19.3013 36.4077 19.8163 35.8931 19.8163 35.2584C19.8163 34.6237 19.3013 34.109 18.6661 34.109C18.031 34.109 17.516 34.6237 17.516 35.2584C17.516 35.8931 18.031 36.4077 18.6661 36.4077Z" fill="black"/>
<path d="M26.7811 36.4077C27.4163 36.4077 27.9313 35.8931 27.9313 35.2584C27.9313 34.6237 27.4163 34.109 26.7811 34.109C26.146 34.109 25.631 34.6237 25.631 35.2584C25.631 35.8931 26.146 36.4077 26.7811 36.4077Z" fill="black"/>
<path d="M19.0495 41.0689C19.0495 41.1328 19.2412 43.4953 22.7556 43.4953C25.5032 43.4953 26.4617 42.0267 26.6534 41.1966C26.7173 40.4942 26.2061 39.8557 25.5032 39.7919C24.8642 39.728 24.2252 40.1111 24.0974 40.7496C23.9696 40.8135 23.6502 41.005 22.8195 41.005C22.0527 41.005 21.7332 40.8135 21.6054 40.7496C21.4776 40.1111 20.9026 39.6642 20.2636 39.728C19.5607 39.728 18.9856 40.3665 19.0495 41.0689Z" fill="black"/>
<path d="M25.1198 23.1904L22.7556 24.1481L20.3914 23.1904C19.7524 22.935 18.9856 23.2542 18.73 23.8927C18.4744 24.5312 18.7939 25.2975 19.4329 25.5529L22.7556 26.8938L26.0783 25.5529C26.7173 25.2975 27.0367 24.5312 26.7811 23.8927C26.5256 23.2542 25.7588 22.935 25.1198 23.1904Z" fill="black"/>
<path d="M25.1198 26.5745L22.7556 27.5323L20.3914 26.5745C19.7524 26.3191 18.9856 26.6384 18.73 27.2769C18.4744 27.9154 18.7939 28.6816 19.4329 28.937L22.7556 30.2779L26.0783 28.937C26.7173 28.6816 27.0367 27.9154 26.7811 27.2769C26.5256 26.6384 25.7588 26.3191 25.1198 26.5745Z" fill="black"/>
</svg>
