<svg width="60" height="33" viewBox="0 0 60 33" fill="none" xmlns="http://www.w3.org/2000/svg">
<path d="M30.064 64.2964C28.7846 64.2964 27.5693 63.9766 26.4179 63.4009L4.34968 51.3113C1.66311 49.7762 0 46.8977 0 43.8273V20.7996C0 17.7293 1.66311 14.8508 4.34968 13.3796L16.6311 6.5992C17.2708 6.27937 18.0384 6.47127 18.3582 7.11092C18.678 7.75058 18.4861 8.51817 17.8465 8.838L5.629 15.6184C3.71002 16.6418 2.55864 18.6248 2.55864 20.7996V43.8273C2.55864 46.0022 3.71002 47.9851 5.629 49.0725L27.6333 61.0981C29.1684 61.9297 31.0235 61.9297 32.5586 61.0981L36.5245 58.9233C37.1642 58.6035 37.9318 58.7954 38.2516 59.435C38.5714 60.0747 38.3795 60.8423 37.7399 61.1621L33.774 63.3369C32.6226 63.9766 31.3433 64.2964 30.064 64.2964Z" fill="black"/>
<path d="M14.9036 16.5775C14.7756 16.5775 14.6477 16.5775 14.5198 16.5135C13.8162 16.3216 13.4963 15.5541 13.6882 14.9144L15.6712 8.58177L9.46648 6.59883C8.76286 6.40693 8.44303 5.63934 8.63492 4.99968C8.82682 4.29606 9.59441 3.97623 10.2341 4.16813L17.6541 6.53486C18.2938 6.72676 18.6776 7.49435 18.4857 8.13401L16.1189 15.682C15.927 16.2577 15.4793 16.5775 14.9036 16.5775Z" fill="black"/>
<path d="M42.7929 58.2205C42.3451 58.2205 41.8974 57.9647 41.6415 57.5809C41.3217 56.9412 41.5136 56.1736 42.1532 55.8538L54.4347 49.0734C56.2897 48.05 57.505 46.0031 57.505 43.8922V20.8005C57.505 18.6257 56.3537 16.6427 54.4347 15.5553L32.4304 3.59368C30.8952 2.76212 29.0402 2.76212 27.5051 3.59368L23.5392 5.76852C22.8995 6.08835 22.1319 5.89645 21.8121 5.25679C21.4923 4.61713 21.6842 3.84954 22.3238 3.52971L26.2897 1.35487C28.5925 0.139521 31.343 0.139521 33.6458 1.35487L55.65 13.3805C58.3366 14.8517 59.9997 17.7301 59.9997 20.8645V43.8922C59.9997 47.0265 58.3366 49.905 55.65 51.3762L43.4326 58.0926C43.2407 58.1566 42.9848 58.2205 42.7929 58.2205Z" fill="black"/>
<path d="M30.0647 50.864C21.941 50.864 15.3525 43.8917 15.3525 35.3203C15.3525 28.8597 23.1564 19.6487 27.7619 14.7233C29.0412 13.444 31.0881 13.444 32.3675 14.7233C38.0604 20.8 44.7768 29.3075 44.7768 35.3203C44.7768 43.8917 38.1884 50.864 30.0647 50.864ZM30.1287 16.3224C29.9368 16.3224 29.8088 16.3864 29.6169 16.5143C22.3248 24.2542 17.9112 31.2904 17.9112 35.3203C17.9112 42.4845 23.3483 48.3054 30.0647 48.3054C36.7811 48.3054 42.2182 42.4845 42.2182 35.3203C42.2182 31.3544 37.9325 24.4461 30.5125 16.5143C30.4485 16.3864 30.2566 16.3224 30.1287 16.3224Z" fill="black"/>
<path d="M28.4655 45.1071C24.4357 45.1071 21.1095 41.0772 21.1095 36.1519C21.1095 35.4482 21.6852 34.8725 22.3888 34.8725C23.0924 34.8725 23.6681 35.4482 23.6681 36.1519C23.6681 39.606 25.8429 42.5484 28.4655 42.5484C28.9773 42.5484 29.2971 42.4845 29.6169 42.3565C30.2566 42.1007 31.0242 42.4205 31.28 43.1241C31.5359 43.7638 31.2161 44.5314 30.5125 44.7872C29.8728 44.9791 29.2331 45.1071 28.4655 45.1071Z" fill="black"/>
</svg>
